<?xml version="1.0" encoding="utf-8"?>
<!-- Generator: Adobe Illustrator 27.3.1, SVG Export Plug-In . SVG Version: 6.00 Build 0)  -->
<svg version="1.1" id="Layer_1" xmlns="http://www.w3.org/2000/svg" xmlns:xlink="http://www.w3.org/1999/xlink" x="0px" y="0px"
	 viewBox="0 0 100 100" style="enable-background:new 0 0 100 100;" xml:space="preserve">
<style type="text/css">
	.st0{fill:#496179;}
</style>
<g id="Group_179">
	<path id="Path_421" class="st0" d="M82.3,13.1v4h4c0,0.1,0,0.2,0,0.2h-3.9v3.9h3.9c0,0.1,0,0.2,0,0.3h-3.9v3.9h3.9
		c0,0.1,0,0.2,0,0.3h-4v3.9h3.9c0,0.1,0,0.2,0,0.3c-1.3,0.1-2.6,0-3.9,0.1v3.8h3.9c0,0.1,0,0.2,0,0.2h-3.9v3.9h3.9
		c0,0.1,0,0.2,0,0.2h-3.9V42h3.9c0,0.1,0,0.2,0,0.2h-3.9v3.9h3.9c0,0.1,0,0.2,0,0.3h-3.9v3.9h3.9c0,0.1,0,0.2,0,0.3h-4v3.9h3.9
		c0,0.1,0,0.2,0,0.3h-3.9v3.9h3.9v0.2h-3.9v3.9h3.9c0,0.1,0,0.2,0,0.2h-3.9V67h3.9c0,0.1,0,0.2,0,0.3h-3.9v3.9h4c0,0.1,0,0.2,0,0.2
		h-3.9v3.9h3.9c0,0.1,0,0.2,0,0.3c-1.3,0.1-2.6,0-4,0.1v3.9h-0.2v-3.9h-3.9v3.9h-0.2v-3.9h-3.8v3.6l-0.2,0c0-0.2-0.1-0.5-0.1-0.7
		c-0.1-2.1-0.1-4.1-0.2-6.2c0-1.5,0-3,0-4.5c0-0.3-0.1-0.5-0.2-0.7c0.1-0.3,0.2-0.5,0.2-0.8c0-1,0-2.1,0-3.1L72.2,63
		c0-0.1,0-0.1,0-0.2h1.4v-3.9h-3.4l0-0.2h3.4v-3.8h-3.7v3l-0.3,0v-3l-1.5-0.2c0-0.1,0-0.1,0-0.2l1.3-0.1v-3.8c-0.6,0-1.2,0-1.8,0
		c-0.5,0-1.1,0-1.6-0.1l0-0.3h3.4v-3.8h-3.7v2.8l-0.3,0c-0.1-0.9-0.1-1.8-0.2-2.7l-0.7-0.2l0-0.1l0.7-0.2v-3.7l-2-0.1
		c0-0.1,0-0.2,0-0.3c0.5,0,1,0,1.5,0c0.2,0,0.5-0.3,0.5-0.4c0-1.1,0-2.2,0-3.4h-3.3c0-0.1,0-0.2,0-0.2h3.3V34h-3.5
		c0-0.1,0-0.1,0-0.2h3.5c0-1.2,0-2.3,0-3.5c-0.1-0.2-0.2-0.3-0.4-0.4c-1.1,0-2.2,0-3.4,0V32l-0.2,0c-0.1-0.7-0.1-1.4-0.2-2.1l-1-0.2
		l0-0.2l1-0.1v-3.7h-3.8v1.8l-0.2,0c0-0.2-0.1-0.3-0.1-0.5c-0.1-0.5-0.2-1-0.2-1.6c0-0.2,0.2-0.3,0.2-0.5c0-1.1,0-2.3,0-3.5
		l-2.3-0.1c0-0.1,0-0.2,0-0.3h2.2v-3.8h-3.8v2.3l-0.2,0v-2.4h-3.9c0,0.3-0.1,0.6-0.1,0.9l-0.2,0c-0.1-0.3-0.1-0.6-0.2-0.9H45
		c0,0.5-0.1,1-0.1,1.5h-0.2c0-0.5-0.1-1-0.1-1.5h-3.7v3.7l0.7,0.2c0,0,0,0.1,0,0.1l-0.7,0.2c-0.1,0.4-0.1,0.7-0.2,1l-0.2,0
		c0-0.3-0.1-0.7-0.1-1h-3.8v3.8h2.9l0,0.3h-2.9v3.9h3.2c0,0.1,0,0.2,0,0.3h-3.2v3.9h3.2c0,0.1,0,0.2,0,0.2h-3.2v3.9h3.1
		c0,0.1,0,0.1,0,0.2h-3.1v4h3.2l0,0.2h-3.2v3.9h2.1c0,0.1,0,0.2,0,0.3h-2.1c0,1.2,0,2.2,0,3.3c0,0.9-0.1,0.9-1,0.9h-3.1v3.8h2
		c-0.7,0.7-1.8-0.2-2.1,0.7c-0.4-0.1-0.8-0.2-1.2-0.3c-0.8,0-1.6,0-2.4,0c-0.4,0-0.6,0.1-0.5,0.5c0,0.6,0,1.3,0,1.9
		c0,0.2-0.1,0.4-0.1,0.7l-0.2,0v-3.1h-3.8v3.8h2.9c0,0.1,0,0.2,0,0.2h-3v2.6h-0.3V59h-4c0-0.1,0-0.2,0-0.2h3.9v-3.9h-3.9
		c0-0.1,0-0.2,0-0.2h3.9v-3.9h-3.9c0-0.1,0-0.2,0-0.3h3.9v-3.9h-3.9c0-0.1,0-0.2,0-0.3h3.9v-3.9h-3.9v-0.3h3.9v-3.9h-3.9l0-0.2h3.9
		V34h-3.9v-0.2h3.9v-3.9h-3.9c0-0.1,0-0.2,0-0.3h3.9v-3.9h-3.9c0-0.1,0-0.2,0-0.3h3.9v-3.9h-3.9l0-0.3h3.9v-3.9h-3.9l0-0.2h3.9v-4.1
		h0.4V17H28v-3.9h0.4V17h3.7v-3.9h0.3V17h3.9v-3.9h0.3v4c1.1,0,2.2,0,3.2,0c0.5,0,0.6-0.2,0.6-0.6c0-1.1,0-2.3,0-3.4h0.3v4h3.7v-4
		H45v4h3.7v-4h0.4V17h3.7v-3.9h0.3V17h3.9v-3.9h0.3V17h3.9v-3.9h0.3v4c1.1,0,2.2,0,3.2,0c0.5,0,0.6-0.2,0.6-0.6c0-1.1,0-2.3,0-3.4
		h0.3v4h3.7v-4h0.4v4h3.7v-4h0.4V17h3.7v-3.9h0.3V17H82v-3.9H82.3z M32.5,37.8h3.8v-3.8h-3.8V37.8z M32.5,42h3.8v-3.7h-3.8L32.5,42z
		 M82,54.9h-3.7v3.7H82V54.9z M82,63.1h-3.7v3.8H82L82,63.1z M82,38.2h-3.7V42H82L82,38.2z M78.3,37.8H82V34h-3.7L78.3,37.8z
		 M78.2,62.8H82V59h-3.7V62.8z M36.3,42.4h-3.8v3.7h3.8V42.4z M82,42.4h-3.7v3.8H82L82,42.4z M57.4,25.3h3.8v-3.7h-3.8V25.3z
		 M36.3,21.6h-3.7v3.7h3.7V21.6z M78.3,25.3H82v-3.7h-3.7L78.3,25.3z M74.1,66.9h3.7v-3.8h-3.7L74.1,66.9z M32.5,29.5h3.8v-3.7h-3.8
		V29.5z M61.6,29.5h3.7v-3.7h-3.7L61.6,29.5z M74.1,62.8h3.7V59h-3.7V62.8z M78.2,21.2H82v-3.7h-3.7V21.2z M78.3,29.5H82v-3.7h-3.7
		L78.3,29.5z M82,67.3h-3.8V71H82L82,67.3z M74.1,58.6h3.7v-3.7h-3.7V58.6z M36.3,30h-3.8v3.7h3.8L36.3,30z M78.2,54.4H82v-3.7h-3.8
		V54.4z M82,46.6h-3.7v3.7H82V46.6z M32.5,50.3h3.8v-3.7h-3.8V50.3z M78.2,33.7H82v-3.7h-3.8V33.7z M24.3,37.8h3.7v-3.8h-3.7
		L24.3,37.8z M28.4,37.8h3.7v-3.8h-3.7L28.4,37.8z M82,71.5h-3.7v3.7H82L82,71.5z M65.8,37.8h3.7v-3.8h-3.7V37.8z M70,37.8h3.7v-3.8
		H70V37.8z M74.1,37.8h3.7v-3.8h-3.7L74.1,37.8z M65.4,17.5h-3.7v3.7h3.7L65.4,17.5z M24.3,42h3.7v-3.8h-3.7V42z M28.4,42h3.7v-3.7
		h-3.7V42z M61.2,21.2v-3.8h-3.8c0,1.2,0,2.3,0,3.4c0.1,0.2,0.2,0.3,0.4,0.4C58.9,21.2,60,21.2,61.2,21.2 M69.5,38.2h-3.7V42h3.7
		L69.5,38.2z M69.9,42h3.7v-3.7h-3.7V42z M74.1,42h3.7v-3.8h-3.7V42z M36.7,21.2h3.7v-3.7h-3.7V21.2z M36.3,17.5h-3.8v3.7h3.8
		L36.3,17.5z M65.4,21.6h-3.8v3.7h3.8L65.4,21.6z M27.9,17.5h-3.7v3.7h3.7V17.5z M74.1,75.2h3.7v-3.7h-3.7V75.2z M69.5,42.4h-3.7
		v3.7h3.7V42.4z M73.6,42.4h-3.7v3.7h3.7V42.4z M77.8,42.4h-3.7v3.7h3.7L77.8,42.4z M27.9,42.4h-3.7v3.7h3.7V42.4z M24.2,50.3h3.7
		v-3.7h-3.7V50.3z M28.4,50.3h3.7v-3.7h-3.7V50.3z M74.1,33.7h3.7v-3.7h-3.7V33.7z M69.9,50.2h3.7v-3.7h-3.7V50.2z M77.8,46.6h-3.7
		v3.7h3.7V46.6z M69.9,33.7h3.7v-3.7h-3.7V33.7z M27.9,50.7h-3.7v3.7h3.7V50.7z M32.1,50.7h-3.7v3.7h3.7L32.1,50.7z M73.7,50.7h-3.7
		v3.7h3.7V50.7z M74.1,54.4h3.7v-3.7h-3.7L74.1,54.4z M65.8,33.7h3.7v-3.7h-3.7V33.7z M32.1,29.9h-3.7v3.7h3.7V29.9z M24.2,33.7h3.7
		v-3.7h-3.7V33.7z M77.8,25.8h-3.7v3.7h3.7V25.8z M32.1,17.5h-3.7v3.7h3.7V17.5z M73.7,25.8h-3.7v3.7h3.7L73.7,25.8z M65.8,29.5h3.7
		v-3.7h-3.7V29.5z M32.1,25.8h-3.7v3.7h3.7L32.1,25.8z M65.8,21.2h3.7v-3.7h-3.7L65.8,21.2z M24.2,29.5h3.7v-3.7h-3.7V29.5z
		 M77.8,21.6h-3.7v3.7h3.7V21.6z M73.6,21.6h-3.7v3.7h3.7L73.6,21.6z M69.5,21.6h-3.7v3.7h3.7V21.6z M28.4,25.3h3.7v-3.7h-3.7V25.3z
		 M24.2,25.3h3.7v-3.7h-3.7V25.3z M74.1,71h3.7v-3.7h-3.7V71z M77.8,17.5h-3.7v3.7h3.7V17.5z M69.9,21.2h3.7v-3.7h-3.7V21.2z
		 M28.4,46.1h3.7v-3.7h-3.7V46.1z"/>
	<path id="Path_422" class="st0" d="M60.4,38.9c0.4,1.3,0.8,2.4,1.1,3.6c0.7,2.4,1.4,4.8,2.3,7.2c0.5,1.3,1.1,2.6,1.8,3.9
		c1.8,3.6,3.6,7.2,5.3,10.8c0.3,0.6,0.5,1.3,0.6,2c0.3,5.6,0.6,11.1,0.8,16.7c0,2.1-1.6,3.8-3.7,3.9c-1.2,0-2.3-0.5-3-1.4
		c-0.5-0.6-0.8-1.4-0.9-2.1c-0.3-4.9-0.5-9.8-0.8-14.7c0-0.8-0.2-1.5-0.6-2.3c-1.6-3.4-3.3-6.8-5-10.1c-0.3-0.6-0.6-0.8-1.3-0.6
		c-1.1,0.3-1.5,0.8-1.6,1.9c-0.6,4.5-1.3,9-2,13.5c-0.1,0.9-0.5,1.7-1.2,2.3c-4.2,4.1-8.3,8.1-12.5,12.2c-1.5,1.5-3.9,1.6-5.4,0.1
		c-1.5-1.5-1.6-3.9-0.1-5.4c0.1-0.1,0.1-0.1,0.2-0.2c3.5-3.5,7.1-7,10.7-10.4c0.6-0.6,1-1.4,1.1-2.2c0.5-4,1.2-7.9,1.7-11.9
		c0-0.8-0.2-1.6-0.5-2.3c-0.2-0.4,0-0.9,0.3-1.1c3.2-2.5,6.4-5.1,9.6-7.6c1.1-0.7,1.8-1.8,2.2-3.1C59.8,40.6,60.1,39.8,60.4,38.9"/>
	<path id="Path_423" class="st0" d="M54.8,36.4c-0.2,0.3-0.4,0.6-0.6,0.9c-0.1,0.2-0.1,0.4-0.1,0.6c-0.2,1.1-0.8,2-1.6,2.6
		c-4.7,3.6-9.3,7.3-14,11c-0.2,0.2-0.4,0.3-0.8,0.6c0.2-0.4,0.3-0.6,0.4-0.8c0.9-1.7,1.8-3.4,2.9-5.1c0.7-1.1,1-2.3,0.8-3.6
		c-0.2-2.3-0.2-4.6-0.3-6.9c-0.1-1,0.4-2,1.4-2.5c0.3-0.1,0.6-0.1,0.8,0c4.4,2.9,9.7,1.4,11.6-3.5c0.2-0.5,0.5-0.5,0.9-0.4
		c2,0.5,3.5,2.3,3.8,4.3c0.5,3.1-0.4,6-1.5,8.9c-0.2,0.4-0.6,0.8-1,1.1c-5.6,4.5-11.2,8.9-16.8,13.3c-0.5,0.4-1,0.7-1.6,0.8
		c-1.1,0.2-2.2-0.4-2.6-1.4c-0.4-1-0.2-2.2,0.7-2.9c1.4-1.1,2.7-2.2,4.1-3.3c4.2-3.3,8.4-6.6,12.5-9.9c0.3-0.2,0.5-0.5,0.6-0.8
		c0.3-0.9,0.5-1.9,0.8-2.8L54.8,36.4"/>
	<path id="Path_424" class="st0" d="M55.1,27.1c0,3.8-3,6.9-6.8,6.9c0,0,0,0-0.1,0c-3.8,0-6.9-3.1-6.9-6.9s3.1-6.9,6.9-6.9
		C52,20.2,55.1,23.3,55.1,27.1C55.1,27.1,55.1,27.1,55.1,27.1"/>
	<path id="Path_425" class="st0" d="M31.7,57.4l3.5,4.2c-1.6,1.4-3.2,2.7-4.9,4.1c-4.2,3.5-8.4,7.1-12.6,10.6
		c-0.4,0.4-1,0.5-1.4,0.1c-1.1-0.7-2-1.8-2.5-3c-0.3-0.4-0.1-1,0.3-1.3c5.8-4.9,11.6-9.7,17.4-14.6C31.5,57.5,31.6,57.5,31.7,57.4"
		/>
	<path id="Path_426" class="st0" d="M40.8,62.8h3.8V59h-3.3l0-0.2c1.1-0.3,2.2,0,3.3-0.2c0.2-0.9-0.1-1.8,0.1-2.6l0.2,0v2.6l0.7,0.1
		c0,0,0,0.1,0,0.1l-0.8,0.3v6.1h-0.3v-2.1h-3.8V67h3.5l0,0.3c-1.2,0.1-2.3,0-3.6,0.1c0,1.2,0,2.4,0,3.6c0,0.5-0.1,0.6-0.6,0.6
		c-1.2,0-2.4,0-3.6,0c0,1.1,0,2.3,0,3.4c0,0.6-0.2,0.8-0.8,0.8c-0.7,0-1.5,0-2.2,0l0-0.3h2.7v-3.9c-1,0-2,0-3,0
		c-0.9,0-1.1-0.3-1.1-1.1c0-1,0-2,0-3l-0.8-0.1l0.9-0.7c0.3,0.2,0.6,0.3,0.9,0.4c1,0,2.1,0,3.2,0v-3.5h0.2V67c1.2,0,2.4,0,3.5,0
		c0.1,0,0.3-0.2,0.3-0.4c0-1.1,0-2.2,0-3.5h-3.8c0-0.1,0-0.2,0-0.2h3.9v-3.7h0.2L40.8,62.8z M32.5,71h3.8v-3.7h-3.8V71z M40.4,67.3
		h-3.7V71h3.7L40.4,67.3z"/>
	<path id="Path_427" class="st0" d="M57.4,62.8c0.8,0.1,1.5,0.1,2.1,0.1c0,0,0,0.1,0.1,0.2h-2.2v3.7c1.1,0.3,3.6,0.2,4-0.4
		c0,0.5,0.1,0.8,0.1,1.2c0,1.1,0,2.3,0,3.4l0.7,0.3l-0.7,0.3v3.6l0.8,0.2c0,0.1,0,0.1,0,0.2l-0.8,0.2v3.9l-0.2,0v-3.9h-3.9v3.9
		l-0.2,0v-3.9h-3.9v3.9l-0.2,0c-0.1-0.1-0.1-0.2-0.1-0.3c0-1.2-0.1-2.5-0.1-3.7c0-0.1,0.3-0.3,0.5-0.3c1.2,0,2.4,0,3.7,0v-3.8h-1.7
		c0-0.1,0-0.2,0-0.3L57,71v-3.7L56,67.2c0-0.1,0-0.1,0-0.2l1.1-0.2v-3.7L56.3,63l0.8-0.3v-4.3h0.2L57.4,62.8z M61.2,67.3h-3.7v3.7
		h3.7L61.2,67.3z M61.2,71.5h-3.8v3.7h3.8V71.5z"/>
	<path id="Path_428" class="st0" d="M27.9,74.2c0-1.1,0.9-2,2-2.1c1.1,0,2.1,0.9,2.1,2c0,1.1-0.9,2.1-2,2.1c0,0,0,0-0.1,0
		C28.8,76.2,27.9,75.3,27.9,74.2"/>
	<path id="Path_429" class="st0" d="M35.6,56.3l1.3,1.8c-0.6,0.6-1.5,1.1-1.4,2.4l-2.5-3L35.6,56.3"/>
	<path id="Path_430" class="st0" d="M21.6,75.4h2.2c0-0.8,0.1-1.4,0.1-2l0.3,0v1.8l2.2,0.1v0.2h-2.2v4h-0.3v-3.9h-2.3
		C21.6,75.5,21.6,75.5,21.6,75.4"/>
	<path id="Path_431" class="st0" d="M28.1,79.6v-2.1C28.4,78.2,28.4,79,28.1,79.6"/>
	<path id="Path_432" class="st0" d="M19.9,62.9h2.3C21.5,63.2,20.6,63.2,19.9,62.9"/>
	<path id="Path_433" class="st0" d="M32.2,79.5v-2.3h0.2v2.3H32.2"/>
</g>
</svg>
