<?xml version="1.0" encoding="utf-8"?>
<!-- Generator: Adobe Illustrator 27.3.1, SVG Export Plug-In . SVG Version: 6.00 Build 0)  -->
<svg version="1.1" id="Layer_1" xmlns="http://www.w3.org/2000/svg" xmlns:xlink="http://www.w3.org/1999/xlink" x="0px" y="0px"
	 viewBox="0 0 100 100" style="enable-background:new 0 0 100 100;" xml:space="preserve">
<style type="text/css">
	.st0{fill:#496179;}
</style>
<g id="Group_181" transform="translate(0 0)">
	<path id="Path_434" class="st0" d="M5.1,35.4c0.6-0.5,1-1.3,1.7-1.5c1.7-0.6,3.2,0.6,3.2,2.6c0,4.2,0,8.5,0,12.7v5.4h1
		c4.2,0,8.3,0,12.5,0c2.7,0,4,1.3,4,4c0,4.5,0,8.9,0,13.4c0,1.8-0.9,2.8-2.4,2.9c-1.3,0.1-2.4-0.9-2.4-2.2c0,0,0,0,0,0
		c-0.1-1.1,0-2.1,0-3.3H10c0,0.8,0,1.7,0,2.5c0,1.7-0.6,2.6-1.8,2.9c-1.3,0.3-2.3-0.2-3.1-1.7V35.4 M8.8,54.3c0-5.8,0-11.7,0-17.5
		c0-0.3,0-0.6,0-0.9c0-0.6-0.6-1.1-1.2-1.1c-1-0.1-1.5,0.5-1.5,1.8c0,11.8,0,23.6,0,35.4c0,0.2,0,0.4,0,0.6c0.1,0.7,0.7,1.2,1.4,1.1
		c0.7,0,1.2-0.6,1.2-1.2c0-0.3,0-0.6,0-1C8.8,65.9,8.8,60.1,8.8,54.3 M10,58.4h12.4c1.2,0,1.2,0,1.2,1.2c0,4.1,0,8.1,0,12.2
		c0,0.2,0,0.4,0,0.5c-0.1,0.7,0.4,1.4,1.2,1.5c0.7,0.1,1.4-0.4,1.5-1.2c0-0.1,0-0.2,0-0.4c0-4.5,0-9,0-13.6c0-2.3-0.8-3-3.1-3
		c-4.1,0-8.2,0-12.4,0H10L10,58.4z M22.5,59.5H10v4.9h12.5V59.5z"/>
	<path id="Path_435" class="st0" d="M64.9,51.1c0,0.5,0,0.9,0.1,1.3c0.3,1.1-0.4,2.2-1.5,2.5C63,55,62.6,55,62.2,54.8
		c-1.8-0.6-3.7-1.2-5.5-1.8c-0.2-0.1-0.4-0.1-0.7-0.2c0.2,2.7-2,2.7-3.6,3.5c0,3-0.1,5.9,0,8.9c0.1,1.5,0.7,2.9,1.7,4
		c0.2,0.2,0.5,0.4,0.9,0.4c1.6-0.1,3,1.2,3.1,2.9c0,0.1,0,0.3,0,0.4c0,2.3,0.3,2-2,2c-4.3,0-8.7,0-13,0c-1.1,0-1.1,0-1.1-1.1
		c0-0.4,0-0.8,0-1.1c-0.1-1.6,1.2-2.9,2.8-3c0,0,0.1,0,0.1,0c0.5,0,1-0.3,1.3-0.7c1-1.4,1.5-3,1.6-4.7c0.1-2.6,0-5.2,0-7.8
		c-1.6-0.8-4-0.8-3.9-3.6c-2.1,0.7-4.1,1.3-6.1,1.9c-1,0.4-2.2,0-2.7-1.1c0-0.1-0.1-0.1-0.1-0.2c-0.1-0.5-0.1-0.9,0-1.4
		c0-0.3,0.1-0.6,0.1-1.1c-1.8,0.6-3.5,1.1-5.2,1.6c-1.1,0.4-2.3-0.1-2.7-1.2c-0.1-0.3-0.2-0.6-0.1-0.9c0.1-1,0.2-2,0.4-3
		c0.3-2.2,0.6-4.5,0.8-6.7c0-1.1,0.6-2,1.7-2.3c2.1-0.6,4.3-1.1,6.4-1.6c0.5-0.1,1.1-0.1,1.6-0.2c0.2,0,0.4-0.2,0.5-0.3
		c-0.1-0.2-0.3-0.4-0.4-0.4c-1.2-0.4-2.1-1.5-2.1-2.7c-0.1-1,0.1-1.2,1.1-1.2c1.3,0,2.5,0,3.8,0c0.6,0,0.8,0.2,0.9,0.8
		c0.1,1.3-0.6,2.6-1.9,3c-0.2,0.1-0.5,0.3-0.7,0.4l0.1,0.2l6.7-0.4c0-0.7,0-1.5,0.2-2.2c0.3-0.8,0.8-1.6,1.5-2.2
		c0.8-0.7,1.2-1.7,1.2-2.7c0-0.8-0.2-1.5-0.2-2.3c0-0.3,0.1-0.6,0.3-0.8l0.2,0l-0.2-1h2.2L50.9,26l0.2,0c0.1,0.3,0.3,0.7,0.2,1
		c-0.5,2-0.5,3.8,1.3,5.2c0.9,0.8,1.4,2,1.3,3.2c0,0.3,0,0.6-0.1,0.9l7.5,0.5l0.1-0.3c-0.2-0.2-0.4-0.3-0.7-0.5
		c-1.3-0.5-2.1-1.8-1.9-3.1c0.1-0.5,0.2-0.7,0.8-0.7c1.4,0,2.8,0,4.2,0c0.3,0.1,0.6,0.3,0.7,0.6c0.3,1.4-0.5,2.8-1.8,3.3
		c-0.4,0.1-0.8,0.2-0.6,0.7c2.2,0.5,4.4,0.9,6.6,1.4c0.3,0.1,0.7,0.2,1,0.3c1.2,0.3,2,1.3,2,2.5c0.2,3.1,0.8,6.3,1.1,9.4
		c0.2,1.9-1.1,2.9-2.9,2.3C68.2,52.1,66.6,51.6,64.9,51.1 M70.7,41.8c-1.3,0.4-2.6,0.8-4,1.1c-4.5,0.9-9.1,1.3-13.7,1.3
		c-5.4,0.2-10.9-0.1-16.3-0.8c-2.6-0.2-5.1-0.9-7.5-1.9c-0.4,3-0.7,5.9-1.1,8.9c-0.1,1,0.5,1.4,1.4,1.1c1.9-0.6,3.7-1.2,5.6-1.8
		c0.8-0.2,1.1,0,1,0.8c-0.1,0.6-0.1,1.2-0.2,1.8c-0.1,1,0.5,1.5,1.5,1.2c2-0.6,4.1-1.3,6.1-1.9c1.2-0.4,1.4-0.3,1.3,1
		c-0.1,0.9,0.4,1.8,1.3,2c2.4,1,5.2,1,7.6-0.1c0.8-0.2,1.3-1,1.2-1.8c-0.1-1.4,0.1-1.5,1.4-1.1c2,0.6,4,1.3,6,1.9
		c1.1,0.4,1.6,0,1.5-1.2c0-0.5-0.1-1-0.2-1.6c-0.1-1.1,0.1-1.3,1.2-1c1.8,0.6,3.6,1.1,5.3,1.7c1.1,0.3,1.6-0.1,1.5-1.2
		C71.4,47.6,71,44.7,70.7,41.8 M53.8,37.3c-0.4,1-0.7,1.9-1.1,2.7c-0.2,0.6-0.8,0.9-1.4,0.9c-0.9,0-1.9,0-2.8,0
		C48,41,47.4,40.6,47.2,40c-0.3-0.9-0.7-1.7-1-2.7L39,37.7c0.1,0.6,0.4,1.1,0.7,1.6c0.4,0.3,0.9,0.6,1.4,0.8
		c-1.1,0.8-3.6,0.7-4.4-0.1c1-0.4,2-0.8,1.7-2.3c-3.1,0.5-6.2,0.6-9,2.5c0.9,0.5,1.8,1,2.7,1.3c4.3,1,8.6,1.6,13,1.6
		c5,0,10.1-0.1,15.1-0.4c2.8-0.3,5.5-0.7,8.3-1.4c0.7-0.2,1.4-0.5,2.1-0.9l0-0.4c-2.6-1.5-5.5-1.7-8.5-2c0.1,0.5,0.3,1,0.6,1.4
		c0.4,0.3,0.9,0.6,1.4,0.8c-1.2,0.8-3.6,0.7-4.4-0.1c1-0.4,2-0.8,1.7-2.3L53.8,37.3 M43,73.8h14c0-0.4,0-0.8,0-1.2
		c0-1.1-0.9-1.9-1.9-1.9c0,0-0.1,0-0.1,0c-3.3,0-6.7,0-10,0c-1.1-0.1-2,0.7-2,1.8c0,0,0,0.1,0,0.1C43,73,43,73.3,43,73.8 M48.8,56.6
		c0,2.1-0.1,4.1,0,6.1c0.2,2.3-0.4,4.7-1.7,6.7c0,0,0,0.1,0,0.1H53c-1.4-2-2-4.5-1.8-6.9c0.1-1.7,0-3.5,0-5.3c0-0.3,0-0.5,0-0.8
		H48.8z"/>
	<path id="Path_436" class="st0" d="M90,54.6c0-4.6,0-9,0-13.5c0-1.6,0-3.3,0-4.9c0-1.3,1.1-2.4,2.4-2.4c1,0,1.9,0.6,2.3,1.6
		c0.1,0.3,0.1,0.7,0.1,1c0,12,0,23.9,0,35.9c0.1,1.3-0.8,2.5-2.1,2.6c-0.1,0-0.2,0-0.3,0c-1.3,0-2.4-1-2.5-2.3c0-0.1,0-0.2,0-0.3
		c0-0.9,0-1.8,0-2.7c0-0.1,0-0.1-0.1-0.2H77.4c0,1.1,0.1,2.2,0,3.3C77.3,74,76.2,75,75,74.9c-0.4,0-0.8-0.1-1.2-0.4
		c-0.5-0.5-0.9-1-1.1-1.7c-0.1-0.4-0.1-0.7-0.1-1.1c0-4.3,0-8.7,0-13c0-2.9,1.3-4.2,4.2-4.2c4.1,0,8.2,0,12.3,0L90,54.6 M91.1,54.3
		c0,5.8,0,11.6,0,17.4c0,0.3,0,0.6,0,1c0.1,0.7,0.7,1.2,1.4,1.2c0.2,0,0.3-0.1,0.5-0.1c0.7-0.3,0.8-1,0.8-1.7c0-11.8,0-23.6,0-35.3
		c0-0.2,0-0.5,0-0.7c-0.1-0.7-0.7-1.2-1.4-1.1c-0.9,0-1.3,0.5-1.3,1.7C91.1,42.5,91.1,48.4,91.1,54.3 M90,58.4v-2.7h-1
		c-4.1,0-8.1,0-12.2,0c-0.4,0-0.8,0-1.1,0.1c-1.1,0.1-2,1.1-2,2.2c0,4.8,0,9.7,0,14.5c0.1,0.5,0.3,0.9,0.7,1.2
		c0.9,0.6,1.9-0.2,1.9-1.4c0-4.2,0-8.5,0-12.7c0-1.1,0.1-1.1,1.1-1.1c2.7,0,5.3,0,8,0L90,58.4 M77.5,64.4H90v-4.8H77.4L77.5,64.4z"
		/>
</g>
</svg>
