<?xml version="1.0" encoding="utf-8"?>
<!-- Generator: Adobe Illustrator 27.3.1, SVG Export Plug-In . SVG Version: 6.00 Build 0)  -->
<svg version="1.1" id="Layer_1" xmlns="http://www.w3.org/2000/svg" xmlns:xlink="http://www.w3.org/1999/xlink" x="0px" y="0px"
	 viewBox="0 0 100 100" style="enable-background:new 0 0 100 100;" xml:space="preserve">
<style type="text/css">
	.st0{fill:#496179;}
</style>
<g id="Group_183" transform="translate(0 0)">
	<path id="Path_437" class="st0" d="M25.9,47.6c-2-0.6-3.3-1.8-3.3-3.9c0-1.8,1.2-3.3,2.9-3.7c-0.9-3.2-0.3-6.1,2.2-8.3
		c2.5-2.2,5.5-2.5,8.6-1.1c0.2-0.4,0.3-0.9,0.4-1.3c1.1-3.3,2.1-6.6,3.2-9.8c0.8-2.9,3.9-4.6,6.8-3.8c0.1,0,0.2,0.1,0.4,0.1
		c7.7,2.5,15.5,5,23.2,7.5c2.9,0.8,4.6,3.9,3.7,6.8c0,0.1-0.1,0.2-0.1,0.4c-2.6,8-5.1,16-7.7,24c-0.1,0.2-0.1,0.5-0.2,0.7
		c1.4,0.1,2.8,0.3,4.2,0.6c7.8,2,12.6,10,10.6,17.8c-2,7.8-10,12.6-17.8,10.6c-5.4-1.4-9.6-5.7-10.7-11.1c-0.1-0.3-0.3-0.6-0.6-0.7
		c-3-1-6-2-9.1-3c-0.1,0-0.2,0-0.3,0c0.2,1.3,0.1,2.5,1.1,3.7c2.2,2.4,3.4,5.5,3.4,8.8c0,1.1-0.4,1.6-1.5,1.6c-8.3,0-16.7,0-25,0
		c-1.1,0-1.5-0.4-1.5-1.6c0.1-3.4,1.4-6.7,3.7-9.2c0.3-0.4,0.5-0.8,0.6-1.3c0.5-4.2,1-8.5,1.6-12.7C25,54.9,25.4,51.3,25.9,47.6
		 M39.7,47.6c0.7,6.1,1.5,12.1,2.2,18.2c0,0.4,0.3,0.7,0.6,0.7c2.2,0.7,4.4,1.4,6.6,2.1c0.9,0.3,1.9,0.6,2.8,0.9
		c0.1-0.9,0.2-1.6,0.3-2.4c1-5.4,5-9.8,10.3-11.4c0.3-0.1,0.6-0.4,0.7-0.7c2.8-8.5,5.5-17,8.3-25.5c0.6-1.5-0.1-3.2-1.6-3.8
		c-0.1-0.1-0.3-0.1-0.4-0.1c-7.7-2.5-15.4-5-23-7.5c-1.5-0.6-3.3,0.1-3.9,1.6c-0.1,0.1-0.1,0.3-0.1,0.4c-1.2,3.8-2.5,7.6-3.7,11.4
		c-0.1,0.4-0.1,0.8,0.2,1.1c1.1,1.3,1.6,3,1.5,4.7c0,0.9-0.2,1.7-0.3,2.6c1.7,0.4,2.9,2,2.8,3.7C42.9,45.8,41.7,47.1,39.7,47.6
		 M21.5,80.7h22.6c0-5.2-5.5-10.2-11.2-10.1C27,70.5,22.1,74.9,21.5,80.7 M66.5,63.5c-3.5,0-6.4,2.9-6.4,6.4s2.9,6.4,6.4,6.4
		c3.5,0,6.4-2.9,6.4-6.4c0,0,0,0,0,0c0-3.5-2.8-6.4-6.3-6.4C66.6,63.5,66.6,63.5,66.5,63.5 M32.8,45c2,0,4,0,6,0
		c1,0,1.6-0.5,1.6-1.3s-0.6-1.3-1.6-1.3c-1.8,0-3.6,0-5.3,0c-2.3,0-4.6,0-6.8,0c-1.1,0-1.7,0.7-1.5,1.6c0.2,0.6,0.8,1,1.5,1
		C28.7,45,30.7,45,32.8,45 M71.4,58.8c-3.1-1.4-6.6-1.4-9.7,0c0.6,0.8,1.2,1.5,1.8,2.2c0.2,0.1,0.4,0.2,0.6,0.1
		c1.6-0.4,3.3-0.4,4.9,0c0.2,0,0.5,0,0.7-0.2C70.3,60.3,70.8,59.6,71.4,58.8 M71.4,81c-0.6-0.8-1.2-1.5-1.8-2.2
		c-0.2-0.2-0.4-0.2-0.7-0.2c-1.6,0.4-3.3,0.4-4.9,0c-0.2,0-0.4,0-0.6,0.2c-0.6,0.7-1.2,1.4-1.8,2.2C64.8,82.3,68.3,82.3,71.4,81
		 M56.6,62.7l-1.9,4c0.6,0,1.3,0,1.9,0c1.1,0.2,1.8-0.2,2-1.4L56.6,62.7 M56.6,77c0.7-0.9,1.3-1.5,1.8-2.3c0.1-0.2,0.1-0.5,0-0.8
		c-0.2-0.4-0.1-0.9-0.8-0.9c-0.9,0-1.8,0-2.9,0L56.6,77 M78.4,66.7l-1.9-4c-0.7,0.9-1.3,1.5-1.8,2.3c-0.1,0.2-0.2,0.5-0.1,0.7
		c0.2,0.4,0.5,0.9,0.8,0.9C76.4,66.7,77.4,66.7,78.4,66.7 M76.5,77l1.9-4c-0.6,0-1.3,0-1.9,0c-1.1-0.1-1.8,0.2-2,1.4L76.5,77"/>
	<path id="Path_438" class="st0" d="M59.5,47c-0.2,0.3-0.4,0.6-0.6,0.9c-3.3,2.5-6.6,5-9.9,7.5c-0.5,0.5-1.3,0.4-1.8-0.1
		c-0.2-0.2-0.3-0.4-0.3-0.6c-1.3-4-2.5-8-3.7-12c-0.2-0.8,0.2-1.2,0.8-1.7l8.5-6.4c0.4-0.3,0.8-0.6,1.2-0.9c0.5-0.4,1.3-0.4,1.8,0.2
		c0.1,0.1,0.2,0.3,0.2,0.5c1.3,4,2.5,8,3.7,12C59.4,46.6,59.4,46.8,59.5,47"/>
	<path id="Path_439" class="st0" d="M65.2,27.8c1.4,0,2.6,1.1,2.6,2.6c0,0,0,0,0,0c0,1.4-1.2,2.5-2.6,2.5c-1.4,0-2.5-1.2-2.5-2.5
		C62.7,28.9,63.8,27.8,65.2,27.8C65.2,27.8,65.2,27.8,65.2,27.8"/>
</g>
</svg>
