<?xml version="1.0" encoding="utf-8"?>
<!-- Generator: Adobe Illustrator 27.3.1, SVG Export Plug-In . SVG Version: 6.00 Build 0)  -->
<svg version="1.1" id="Layer_1" xmlns="http://www.w3.org/2000/svg" xmlns:xlink="http://www.w3.org/1999/xlink" x="0px" y="0px"
	 viewBox="0 0 100 100" style="enable-background:new 0 0 100 100;" xml:space="preserve">
<style type="text/css">
	.st0{fill:#496179;}
</style>
<path id="Path_440" class="st0" d="M30.1,34.1c-0.2,0.2-0.4,0.4-0.5,0.6c-0.4,1.5-0.8,3.1-1.3,4.9c-1.1-1.9-2.2-3.5-3.1-5.2
	c-0.5-1,0-2.2,1-2.7c0,0,0,0,0,0c2.1-1.1,4.3-2.2,6.5-3.2c0.5-0.2,1.1-0.2,1.7-0.1c3.5,0.9,6.9,1.8,10.4,2.7c1,0.2,1.8,1,2,2
	c0.6,2.8,1.3,5.6,2,8.4c0.2,0.6,0.4,1.3,0.7,1.8c1.5,2.7,3.1,5.4,4.6,8.1c0.4,0.6,0.6,1.3,0.4,2.1c-0.2,0.8-0.9,1.4-1.8,1.6
	c-0.9,0.2-1.8-0.2-2.2-1c-1.9-3.3-3.8-6.5-5.6-9.8c-0.3-0.8-0.5-1.6-0.7-2.4c0,0-0.1,0-0.1,0.1c-0.7,2.6-1.4,5.1-2,7.7
	c0,0.2,0.2,0.5,0.4,0.7c1.6,1.3,3.2,2.5,4.8,3.7c1,0.7,1.6,1.7,1.9,2.8c1.1,4.3,2.3,8.6,3.4,13c0.5,1.4,0,3-1.2,3.9
	c-1.1,0.9-2.6,1-3.8,0.4c-1-0.5-1.6-1.4-1.9-2.4c-1-3.8-2-7.7-3-11.5c-0.1-0.6-0.5-1.1-1-1.5c-1.8-1.4-3.7-2.8-5.7-4.4
	c0.2,0.5,0.2,0.7,0.3,1c0.6,1.6,1.2,3.2,1.9,4.7c0.8,1.6,1,3.5,0.6,5.3c-0.9,4.4-1.6,8.9-2.4,13.3c-0.2,1.8-1.7,3.1-3.4,3.2
	c-1.7,0.1-3.1-1.1-3.4-2.7c-0.1-1.2,0.1-2.5,0.3-3.7c0.7-3.9,1.4-7.7,2-11.6c0-0.4,0-0.8-0.2-1.1c-1.6-4-3.1-8.1-4.7-12.1
	c-0.4-1-0.5-2.1-0.2-3.2c1.2-4.3,2.3-8.7,3.5-13L30.1,34.1z"/>
<path id="Path_441" class="st0" d="M79,81.7c0.6-0.8,1.1-1.6,1.7-2.3c3.9-5.4,6.8-11.5,8.5-18c1.2-5.2,1.2-10.4-1.2-15.3
	c-2.1-4-5.4-7.3-9.4-9.4c-0.7-0.4-1.3-0.8-2-1.2c0.2,0,0.5,0,0.7,0c5.7,2.2,10.4,5.6,13.2,11.3c1.7,3.8,2.4,8,1.9,12.1
	c-0.8,8.2-3.9,15.5-8,22.5c-0.2,0.4-0.6,0.6-1,0.5C82,81.8,80.6,81.8,79,81.7"/>
<path id="Path_442" class="st0" d="M41.5,28c-3.5,0-6.3-2.8-6.3-6.3s2.8-6.3,6.3-6.3c3.5,0,6.3,2.8,6.3,6.3C47.8,25.2,45,28,41.5,28
	"/>
<path id="Path_443" class="st0" d="M7.2,74.6l22.5-6.1c-0.2,1.2-0.4,2.4-0.6,3.6c0,0.2-0.3,0.3-0.6,0.4c-4.7,1.6-9.4,3.1-14.1,4.7
	c-0.3,0.1-0.6,0.1-0.9,0c-2-0.8-4-1.6-6-2.4C7.3,74.7,7.3,74.6,7.2,74.6"/>
<path id="Path_444" class="st0" d="M51.9,62.5c-0.2-0.8-0.4-1.5-0.6-2.3c0.7-0.3,1.4-0.7,2-1c4.2-1.9,8.1-4.4,11.6-7.3
	c1.6-1.3,3-3,3.9-4.9c1.2-2.4,1-5.2-0.6-7.3c-1-1.2-2-2.3-3.1-3.4c-0.2-0.2-0.3-0.3-0.5-0.5l0.1-0.2c0.6,0.2,1.1,0.4,1.6,0.8
	c1.1,0.9,2.1,1.9,3,2.9c2.1,2.5,2.5,6,0.8,8.8c-1.2,2.1-2.7,4-4.6,5.6C61.5,57.2,56.9,60.1,51.9,62.5"/>
<path id="Path_445" class="st0" d="M40.7,82.7c-0.7-0.1-1.5-0.1-2.2-0.3c-0.8-0.2-0.9-0.7-0.3-1.1c0.6-0.4,1.3-0.7,2-0.8
	c1-0.2,2.1,0,2.9,0.6c0.3,0.2,0.4,0.5,0.5,0.9c0,0.2-0.5,0.4-0.7,0.5C42.2,82.6,41.5,82.7,40.7,82.7"/>
<path id="Path_446" class="st0" d="M58.9,77.7c-0.7-0.1-1.4-0.2-2-0.3c-0.7-0.2-0.8-0.6-0.3-1.1c0.5-0.4,1-0.6,1.6-0.8
	c1.1-0.3,2.4-0.1,3.3,0.5c0.3,0.2,0.5,0.5,0.5,0.9c0,0.2-0.5,0.5-0.8,0.5C60.5,77.6,59.7,77.6,58.9,77.7"/>
<path id="Path_447" class="st0" d="M70.7,84.6c-0.8-0.1-1.6-0.2-2.3-0.3c-0.7-0.1-0.7-0.6-0.3-1.1c1-1.2,4.2-1.2,5.2,0
	c0.5,0.6,0.4,1-0.3,1.1S71.5,84.4,70.7,84.6"/>
<path id="Path_448" class="st0" d="M67.8,79.8c-0.8-0.1-1.6-0.1-2.3-0.3c-0.7-0.1-0.8-0.5-0.4-1.1c1-1.2,4.3-1.2,5.3,0
	c0.4,0.5,0.3,1-0.3,1.1C69.4,79.7,68.6,79.7,67.8,79.8"/>
<path id="Path_449" class="st0" d="M42.3,78.1c-0.8-0.1-1.5-0.1-2.2-0.3c-0.8-0.2-0.9-0.6-0.4-1.2c1-1.1,4.1-1.2,5.2,0
	c0.5,0.6,0.4,1-0.3,1.2C43.8,78,43.1,78,42.3,78.1"/>
<path id="Path_450" class="st0" d="M57.3,81.7c-0.8-0.1-1.5-0.2-2.2-0.3c-0.2,0-0.6-0.3-0.6-0.4c0-0.3,0.1-0.6,0.4-0.8
	c1-0.8,2.3-1,3.6-0.6c0.6,0.1,1.1,0.4,1.5,0.8c0.5,0.5,0.4,0.9-0.3,1.1C58.8,81.6,58,81.6,57.3,81.7"/>
<path id="Path_451" class="st0" d="M49.9,79.8c-0.8-0.1-1.5-0.1-2.3-0.3c-0.7-0.1-0.8-0.6-0.4-1.1c1-1.2,4.2-1.2,5.2,0
	c0.5,0.6,0.4,1-0.3,1.1S50.6,79.7,49.9,79.8"/>
<path id="Path_452" class="st0" d="M23.1,79.8c-0.8-0.1-1.6-0.1-2.3-0.3c-0.8-0.2-0.9-0.7-0.3-1.2c1.1-0.8,2.4-1.1,3.7-0.6
	c0.6,0.2,1.1,0.4,1.5,0.8c0.4,0.4,0.3,0.9-0.3,1C24.6,79.7,23.8,79.7,23.1,79.8"/>
<path id="Path_453" class="st0" d="M42.3,64l0.7,2.8l-3.4,1.4c0.2-1.2,0.4-2.2,0.6-3.3c0-0.2,0.4-0.3,0.7-0.4
	C41.3,64.3,41.8,64.2,42.3,64"/>
<path id="Path_454" class="st0" d="M63.5,69.1c-0.6-0.1-1.3-0.1-1.9-0.3s-0.7-0.5-0.3-1c0.8-1,3.6-1,4.4,0c0.4,0.5,0.3,0.8-0.3,1
	C64.9,68.9,64.2,69,63.5,69.1"/>
<path id="Path_455" class="st0" d="M66.4,74.1c-0.7-0.1-1.3-0.1-1.9-0.2c-0.7-0.1-0.8-0.5-0.3-1c1.3-1,3.1-0.9,4.4,0
	c0.4,0.5,0.4,0.9-0.3,1C67.7,74,67,74,66.4,74.1"/>
<path id="Path_456" class="st0" d="M75,76.3c-0.6-0.1-1.3-0.1-1.9-0.2s-0.7-0.5-0.3-0.9c0.8-1,3.7-1,4.5,0c0.3,0.5,0.3,0.8-0.3,0.9
	C76.3,76.2,75.6,76.2,75,76.3"/>
<path id="Path_457" class="st0" d="M79.8,72.9c-0.6-0.1-1.3-0.1-1.9-0.3c-0.7-0.2-0.8-0.6-0.2-1c0.9-0.7,2-0.9,3.1-0.6
	c0.5,0.1,0.9,0.4,1.3,0.7c0.4,0.3,0.4,0.8-0.2,0.9C81.1,72.7,80.4,72.8,79.8,72.9"/>
<path id="Path_458" class="st0" d="M57,72c-0.7-0.1-1.2-0.1-1.7-0.3c-0.6-0.1-0.7-0.5-0.3-1c0.8-1,3.6-1,4.4,0
	c0.4,0.4,0.4,0.8-0.3,1C58.4,71.9,57.7,71.9,57,72"/>
<path id="Path_459" class="st0" d="M72.5,70.6c-0.7-0.1-1.3-0.1-2-0.3c-0.5-0.1-0.6-0.5-0.3-0.9c0.8-1.1,3.7-1.1,4.6,0
	c0.4,0.5,0.2,0.8-0.3,0.9C73.8,70.5,73.1,70.5,72.5,70.6"/>
<path id="Path_460" class="st0" d="M78,68c0.6-1.2,2.7-1.4,3.4-0.4c0.1,0.1-0.1,0.6-0.2,0.6C80.2,68.5,79,68.4,78,68"/>
<path id="Path_461" class="st0" d="M55.6,66.5c-0.5-0.1-0.9-0.1-1.3-0.2c-0.5-0.1-0.5-0.4-0.2-0.7c0.9-0.7,2.2-0.7,3.1,0
	c0.3,0.4,0.2,0.7-0.3,0.7C56.4,66.4,56,66.5,55.6,66.5"/>
<path id="Path_462" class="st0" d="M67.2,58.6c-1,0.4-2.2,0.5-3.2,0.1c-0.1,0-0.2-0.5-0.2-0.6c0.6-0.3,1.2-0.5,1.8-0.6
	C66.3,57.5,67,57.9,67.2,58.6"/>
<path id="Path_463" class="st0" d="M88.2,61.4c-1,0.4-2.1,0.5-3.2,0.1c-0.2-0.2-0.2-0.4-0.2-0.6C85.5,60,87.6,60.3,88.2,61.4"/>
<path id="Path_464" class="st0" d="M76.9,63.1c-0.4,0-0.8,0-1.1-0.1c-0.2-0.1-0.4-0.2-0.6-0.4c0.1-0.2,0.2-0.5,0.4-0.6
	c0.8-0.5,1.8-0.5,2.6,0c0.2,0.1,0.3,0.4,0.4,0.6c-0.2,0.1-0.4,0.2-0.6,0.3C77.6,63.1,77.2,63.1,76.9,63.1"/>
<path id="Path_465" class="st0" d="M73.6,59.5c0.2-0.6,0.8-1,1.5-0.9c0.7,0.1,1.3,0.3,1.9,0.6c0,0,0,0.5-0.2,0.5
	C75.7,60,74.6,59.9,73.6,59.5"/>
<path id="Path_466" class="st0" d="M70.7,61.4c-1,0.4-2.1,0.5-3.2,0.1c-0.1-0.2-0.2-0.4-0.1-0.7C68,60,70.1,60.2,70.7,61.4"/>
<path id="Path_467" class="st0" d="M86.3,64.7c-1,0.4-2.2,0.5-3.2,0.2c-0.4-0.1-0.4-0.4-0.2-0.7C83.6,63.3,85.6,63.6,86.3,64.7"/>
<path id="Path_468" class="st0" d="M71.2,66.4c0.5-1.1,2.7-1.4,3.3-0.5c0.1,0.2,0,0.4-0.1,0.6C73.4,66.8,72.2,66.8,71.2,66.4"/>
<path id="Path_469" class="st0" d="M63.7,64.7c0.6-1.1,2.7-1.4,3.3-0.5c0.1,0.2,0,0.4-0.1,0.6C65.9,65.1,64.7,65.1,63.7,64.7"/>
<path id="Path_470" class="st0" d="M57.2,62.8c0.6-1.2,2.7-1.4,3.4-0.5c0.1,0.1,0,0.6-0.2,0.6C59.4,63.3,58.2,63.3,57.2,62.8"/>
<path id="Path_471" class="st0" d="M71.9,53h-3.1c0.1-0.6,0.7-1,1.3-1C70.9,51.9,71.6,52.3,71.9,53"/>
<path id="Path_472" class="st0" d="M75,55.4c0.3-0.8,0.9-0.8,1.5-0.8c0.6-0.1,1.2,0.3,1.4,0.9C77,55.8,76,55.8,75,55.4"/>
<path id="Path_473" class="st0" d="M79.8,53.6c0.4-1,1.1-1,1.7-0.9c0.5,0,1.1,0.1,1.2,0.9H79.8z"/>
<path id="Path_474" class="st0" d="M70.2,56.6c0.7-1.1,2.2-1.3,2.8-0.6c0.1,0.1-0.1,0.6-0.1,0.6C72.1,56.7,71.2,56.6,70.2,56.6"/>
<path id="Path_475" class="st0" d="M86.7,57.6h-3c0.1-0.6,0.7-1,1.3-0.9C85.6,56.7,86.3,56.7,86.7,57.6"/>
<path id="Path_476" class="st0" d="M88.4,54.4h-3c0.2-0.9,0.8-0.9,1.4-0.9C87.4,53.5,88,53.5,88.4,54.4"/>
<path id="Path_477" class="st0" d="M79.2,57.5c0.4-0.9,1-0.8,1.7-0.8c0.5,0,1,0.1,1.2,0.9C81.1,57.9,80.1,57.9,79.2,57.5"/>
<path id="Path_478" class="st0" d="M78.4,47.3h-2.2L76.1,47c0.3-0.2,0.7-0.5,1-0.5c0.5,0.1,0.9,0.2,1.4,0.4
	C78.5,47.1,78.5,47.2,78.4,47.3"/>
<path id="Path_479" class="st0" d="M77.2,53h-2.5c0.4-0.7,1.2-1,1.9-0.6C76.9,52.6,77.1,52.8,77.2,53"/>
<path id="Path_480" class="st0" d="M72.1,50.1c0.6-1,1.6-1,2.5,0H72.1z"/>
<path id="Path_481" class="st0" d="M82.3,45.8H80c0.2-0.5,0.7-0.9,1.3-0.8c0.4,0.1,0.8,0.2,1.2,0.4L82.3,45.8"/>
<path id="Path_482" class="st0" d="M83.6,48.7h-2.5C81.7,47.6,82.8,47.6,83.6,48.7"/>
<path id="Path_483" class="st0" d="M84.5,46.4c0.4-0.7,1.2-1,1.9-0.6c0.3,0.1,0.5,0.3,0.6,0.6H84.5z"/>
<path id="Path_484" class="st0" d="M85.4,51c0.4-0.7,1.2-0.9,1.9-0.6c0.2,0.1,0.4,0.3,0.6,0.6H85.4z"/>
<path id="Path_485" class="st0" d="M77.8,50.7c0.4-0.7,1.2-0.9,1.9-0.6c0.2,0.1,0.4,0.3,0.6,0.6H77.8z"/>
<path id="Path_486" class="st0" d="M72.4,46.6c0.3-0.2,0.6-0.3,1-0.4c0.6-0.2,1.2,0.1,1.4,0.7h-2.3L72.4,46.6"/>
<path id="Path_487" class="st0" d="M84.1,43.8h-1.8C83,43.1,83.5,43.1,84.1,43.8"/>
<path id="Path_488" class="st0" d="M72.4,43.7c0.6-0.7,1-0.7,1.8,0H72.4z"/>
<path id="Path_489" class="st0" d="M79,42.4c0.7-0.7,1.1-0.7,1.8,0H79z"/>
<path id="Path_490" class="st0" d="M80.2,40.4h-1.8C78.8,39.7,79.3,39.6,80.2,40.4"/>
<path id="Path_491" class="st0" d="M76.8,43.8c0.5-0.6,1.1-0.7,1.6,0H76.8z"/>
<path id="Path_492" class="st0" d="M71,40c0.5-0.7,1-0.7,1.5,0H71z"/>
<path id="Path_493" class="st0" d="M77.2,41.4h-1.7C76.2,40.7,76.6,40.7,77.2,41.4"/>
<path id="Path_494" class="st0" d="M83.1,41.3h-1.8C82,40.6,82.4,40.6,83.1,41.3"/>
<path id="Path_495" class="st0" d="M74.8,41.1h-1.8C73.5,40.5,74,40.4,74.8,41.1"/>
<path id="Path_496" class="st0" d="M76.5,45.2h-1.8C75.2,44.4,75.7,44.4,76.5,45.2"/>
</svg>
