<?xml version="1.0" encoding="utf-8"?>
<!-- Generator: Adobe Illustrator 27.3.1, SVG Export Plug-In . SVG Version: 6.00 Build 0)  -->
<svg version="1.1" id="Layer_1" xmlns="http://www.w3.org/2000/svg" xmlns:xlink="http://www.w3.org/1999/xlink" x="0px" y="0px"
	 viewBox="0 0 100 100" style="enable-background:new 0 0 100 100;" xml:space="preserve">
<style type="text/css">
	.st0{fill:#496179;}
</style>
<g id="Group_191">
	<path id="Path_504" class="st0" d="M78.8,67.6c1-0.5,1.9-0.9,2.9-1.3c0.4-0.2,0.9-0.4,1.3-0.6c0.5-0.2,1.2,0,1.5,0.5
		c0.3,0.5,0.1,1.1-0.3,1.5c-0.2,0.1-0.3,0.2-0.5,0.3c-3.3,1.5-6.6,3.1-10,4.6c-0.4,0.2-0.9,0.2-1.2,0c-0.5-0.3-0.7-1-0.4-1.5
		c0.1-0.1,0.2-0.3,0.3-0.4c0.2-0.1,0.4-0.2,0.5-0.3c1.3-0.6,2.5-1.2,3.8-1.8c-0.3-0.6-0.6-1.2-0.8-1.7c-2.5-5.4-5-10.7-7.5-16.1
		c-0.8-1.7-1.5-3.3-2.3-5c-0.1-0.2-0.2-0.3-0.5-0.2c-1.6,0.5-3.2,0.7-4.9,0.6c-2.5-0.2-4.9-1.2-6.9-2.7c-1.7-1.3-3.1-3.1-4-5.1
		c-0.1-0.1-0.1-0.2-0.2-0.3c0,0.2-0.1,0.4-0.1,0.6c-0.2,3-0.8,5.9-1.7,8.7c-0.7,2.4-1.9,4.5-3.7,6.2c-2.7,2.6-6.3,3.9-10,3.7
		c-0.3,0-0.7-0.1-1-0.1c-0.3-0.1-0.6-0.1-1-0.2c-0.1,0.3-0.2,0.6-0.4,0.9c-2.7,7.5-5.4,14.9-8.2,22.4c-0.2,0.6-0.3,0.6,0.4,0.8
		c1.3,0.5,2.5,0.9,3.8,1.4c0.6,0.2,0.9,0.8,0.7,1.4c0,0,0,0.1,0,0.1c-0.2,0.5-0.7,0.8-1.3,0.7c-1-0.3-2.1-0.7-3.1-1.1
		c-2.6-0.9-5.1-1.9-7.7-2.8c-0.2-0.1-0.5-0.2-0.6-0.4c-0.4-0.4-0.4-1-0.1-1.4c0.3-0.4,0.9-0.6,1.4-0.4c1.3,0.5,2.6,1,3.9,1.5
		c0.3,0.1,0.4,0,0.5-0.2c2.6-7.2,5.2-14.4,7.8-21.6c0.2-0.6,0.4-1.1,0.7-1.7c0.1-0.2,0.1-0.4-0.1-0.5c0,0-0.1,0-0.1,0
		c-5.6-3-8.2-9.6-6.2-15.7c1.5-4.3,3.8-8.3,6.8-11.7c0.5-0.5,1-1,1.5-1.6c0.3-0.4,0.8-0.5,1.3-0.3c1.9,0.7,3.8,1.4,5.7,2.1
		c2.8,1,5.6,2.1,8.4,3.1c0.1,0,0.2,0.1,0.4,0.1c0-0.2,0-0.3-0.1-0.4c-0.6-2.4-1-4.9-1-7.4c-0.1-0.7,0.4-1.4,1.1-1.7
		c2.3-1,4.7-2.1,7-3.2c2.5-1.2,5.1-2.4,7.6-3.6c0.6-0.3,1.3-0.2,1.7,0.2c2.8,2.4,5.3,5.2,7.1,8.4c1,1.7,1.9,3.4,2.6,5.3
		c1.8,5.6-0.4,11.6-5.3,14.8c-0.3,0.2-0.3,0.3-0.2,0.6c1.9,4,3.8,8,5.6,12c1.6,3.4,3.2,6.8,4.8,10.3C78.6,67.3,78.7,67.5,78.8,67.6
		 M46.1,45.3c0.1-0.1,0.1-0.3,0.2-0.4c0.9-3.3,1.3-6.8,1.1-10.3c0-0.3-0.1-0.5-0.4-0.5c-4.6-1.7-9.2-3.3-13.8-5
		c-0.2-0.1-0.4,0-0.5,0.2c-2.3,2.4-4.1,5.1-5.5,8c0,0.1,0,0.3,0.1,0.4c0.3,0.3,0.6,0.6,0.9,0.9c2.3,2.1,5.3,3.1,8.4,2.8
		c2.9-0.3,5.8,0.6,8,2.6C45.1,44.3,45.5,44.8,46.1,45.3 M50.4,33.5c0.1-0.1,0.2-0.2,0.3-0.2c1.6-1.6,3.6-2.8,5.8-3.3
		c1.1-0.2,2.3-0.3,3.4-0.2c2.7,0.2,5.4-0.6,7.5-2.2c0.6-0.5,1.2-1.1,1.8-1.6c0.2-0.2,0.1-0.3,0-0.4c-0.5-0.8-0.9-1.5-1.5-2.3
		c-1.4-1.9-2.9-3.7-4.7-5.2c-0.1-0.1-0.3-0.1-0.4-0.1c-0.5,0.2-0.9,0.4-1.4,0.6c-3.9,1.8-7.9,3.7-11.8,5.5c-0.5,0.2-0.5,0.2-0.5,0.8
		c0.1,2.4,0.4,4.7,1.1,7C50,32.4,50.2,32.9,50.4,33.5 M25.1,44.5c0.1,0.7,0.2,1.5,0.3,2.2c0.2,0.9,0.5,1.8,0.9,2.6
		c0.1,0.4,0.5,0.7,1,0.7c0.4,0.1,0.9-0.2,1.1-0.5c0.2-0.3,0.3-0.8,0.1-1.2c-0.4-1-0.7-2-0.8-3c-0.1-1.2,0-2.4,0.4-3.6
		c0.1-0.3,0.2-0.6,0.1-0.9c-0.1-0.6-0.5-1-1.1-1c-0.5,0-1,0.3-1.1,0.8C25.3,41.8,25.1,43.1,25.1,44.5 M72.3,33.4L72.3,33.4
		c0-0.9-0.1-1.8-0.3-2.7c-0.2-0.7-0.5-1.5-0.8-2.1c-0.3-0.5-1-0.7-1.5-0.5c-0.5,0.3-0.8,0.9-0.6,1.5c0.1,0.3,0.2,0.6,0.3,0.8
		c0.5,1.3,0.7,2.8,0.4,4.2c-0.1,0.7-0.4,1.5-0.5,2.2c-0.2,0.6,0.2,1.2,0.8,1.3c0,0,0,0,0,0c0.6,0.2,1.3-0.2,1.5-0.8c0,0,0,0,0-0.1
		C72.1,36.1,72.3,34.7,72.3,33.4"/>
	<path id="Path_505" class="st0" d="M47.7,67.3c0,1.9-1.6,3.4-3.5,3.4c-1.9-0.1-3.4-1.7-3.4-3.6c0.1-1.9,1.7-3.4,3.6-3.3
		C46.2,63.9,47.7,65.4,47.7,67.3"/>
	<path id="Path_506" class="st0" d="M64.6,65.2c-0.2,0-0.4,0-0.6,0c-0.4-0.1-0.8,0.1-1,0.5c-0.2,0.4-0.4,0.7-0.7,1
		c-0.2,0.3-0.7,0.4-1,0.2c-0.2-0.1-0.3-0.3-0.3-0.5c-0.2-0.5-0.3-1-0.4-1.5c0-0.2-0.2-0.4-0.4-0.4c-0.5-0.1-0.9-0.3-1.4-0.5
		c-0.3-0.1-0.6-0.3-0.7-0.7c0-0.3,0.2-0.7,0.5-0.8c0.4-0.2,0.8-0.5,1.1-0.7c0.2-0.1,0.3-0.3,0.3-0.6c0-0.5,0-1,0-1.5
		c0-0.4,0.3-0.8,0.7-0.8c0.2,0,0.4,0.1,0.5,0.2c0.4,0.3,0.8,0.6,1.2,0.9c0.2,0.2,0.4,0.2,0.6,0.1c0.5-0.2,1-0.3,1.5-0.4
		c0.4-0.1,0.8,0.1,0.9,0.5c0.1,0.2,0.1,0.3,0,0.5c-0.2,0.5-0.4,1-0.5,1.5c0,0.2,0,0.4,0.1,0.5c0.3,0.5,0.6,0.9,0.9,1.3
		c0.3,0.3,0.2,0.8-0.1,1c-0.1,0.1-0.3,0.2-0.5,0.2C65.1,65.3,64.9,65.3,64.6,65.2L64.6,65.2"/>
	<path id="Path_507" class="st0" d="M77.2,45.4c-0.5-0.5-1-1-1.4-1.5c-0.5-0.4-0.5-1.1-0.1-1.6c0.1-0.1,0.3-0.2,0.4-0.3
		c0.5-0.2,1-0.1,1.4,0.3c0.5,0.5,0.9,0.9,1.4,1.3c0.4-0.4,0.9-0.9,1.3-1.3c0.2-0.2,0.4-0.3,0.6-0.4c0.5-0.2,1,0.1,1.3,0.5
		c0.3,0.5,0.1,1.1-0.3,1.5c-0.5,0.4-0.9,0.9-1.3,1.3c0,0,0,0,0,0.1c0.4,0.4,0.9,0.9,1.3,1.3c0.2,0.2,0.4,0.5,0.5,0.9
		c0.1,0.4-0.1,0.9-0.5,1.1c-0.4,0.3-0.9,0.2-1.2-0.1c-0.5-0.5-1-1-1.5-1.4c-0.1,0-0.1-0.1-0.2-0.2c-0.5,0.5-0.9,0.9-1.4,1.3
		c-0.2,0.2-0.5,0.4-0.9,0.5c-0.4,0.1-0.9-0.1-1.1-0.5c-0.2-0.4-0.2-0.9,0.1-1.2c0.5-0.5,1-1,1.4-1.5C77.1,45.5,77.2,45.4,77.2,45.4"
		/>
	<path id="Path_508" class="st0" d="M21.1,24.6c-0.4,0-0.9,0-1.3-0.1c-0.5-0.1-0.9-0.5-1-1.1c0-0.5,0.4-1,1-1.1
		c0.2,0,0.4-0.1,0.6-0.1c0.2,0,0.4,0,0.7,0c0-0.3,0-0.6,0-0.9c0-0.3,0.1-0.6,0.3-0.9c0.3-0.4,0.8-0.6,1.2-0.4
		c0.5,0.2,0.8,0.7,0.8,1.2c0,0.3,0,0.6,0,1c0.1,0,0.2,0,0.3,0c0.2,0,0.5,0,0.7,0c0.7,0,1.2,0.5,1.2,1.2c-0.1,0.6-0.6,1.1-1.2,1.1
		c-0.3,0-0.7,0-1.1,0c0,0.3,0,0.6,0,1c0,0.4-0.2,0.8-0.5,1.1c-0.5,0.4-1.1,0.3-1.5-0.2c-0.1-0.1-0.2-0.3-0.2-0.4
		C21.2,25.6,21.1,25.1,21.1,24.6"/>
	<path id="Path_509" class="st0" d="M41.9,18.8c0,1.3-1,2.3-2.3,2.3c-1.3,0-2.3-1-2.3-2.3c0-1.3,1-2.3,2.3-2.3c0,0,0,0,0,0
		C40.9,16.6,41.9,17.6,41.9,18.8"/>
</g>
</svg>
