<?xml version="1.0" encoding="utf-8"?>
<!-- Generator: Adobe Illustrator 27.3.1, SVG Export Plug-In . SVG Version: 6.00 Build 0)  -->
<svg version="1.1" id="Layer_1" xmlns="http://www.w3.org/2000/svg" xmlns:xlink="http://www.w3.org/1999/xlink" x="0px" y="0px"
	 viewBox="0 0 100 100" style="enable-background:new 0 0 100 100;" xml:space="preserve">
<style type="text/css">
	.st0{fill:#496179;}
</style>
<g id="Group_189">
	<path id="Path_503" class="st0" d="M68.9,15.4c0.4,0.2,0.9,0.3,1.3,0.5c0.9,0.4,1.6,1.2,1.9,2.1c0.2,0.7,0.6,0.8,1.2,0.7
		c1.3,0,2.7,0,4,0c0.7,0,1.1,0.3,1.1,0.8s-0.4,0.8-1.1,0.8c-1.4,0-2.8,0-4.2,0c-0.4,0-0.8,0-0.9,0.6c-0.1,0.4-0.3,0.7-0.5,1
		c0.3,0,0.5,0,0.7,0c2.5,0,5,0,7.5,0c1.6,0,2.9,1.3,3,2.9c0,1.1-0.7,2.2-1.7,2.7c-0.5,0.2-1,0.3-1.4,0.4l-0.2,2.8c1,0,1.9,0,2.9,0
		c0.5-0.1,0.9,0.2,1,0.7c0.1,0.5-0.3,1-0.9,1c-0.9,0-1.8,0-2.8,0c-0.4,0-0.6,0.1-0.7,0.6c-1.8,7.4-6.7,13.6-13.5,16.9
		c-0.1,0.1-0.2,0.1-0.4,0.2c-1.3,0.6-1.3,0.6-0.9,2c2.4,8.1,4.8,16.1,7.2,24.2c0.1,0.2,0.1,0.4,0.2,0.6c2.2,0.2,3.4,1.1,3.9,2.8
		c0.5,2-0.7,4.1-2.7,4.6c-1.6,0.4-3.3-0.3-4.2-1.7c-1-1.6-0.6-3.7,0.9-4.8c0.4-0.2,0.5-0.7,0.3-1.1c-0.5-1.5-0.9-3.1-1.4-4.6
		c-0.1-0.3-0.2-0.5-0.6-0.5c-4.2,0-8.5,0-12.7,0c-0.1,0-0.1,0-0.2,0.1c0,0.2,0,0.5,0,0.8c0,1.1,0,2.3,0,3.4c-0.2,0.7,0.3,1.4,1,1.6
		c1.6,0.8,2.4,2.6,1.9,4.3c-0.5,1.7-2.1,2.8-3.8,2.8c-1.8-0.1-3.2-1.4-3.6-3.1c-0.3-1.7,0.6-3.4,2.3-4.1c0.5-0.1,0.8-0.5,0.7-1
		c0-1.5,0-3.1,0-4.7h-0.7c-4.4,0-8.9,0-13.3,0c-0.5,0-0.7,0.1-0.8,0.6c-0.5,1.7-1,3.5-1.6,5.3c0.2,0.2,0.4,0.3,0.6,0.5
		c1.6,1.4,1.7,3.7,0.4,5.3c-1,1.2-2.6,1.6-4.1,1.1c-2-0.6-3-2.8-2.4-4.7c0.5-1.5,1.8-2.5,3.3-2.6c0.3,0,0.5,0,0.6-0.4
		c2.6-8.8,5.2-17.5,7.8-26.3c-0.6-0.3-1.1-0.6-1.7-0.9C35.5,46,31,40.1,29.4,33.2c-0.1-0.5-0.3-0.7-0.8-0.6c-0.9,0-1.8,0-2.6,0
		c-0.6,0-1-0.4-1-0.8c0-0.5,0.4-0.8,1-0.8c0.5,0,0.9,0,1.4,0h1.5L28.6,28c-0.4-0.1-0.8-0.2-1.2-0.3c-1.5-0.6-2.3-2.2-1.8-3.8
		c0.4-1.2,1.5-1.9,2.8-1.9c2.5,0,5,0,7.5,0h0.7c-0.2-0.5-0.4-1-0.6-1.4c-0.1-0.1-0.3-0.2-0.5-0.2c-3.1,0-6.2,0-9.2,0
		c-0.9,0-1.7,0.5-2.1,1.3c-1.2,1.9-3.7,2.6-5.6,1.4c0,0-0.1-0.1-0.1-0.1c-1.3-0.8-2.1-2.4-1.8-3.9c0.2-1.7,1.3-3.1,3-3.5
		c0.2-0.1,0.3-0.1,0.5-0.2H21c0.2,0.4,0.5,0.7,0.5,1.1c0,0.5-0.6,0.6-1,0.6l-0.1,0c-1.3,0.2-2.3,1.4-2.1,2.8c0,0.2,0.1,0.4,0.2,0.6
		c0.3,0.8,1.1,1.4,1.9,1.5c1,0.2,1.9-0.3,2.4-1.1c0.8-1.5,2.5-2.3,4.1-2.2c2.8,0,5.5,0,8.3,0c0.5,0.1,0.9-0.2,1.1-0.7
		c0.3-0.7,0.8-1.3,1.4-1.8c0.6-0.4,1.2-0.7,1.9-0.9h1.2c1.6,0.3,2.9,1.5,3.4,3.1c0.1,0.1,0.2,0.2,0.3,0.2c0.7,0.2,1,0,1.3-0.6
		c0.2-0.3,0.3-0.7,0.6-1c0.7-0.9,1.7-1.5,2.7-1.7h1.2c1.7,0.4,3,1.6,3.4,3.3h1.3c0.2-1,0.9-2,1.7-2.5c0.5-0.3,1.1-0.6,1.7-0.8h1.2
		c1.6,0.3,3,1.5,3.5,3c0.1,0.2,0.6,0.2,0.9,0.3c0.2,0,0.4-0.2,0.5-0.3c0.3-0.9,0.8-1.7,1.6-2.2c0.6-0.3,1.1-0.6,1.8-0.8H68.9z
		 M30.3,28C30.8,41.2,41.9,51.5,55,51c0.7,0,1.5-0.1,2.2-0.2C70.4,49.1,78.1,37.5,78,28H30.3z M53.3,52.7c-2.9-0.1-5.7-0.7-8.4-1.7
		l-5.6,19h14.1V52.7z M67.8,70l-5.5-18.4L55,52.8V70H67.8z M46.1,22c-0.8-1.7-0.8-1.7-1.9-1.6L43.5,22H46.1z M55.5,22l-0.7-1.6h-1.2
		L52.9,22H55.5z M64.2,20.5c-1.3-0.2-1.3-0.1-1.9,1.6h2.5L64.2,20.5"/>
</g>
</svg>
