<?xml version="1.0" encoding="utf-8"?>
<!-- Generator: Adobe Illustrator 27.4.0, SVG Export Plug-In . SVG Version: 6.00 Build 0)  -->
<svg version="1.1" id="Layer_1" xmlns="http://www.w3.org/2000/svg" xmlns:xlink="http://www.w3.org/1999/xlink" x="0px" y="0px"
	 viewBox="0 0 70 62" style="enable-background:new 0 0 70 62;" xml:space="preserve">
<style type="text/css">
	.st0{clip-path:url(#SVGID_00000072989413896114327460000008449020286533273997_);}
	.st1{fill:#FFFFFF;}
</style>
<g id="Group_324" transform="translate(-184.292 -2269.5)">
	<g id="Group_156" transform="translate(184.292 2269.5)">
		<g>
			<defs>
				<rect id="SVGID_1_" x="5.5" y="0.5" width="59" height="60.9"/>
			</defs>
			<clipPath id="SVGID_00000070833930007163388510000007784022419826105505_">
				<use xlink:href="#SVGID_1_"  style="overflow:visible;"/>
			</clipPath>
			
				<g id="Group_155" transform="translate(0 0)" style="clip-path:url(#SVGID_00000070833930007163388510000007784022419826105505_);">
				<path id="Path_314" class="st1" d="M17.6,53.7v2.2c0,1.3,0,2.5,0,3.8c0,1.5-0.2,1.8-1.8,1.8c-1.4,0-2.7-0.1-4.1-0.3
					c-3.6-0.8-6.2-4-6.2-7.7c0-12.3,0-24.6,0-36.9c0-3.2,2.6-5.9,5.8-5.9c0.1,0,0.2,0,0.4,0c8.9,0,17.9,0,26.8,0c4.4,0,8.8,0,13.2,0
					c0.2,0,0.4,0,0.6,0c0-0.3,0-0.5,0-0.7c0-2.6,0-5.3,0-7.9c0-1,0.3-1.4,1.4-1.4c1.9-0.1,3.8,0,5.6,0.1c3,0.4,5.3,3,5.1,6.1
					c0,10.1,0,20.1,0,30.2c0,3,0,5.9,0,8.9c0.1,3.9-2.7,7.2-6.5,7.8c-0.5,0.1-1,0.1-1.4,0.1c-12.7,0-25.4,0-38.1,0L17.6,53.7
					 M17.6,51.7h0.7c12.8,0,25.6,0,38.3,0c0.4,0,0.7,0,1.1-0.1c2.8-0.5,4.8-3,4.7-5.8c0-11.3,0-22.6,0-33.9c0-0.2,0-0.4,0-0.6
					c-0.1,0-0.2,0.1-0.3,0.1c-1.3,0.9-2.9,1.4-4.4,1.3c-5.6,0-11.3,0-16.9,0c-9.7,0-19.4,0-29.1,0c-2.2-0.1-4,1.6-4.1,3.8
					c0,0,0,0,0,0c0,2.1,1.7,3.9,3.8,3.9c0.1,0,0.2,0,0.3,0c1.4,0,2.9,0,4.3,0c1.4,0,1.6,0.3,1.6,1.7L17.6,51.7L17.6,51.7z
					 M15.5,59.4V22.5c-2.7-0.2-5.5,0.6-8-1.5v2c0,10,0,20.1,0,30.1c-0.1,2.5,1.4,4.9,3.7,5.8C12.6,59.4,14.1,59.6,15.5,59.4
					 M54.5,10.6c1.3,0,2.4,0,3.6,0c0.3,0,0.6,0,0.9-0.1c1.9-0.3,3.4-1.9,3.5-3.8c0.1-2-1.3-3.7-3.3-4c-1.6-0.1-3.1-0.1-4.7,0V10.6z"
					/>
				<path id="Path_315" class="st1" d="M24,26.4c1.2,0,2.4,0,3.6,0c0.3,0,0.7,0,1,0c0.5,0,0.9,0.5,0.9,1c0,0.5-0.4,1-1,1
					c0,0,0,0,0,0c-1.2,0-2.3,0-3.5,0h-1v17h7.8v-9.8h-0.8c-0.9,0-1.8,0-2.6,0c-0.6,0-1-0.4-1-1c0-0.5,0.4-1,0.9-1c0.2,0,0.4,0,0.6,0
					c3,0,6,0,9,0c0.2,0,0.3,0,0.5,0c0.5,0,1,0.5,1,1c0,0.6-0.5,1-1,1c0,0,0,0-0.1,0c-1.2,0-2.4,0-3.6,0c-0.2,0-0.5,0-0.8,0v9.9h1.8
					c2,0,4,0,6,0c0.6-0.1,1.1,0.4,1.1,0.9c0.1,0.6-0.4,1.1-0.9,1.1c-0.1,0-0.1,0-0.2,0c-0.1,0-0.2,0-0.3,0H29.6c-2.1,0-4.2,0-6.4,0
					c-1,0-1.3-0.3-1.3-1.3c0-9.3,0-18.6,0-27.9c0-0.9,0.3-1.3,1.3-1.3c4,0,8,0,12,0c0.8,0,1.2,0.4,1.2,1c0,0.6-0.4,1.1-1.2,1.1
					c-3.4,0-6.8,0-10.2,0H24L24,26.4z"/>
				<path id="Path_316" class="st1" d="M54.7,45.5v-9.9h-0.8c-2.6,0-5.2,0-7.9,0c-0.7,0-1.1-0.3-1.2-0.9c-0.1-0.6,0.3-1.1,0.8-1.2
					c0.1,0,0.2,0,0.3,0c0.7,0,1.5,0,2.2,0h6.5V19.1H43.9v7.2h0.9c1.8,0,3.5,0,5.3,0c0.9,0,1.4,0.6,1.1,1.4c-0.2,0.5-0.7,0.7-1.2,0.7
					c-1.9,0-3.8,0-5.8,0c-2.8,0-5.6,0-8.4,0c-0.2,0-0.4,0-0.7,0c-0.5,0-0.9-0.4-0.9-1c0-0.5,0.3-1,0.8-1c0,0,0,0,0,0
					c0.9,0,1.8,0,2.8,0c1.2,0,2.5,0,3.8,0v-0.8c0-2.5,0-4.9,0-7.4c0-0.8,0.3-1.2,1.1-1.2c4.2,0,8.4,0,12.6,0c0.8,0,1.2,0.4,1.2,1.2
					c0,9.3,0,18.7,0,28c0,0.9-0.3,1.2-1.2,1.2c-1.9,0-3.9,0-5.8,0c-0.8,0-1.2-0.3-1.3-1c0-0.7,0.4-1,1.3-1
					C51.4,45.5,53,45.5,54.7,45.5"/>
			</g>
		</g>
	</g>
</g>
</svg>
