<?xml version="1.0" encoding="utf-8"?>
<!-- Generator: Adobe Illustrator 27.4.0, SVG Export Plug-In . SVG Version: 6.00 Build 0)  -->
<svg version="1.1" id="Layer_1" xmlns="http://www.w3.org/2000/svg" xmlns:xlink="http://www.w3.org/1999/xlink" x="0px" y="0px"
	 viewBox="0 0 70 62" style="enable-background:new 0 0 70 62;" xml:space="preserve">
<style type="text/css">
	.st0{clip-path:url(#SVGID_00000094596975790603084450000012091245523978702777_);}
	.st1{fill:#FFFFFF;}
</style>
<g id="Group_326" transform="translate(-783 -2418)">
	<g id="Group_230" transform="translate(-26)">
		<g id="Group_160" transform="translate(809 2418)">
			<g>
				<defs>
					<rect id="SVGID_1_" x="7.1" y="2.9" width="55.8" height="56.1"/>
				</defs>
				<clipPath id="SVGID_00000173875846192277622230000016235235672092540320_">
					<use xlink:href="#SVGID_1_"  style="overflow:visible;"/>
				</clipPath>
				<g id="Group_159" style="clip-path:url(#SVGID_00000173875846192277622230000016235235672092540320_);">
					<path id="Path_320" class="st1" d="M7.1,42.5c0-2.5,0-5,0-7.5c0-0.7,0.4-1.3,1-1.6c4-2.3,8.1-4.6,12.1-6.9
						c0.4-0.2,0.6-0.5,0.5-0.9c0-4.2,0-8.4,0-12.5c0-0.2,0-0.4-0.1-0.6c-0.4-0.7-0.1-1.6,0.6-2c0,0,0.1,0,0.1-0.1
						c3.4-1.9,6.8-3.8,10.2-5.6c1-0.6,2-1.1,3-1.7c0.3-0.1,0.7-0.1,1,0c4.4,2.6,8.8,5.1,13.3,7.7c0.5,0.3,0.7,0.8,0.7,1.3
						c0,4.4,0,8.8,0,13.2c0,0.4,0.2,0.8,0.5,0.9c4,2.3,7.9,4.6,11.9,6.9c0.7,0.3,1.1,1,1,1.8c0,4.9,0,9.9,0,14.8
						c0.1,0.9-0.4,1.7-1.2,2c-3.9,2.3-7.9,4.5-11.8,6.9c-0.8,0.6-1.8,0.6-2.6,0c-3.5-2.2-7.1-4.1-10.6-6.3c-0.8-0.6-2-0.6-2.8,0
						c-3.5,2.2-7.2,4.2-10.7,6.3c-0.7,0.6-1.7,0.6-2.4,0c-1.6-1.1-3.4-2-5.2-3c-2.7-1.5-5.3-3-8-4.5c-0.4-0.2-0.7-0.7-0.6-1.2
						L7.1,42.5L7.1,42.5 M49.5,55.6c0.2-0.1,0.2-0.1,0.3-0.1c3.5-2,6.9-3.9,10.4-5.9c0.3-0.1,0.5-0.5,0.4-0.8c0-3.9,0-7.8,0-11.7
						c0-0.2,0-0.3,0-0.6c-0.3,0.1-0.5,0.2-0.7,0.4c-3.3,1.9-6.5,3.8-9.8,5.7c-0.4,0.2-0.6,0.6-0.6,1c0,3.3,0,6.5,0,9.8L49.5,55.6
						 M47.3,55.7c0-0.2,0-0.3,0-0.3c0-4,0-7.9,0-11.9c0-0.3-0.2-0.6-0.5-0.7c-3.3-1.9-6.7-3.9-10-5.8c-0.2-0.1-0.3-0.2-0.5-0.3
						c0,3.7,0.1,7.3,0,10.9c-0.2,1.3,0.5,2.5,1.7,2.9C41.1,52,44.1,53.9,47.3,55.7 M23,55.6c0.2-0.1,0.4-0.2,0.6-0.3
						c3.3-1.9,6.6-3.8,9.9-5.6c0.4-0.2,0.6-0.5,0.5-0.9c0-3.7,0-7.5,0-11.2c0-0.2,0-0.4,0-0.7c-0.2,0.1-0.3,0.1-0.4,0.2
						c-3.4,2-6.8,4-10.2,6c-0.2,0.2-0.4,0.5-0.4,0.8c0,3.7,0,7.5,0,11.2C22.9,55.2,22.9,55.4,23,55.6 M20.4,55.5c0-0.2,0-0.3,0-0.4
						c0-3.9,0-7.8,0-11.8c0-0.3-0.2-0.6-0.5-0.7c-3.3-1.9-6.5-3.7-9.8-5.6c-0.2-0.1-0.3-0.2-0.5-0.3c0,4.2,0,8.2,0,12.3
						c0,0.3,0.2,0.5,0.4,0.6c2,1.1,3.9,2.2,5.9,3.4L20.4,55.5 M32.3,34.7c-0.2-0.1-0.2-0.2-0.3-0.2c-3.3-2-6.6-3.9-10-5.9
						c-0.3-0.1-0.6-0.1-0.9,0.1c-2.9,1.6-5.8,3.3-8.7,5c-0.5,0.3-1.1,0.6-1.6,1c0.1,0.1,0.1,0.1,0.1,0.2c3.4,2,6.9,4,10.3,6
						c0.2,0.1,0.5,0.1,0.7-0.1c1.3-0.7,2.5-1.5,3.7-2.2L32.3,34.7 M33.7,32.4v-0.7c0-3.8,0-7.5,0-11.3c0-0.4-0.2-0.8-0.6-0.9
						c-3.2-1.8-6.4-3.6-9.6-5.4c-0.2-0.1-0.4-0.2-0.6-0.3c0,4.1,0,8,0,12c0,0.2,0.2,0.4,0.4,0.6c1,0.6,2,1.2,3.1,1.8L33.7,32.4
						 M24.3,11.8c0.2,0.2,0.4,0.3,0.6,0.4c3.1,1.9,6.3,3.7,9.4,5.6c0.3,0.2,0.8,0.2,1.1,0c3.3-1.9,6.6-3.8,9.9-5.7
						c0.2-0.1,0.3-0.2,0.5-0.3c-0.1-0.1-0.2-0.1-0.3-0.2c-3.4-1.9-6.7-3.8-10.1-5.7c-0.3-0.1-0.6-0.1-0.8,0.1
						c-2.4,1.3-4.8,2.7-7.2,4C26.4,10.5,25.4,11.1,24.3,11.8 M38,35c0.1,0.1,0.2,0.1,0.2,0.2c3.3,1.9,6.6,3.8,9.8,5.6
						c0.3,0.1,0.6,0.1,0.8-0.1c3.4-1.9,6.8-3.9,10.1-5.8c0.1-0.1,0.3-0.2,0.4-0.3c-3.4-2-6.8-3.9-10.2-5.8c-0.3-0.1-0.6,0-0.8,0.1
						c-2.9,1.7-5.8,3.4-8.7,5.1C39.2,34.3,38.6,34.7,38,35 M47.3,14.1c-0.2,0.1-0.3,0.1-0.4,0.2c-3.4,2-6.9,4-10.3,6
						c-0.3,0.2-0.4,0.5-0.4,0.8c0,3.5,0,7.1,0,10.6c0,0.2,0,0.3,0,0.5c0.3-0.1,0.4-0.2,0.6-0.3c3-1.8,6-3.6,9-5.2
						c1-0.4,1.5-1.4,1.4-2.4C47.3,20.9,47.3,17.6,47.3,14.1"/>
				</g>
			</g>
		</g>
	</g>
</g>
</svg>
