<svg id="Group_12511" data-name="Group 12511" xmlns="http://www.w3.org/2000/svg" xmlns:xlink="http://www.w3.org/1999/xlink" width="151.573" height="52.014" viewBox="0 0 151.573 52.014">
  <defs>
    <clipPath id="clip-path">
      <rect id="Rectangle_892" data-name="Rectangle 892" width="151.573" height="52.014" fill="none"/>
    </clipPath>
  </defs>
  <g id="Group_12510" data-name="Group 12510" clip-path="url(#clip-path)">
    <path id="Path_12495" data-name="Path 12495" d="M398.759,41.177a3.9,3.9,0,1,1-3.9,3.9,3.9,3.9,0,0,1,3.9-3.9" transform="translate(-345.669 -36.047)" fill="#a4c422" fill-rule="evenodd"/>
    <path id="Path_12496" data-name="Path 12496" d="M4.564,18.72H7.153q1.228,0,2.282-.067a4.186,4.186,0,0,0,1.828-.507,3.039,3.039,0,0,0,1.228-1.4A6.62,6.62,0,0,0,12.945,14H13.4v5.258H0V18.8H1.334V1.9H0V1.451H13.372L13.4,5.828h-.454a5.306,5.306,0,0,0-.761-2.255A3.281,3.281,0,0,0,10.85,2.425a4.715,4.715,0,0,0-1.788-.4q-1-.04-2.149-.04H4.564V9.859h.694q.827,0,1.454-.053a2.15,2.15,0,0,0,1.054-.347,1.758,1.758,0,0,0,.641-.921,6.1,6.1,0,0,0,.24-1.748h.427v6.726H8.648a6.662,6.662,0,0,0-.2-1.615,2,2,0,0,0-.494-.907,1.543,1.543,0,0,0-.774-.4A5.2,5.2,0,0,0,6.139,10.5H4.564Z" transform="translate(0 -1.27)" fill="#1a1818" fill-rule="evenodd"/>
    <path id="Path_12497" data-name="Path 12497" d="M133.846,18.8h1.708v.454H129.2V18.8h1.6V1.9h-1.6V1.451h6.245a13.013,13.013,0,0,1,2.135.187,6.139,6.139,0,0,1,2.055.721,4.435,4.435,0,0,1,1.548,1.495,4.54,4.54,0,0,1,.614,2.482,4.756,4.756,0,0,1-.547,2.362,4.771,4.771,0,0,1-1.388,1.575,5.821,5.821,0,0,1-1.868.881,7.642,7.642,0,0,1-2.015.28,6.933,6.933,0,0,1-1.054-.08,2.519,2.519,0,0,1-1.054-.454Zm.027-8.408a2.666,2.666,0,0,0,1.628.534A3.085,3.085,0,0,0,138.01,9.7a4.276,4.276,0,0,0,.694-1.361,5.742,5.742,0,0,0,.24-1.708,6.873,6.873,0,0,0-.307-2.189,3.679,3.679,0,0,0-.894-1.481,3.559,3.559,0,0,0-1.4-.841,5.756,5.756,0,0,0-1.8-.267,1.889,1.889,0,0,0-.253.027q-.173.027-.387.053Z" transform="translate(-113.106 -1.27)" fill="#1a1818" fill-rule="evenodd"/>
    <path id="Path_12498" data-name="Path 12498" d="M242.288,1.451h6.646V1.9h-1.922V18.8h1.922v.454h-6.646V18.8h1.682V1.9h-1.682Z" transform="translate(-212.104 -1.27)" fill="#1a1818" fill-rule="evenodd"/>
    <path id="Path_12499" data-name="Path 12499" d="M565.129,18.72h2.589q1.228,0,2.282-.067a4.186,4.186,0,0,0,1.828-.507,3.04,3.04,0,0,0,1.228-1.4A6.622,6.622,0,0,0,573.51,14h.454v5.258h-13.4V18.8H561.9V1.9h-1.334V1.451h13.372l.027,4.377h-.454a5.307,5.307,0,0,0-.761-2.255,3.281,3.281,0,0,0-1.334-1.148,4.715,4.715,0,0,0-1.788-.4q-1-.04-2.149-.04h-2.349V9.859h.694q.827,0,1.454-.053a2.149,2.149,0,0,0,1.054-.347,1.758,1.758,0,0,0,.641-.921,6.091,6.091,0,0,0,.24-1.748h.427v6.726h-.427a6.66,6.66,0,0,0-.2-1.615,2,2,0,0,0-.494-.907,1.543,1.543,0,0,0-.774-.4A5.2,5.2,0,0,0,566.7,10.5h-1.575Z" transform="translate(-490.73 -1.27)" fill="#1a1818" fill-rule="evenodd"/>
    <path id="Path_12500" data-name="Path 12500" d="M694.867,17.514q.8,0,1.255-.04a.949.949,0,0,0,.654-.267,1.187,1.187,0,0,0,.24-.694q.04-.467.04-1.348V.966l-.347-.347h-1.842V.165h5.365l7.74,12.7V2.834q0-.854-.04-1.308a1.235,1.235,0,0,0-.2-.654.638.638,0,0,0-.467-.227q-.307-.027-.841-.027h-.587V.165h4.831V.619h-.614q-.534,0-.854.027a.652.652,0,0,0-.48.227,1.235,1.235,0,0,0-.2.654q-.04.454-.04,1.308V18.1h-1.335L697.563,2.247V14.712q0,1.068.027,1.641a1.456,1.456,0,0,0,.227.827.889.889,0,0,0,.654.294q.454.04,1.308.04v.454h-4.911Z" transform="translate(-608.3 -0.144)" fill="#1a1818" fill-rule="evenodd"/>
    <path id="Path_12501" data-name="Path 12501" d="M846.049,1.9h-.374a9.2,9.2,0,0,0-2.109.2,2.525,2.525,0,0,0-1.321.747,3.161,3.161,0,0,0-.694,1.495,12.346,12.346,0,0,0-.2,2.469h-.481q.053-1.388.067-2.7T841,1.451h13.212q.027,1.361.04,2.669t.04,2.7h-.427a12.647,12.647,0,0,0-.214-2.6,2.956,2.956,0,0,0-.734-1.495,2.512,2.512,0,0,0-1.415-.667A14.722,14.722,0,0,0,849.2,1.9V18.8h1.815v.454h-6.859V18.8h1.9Z" transform="translate(-736.115 -1.27)" fill="#1a1818" fill-rule="evenodd"/>
    <path id="Path_12502" data-name="Path 12502" d="M977.42,18.8h1.628v.454h-6.032V18.8h1.468V1.9h-1.468V1.451h7.714a7.125,7.125,0,0,1,1.735.214,4.137,4.137,0,0,1,1.508.707A3.71,3.71,0,0,1,985.04,3.68a4.486,4.486,0,0,1,.414,2.042,4.332,4.332,0,0,1-.28,1.628,3.63,3.63,0,0,1-.761,1.188,4.126,4.126,0,0,1-1.121.814,5.88,5.88,0,0,1-1.361.48v.294a3.635,3.635,0,0,1,1.748.948,4.436,4.436,0,0,1,.948,1.481,6.333,6.333,0,0,1,.4,1.748q.08.921.107,1.748.027.587.067,1.108a4.821,4.821,0,0,0,.147.908,1.437,1.437,0,0,0,.32.614.767.767,0,0,0,.587.227,1.514,1.514,0,0,0,.454-.067q.213-.067.427-.147a.077.077,0,0,0,.054-.027l.16.4a3.616,3.616,0,0,1-.894.294,4.971,4.971,0,0,1-.894.08,4.038,4.038,0,0,1-1.842-.347,2.493,2.493,0,0,1-1.028-.961,3.96,3.96,0,0,1-.481-1.468q-.12-.854-.2-1.895-.027-.32-.053-.667t-.08-.721a4.2,4.2,0,0,0-.547-1.788,2.64,2.64,0,0,0-1.014-.948,3.643,3.643,0,0,0-1.348-.373q-.747-.067-1.548-.067Zm0-16.9V9.779h.854a5.277,5.277,0,0,0,1.481-.214,3.541,3.541,0,0,0,1.294-.681,3.455,3.455,0,0,0,.908-1.2,4.2,4.2,0,0,0,.347-1.8,5.209,5.209,0,0,0-.32-1.975,2.925,2.925,0,0,0-.881-1.214,3.292,3.292,0,0,0-1.308-.614,7.075,7.075,0,0,0-1.6-.173Z" transform="translate(-851.797 -1.27)" fill="#1a1818" fill-rule="evenodd"/>
    <path id="Path_12503" data-name="Path 12503" d="M1113.68,18.72h2.589q1.228,0,2.282-.067a4.187,4.187,0,0,0,1.828-.507,3.039,3.039,0,0,0,1.228-1.4,6.619,6.619,0,0,0,.454-2.749h.454v5.258h-13.4V18.8h1.334V1.9h-1.334V1.451h13.372l.027,4.377h-.454a5.308,5.308,0,0,0-.761-2.255,3.282,3.282,0,0,0-1.334-1.148,4.715,4.715,0,0,0-1.788-.4q-1-.04-2.149-.04h-2.349V9.859h.694q.827,0,1.454-.053a2.149,2.149,0,0,0,1.054-.347,1.758,1.758,0,0,0,.641-.921,6.093,6.093,0,0,0,.24-1.748h.427v6.726h-.427a6.669,6.669,0,0,0-.2-1.615,2,2,0,0,0-.494-.907,1.543,1.543,0,0,0-.774-.4,5.2,5.2,0,0,0-1.041-.093h-1.575Z" transform="translate(-970.942 -1.27)" fill="#1a1818" fill-rule="evenodd"/>
    <path id="Path_12504" data-name="Path 12504" d="M315.452,18.07q0-.24-.027-.507a2.115,2.115,0,0,0-.107-.494,1.111,1.111,0,0,0-.227-.387.5.5,0,0,0-.387-.16.786.786,0,0,0-.36.133q-.227.134-.52.347a10,10,0,0,1-1.375.894,4.032,4.032,0,0,1-1.989.467,5.734,5.734,0,0,1-2.843-.707,6.673,6.673,0,0,1-2.149-1.908,9.111,9.111,0,0,1-1.361-2.816,11.971,11.971,0,0,1-.48-3.43,13.452,13.452,0,0,1,.467-3.536,10.308,10.308,0,0,1,1.348-3.043A7.114,7.114,0,0,1,307.605.8a5.421,5.421,0,0,1,2.936-.8,3.393,3.393,0,0,1,1.281.227,9.419,9.419,0,0,1,1.041.494q.48.267.907.494a1.905,1.905,0,0,0,.908.227.623.623,0,0,0,.48-.173,1.006,1.006,0,0,0,.214-.547h.481V6.112h-.534a6.611,6.611,0,0,0-.414-1.935,7.5,7.5,0,0,0-.921-1.762,4.878,4.878,0,0,0-1.321-1.281,2.916,2.916,0,0,0-1.615-.494,2.4,2.4,0,0,0-1.468.454,3.829,3.829,0,0,0-1.041,1.2,7.1,7.1,0,0,0-.68,1.695,17.481,17.481,0,0,0-.4,1.922,18.025,18.025,0,0,0-.187,1.922q-.04.948-.04,1.668a24.288,24.288,0,0,0,.16,2.763,9.485,9.485,0,0,0,.64,2.562,4.808,4.808,0,0,0,1.361,1.895,3.508,3.508,0,0,0,2.322.734,2.073,2.073,0,0,0,1.415-.574,5.468,5.468,0,0,0,1.121-1.441,9.742,9.742,0,0,0,.787-1.868,11.029,11.029,0,0,0,.414-1.855h.4V18.07Z" transform="translate(-265.802)" fill="#1a1818" fill-rule="evenodd"/>
    <path id="Path_12505" data-name="Path 12505" d="M450.95,18.07q0-.24.027-.507a2.107,2.107,0,0,1,.107-.494,1.11,1.11,0,0,1,.227-.387.5.5,0,0,1,.387-.16.786.786,0,0,1,.36.133q.227.134.52.347a10,10,0,0,0,1.375.894,4.032,4.032,0,0,0,1.989.467,5.735,5.735,0,0,0,2.843-.707,6.673,6.673,0,0,0,2.148-1.908,9.11,9.11,0,0,0,1.361-2.816,11.971,11.971,0,0,0,.48-3.43,13.448,13.448,0,0,0-.467-3.536,10.3,10.3,0,0,0-1.348-3.043A7.115,7.115,0,0,0,458.8.8a5.422,5.422,0,0,0-2.936-.8,3.393,3.393,0,0,0-1.281.227,9.417,9.417,0,0,0-1.041.494q-.48.267-.907.494a1.905,1.905,0,0,1-.908.227.623.623,0,0,1-.48-.173,1.006,1.006,0,0,1-.213-.547h-.48V6.112h.534a6.609,6.609,0,0,1,.414-1.935,7.5,7.5,0,0,1,.921-1.762,4.877,4.877,0,0,1,1.321-1.281,2.915,2.915,0,0,1,1.615-.494,2.4,2.4,0,0,1,1.468.454,3.83,3.83,0,0,1,1.041,1.2,7.11,7.11,0,0,1,.681,1.695,17.523,17.523,0,0,1,.4,1.922,18.009,18.009,0,0,1,.187,1.922q.04.948.04,1.668a24.3,24.3,0,0,1-.16,2.763,9.49,9.49,0,0,1-.64,2.562,4.808,4.808,0,0,1-1.361,1.895,3.508,3.508,0,0,1-2.322.734,2.073,2.073,0,0,1-1.415-.574,5.465,5.465,0,0,1-1.121-1.441,9.734,9.734,0,0,1-.787-1.868,11.041,11.041,0,0,1-.414-1.855h-.4V18.07Z" transform="translate(-394.42)" fill="#1a1818" fill-rule="evenodd"/>
    <path id="Path_12506" data-name="Path 12506" d="M406.195,49.671a2.84,2.84,0,1,1-2.84,2.84,2.84,2.84,0,0,1,2.84-2.84" transform="translate(-353.105 -43.483)" fill="#e4004c" fill-rule="evenodd"/>
    <path id="Path_12507" data-name="Path 12507" d="M414.29,58.917A1.688,1.688,0,1,1,412.6,60.6a1.688,1.688,0,0,1,1.688-1.688" transform="translate(-361.2 -51.577)" fill="#ffbe00" fill-rule="evenodd"/>
    <path id="Path_12508" data-name="Path 12508" d="M242.443,209.92l-.276-.714h-.038a2.113,2.113,0,0,1-.744.632,2.4,2.4,0,0,1-1,.177,1.612,1.612,0,0,1-1.19-.432,1.657,1.657,0,0,1-.434-1.23,1.385,1.385,0,0,1,.585-1.232,3.386,3.386,0,0,1,1.763-.439l.911-.029v-.23a.714.714,0,0,0-.817-.8,3.718,3.718,0,0,0-1.479.38l-.474-.967a4.269,4.269,0,0,1,2.009-.474,2.505,2.505,0,0,1,1.62.46,1.7,1.7,0,0,1,.563,1.4v3.5Zm-.422-2.432-.554.019a1.775,1.775,0,0,0-.93.225.708.708,0,0,0-.305.629q0,.605.7.606a1.1,1.1,0,0,0,.8-.287,1,1,0,0,0,.3-.761Z" transform="translate(-209.018 -179.078)" fill="#1a1818"/>
    <path id="Path_12509" data-name="Path 12509" d="M286.651,201.782a3.1,3.1,0,0,0,.9-.164v1.066a3.211,3.211,0,0,1-1.314.24,1.609,1.609,0,0,1-1.251-.434,1.891,1.891,0,0,1-.392-1.3v-2.53h-.685v-.606l.789-.479.413-1.108h.915v1.118h1.47v1.075h-1.47v2.53a.56.56,0,0,0,.171.451.679.679,0,0,0,.454.145" transform="translate(-248.54 -171.988)" fill="#1a1818"/>
    <path id="Path_12510" data-name="Path 12510" d="M340.555,199.331H339.1v-5.652h-1.863v-1.212h5.183v1.212h-1.864Z" transform="translate(-295.223 -168.489)" fill="#1a1818"/>
    <path id="Path_12511" data-name="Path 12511" d="M391.261,196.229h-1.432v-3.066q0-1.136-.845-1.136a.961.961,0,0,0-.868.408,2.494,2.494,0,0,0-.267,1.324v2.47h-1.432v-7.305h1.432v1.488q0,.174-.033.817l-.033.422h.075a1.659,1.659,0,0,1,1.521-.77,1.858,1.858,0,0,1,1.4.5,1.976,1.976,0,0,1,.479,1.427Z" transform="translate(-338.275 -165.388)" fill="#1a1818"/>
    <path id="Path_12512" data-name="Path 12512" d="M437.273,210.083a2.712,2.712,0,0,1-1.981-.7,2.649,2.649,0,0,1-.713-1.981,2.912,2.912,0,0,1,.659-2.04,2.349,2.349,0,0,1,1.824-.72,2.31,2.31,0,0,1,1.732.633,2.4,2.4,0,0,1,.62,1.751v.7h-3.385a1.379,1.379,0,0,0,.362.953,1.271,1.271,0,0,0,.948.343,3.951,3.951,0,0,0,.9-.1,4.527,4.527,0,0,0,.883-.315v1.108a3.373,3.373,0,0,1-.8.28,5.066,5.066,0,0,1-1.042.092m-.2-4.423a.91.91,0,0,0-.714.289,1.342,1.342,0,0,0-.3.82h2.009a1.194,1.194,0,0,0-.276-.82.941.941,0,0,0-.723-.289" transform="translate(-380.438 -179.148)" fill="#1a1818"/>
    <path id="Path_12513" data-name="Path 12513" d="M504.461,192.887a1.483,1.483,0,0,0-1.272.617,2.872,2.872,0,0,0-.451,1.721q0,2.3,1.723,2.3a5.433,5.433,0,0,0,1.751-.362v1.221a4.857,4.857,0,0,1-1.887.352,2.879,2.879,0,0,1-2.291-.909,3.847,3.847,0,0,1-.793-2.608,4.261,4.261,0,0,1,.389-1.876,2.819,2.819,0,0,1,1.12-1.235,3.315,3.315,0,0,1,1.711-.43,4.626,4.626,0,0,1,2.009.484L506,193.342a7.8,7.8,0,0,0-.775-.319,2.324,2.324,0,0,0-.765-.136" transform="translate(-438.796 -167.796)" fill="#1a1818"/>
    <path id="Path_12514" data-name="Path 12514" d="M552.861,209.92l-.277-.714h-.038a2.113,2.113,0,0,1-.744.632,2.4,2.4,0,0,1-1,.177,1.612,1.612,0,0,1-1.19-.432,1.657,1.657,0,0,1-.434-1.23,1.385,1.385,0,0,1,.585-1.232,3.385,3.385,0,0,1,1.763-.439l.911-.029v-.23a.714.714,0,0,0-.817-.8,3.719,3.719,0,0,0-1.479.38l-.474-.967a4.269,4.269,0,0,1,2.009-.474,2.505,2.505,0,0,1,1.62.46,1.7,1.7,0,0,1,.563,1.4v3.5Zm-.423-2.432-.554.019a1.775,1.775,0,0,0-.93.225.708.708,0,0,0-.305.629q0,.605.7.606a1.1,1.1,0,0,0,.8-.287,1,1,0,0,0,.3-.761Z" transform="translate(-480.763 -179.078)" fill="#1a1818"/>
    <path id="Path_12515" data-name="Path 12515" d="M603.429,209.989H602v-3.066a1.47,1.47,0,0,0-.2-.852.734.734,0,0,0-.643-.284.967.967,0,0,0-.868.4,2.49,2.49,0,0,0-.268,1.331v2.47h-1.432v-5.249h1.094l.192.671h.08a1.511,1.511,0,0,1,.66-.575,2.246,2.246,0,0,1,.955-.195,1.835,1.835,0,0,1,1.39.5,1.988,1.988,0,0,1,.474,1.43Z" transform="translate(-524.011 -179.148)" fill="#1a1818"/>
    <path id="Path_12516" data-name="Path 12516" d="M645.276,210.683l-2-5.249h1.5l1.014,2.991a4.8,4.8,0,0,1,.2,1.075h.038a4.008,4.008,0,0,1,.211-1.075l1.009-2.991h1.5l-2,5.249Z" transform="translate(-563.136 -179.841)" fill="#1a1818"/>
    <path id="Path_12517" data-name="Path 12517" d="M694.1,209.92l-.276-.714h-.038a2.114,2.114,0,0,1-.744.632,2.4,2.4,0,0,1-1,.177,1.612,1.612,0,0,1-1.19-.432,1.657,1.657,0,0,1-.434-1.23,1.385,1.385,0,0,1,.585-1.232,3.386,3.386,0,0,1,1.763-.439l.91-.029v-.23a.714.714,0,0,0-.816-.8,3.718,3.718,0,0,0-1.479.38l-.474-.967a4.269,4.269,0,0,1,2.009-.474,2.505,2.505,0,0,1,1.62.46,1.7,1.7,0,0,1,.563,1.4v3.5Zm-.422-2.432-.554.019a1.775,1.775,0,0,0-.93.225.708.708,0,0,0-.305.629q0,.605.7.606a1.1,1.1,0,0,0,.8-.287,1.006,1.006,0,0,0,.3-.761Z" transform="translate(-604.411 -179.078)" fill="#1a1818"/>
    <path id="Path_12518" data-name="Path 12518" d="M741.249,208.429a1.445,1.445,0,0,1-.561,1.23,2.772,2.772,0,0,1-1.679.423,5.238,5.238,0,0,1-.976-.078,3.645,3.645,0,0,1-.756-.228v-1.182a4.988,4.988,0,0,0,.9.314,3.653,3.653,0,0,0,.881.127q.779,0,.779-.451a.375.375,0,0,0-.1-.275,1.476,1.476,0,0,0-.357-.239q-.254-.133-.676-.312a4.27,4.27,0,0,1-.89-.469,1.324,1.324,0,0,1-.413-.5,1.638,1.638,0,0,1-.129-.687,1.247,1.247,0,0,1,.542-1.082,2.642,2.642,0,0,1,1.538-.382,4.367,4.367,0,0,1,1.845.413l-.432,1.033q-.395-.169-.737-.277a2.315,2.315,0,0,0-.7-.108q-.634,0-.634.343a.4.4,0,0,0,.2.333,5.493,5.493,0,0,0,.895.418,4.159,4.159,0,0,1,.9.465,1.379,1.379,0,0,1,.423.5,1.527,1.527,0,0,1,.136.671" transform="translate(-645.419 -179.147)" fill="#1a1818"/>
    <path id="Path_12519" data-name="Path 12519" d="M800.6,196.7v2.634h-1.455v-6.864h2a3.425,3.425,0,0,1,2.07.509,2.032,2.032,0,0,1,.338,2.625,2.215,2.215,0,0,1-.944.739l2.018,2.991h-1.615l-1.639-2.634Zm0-1.183h.47a1.794,1.794,0,0,0,1.019-.23.821.821,0,0,0,.328-.723.752.752,0,0,0-.336-.694,2.039,2.039,0,0,0-1.04-.206H800.6Z" transform="translate(-699.586 -168.489)" fill="#1a1818"/>
    <path id="Path_12520" data-name="Path 12520" d="M849.325,210.083a2.712,2.712,0,0,1-1.981-.7,2.649,2.649,0,0,1-.713-1.981,2.912,2.912,0,0,1,.659-2.04,2.349,2.349,0,0,1,1.824-.72,2.31,2.31,0,0,1,1.732.633,2.4,2.4,0,0,1,.62,1.751v.7h-3.385a1.38,1.38,0,0,0,.362.953,1.271,1.271,0,0,0,.948.343,3.95,3.95,0,0,0,.9-.1,4.526,4.526,0,0,0,.883-.315v1.108a3.373,3.373,0,0,1-.8.28,5.065,5.065,0,0,1-1.042.092m-.2-4.423a.91.91,0,0,0-.714.289,1.343,1.343,0,0,0-.3.82h2.009a1.194,1.194,0,0,0-.276-.82.941.941,0,0,0-.723-.289" transform="translate(-741.157 -179.148)" fill="#1a1818"/>
    <path id="Path_12521" data-name="Path 12521" d="M896.21,208.429a1.444,1.444,0,0,1-.561,1.23,2.772,2.772,0,0,1-1.678.423,5.236,5.236,0,0,1-.976-.078,3.644,3.644,0,0,1-.756-.228v-1.182a4.993,4.993,0,0,0,.9.314,3.655,3.655,0,0,0,.881.127q.779,0,.779-.451a.376.376,0,0,0-.1-.275,1.478,1.478,0,0,0-.357-.239q-.253-.133-.676-.312a4.266,4.266,0,0,1-.89-.469,1.324,1.324,0,0,1-.413-.5,1.637,1.637,0,0,1-.129-.687,1.247,1.247,0,0,1,.542-1.082,2.642,2.642,0,0,1,1.538-.382,4.369,4.369,0,0,1,1.845.413l-.432,1.033q-.394-.169-.737-.277a2.316,2.316,0,0,0-.7-.108q-.634,0-.634.343a.4.4,0,0,0,.2.333,5.492,5.492,0,0,0,.894.418,4.162,4.162,0,0,1,.9.465,1.381,1.381,0,0,1,.422.5,1.528,1.528,0,0,1,.136.671" transform="translate(-781.075 -179.147)" fill="#1a1818"/>
    <path id="Path_12522" data-name="Path 12522" d="M932.662,189.624q0-.7.779-.7t.779.7a.681.681,0,0,1-.195.519.819.819,0,0,1-.585.186q-.779,0-.779-.7m1.493,6.606h-1.432v-5.249h1.432Z" transform="translate(-816.471 -165.388)" fill="#1a1818"/>
    <path id="Path_12523" data-name="Path 12523" d="M956.127,196.324a1.706,1.706,0,0,1-1.453-.719,4.027,4.027,0,0,1,.01-4,1.746,1.746,0,0,1,1.481-.72,1.711,1.711,0,0,1,1.512.77h.047a5.859,5.859,0,0,1-.108-1.047v-1.681h1.437v7.305h-1.1l-.277-.681h-.061a1.638,1.638,0,0,1-1.488.775m.5-1.141a.971.971,0,0,0,.805-.319,1.857,1.857,0,0,0,.279-1.084v-.155a2.149,2.149,0,0,0-.26-1.211.968.968,0,0,0-.848-.366.841.841,0,0,0-.745.406,2.173,2.173,0,0,0-.265,1.181,2.052,2.052,0,0,0,.268,1.162.874.874,0,0,0,.765.387" transform="translate(-835.278 -165.388)" fill="#1a1818"/>
    <path id="Path_12524" data-name="Path 12524" d="M1005.682,210.083a2.712,2.712,0,0,1-1.981-.7,2.649,2.649,0,0,1-.713-1.981,2.912,2.912,0,0,1,.659-2.04,2.348,2.348,0,0,1,1.824-.72,2.31,2.31,0,0,1,1.732.633,2.4,2.4,0,0,1,.62,1.751v.7h-3.385a1.38,1.38,0,0,0,.362.953,1.272,1.272,0,0,0,.948.343,3.951,3.951,0,0,0,.9-.1,4.529,4.529,0,0,0,.883-.315v1.108a3.374,3.374,0,0,1-.8.28,5.065,5.065,0,0,1-1.042.092m-.2-4.423a.91.91,0,0,0-.714.289,1.343,1.343,0,0,0-.3.82h2.009a1.194,1.194,0,0,0-.276-.82.941.941,0,0,0-.723-.289" transform="translate(-878.035 -179.148)" fill="#1a1818"/>
    <path id="Path_12525" data-name="Path 12525" d="M1055.991,209.989h-1.432v-3.066a1.471,1.471,0,0,0-.2-.852.735.735,0,0,0-.643-.284.967.967,0,0,0-.868.4,2.488,2.488,0,0,0-.267,1.331v2.47h-1.432v-5.249h1.094l.192.671h.08a1.512,1.512,0,0,1,.66-.575,2.246,2.246,0,0,1,.955-.195,1.835,1.835,0,0,1,1.39.5,1.988,1.988,0,0,1,.474,1.43Z" transform="translate(-920.193 -179.148)" fill="#1a1818"/>
    <path id="Path_12526" data-name="Path 12526" d="M1101.764,210.082q-2.451,0-2.451-2.69a2.87,2.87,0,0,1,.667-2.045,2.5,2.5,0,0,1,1.911-.706,3.641,3.641,0,0,1,1.634.357l-.423,1.108q-.338-.136-.629-.223a2.036,2.036,0,0,0-.582-.087q-1.117,0-1.118,1.587,0,1.54,1.118,1.54a2.558,2.558,0,0,0,.765-.11,2.759,2.759,0,0,0,.7-.345v1.225a2.289,2.289,0,0,1-.7.305,3.945,3.945,0,0,1-.894.085" transform="translate(-962.36 -179.147)" fill="#1a1818"/>
    <path id="Path_12527" data-name="Path 12527" d="M1141.69,210.083a2.711,2.711,0,0,1-1.981-.7,2.649,2.649,0,0,1-.713-1.981,2.913,2.913,0,0,1,.659-2.04,2.348,2.348,0,0,1,1.824-.72,2.31,2.31,0,0,1,1.732.633,2.4,2.4,0,0,1,.62,1.751v.7h-3.385a1.38,1.38,0,0,0,.362.953,1.272,1.272,0,0,0,.948.343,3.95,3.95,0,0,0,.9-.1,4.528,4.528,0,0,0,.883-.315v1.108a3.373,3.373,0,0,1-.8.28,5.065,5.065,0,0,1-1.042.092m-.2-4.423a.91.91,0,0,0-.714.289,1.342,1.342,0,0,0-.3.82h2.009a1.193,1.193,0,0,0-.276-.82.94.94,0,0,0-.723-.289" transform="translate(-997.099 -179.148)" fill="#1a1818"/>
    <path id="Path_12528" data-name="Path 12528" d="M1188.576,208.429a1.444,1.444,0,0,1-.562,1.23,2.771,2.771,0,0,1-1.678.423,5.238,5.238,0,0,1-.976-.078,3.645,3.645,0,0,1-.756-.228v-1.182a5,5,0,0,0,.9.314,3.655,3.655,0,0,0,.881.127q.779,0,.779-.451a.375.375,0,0,0-.1-.275,1.481,1.481,0,0,0-.357-.239q-.253-.133-.676-.312a4.265,4.265,0,0,1-.89-.469,1.325,1.325,0,0,1-.414-.5,1.642,1.642,0,0,1-.128-.687,1.247,1.247,0,0,1,.542-1.082,2.641,2.641,0,0,1,1.538-.382,4.369,4.369,0,0,1,1.845.413l-.432,1.033q-.394-.169-.737-.277a2.317,2.317,0,0,0-.7-.108q-.634,0-.634.343a.4.4,0,0,0,.2.333,5.492,5.492,0,0,0,.894.418,4.152,4.152,0,0,1,.9.465,1.38,1.38,0,0,1,.423.5,1.527,1.527,0,0,1,.136.671" transform="translate(-1037.018 -179.147)" fill="#1a1818"/>
    <path id="Path_12529" data-name="Path 12529" d="M1018.052,365.926a1.775,1.775,0,0,1-.669,1.465,2.9,2.9,0,0,1-1.861.535,4.365,4.365,0,0,1-1.944-.413V366.16a8.1,8.1,0,0,0,1.176.437,3.484,3.484,0,0,0,.88.127,1.251,1.251,0,0,0,.735-.183.626.626,0,0,0,.256-.545.6.6,0,0,0-.113-.36,1.266,1.266,0,0,0-.331-.3,8.4,8.4,0,0,0-.89-.465,4.2,4.2,0,0,1-.944-.568,2.133,2.133,0,0,1-.5-.633,1.81,1.81,0,0,1-.187-.845,1.775,1.775,0,0,1,.617-1.432,2.567,2.567,0,0,1,1.707-.521A4.006,4.006,0,0,1,1017,361a7.018,7.018,0,0,1,1.016.356l-.469,1.132a6.847,6.847,0,0,0-.909-.315,2.945,2.945,0,0,0-.707-.089.937.937,0,0,0-.634.192.635.635,0,0,0-.221.5.623.623,0,0,0,.089.336.971.971,0,0,0,.284.277,8.707,8.707,0,0,0,.922.482,3.666,3.666,0,0,1,1.319.922,1.8,1.8,0,0,1,.357,1.134" transform="translate(-887.306 -315.912)" fill="#1a1818"/>
    <path id="Path_12530" data-name="Path 12530" d="M1058.711,379.276a2.712,2.712,0,0,1-1.981-.7,2.649,2.649,0,0,1-.713-1.981,2.911,2.911,0,0,1,.66-2.04,2.348,2.348,0,0,1,1.824-.72,2.311,2.311,0,0,1,1.732.633,2.4,2.4,0,0,1,.62,1.751v.7h-3.385a1.379,1.379,0,0,0,.361.953,1.272,1.272,0,0,0,.948.343,3.951,3.951,0,0,0,.9-.1,4.517,4.517,0,0,0,.883-.315v1.108a3.372,3.372,0,0,1-.8.28,5.066,5.066,0,0,1-1.042.092m-.2-4.423a.91.91,0,0,0-.714.289,1.342,1.342,0,0,0-.3.82h2.009a1.193,1.193,0,0,0-.277-.82.94.94,0,0,0-.723-.289" transform="translate(-924.457 -327.263)" fill="#1a1818"/>
    <path id="Path_12531" data-name="Path 12531" d="M1103.117,379.877l-.4-1.835-.535-2.32h-.042l-.957,4.155h-1.54l-1.493-5.249h1.427l.606,2.323q.1.414.286,1.723h.038a9.686,9.686,0,0,1,.164-1.131l.075-.4.648-2.516h1.578l.614,2.516q.057.258.139.758a6.641,6.641,0,0,1,.092.772h.038q.051-.418.145-.951t.16-.772l.629-2.323h1.4l-1.511,5.249Z" transform="translate(-961.339 -327.957)" fill="#1a1818"/>
    <path id="Path_12532" data-name="Path 12532" d="M1172.412,373.835a2.27,2.27,0,0,1,.484.042l-.108,1.343a1.648,1.648,0,0,0-.422-.047,1.518,1.518,0,0,0-1.068.352,1.273,1.273,0,0,0-.382.986v2.671h-1.432v-5.249h1.084l.212.883h.07a1.969,1.969,0,0,1,.66-.711,1.624,1.624,0,0,1,.9-.27" transform="translate(-1023.788 -327.263)" fill="#1a1818"/>
    <path id="Path_12533" data-name="Path 12533" d="M1204.037,358.818q0-.7.779-.7t.78.7a.681.681,0,0,1-.195.518.818.818,0,0,1-.585.186q-.779,0-.779-.7m1.493,6.606H1204.1v-5.249h1.432Z" transform="translate(-1054.038 -313.504)" fill="#1a1818"/>
    <rect id="Rectangle_891" data-name="Rectangle 891" width="151.558" height="0.602" transform="translate(0 37.465)" fill="#1a1818"/>
  </g>
</svg>
