<?xml version="1.0" encoding="iso-8859-1"?>
<!-- Generator: Adobe Illustrator 27.4.0, SVG Export Plug-In . SVG Version: 6.00 Build 0)  -->
<svg version="1.1" id="Layer_1" xmlns="http://www.w3.org/2000/svg" xmlns:xlink="http://www.w3.org/1999/xlink" x="0px" y="0px"
	 viewBox="0 0 4320 3600" style="enable-background:new 0 0 4320 3600;" xml:space="preserve">
<g>
	<circle style="fill-rule:evenodd;clip-rule:evenodd;fill:#A6CE38;" cx="1977.984" cy="1664.127" r="31.29"/>
	<path style="fill-rule:evenodd;clip-rule:evenodd;" d="M1588.469,1731.728h20.781c6.57,0,12.676-0.179,18.318-0.535
		c5.642-0.358,10.534-1.714,14.676-4.071c4.141-2.357,7.427-6.106,9.855-11.248c2.429-5.141,3.641-12.497,3.641-22.067h3.643v42.206
		h-107.551v-3.641h10.711v-135.617h-10.711v-3.643h107.336l0.215,35.137h-3.643c-1.143-7.856-3.178-13.89-6.106-18.103
		c-2.927-4.215-6.498-7.285-10.711-9.214c-4.214-1.927-8.999-2.998-14.354-3.213c-5.357-0.214-11.105-0.321-17.247-0.321h-18.853
		v63.202h5.57c4.428,0,8.32-0.143,11.675-0.428c3.357-0.286,6.178-1.214,8.463-2.785c2.286-1.573,4-4.035,5.142-7.392
		c1.143-3.356,1.786-8.035,1.929-14.033h3.427v53.99h-3.427c-0.143-5.427-0.679-9.747-1.608-12.962
		c-0.928-3.214-2.25-5.641-3.962-7.284c-1.714-1.643-3.786-2.714-6.213-3.214c-2.429-0.5-5.214-0.749-8.356-0.749h-12.64V1731.728z"
		/>
	<path style="fill-rule:evenodd;clip-rule:evenodd;" d="M1718.312,1732.372h13.713v3.641h-50.99v-3.641h12.854v-135.617h-12.854
		v-3.643h50.133c5.427,0,11.14,0.501,17.139,1.5c6,1,11.499,2.927,16.498,5.784c4.999,2.857,9.14,6.857,12.425,11.999
		c3.285,5.141,4.928,11.782,4.928,19.925c0,7.426-1.463,13.746-4.392,18.961c-2.927,5.212-6.642,9.426-11.141,12.64
		s-9.498,5.571-14.997,7.07c-5.499,1.499-10.891,2.25-16.174,2.25c-2.857,0-5.678-0.215-8.464-0.643
		c-2.785-0.428-5.606-1.643-8.463-3.642L1718.312,1732.372L1718.312,1732.372z M1718.527,1664.884
		c3.857,2.857,8.213,4.285,13.068,4.285c4.143,0,7.927-0.856,11.356-2.57c3.428-1.714,6.357-4.141,8.784-7.285
		c2.429-3.142,4.285-6.785,5.571-10.926c1.286-4.143,1.929-8.712,1.929-13.711c0-6.857-0.822-12.713-2.464-17.569
		c-1.643-4.856-4.036-8.819-7.177-11.89c-3.142-3.072-6.892-5.321-11.249-6.749c-4.356-1.429-9.176-2.143-14.462-2.143
		c-0.428,0-1.107,0.072-2.034,0.214c-0.928,0.143-1.964,0.286-3.106,0.43L1718.527,1664.884z"/>
	<polygon style="fill-rule:evenodd;clip-rule:evenodd;" points="1794.121,1593.111 1847.469,1593.111 1847.469,1596.754 
		1832.044,1596.754 1832.044,1732.372 1847.469,1732.372 1847.469,1736.013 1794.121,1736.013 1794.121,1732.372 1807.62,1732.372 
		1807.62,1596.754 1794.121,1596.754 	"/>
	<path style="fill-rule:evenodd;clip-rule:evenodd;" d="M2149.034,1731.728h20.781c6.57,0,12.676-0.179,18.318-0.535
		c5.642-0.358,10.534-1.714,14.677-4.071c4.141-2.357,7.427-6.106,9.855-11.248c2.428-5.141,3.641-12.497,3.641-22.067h3.643v42.206
		h-107.551v-3.641h10.711v-135.617h-10.711v-3.643h107.336l0.215,35.137h-3.643c-1.143-7.856-3.178-13.89-6.106-18.103
		c-2.927-4.215-6.498-7.285-10.711-9.214c-4.214-1.927-8.998-2.998-14.354-3.213c-5.357-0.214-11.105-0.321-17.247-0.321h-18.853
		v63.202h5.57c4.428,0,8.32-0.143,11.675-0.428c3.357-0.286,6.178-1.214,8.463-2.785c2.286-1.573,4-4.035,5.142-7.392
		c1.143-3.356,1.786-8.035,1.929-14.033h3.427v53.99h-3.427c-0.143-5.427-0.679-9.747-1.608-12.962
		c-0.927-3.214-2.25-5.641-3.962-7.284c-1.714-1.643-3.786-2.714-6.213-3.214c-2.429-0.5-5.214-0.749-8.356-0.749h-12.64V1731.728z"
		/>
	<path style="fill-rule:evenodd;clip-rule:evenodd;" d="M2246.701,1731.085c4.284,0,7.641-0.107,10.069-0.322
		c2.427-0.214,4.177-0.928,5.249-2.142c1.071-1.214,1.714-3.07,1.929-5.57c0.213-2.499,0.321-6.106,0.321-10.818v-113.979
		l-2.785-2.786h-14.782v-3.643h43.062l62.131,101.982v-80.556c0-4.571-0.106-8.071-0.321-10.498c-0.215-2.429-0.75-4.178-1.607-5.25
		c-0.858-1.071-2.107-1.678-3.749-1.82c-1.643-0.143-3.892-0.215-6.749-0.215h-4.714v-3.643h38.778v3.643h-4.927
		c-2.857,0-5.141,0.072-6.855,0.215c-1.714,0.142-3,0.749-3.856,1.82c-0.858,1.072-1.393,2.821-1.608,5.25
		c-0.214,2.427-0.321,5.927-0.321,10.498v122.548h-10.713l-76.913-127.262v100.053c0,5.714,0.072,10.106,0.215,13.175
		c0.142,3.072,0.749,5.286,1.82,6.642c1.072,1.358,2.821,2.144,5.25,2.357c2.427,0.215,5.927,0.322,10.498,0.322v3.642h-39.421
		V1731.085z"/>
	<path style="fill-rule:evenodd;clip-rule:evenodd;" d="M2434.269,1596.754h-2.999c-6.856,0-12.498,0.535-16.926,1.606
		c-4.428,1.071-7.963,3.07-10.605,5.999c-2.642,2.928-4.5,6.928-5.571,11.999c-1.071,5.069-1.606,11.677-1.606,19.817h-3.857
		c0.285-7.428,0.464-14.641,0.536-21.639c0.072-6.999,0.25-14.141,0.536-21.425h106.051c0.143,7.284,0.25,14.426,0.321,21.425
		c0.072,6.998,0.179,14.211,0.323,21.639h-3.428c0-8.712-0.572-15.676-1.714-20.888c-1.143-5.214-3.106-9.214-5.891-11.999
		c-2.785-2.785-6.57-4.571-11.355-5.355c-4.784-0.786-10.962-1.179-18.531-1.179v135.617h14.567v3.641h-55.06v-3.641h15.211
		V1596.754z"/>
	<path style="fill-rule:evenodd;clip-rule:evenodd;" d="M2560.199,1732.372h13.068v3.641h-48.418v-3.641h11.782v-135.617h-11.782
		v-3.643h61.916c4.714,0,9.355,0.571,13.926,1.714c4.571,1.142,8.605,3.036,12.104,5.678c3.5,2.642,6.357,6.141,8.571,10.498
		c2.214,4.356,3.321,9.821,3.321,16.39c0,4.999-0.75,9.355-2.25,13.068c-1.5,3.713-3.535,6.892-6.106,9.534
		c-2.572,2.642-5.57,4.82-8.999,6.534s-7.07,3-10.926,3.857v2.357c5.999,1.571,10.675,4.107,14.032,7.606
		c3.356,3.5,5.893,7.463,7.607,11.891c1.714,4.427,2.785,9.104,3.213,14.033c0.428,4.928,0.715,9.604,0.856,14.032
		c0.143,3.143,0.322,6.106,0.536,8.891c0.215,2.786,0.607,5.214,1.178,7.285c0.571,2.071,1.429,3.713,2.572,4.927
		c1.143,1.214,2.714,1.822,4.713,1.822c1.286,0,2.5-0.179,3.643-0.535c1.141-0.356,2.284-0.75,3.427-1.179
		c0.143,0,0.287-0.071,0.429-0.215l1.285,3.215c-2.427,1.143-4.82,1.928-7.177,2.356c-2.357,0.43-4.748,0.643-7.177,0.643
		c-6.285,0-11.213-0.928-14.782-2.785c-3.572-1.856-6.321-4.428-8.248-7.713c-1.929-3.285-3.215-7.213-3.857-11.784
		c-0.643-4.569-1.178-9.64-1.608-15.21c-0.142-1.714-0.285-3.5-0.428-5.357c-0.141-1.856-0.356-3.785-0.643-5.784
		c-0.714-6.141-2.178-10.926-4.392-14.354c-2.214-3.428-4.927-5.963-8.14-7.607c-3.214-1.643-6.821-2.642-10.82-2.999
		c-3.998-0.356-8.141-0.536-12.425-0.536V1732.372L2560.199,1732.372z M2560.199,1596.754v63.202h6.856
		c3.998,0,7.962-0.571,11.89-1.714c3.928-1.142,7.392-2.964,10.39-5.463c3-2.5,5.429-5.714,7.284-9.642
		c1.857-3.927,2.786-8.747,2.786-14.462c0-6.427-0.856-11.712-2.57-15.853c-1.714-4.143-4.072-7.392-7.07-9.747
		c-3-2.357-6.5-4-10.499-4.929c-4-0.928-8.285-1.392-12.854-1.392H2560.199z"/>
	<path style="fill-rule:evenodd;clip-rule:evenodd;" d="M2697.585,1731.728h20.781c6.57,0,12.676-0.179,18.318-0.535
		c5.642-0.358,10.533-1.714,14.676-4.071c4.142-2.357,7.427-6.106,9.855-11.248c2.429-5.141,3.641-12.497,3.641-22.067h3.643v42.206
		h-107.551v-3.641h10.711v-135.617h-10.711v-3.643h107.336l0.215,35.137h-3.643c-1.143-7.856-3.178-13.89-6.106-18.103
		c-2.927-4.215-6.498-7.285-10.711-9.214c-4.214-1.927-8.999-2.998-14.354-3.213c-5.357-0.214-11.105-0.321-17.247-0.321h-18.853
		v63.202h5.57c4.428,0,8.32-0.143,11.675-0.428c3.357-0.286,6.177-1.214,8.463-2.785c2.286-1.573,4-4.035,5.142-7.392
		c1.143-3.356,1.786-8.035,1.929-14.033h3.427v53.99h-3.427c-0.143-5.427-0.679-9.747-1.608-12.962
		c-0.928-3.214-2.25-5.641-3.962-7.284c-1.714-1.643-3.786-2.714-6.213-3.214c-2.429-0.5-5.214-0.749-8.356-0.749h-12.64V1731.728z"
		/>
	<g>
		<path style="fill-rule:evenodd;clip-rule:evenodd;" d="M1950.372,1736.704c0-1.286-0.072-2.642-0.213-4.071
			c-0.143-1.427-0.43-2.75-0.858-3.964c-0.428-1.213-1.035-2.248-1.822-3.106c-0.785-0.856-1.82-1.286-3.106-1.286
			c-0.714,0-1.678,0.358-2.893,1.071c-1.214,0.715-2.606,1.642-4.177,2.785c-2.857,2.285-6.536,4.678-11.033,7.179
			c-4.499,2.498-9.821,3.749-15.963,3.749c-8.426,0-16.032-1.893-22.817-5.678c-6.783-3.785-12.533-8.891-17.246-15.318
			c-4.714-6.428-8.355-13.962-10.927-22.604c-2.57-8.64-3.857-17.818-3.857-27.53c0-9.713,1.251-19.176,3.749-28.388
			c2.501-9.212,6.106-17.354,10.82-24.424c4.712-7.07,10.498-12.747,17.354-17.032c6.855-4.286,14.71-6.428,23.566-6.428
			c3.856,0,7.284,0.607,10.284,1.821c2.999,1.214,5.784,2.535,8.356,3.964c2.57,1.428,4.999,2.749,7.283,3.964
			c2.286,1.214,4.715,1.82,7.285,1.82c1.714,0,3-0.464,3.856-1.392c0.858-0.928,1.429-2.393,1.714-4.392h3.857v43.278h-4.284
			c-0.285-5.142-1.392-10.319-3.321-15.532c-1.927-5.214-4.392-9.927-7.392-14.141c-2.998-4.213-6.534-7.641-10.603-10.283
			c-4.071-2.642-8.392-3.964-12.963-3.964c-4.571,0-8.499,1.214-11.784,3.641c-3.285,2.429-6.07,5.642-8.356,9.642
			c-2.285,3.999-4.105,8.534-5.463,13.605c-1.358,5.069-2.429,10.211-3.214,15.425c-0.786,5.212-1.286,10.354-1.501,15.425
			c-0.213,5.071-0.321,9.535-0.321,13.391c0,7.284,0.428,14.675,1.286,22.174c0.856,7.498,2.57,14.354,5.141,20.567
			c2.572,6.213,6.213,11.284,10.927,15.211c4.713,3.928,10.926,5.893,18.639,5.893c4.143,0,7.927-1.535,11.355-4.607
			c3.428-3.07,6.427-6.926,8.999-11.569c2.57-4.643,4.677-9.642,6.319-14.997c1.642-5.355,2.749-10.319,3.321-14.89h3.214v50.99
			H1950.372z"/>
		<path style="fill-rule:evenodd;clip-rule:evenodd;" d="M2005.597,1736.704c0-1.286,0.072-2.642,0.214-4.071
			c0.143-1.427,0.43-2.75,0.858-3.964c0.428-1.213,1.035-2.248,1.821-3.106c0.785-0.856,1.82-1.286,3.106-1.286
			c0.714,0,1.678,0.358,2.893,1.071c1.214,0.715,2.606,1.642,4.177,2.785c2.857,2.285,6.536,4.678,11.034,7.179
			c4.499,2.498,9.821,3.749,15.962,3.749c8.426,0,16.032-1.893,22.818-5.678c6.783-3.785,12.533-8.891,17.245-15.318
			c4.714-6.428,8.356-13.962,10.928-22.604c2.571-8.64,3.856-17.818,3.856-27.53c0-9.713-1.25-19.176-3.749-28.388
			c-2.5-9.212-6.106-17.354-10.82-24.424c-4.712-7.07-10.498-12.747-17.354-17.032c-6.855-4.286-14.711-6.428-23.567-6.428
			c-3.856,0-7.284,0.607-10.284,1.821c-2.999,1.214-5.784,2.535-8.356,3.964c-2.57,1.428-4.999,2.749-7.283,3.964
			c-2.285,1.214-4.714,1.82-7.285,1.82c-1.714,0-3-0.464-3.856-1.392c-0.858-0.928-1.429-2.393-1.714-4.392h-3.856v43.278h4.284
			c0.285-5.142,1.392-10.319,3.321-15.532c1.927-5.214,4.392-9.927,7.392-14.141c2.998-4.213,6.534-7.641,10.604-10.283
			c4.071-2.642,8.391-3.964,12.962-3.964c4.571,0,8.499,1.214,11.784,3.641c3.285,2.429,6.071,5.642,8.356,9.642
			c2.285,3.999,4.105,8.534,5.463,13.605c1.357,5.069,2.429,10.211,3.213,15.425c0.786,5.212,1.286,10.354,1.501,15.425
			c0.213,5.071,0.321,9.535,0.321,13.391c0,7.284-0.428,14.675-1.286,22.174c-0.856,7.498-2.57,14.354-5.141,20.567
			c-2.571,6.213-6.213,11.284-10.927,15.211c-4.712,3.928-10.926,5.893-18.638,5.893c-4.143,0-7.927-1.535-11.356-4.607
			c-3.428-3.07-6.427-6.926-8.999-11.569c-2.57-4.643-4.677-9.642-6.319-14.997c-1.643-5.355-2.749-10.319-3.321-14.89h-3.213v50.99
			H2005.597z"/>
	</g>
	<circle style="fill-rule:evenodd;clip-rule:evenodd;fill:#ED135F;" cx="1977.984" cy="1664.127" r="22.796"/>
	<circle style="fill-rule:evenodd;clip-rule:evenodd;fill:#FFCB05;" cx="1977.984" cy="1664.127" r="13.549"/>
	<g>
		<path d="M1820.14,1839.224l-2.219-5.731h-0.302c-1.938,2.438-3.928,4.131-5.975,5.069c-2.047,0.943-4.715,1.417-8.007,1.417
			c-4.048,0-7.231-1.157-9.554-3.47c-2.324-2.308-3.485-5.6-3.485-9.872c0-4.47,1.563-7.768,4.694-9.893
			c3.126-2.12,7.84-3.298,14.149-3.522l7.309-0.229v-1.844c0-4.272-2.183-6.408-6.554-6.408c-3.371,0-7.325,1.016-11.873,3.053
			l-3.808-7.762c4.85-2.537,10.227-3.808,16.129-3.808c5.658,0,9.987,1.235,13.003,3.694c3.016,2.464,4.522,6.205,4.522,11.232
			v28.075H1820.14z M1816.748,1819.704l-4.444,0.151c-3.345,0.099-5.83,0.703-7.465,1.808c-1.631,1.104-2.448,2.787-2.448,5.048
			c0,3.24,1.86,4.866,5.58,4.866c2.662,0,4.793-0.771,6.387-2.303c1.594-1.532,2.391-3.563,2.391-6.106V1819.704z"/>
		<path d="M1857.753,1830.821c2.006,0,4.418-0.438,7.231-1.318v8.554c-2.86,1.281-6.382,1.922-10.549,1.922
			c-4.6,0-7.945-1.162-10.044-3.485s-3.147-5.814-3.147-10.461v-20.312h-5.501v-4.861l6.33-3.845l3.319-8.893h7.346v8.971h11.8
			v8.627h-11.8v20.312c0,1.636,0.458,2.839,1.375,3.621C1855.029,1830.43,1856.243,1830.821,1857.753,1830.821z"/>
		<path d="M1915.711,1839.224h-11.685v-45.371h-14.957v-9.726h41.604v9.726h-14.962V1839.224z"/>
		<path d="M1977.143,1839.224h-11.498v-24.61c0-6.08-2.261-9.117-6.783-9.117c-3.214,0-5.538,1.094-6.971,3.277
			c-1.433,2.188-2.146,5.731-2.146,10.628v19.823h-11.498v-58.64h11.498v11.946c0,0.933-0.089,3.115-0.266,6.559l-0.266,3.391h0.604
			c2.563-4.121,6.632-6.179,12.211-6.179c4.949,0,8.705,1.328,11.268,3.996c2.563,2.662,3.845,6.481,3.845,11.456V1839.224z"/>
		<path d="M2008.041,1839.98c-6.783,0-12.086-1.875-15.905-5.616c-3.819-3.746-5.725-9.044-5.725-15.905
			c0-7.059,1.761-12.519,5.293-16.374c3.527-3.855,8.408-5.783,14.639-5.783c5.955,0,10.591,1.693,13.905,5.085
			c3.318,3.391,4.975,8.08,4.975,14.056v5.579h-27.168c0.125,3.266,1.094,5.819,2.902,7.653c1.808,1.834,4.345,2.751,7.611,2.751
			c2.537,0,4.939-0.266,7.2-0.792c2.261-0.531,4.621-1.37,7.085-2.527V1837c-2.011,1.005-4.163,1.756-6.444,2.245
			C2014.121,1839.735,2011.329,1839.98,2008.041,1839.98z M2006.421,1804.476c-2.438,0-4.35,0.776-5.731,2.318
			c-1.381,1.547-2.172,3.741-2.376,6.58h16.129c-0.047-2.839-0.787-5.033-2.219-6.58
			C2010.792,1805.252,2008.854,1804.476,2006.421,1804.476z"/>
		<path d="M2078.924,1793.062c-4.397,0-7.799,1.651-10.211,4.954c-2.412,3.303-3.621,7.908-3.621,13.811
			c0,12.284,4.61,18.427,13.832,18.427c3.871,0,8.554-0.964,14.056-2.902v9.799c-4.522,1.886-9.57,2.829-15.15,2.829
			c-8.012,0-14.144-2.433-18.39-7.294s-6.366-11.842-6.366-20.932c0-5.731,1.042-10.747,3.126-15.056
			c2.084-4.308,5.085-7.616,8.987-9.914c3.907-2.297,8.487-3.449,13.738-3.449c5.35,0,10.727,1.297,16.129,3.881l-3.767,9.497
			c-2.063-0.979-4.131-1.834-6.22-2.563C2082.982,1793.426,2080.935,1793.062,2078.924,1793.062z"/>
		<path d="M2130.557,1839.224l-2.219-5.731h-0.302c-1.938,2.438-3.928,4.131-5.975,5.069c-2.048,0.943-4.715,1.417-8.007,1.417
			c-4.048,0-7.231-1.157-9.554-3.47c-2.323-2.308-3.485-5.6-3.485-9.872c0-4.47,1.563-7.768,4.694-9.893
			c3.126-2.12,7.841-3.298,14.149-3.522l7.309-0.229v-1.844c0-4.272-2.183-6.408-6.554-6.408c-3.371,0-7.325,1.016-11.873,3.053
			l-3.808-7.762c4.85-2.537,10.227-3.808,16.129-3.808c5.658,0,9.987,1.235,13.003,3.694c3.016,2.464,4.522,6.205,4.522,11.232
			v28.075H2130.557z M2127.165,1819.704l-4.444,0.151c-3.345,0.099-5.83,0.703-7.466,1.808c-1.631,1.104-2.448,2.787-2.448,5.048
			c0,3.24,1.86,4.866,5.58,4.866c2.662,0,4.793-0.771,6.387-2.303c1.594-1.532,2.391-3.563,2.391-6.106V1819.704z"/>
		<path d="M2189.311,1839.224h-11.498v-24.61c0-3.037-0.536-5.319-1.62-6.84c-1.078-1.516-2.798-2.277-5.163-2.277
			c-3.214,0-5.538,1.073-6.97,3.219c-1.433,2.152-2.146,5.71-2.146,10.685v19.823h-11.498v-42.13h8.783l1.542,5.387h0.641
			c1.281-2.037,3.048-3.574,5.298-4.616c2.245-1.042,4.803-1.563,7.668-1.563c4.897,0,8.617,1.323,11.154,3.975
			s3.808,6.476,3.808,11.477V1839.224z"/>
		<path d="M2211.166,1839.224l-16.056-42.13h12.024l8.137,24.006c0.828,2.61,1.37,5.486,1.62,8.627h0.302
			c0.151-2.839,0.714-5.715,1.698-8.627l8.101-24.006h12.019l-16.051,42.13H2211.166z"/>
		<path d="M2271.801,1839.224l-2.219-5.731h-0.302c-1.938,2.438-3.928,4.131-5.975,5.069c-2.047,0.943-4.715,1.417-8.007,1.417
			c-4.048,0-7.231-1.157-9.554-3.47c-2.323-2.308-3.485-5.6-3.485-9.872c0-4.47,1.563-7.768,4.694-9.893
			c3.126-2.12,7.84-3.298,14.149-3.522l7.309-0.229v-1.844c0-4.272-2.183-6.408-6.554-6.408c-3.371,0-7.325,1.016-11.873,3.053
			l-3.808-7.762c4.85-2.537,10.227-3.808,16.129-3.808c5.658,0,9.987,1.235,13.003,3.694c3.016,2.464,4.522,6.205,4.522,11.232
			v28.075H2271.801z M2268.409,1819.704l-4.444,0.151c-3.345,0.099-5.83,0.703-7.466,1.808c-1.631,1.104-2.448,2.787-2.448,5.048
			c0,3.24,1.86,4.866,5.58,4.866c2.662,0,4.793-0.771,6.387-2.303c1.594-1.532,2.391-3.563,2.391-6.106V1819.704z"/>
		<path d="M2321.058,1826.711c0,4.324-1.5,7.617-4.506,9.878c-3.001,2.261-7.491,3.391-13.472,3.391
			c-3.063,0-5.678-0.208-7.835-0.625c-2.162-0.411-4.183-1.021-6.069-1.829v-9.492c2.136,1.005,4.543,1.844,7.215,2.521
			c2.678,0.677,5.032,1.021,7.07,1.021c4.168,0,6.251-1.209,6.251-3.621c0-0.906-0.276-1.641-0.828-2.204
			c-0.552-0.568-1.506-1.209-2.865-1.922c-1.354-0.714-3.162-1.552-5.423-2.506c-3.24-1.354-5.621-2.615-7.142-3.767
			c-1.521-1.157-2.626-2.485-3.319-3.98c-0.688-1.49-1.031-3.334-1.031-5.517c0-3.746,1.448-6.642,4.35-8.69
			s7.017-3.068,12.342-3.068c5.074,0,10.013,1.104,14.811,3.313l-3.469,8.294c-2.11-0.906-4.079-1.646-5.913-2.224
			c-1.834-0.578-3.709-0.865-5.616-0.865c-3.391,0-5.09,0.917-5.09,2.751c0,1.026,0.547,1.922,1.641,2.673
			c1.094,0.755,3.485,1.875,7.179,3.355c3.292,1.334,5.705,2.574,7.236,3.73c1.532,1.156,2.662,2.49,3.392,3.996
			C2320.693,1822.829,2321.058,1824.627,2321.058,1826.711z"/>
		<path d="M2362.657,1818.083v21.141h-11.68v-55.097h16.056c7.486,0,13.024,1.365,16.619,4.09c3.59,2.725,5.387,6.866,5.387,12.42
			c0,3.24-0.891,6.121-2.673,8.648c-1.787,2.521-4.314,4.501-7.575,5.934l16.202,24.006h-12.962l-13.154-21.141H2362.657z
			 M2362.657,1808.586h3.772c3.694,0,6.418-0.615,8.179-1.849c1.756-1.229,2.636-3.162,2.636-5.804c0-2.61-0.901-4.47-2.693-5.574
			c-1.797-1.104-4.579-1.657-8.351-1.657h-3.543V1808.586z"/>
		<path d="M2420.093,1839.98c-6.783,0-12.086-1.875-15.905-5.616c-3.819-3.746-5.726-9.044-5.726-15.905
			c0-7.059,1.761-12.519,5.293-16.374c3.527-3.855,8.408-5.783,14.639-5.783c5.955,0,10.591,1.693,13.905,5.085
			c3.319,3.391,4.975,8.08,4.975,14.056v5.579h-27.168c0.125,3.266,1.094,5.819,2.902,7.653c1.808,1.834,4.345,2.751,7.611,2.751
			c2.537,0,4.939-0.266,7.2-0.792c2.261-0.531,4.621-1.37,7.085-2.527V1837c-2.011,1.005-4.163,1.756-6.444,2.245
			C2426.173,1839.735,2423.381,1839.98,2420.093,1839.98z M2418.473,1804.476c-2.438,0-4.35,0.776-5.73,2.318
			c-1.381,1.547-2.172,3.741-2.376,6.58h16.129c-0.047-2.839-0.787-5.033-2.219-6.58
			C2422.844,1805.252,2420.906,1804.476,2418.473,1804.476z"/>
		<path d="M2476.019,1826.711c0,4.324-1.5,7.617-4.506,9.878c-3.001,2.261-7.491,3.391-13.472,3.391
			c-3.063,0-5.678-0.208-7.835-0.625c-2.162-0.411-4.183-1.021-6.069-1.829v-9.492c2.136,1.005,4.543,1.844,7.215,2.521
			c2.678,0.677,5.032,1.021,7.07,1.021c4.168,0,6.251-1.209,6.251-3.621c0-0.906-0.276-1.641-0.828-2.204
			c-0.552-0.568-1.506-1.209-2.865-1.922c-1.354-0.714-3.162-1.552-5.423-2.506c-3.24-1.354-5.621-2.615-7.142-3.767
			c-1.521-1.157-2.626-2.485-3.319-3.98c-0.688-1.49-1.031-3.334-1.031-5.517c0-3.746,1.448-6.642,4.35-8.69
			s7.017-3.068,12.342-3.068c5.074,0,10.013,1.104,14.811,3.313l-3.469,8.294c-2.11-0.906-4.079-1.646-5.913-2.224
			c-1.834-0.578-3.709-0.865-5.616-0.865c-3.391,0-5.09,0.917-5.09,2.751c0,1.026,0.547,1.922,1.641,2.673
			c1.094,0.755,3.485,1.875,7.179,3.355c3.292,1.334,5.705,2.574,7.236,3.73c1.532,1.156,2.662,2.49,3.392,3.996
			C2475.654,1822.829,2476.019,1824.627,2476.019,1826.711z"/>
		<path d="M2484.495,1786.2c0-3.74,2.089-5.616,6.257-5.616c4.173,0,6.257,1.875,6.257,5.616c0,1.787-0.521,3.173-1.563,4.163
			c-1.042,0.995-2.61,1.49-4.694,1.49C2486.584,1791.853,2484.495,1789.967,2484.495,1786.2z M2496.482,1839.224h-11.498v-42.13
			h11.498V1839.224z"/>
		<path d="M2521.879,1839.98c-4.949,0-8.836-1.922-11.665-5.767c-2.823-3.845-4.235-9.169-4.235-15.978
			c0-6.908,1.438-12.295,4.313-16.15s6.84-5.783,11.888-5.783c5.303,0,9.346,2.058,12.133,6.179h0.38
			c-0.578-3.141-0.87-5.939-0.87-8.403v-13.493h11.534v58.64h-8.82l-2.225-5.465h-0.49
			C2531.215,1837.906,2527.23,1839.98,2521.879,1839.98z M2525.912,1830.821c2.938,0,5.095-0.854,6.465-2.563
			c1.37-1.709,2.115-4.61,2.24-8.705v-1.245c0-4.522-0.698-7.762-2.089-9.721c-1.396-1.959-3.662-2.938-6.804-2.938
			c-2.563,0-4.553,1.084-5.976,3.256c-1.417,2.178-2.125,5.335-2.125,9.482c0,4.142,0.714,7.252,2.146,9.325
			C2521.202,1829.784,2523.25,1830.821,2525.912,1830.821z"/>
		<path d="M2576.45,1839.98c-6.783,0-12.086-1.875-15.905-5.616c-3.819-3.746-5.726-9.044-5.726-15.905
			c0-7.059,1.761-12.519,5.293-16.374c3.527-3.855,8.408-5.783,14.639-5.783c5.955,0,10.591,1.693,13.905,5.085
			c3.319,3.391,4.975,8.08,4.975,14.056v5.579h-27.168c0.125,3.266,1.094,5.819,2.902,7.653c1.808,1.834,4.345,2.751,7.611,2.751
			c2.537,0,4.939-0.266,7.2-0.792c2.261-0.531,4.621-1.37,7.085-2.527V1837c-2.011,1.005-4.163,1.756-6.444,2.245
			C2582.53,1839.735,2579.738,1839.98,2576.45,1839.98z M2574.83,1804.476c-2.438,0-4.35,0.776-5.73,2.318
			c-1.381,1.547-2.172,3.741-2.376,6.58h16.129c-0.047-2.839-0.787-5.033-2.219-6.58
			C2579.201,1805.252,2577.263,1804.476,2574.83,1804.476z"/>
		<path d="M2641.873,1839.224h-11.498v-24.61c0-3.037-0.537-5.319-1.62-6.84c-1.078-1.516-2.797-2.277-5.163-2.277
			c-3.214,0-5.538,1.073-6.97,3.219c-1.433,2.152-2.146,5.71-2.146,10.685v19.823h-11.498v-42.13h8.784l1.542,5.387h0.641
			c1.282-2.037,3.048-3.574,5.298-4.616c2.245-1.042,4.803-1.563,7.669-1.563c4.897,0,8.617,1.323,11.154,3.975
			s3.808,6.476,3.808,11.477V1839.224z"/>
		<path d="M2670.818,1839.98c-13.118,0-19.672-7.2-19.672-21.594c0-7.163,1.782-12.633,5.35-16.416
			c3.563-3.777,8.679-5.668,15.337-5.668c4.871,0,9.242,0.953,13.113,2.865l-3.392,8.893c-1.808-0.729-3.49-1.328-5.048-1.792
			s-3.115-0.698-4.673-0.698c-5.981,0-8.971,4.246-8.971,12.738c0,8.242,2.99,12.363,8.971,12.363c2.209,0,4.256-0.297,6.142-0.886
			c1.886-0.589,3.766-1.516,5.652-2.772v9.836c-1.86,1.183-3.735,2.001-5.632,2.449
			C2676.095,1839.75,2673.704,1839.98,2670.818,1839.98z"/>
		<path d="M2712.459,1839.98c-6.783,0-12.086-1.875-15.905-5.616c-3.819-3.746-5.725-9.044-5.725-15.905
			c0-7.059,1.761-12.519,5.293-16.374c3.527-3.855,8.408-5.783,14.639-5.783c5.955,0,10.591,1.693,13.905,5.085
			c3.319,3.391,4.975,8.08,4.975,14.056v5.579h-27.168c0.125,3.266,1.094,5.819,2.902,7.653c1.808,1.834,4.345,2.751,7.611,2.751
			c2.537,0,4.939-0.266,7.2-0.792c2.261-0.531,4.621-1.37,7.085-2.527V1837c-2.011,1.005-4.163,1.756-6.444,2.245
			C2718.538,1839.735,2715.746,1839.98,2712.459,1839.98z M2710.838,1804.476c-2.438,0-4.35,0.776-5.73,2.318
			c-1.381,1.547-2.173,3.741-2.376,6.58h16.129c-0.047-2.839-0.787-5.033-2.219-6.58
			C2715.209,1805.252,2713.271,1804.476,2710.838,1804.476z"/>
		<path d="M2768.384,1826.711c0,4.324-1.5,7.617-4.506,9.878c-3.001,2.261-7.491,3.391-13.472,3.391
			c-3.063,0-5.678-0.208-7.835-0.625c-2.162-0.411-4.183-1.021-6.069-1.829v-9.492c2.136,1.005,4.543,1.844,7.215,2.521
			c2.678,0.677,5.032,1.021,7.07,1.021c4.167,0,6.251-1.209,6.251-3.621c0-0.906-0.276-1.641-0.828-2.204
			c-0.552-0.568-1.506-1.209-2.865-1.922c-1.354-0.714-3.162-1.552-5.423-2.506c-3.24-1.354-5.621-2.615-7.142-3.767
			c-1.521-1.157-2.626-2.485-3.319-3.98c-0.688-1.49-1.031-3.334-1.031-5.517c0-3.746,1.448-6.642,4.35-8.69
			c2.902-2.047,7.017-3.068,12.342-3.068c5.074,0,10.013,1.104,14.811,3.313l-3.469,8.294c-2.11-0.906-4.079-1.646-5.913-2.224
			s-3.709-0.865-5.616-0.865c-3.391,0-5.09,0.917-5.09,2.751c0,1.026,0.547,1.922,1.641,2.673c1.094,0.755,3.485,1.875,7.179,3.355
			c3.292,1.334,5.704,2.574,7.236,3.73s2.662,2.49,3.392,3.996C2768.02,1822.829,2768.384,1824.627,2768.384,1826.711z"/>
	</g>
	<g>
		<path d="M2601.326,1993.117c0,4.975-1.792,8.893-5.371,11.758c-3.579,2.865-8.56,4.298-14.941,4.298
			c-5.882,0-11.081-1.104-15.603-3.319v-10.852c3.72,1.657,6.866,2.824,9.44,3.506c2.573,0.677,4.928,1.016,7.064,1.016
			c2.563,0,4.532-0.49,5.897-1.469c1.37-0.979,2.058-2.438,2.058-4.371c0-1.084-0.302-2.042-0.906-2.886
			c-0.604-0.839-1.49-1.651-2.657-2.428c-1.167-0.781-3.548-2.027-7.143-3.735c-3.365-1.578-5.892-3.1-7.575-4.558
			c-1.683-1.453-3.027-3.152-4.032-5.085c-1.006-1.938-1.506-4.199-1.506-6.783c0-4.876,1.651-8.705,4.954-11.498
			c3.303-2.787,7.872-4.183,13.701-4.183c2.86,0,5.595,0.339,8.195,1.021c2.6,0.677,5.319,1.631,8.158,2.86l-3.767,9.086
			c-2.938-1.209-5.371-2.047-7.293-2.527c-1.922-0.474-3.813-0.714-5.673-0.714c-2.209,0-3.907,0.516-5.085,1.542
			c-1.183,1.031-1.771,2.376-1.771,4.032c0,1.032,0.24,1.928,0.714,2.693c0.479,0.771,1.24,1.511,2.282,2.224
			c1.042,0.719,3.511,2.006,7.403,3.866c5.152,2.459,8.679,4.928,10.591,7.403
			C2600.368,1986.49,2601.326,1989.528,2601.326,1993.117z"/>
		<path d="M2629.479,2009.173c-6.783,0-12.086-1.875-15.905-5.616c-3.819-3.746-5.725-9.044-5.725-15.905
			c0-7.059,1.761-12.519,5.293-16.374c3.527-3.855,8.408-5.783,14.639-5.783c5.955,0,10.591,1.693,13.905,5.085
			c3.319,3.391,4.975,8.08,4.975,14.056v5.579h-27.168c0.125,3.266,1.094,5.819,2.902,7.653c1.808,1.834,4.345,2.751,7.611,2.751
			c2.537,0,4.939-0.266,7.2-0.792c2.261-0.531,4.621-1.37,7.085-2.527v8.893c-2.011,1.005-4.162,1.756-6.444,2.245
			C2635.559,2008.928,2632.767,2009.173,2629.479,2009.173z M2627.859,1973.67c-2.438,0-4.35,0.776-5.73,2.318
			c-1.381,1.547-2.173,3.741-2.376,6.58h16.129c-0.047-2.839-0.787-5.033-2.219-6.58
			C2632.23,1974.446,2630.292,1973.67,2627.859,1973.67z"/>
		<path d="M2689.885,2008.418l-3.24-14.733l-4.298-18.619h-0.339l-7.684,33.352h-12.363l-11.982-42.13h11.456l4.861,18.651
			c0.552,2.214,1.318,6.825,2.298,13.832h0.302c0.099-1.907,0.542-4.934,1.318-9.08l0.604-3.204l5.199-20.198h12.665l4.933,20.198
			c0.302,1.381,0.672,3.412,1.115,6.085c0.438,2.678,0.682,4.746,0.735,6.199h0.302c0.276-2.235,0.662-4.777,1.167-7.632
			c0.5-2.85,0.927-4.918,1.282-6.199l5.048-18.651h11.268l-12.133,42.13H2689.885z"/>
		<path d="M2744.831,1965.496c1.558,0,2.855,0.109,3.881,0.339l-0.865,10.779c-0.927-0.25-2.063-0.38-3.391-0.38
			c-3.667,0-6.528,0.943-8.575,2.829c-2.047,1.886-3.068,4.522-3.068,7.913v21.443h-11.498v-42.13h8.705l1.698,7.085h0.562
			c1.308-2.365,3.074-4.267,5.298-5.71C2739.804,1966.214,2742.221,1965.496,2744.831,1965.496z"/>
		<path d="M2755.871,1955.394c0-3.74,2.089-5.616,6.257-5.616c4.173,0,6.257,1.875,6.257,5.616c0,1.787-0.521,3.173-1.563,4.163
			c-1.042,0.995-2.61,1.49-4.694,1.49C2757.96,1961.047,2755.871,1959.161,2755.871,1955.394z M2767.858,2008.418h-11.498v-42.13
			h11.498V2008.418z"/>
	</g>
	
		<line style="fill:none;stroke:#000000;stroke-width:4.8296;stroke-miterlimit:10;" x1="1551.833" y1="1894.8" x2="2768.384" y2="1894.8"/>
</g>
</svg>
