<svg xmlns="http://www.w3.org/2000/svg" xmlns:xlink="http://www.w3.org/1999/xlink" width="78.105" height="66.379" viewBox="0 0 78.105 66.379">
  <defs>
    <clipPath id="clip-path">
      <rect id="Rectangle_141" data-name="Rectangle 141" width="78.105" height="66.38" fill="#3d5064"/>
    </clipPath>
  </defs>
  <g id="Group_309" data-name="Group 309" transform="translate(-526 -2464)">
    <g id="Group_158" data-name="Group 158" transform="translate(526 2463.999)">
      <g id="Group_157" data-name="Group 157" transform="translate(0 0)" clip-path="url(#clip-path)">
        <path id="Path_317" data-name="Path 317" d="M74.009,60.312c-.679-1.51-1.241-2.772-1.812-4.031-2.232-4.92-4.452-9.844-6.724-14.745A2.6,2.6,0,0,0,64.3,40.372c-3.857-1.8-7.742-3.545-11.724-5.353.37-.826.725-1.62,1.116-2.491l6.98,3.165c1.883.854,3.786,1.669,5.638,2.587a2.854,2.854,0,0,1,1.258,1.242c3.45,7.52,6.85,15.062,10.275,22.593a1.491,1.491,0,0,1-.139,1.874,1.516,1.516,0,0,1-1.88.131c-5.7-2.535-11.4-5.05-17.092-7.594a1.664,1.664,0,0,0-1.7.071c-5.575,3.19-11.181,6.324-16.758,9.511a2.175,2.175,0,0,1-2.412.016C32.281,62.937,26.677,59.8,21.1,56.613a1.661,1.661,0,0,0-1.7-.1Q10.95,60.3,2.467,64.013a2.83,2.83,0,0,1-1.578.255C.01,64.089-.231,63.185.23,62.159q2.209-4.9,4.431-9.787C6.6,48.1,8.528,43.822,10.5,39.565a2.494,2.494,0,0,1,1.07-1.178c4.128-1.879,8.285-3.7,12.435-5.53a4.714,4.714,0,0,1,.5-.149c.352.8.7,1.575,1.075,2.432-1.853.825-3.622,1.616-5.392,2.4-2.2.975-4.41,1.931-6.6,2.931a1.774,1.774,0,0,0-.853.752q-4.223,9.22-8.387,18.466c-.06.131-.09.274-.19.59,1.688-.742,3.228-1.415,4.765-2.094,3.19-1.411,6.387-2.8,9.554-4.264a2.3,2.3,0,0,0,1.062-1.135c1.413-3.557,2.76-7.139,4.13-10.713a6.122,6.122,0,0,1,.36-.851,1.272,1.272,0,0,1,1.755-.563,1.223,1.223,0,0,1,.71,1.618c-.464,1.309-.973,2.6-1.468,3.9-.9,2.365-1.8,4.73-2.72,7.088-.171.441-.285.759.257,1.063q7.315,4.1,14.607,8.235a3.209,3.209,0,0,0,.473.154v-8.7h2.726v8.763c.393-.169.618-.242.819-.357,4.733-2.67,9.459-5.355,14.2-8.006.563-.314.619-.6.4-1.166-1.382-3.536-2.733-7.084-4.082-10.632-.36-.947-.07-1.741.689-2.01.807-.286,1.465.082,1.866,1.045.047.114.1.227.14.343,1.236,3.228,2.551,6.429,3.671,9.7A4.241,4.241,0,0,0,60.7,54.463c4.378,1.842,8.7,3.813,13.306,5.849" transform="translate(0 -0.101)" fill="#3d5064"/>
        <path id="Path_318" data-name="Path 318" d="M39.106,0A15.76,15.76,0,0,1,54.983,15.895,22.133,22.133,0,0,1,53.6,22.28c-2.259,6.627-5.527,12.8-8.839,18.947-1.408,2.61-2.883,5.183-4.365,7.75a1.361,1.361,0,0,1-2.55.015c-4.786-8.3-9.43-16.667-12.865-25.639A21.278,21.278,0,0,1,23.2,15.729,15.875,15.875,0,0,1,39.106,0m.039,45.822c1.984-3.683,3.874-7.077,5.654-10.528a89.947,89.947,0,0,0,6.624-15.156,14.843,14.843,0,0,0,.8-5.255,13.107,13.107,0,1,0-25.845,3.892c.27,1.043.6,2.075.972,3.085a142.4,142.4,0,0,0,8.881,18.712c.907,1.673,1.846,3.328,2.916,5.25" transform="translate(-0.072 0)" fill="#3d5064"/>
        <path id="Path_319" data-name="Path 319" d="M39.177,7.052a8.895,8.895,0,1,1-8.92,8.839,8.846,8.846,0,0,1,8.92-8.839m-.066,2.734A6.107,6.107,0,0,0,32.986,16a6.155,6.155,0,1,0,6.125-6.216" transform="translate(-0.094 -0.022)" fill="#3d5064"/>
      </g>
    </g>
  </g>
</svg>
