<?xml version="1.0" encoding="utf-8"?>
<!-- Generator: Adobe Illustrator 27.4.0, SVG Export Plug-In . SVG Version: 6.00 Build 0)  -->
<svg version="1.1" id="Group_408" xmlns="http://www.w3.org/2000/svg" xmlns:xlink="http://www.w3.org/1999/xlink" x="0px" y="0px"
	 viewBox="0 0 70 60" style="enable-background:new 0 0 70 60;" xml:space="preserve">
<style type="text/css">
	.st0{clip-path:url(#SVGID_00000091003690107537171340000000025694761544219267_);}
	.st1{fill:#EAA816;}
</style>
<g>
	<defs>
		<rect id="SVGID_1_" x="9.3" y="4.3" width="51.3" height="51.3"/>
	</defs>
	<clipPath id="SVGID_00000180344646805672407450000015036509064034358427_">
		<use xlink:href="#SVGID_1_"  style="overflow:visible;"/>
	</clipPath>
	<g id="Group_315" style="clip-path:url(#SVGID_00000180344646805672407450000015036509064034358427_);">
		<path id="Path_657" class="st1" d="M60.7,48.5c0,0-0.1,0.1-0.1,0.1c-0.3,1.2-1.4,2-2.6,1.9c-6.2,0-12.5,0-18.7,0H14
			c-0.2,0-0.3,0-0.5,0c-0.5,0-0.8-0.4-0.8-0.9c0-0.4,0.4-0.8,0.8-0.8c0,0,0,0,0,0c1.2,0,2.3,0,3.5,0h40.6c1,0,1.3-0.2,1.3-1.3
			c0-0.7,0-1.3,0-2c0-0.1,0-0.1,0-0.2c-0.2,0-0.5,0-0.8,0c-0.5,0-0.9-0.4-0.9-0.8c0-0.5,0.4-0.9,0.8-0.9c0,0,0,0,0.1,0
			c0.2,0,0.5,0,0.8,0c0.1-1.6,0-3.2-0.3-4.7c-0.1-0.4-0.3-0.7-0.6-1c-0.6-0.8-1.2-1.6-1.8-2.5c-0.2-0.2-0.4-0.4-0.7-0.4
			c-3.9,0-7.7,0-11.6,0c-1.5,0-2.1-0.6-2.1-2.1c0-2.1,0-4.1,0-6.2c-0.1-1,0.5-1.8,1.5-2c0.1,0,0.3,0,0.4,0c0.8,0,1.5,0,2.3,0
			c0.5-0.1,0.9,0.3,1,0.8c0,0,0,0.1,0,0.1c0,0.5-0.4,0.9-0.9,0.9c0,0,0,0-0.1,0c-0.8,0-1.6,0-2.4,0v6.8h6.7c0.1-0.7-0.2-1.7,1-1.7
			c1,0,0.8,1,0.9,1.6h2.5c-0.5-0.6-0.9-1.2-1.3-1.8c-2.6-3.4-5.2-6.9-7.7-10.3c-0.7-1-1.9-1.6-3.1-1.5c-9.5,0-18.9,0-28.4,0
			c-0.2,0-0.5,0-0.7-0.1c-0.5-0.1-0.7-0.6-0.6-1c0.1-0.3,0.3-0.5,0.6-0.6c0.2,0,0.4-0.1,0.5-0.1c9.5,0,18.9,0,28.4,0
			c1.9-0.1,3.6,0.8,4.7,2.3c4.1,5.6,8.3,11.1,12.5,16.6c0.6,0.8,0.9,1.7,1.1,2.6c0,0.1,0.1,0.3,0.1,0.4V48.5z"/>
		<path id="Path_658" class="st1" d="M16.2,4.3c0.5,0.1,1,0.3,1.5,0.5c2.2,0.9,3.7,3.1,3.7,5.5c0.1,1.7,0,3.3,0,5
			c0,0.4-0.1,0.7-0.5,0.9c-0.6,0.3-1.3-0.1-1.3-0.9c0-1.6,0-3.2,0-4.8c0-0.6-0.1-1.1-0.3-1.7c-0.7-2-2.8-3.1-4.8-2.7
			c-2,0.4-3.5,2.2-3.5,4.3c0,4.6,0,9.2,0,13.7c0,9.7,0,19.4,0,29.1v0.7h6.8c0.1-0.7-0.2-1.7,0.9-1.6c1.1,0,0.8,1,0.9,1.6h6.8
			c0-0.2,0-0.4,0-0.7c0-0.7,0.3-1,0.9-1s0.9,0.4,0.9,1c0,0.2,0,0.4,0,0.7H35c0.1-0.7-0.2-1.6,0.9-1.7c0.6,0,0.7,0.3,0.9,1.7h6.8
			c0.1-0.7-0.2-1.7,0.9-1.6c1.1,0,0.8,1,0.9,1.7h6.7c0.1-0.7-0.2-1.7,1-1.7c1,0.1,0.7,1,0.8,1.7h0.5c1.7,0,3.4,0,5.1,0
			c0.5-0.1,0.9,0.1,1.2,0.5v0.7c-0.3,0.3-0.7,0.5-1.1,0.5c-16.4,0-32.7,0-49.1,0c-0.8,0-1.1-0.3-1.1-1.1c0-14.7,0-29.5,0-44.2
			c-0.1-2.1,1-4,2.8-5c0.7-0.4,1.5-0.7,2.3-1H16.2z"/>
		<path id="Path_659" class="st1" d="M34.1,45.4c-6.7,0-13.4,0-20.1,0c-0.2,0-0.5,0-0.7-0.1c-0.4-0.1-0.7-0.6-0.5-1.1
			c0.1-0.3,0.3-0.5,0.6-0.5c0.2,0,0.4-0.1,0.6-0.1c13.5,0,26.9,0,40.4,0c0.2,0,0.4,0,0.6,0.1c0.4,0.1,0.7,0.6,0.6,1
			c-0.1,0.2-0.3,0.5-0.5,0.5c-0.2,0.1-0.4,0.1-0.6,0.1C47.6,45.4,40.9,45.4,34.1,45.4"/>
		<path id="Path_660" class="st1" d="M28.2,26.6h-6.8v0.6c0,4.4,0,8.7,0,13.1c0,0.3,0,0.6,0,0.8c0,0.5-0.4,0.8-0.9,0.8
			c-0.5,0-0.8-0.4-0.9-0.8c0-0.1,0-0.3,0-0.4c0-4.6,0-9.3,0-13.9c-0.1-1,0.5-1.8,1.5-2c0.1,0,0.3,0,0.4,0c2.1,0,4.3,0,6.4,0
			c1-0.1,1.8,0.5,1.9,1.5c0,0.1,0,0.3,0,0.4c0,4.7,0,9.4,0,14c0,0.2,0,0.4-0.1,0.6c-0.1,0.4-0.5,0.6-0.9,0.5c-0.4,0-0.7-0.3-0.7-0.7
			c0-0.2,0-0.4,0-0.6c0-4.5,0-9,0-13.5L28.2,26.6"/>
		<path id="Path_661" class="st1" d="M31.6,29.9c0-1.1,0-2.2,0-3.3c-0.1-0.9,0.6-1.7,1.5-1.8c0.1,0,0.1,0,0.2,0c1.1,0,2.2,0,3.4,0
			c0.9,0,1.7,0.7,1.7,1.6c0,0.1,0,0.1,0,0.2c0,2.3,0,4.5,0,6.8c0,0.9-0.7,1.7-1.6,1.7c-0.1,0-0.1,0-0.2,0c-1.1,0-2.3,0-3.4,0
			c-0.9,0-1.7-0.7-1.7-1.6c0,0,0-0.1,0-0.1C31.6,32.3,31.6,31.1,31.6,29.9 M33.3,33.4h3.4v-6.8h-3.4L33.3,33.4z"/>
		<path id="Path_662" class="st1" d="M16.1,33.4v-6.8h-0.5c-0.7,0-1.4,0-2.1,0c-0.5,0-0.8-0.4-0.9-0.8c0-0.4,0.3-0.8,0.7-0.9
			c1,0,2,0,3.1,0c0.7,0.1,1.2,0.6,1.3,1.3c0,0.2,0,0.4,0,0.6c0,2.1,0,4.2,0,6.3c0.1,1-0.5,1.8-1.5,2c-0.2,0-0.4,0-0.5,0
			c-0.7,0-1.5,0-2.2,0c-0.5,0.1-0.9-0.3-0.9-0.7c0,0,0-0.1,0-0.1c0-0.5,0.4-0.9,0.9-0.8c0,0,0,0,0.1,0
			C14.5,33.4,15.3,33.4,16.1,33.4"/>
	</g>
</g>
</svg>
