<?xml version="1.0" encoding="utf-8"?>
<!-- Generator: Adobe Illustrator 27.4.0, SVG Export Plug-In . SVG Version: 6.00 Build 0)  -->
<svg version="1.1" id="Group_407" xmlns="http://www.w3.org/2000/svg" xmlns:xlink="http://www.w3.org/1999/xlink" x="0px" y="0px"
	 viewBox="0 0 70 60" style="enable-background:new 0 0 70 60;" xml:space="preserve">
<style type="text/css">
	.st0{clip-path:url(#SVGID_00000162351425568402474750000010478013060284658571_);}
	.st1{fill:#A4C42C;}
</style>
<g>
	<defs>
		<rect id="SVGID_1_" x="10.3" y="2.4" width="49.3" height="55.2"/>
	</defs>
	<clipPath id="SVGID_00000162326418023948503800000011941867421672769701_">
		<use xlink:href="#SVGID_1_"  style="overflow:visible;"/>
	</clipPath>
	<g id="Group_244" style="clip-path:url(#SVGID_00000162326418023948503800000011941867421672769701_);">
		<path id="Path_646" class="st1" d="M42.9,41.4H27.1c0,0.5,0,1.1,0,1.6c0.1,0.7-0.4,1.3-1,1.3c-0.1,0-0.2,0-0.3,0
			c-0.8,0-1.6,0-2.4,0c-0.5,0-1-0.3-1.2-0.8c-0.8-2.4-1.7-4.7-1.9-7.2c0-0.5-0.1-1.1-0.1-1.6c0-6.9,0-13.9,0-20.8
			c-0.2-1.6,1-3.1,2.7-3.3c0.1,0,0.2,0,0.3,0c5.1-0.5,10.3-0.7,15.5-0.5c2.7,0.1,5.5,0.3,8.2,0.5c1.6,0,2.9,1.4,2.9,3
			c0,0.1,0,0.1,0,0.2c0,6.8,0,13.5,0,20.3c0,2.3-0.3,4.6-1.1,6.8c-0.3,0.8-0.6,1.7-0.8,2.5c-0.1,0.6-0.7,1-1.3,0.9
			c-0.8,0-1.6,0-2.4,0c-0.6,0-1.2-0.4-1.3-1.1c0-0.1,0-0.1,0-0.2C42.9,42.5,42.9,42,42.9,41.4 M25.2,42.3c0-0.4,0-0.7,0-1
			c0-1.1,0.8-1.9,1.9-1.9c0,0,0,0,0.1,0c5.3,0,10.5,0,15.8,0c1.1,0,1.9,0.8,2,1.9c0,0,0,0,0,0.1c0,0.3,0,0.6,0,1c0.3,0,0.6,0,0.9,0
			c0.2,0,0.3-0.1,0.4-0.3c0.9-2.2,1.5-4.6,1.6-7c0-7.1,0-14.2,0-21.3c0-0.9-0.3-1.2-1.2-1.3c-3-0.2-6.1-0.4-9.1-0.5
			c-4.7-0.1-9.5,0.1-14.2,0.5c-0.9,0.1-1.2,0.4-1.2,1.4c0,6.2,0.1,12.5,0,18.7c-0.1,3.1,0.4,6.2,1.5,9.2c0.2,0.5,0.4,0.7,1,0.7
			C24.8,42.3,25,42.3,25.2,42.3"/>
		<path id="Path_647" class="st1" d="M10.3,28.1c0-12.2,7.6-22,18.5-24.9c13.2-3.4,26.6,4.5,30,17.7c0.1,0.3,0.1,0.5,0.2,0.8
			c1.8,8.3-0.2,15.7-5.8,22.2c-0.7,0.7-1.5,0.7-1.8-0.1c-0.1-0.4,0-0.9,0.4-1.2c8.5-9.2,7.9-23.6-1.4-32.1s-23.6-7.9-32.1,1.4
			c-2.8,3.1-4.8,6.9-5.6,11.1c-1.4,7,0.5,14.2,5.3,19.4c0.1,0.2,0.3,0.3,0.4,0.5c0.4,0.4,0.3,1-0.1,1.4c0,0,0,0,0,0
			c-0.4,0.4-1,0.3-1.3,0c0,0,0-0.1-0.1-0.1c-0.8-0.9-1.5-1.8-2.2-2.7C12,37.4,10.5,32.8,10.3,28.1"/>
		<path id="Path_648" class="st1" d="M26.1,46.5h17.6c-0.1-0.2-0.1-0.3-0.1-0.5c-0.2-0.4,0.1-0.9,0.5-1.1c0.4-0.2,0.9-0.1,1.2,0.3
			c0.1,0.1,0.2,0.2,0.2,0.4c1.8,3.4,3.6,6.9,5.4,10.3c0.1,0.2,0.3,0.5,0.2,0.7c-0.1,0.4-0.3,0.7-0.6,0.9c-0.2,0.1-0.7,0-1-0.1
			c-0.1-0.1-0.2-0.2-0.3-0.3c-0.3-1.1-1.1-1.2-2.1-1.2c-8.4,0-16.8,0-25.3,0c-0.6,0-0.9,0.1-1.1,0.7c-0.1,0.3-0.2,0.5-0.4,0.7
			c-0.3,0.4-0.8,0.5-1.3,0.2c-0.4-0.2-0.6-0.7-0.4-1.2c0.1-0.1,0.1-0.3,0.2-0.4c1.8-3.4,3.6-6.9,5.4-10.3c0.1-0.2,0.2-0.3,0.3-0.5
			c0.3-0.3,0.7-0.4,1.1-0.2c0.4,0.2,0.6,0.6,0.5,1.1C26.3,46.2,26.2,46.4,26.1,46.5 M22.3,53.9h25.4c-0.2-0.4-0.4-0.7-0.5-1.1
			c-0.1-0.4-0.5-0.7-1-0.6c-2.7,0-5.4,0-8.1,0c-4.8,0-9.6,0-14.4,0c-0.2,0-0.5,0.1-0.7,0.3C22.7,52.9,22.5,53.4,22.3,53.9
			 M24.2,50.2h21.6c-0.2-0.5-0.5-0.9-0.7-1.4c-0.1-0.2-0.3-0.3-0.6-0.3c-6.3,0-12.7,0-19,0c-0.2,0-0.4,0.1-0.5,0.2
			C24.7,49.2,24.5,49.7,24.2,50.2"/>
		<path id="Path_649" class="st1" d="M34.8,31.8c-3.1,0-6.2,0-9.4,0c-1.6,0-2.1-0.6-2.1-2.2c0-4.3,0-8.6,0-12.8
			c-0.2-1.4,0.9-2.7,2.3-2.8c0.1,0,0.2,0,0.3,0c6.1-0.6,12.2-0.6,18.3,0c1.3,0.1,2.3,1.1,2.3,2.4c0,4.6,0,9.1,0,13.7
			c0,0.9-0.7,1.7-1.7,1.7c-0.1,0-0.1,0-0.2,0c-1.9,0-3.7,0-5.6,0L34.8,31.8L34.8,31.8z M24.8,27.3h20.2v-7.8H24.8V27.3z M45,17.9
			c0-0.5,0-0.9,0-1.3c0.1-0.6-0.4-1.2-1-1.2c-0.1,0-0.1,0-0.2,0c-2.2-0.2-4.4-0.4-6.6-0.4c-3.8,0-7.6,0.2-11.4,0.4
			c-0.6,0-1.1,0.4-1.1,1c0,0.5,0,1,0,1.5L45,17.9z M44.9,28.9H24.8c-0.2,1.5-0.2,1.5,1.2,1.5c5.9,0,11.8,0,17.7,0
			C45.1,30.3,45.1,30.3,44.9,28.9"/>
		<path id="Path_650" class="st1" d="M42.3,37.1c-0.6,0-1.3,0-1.9,0c-0.8,0.1-1.5-0.5-1.6-1.3c0-0.3,0.1-0.7,0.2-0.9
			c0.5-1.2,1.7-2,3-2c1-0.1,2.1-0.1,3.1,0c0.8,0,1.4,0.6,1.4,1.4c0,0.2-0.1,0.5-0.2,0.7c0,0,0,0,0,0.1c-1,2.2-1,2.2-3.3,2.2
			L42.3,37.1 M40.3,35.7c1.3,0,2.6,0,3.8,0c0.1,0,0.3-0.1,0.3-0.2c0.2-0.4,0.4-0.8,0.6-1.2c-1.1,0-2.2-0.1-3.3,0
			C41.1,34.4,40.5,35,40.3,35.7"/>
		<path id="Path_651" class="st1" d="M27.7,37.1c-0.6,0-1.2,0-1.8,0c-0.7,0.1-1.4-0.4-1.6-1c-0.2-0.4-0.4-0.8-0.6-1.2
			c-0.4-0.7-0.1-1.5,0.6-1.9c0.2-0.1,0.4-0.2,0.7-0.2c1.1-0.1,2.3,0,3.4,0c1.3,0.1,2.5,1,2.9,2.3c0.3,0.7-0.1,1.6-0.8,1.9
			c-0.2,0.1-0.4,0.1-0.6,0.1c-0.3,0-0.7,0-1,0C28.4,37.1,28,37.1,27.7,37.1 M25,34.3c0.5,1.4,0.5,1.4,1.8,1.4c0.5,0,1.1,0,1.6,0h1.3
			c-0.2-0.7-0.8-1.2-1.5-1.4C27.2,34.2,26.1,34.3,25,34.3"/>
		<path id="Path_652" class="st1" d="M39,21c-0.1,0.2-0.2,0.4-0.3,0.6c-0.4,0.6-0.8,1.2-1.2,1.9c-0.3,0.4-0.6,0.6-1.1,0.3
			s-0.4-0.7-0.1-1.1c0.4-0.6,0.8-1.3,1.3-1.9c0.2-0.2,0.5-0.3,0.8-0.3C38.7,20.4,38.9,20.8,39,21"/>
		<path id="Path_653" class="st1" d="M30.6,26.4c-0.7,0-1-0.5-0.7-1.1c0.4-0.7,0.8-1.3,1.3-2c0.2-0.3,0.6-0.4,0.9-0.2c0,0,0,0,0.1,0
			c0.3,0.2,0.4,0.5,0.3,0.8c0,0,0,0.1,0,0.1c-0.4,0.7-0.9,1.4-1.4,2.1C31,26.3,30.7,26.4,30.6,26.4"/>
		<path id="Path_654" class="st1" d="M33.6,20.1c0.7,0,1,0.5,0.8,1c-0.2,0.4-0.5,0.8-0.8,1.2c-0.2,0.3-0.5,0.4-0.8,0.2
			c0,0-0.1-0.1-0.1-0.1c-0.2-0.2-0.3-0.6-0.2-0.9c0.2-0.4,0.4-0.8,0.7-1.1C33.3,20.3,33.4,20.2,33.6,20.1"/>
		<path id="Path_655" class="st1" d="M36.5,25.1c-0.4,0.5-0.8,1-1.2,1.5c-0.1,0.1-0.6,0-0.7-0.1c-0.2-0.2-0.3-0.5-0.2-0.8
			c0.2-0.4,0.4-0.8,0.8-1.2c0.2-0.2,0.5-0.2,0.8-0.1C36.1,24.5,36.3,24.8,36.5,25.1"/>
	</g>
</g>
</svg>
