<?xml version="1.0" encoding="utf-8"?>
<!-- Generator: Adobe Illustrator 27.4.0, SVG Export Plug-In . SVG Version: 6.00 Build 0)  -->
<svg version="1.1" id="Group_409" xmlns="http://www.w3.org/2000/svg" xmlns:xlink="http://www.w3.org/1999/xlink" x="0px" y="0px"
	 viewBox="0 0 70 60" style="enable-background:new 0 0 70 60;" xml:space="preserve">
<style type="text/css">
	.st0{fill:#F44085;}
</style>
<g id="Group_317">
	<path id="Path_663" class="st0" d="M28.9,11.2h-2.8c-0.4,0.1-0.8-0.2-1-0.5c-0.2-0.4,0-0.9,0.4-1.1c0.1-0.1,0.3-0.1,0.4-0.1
		c0.9,0,1.8,0,2.7,0c0.5,0,0.8-0.1,0.8-0.7c0.1-0.7,0.3-1.3,0.4-2C30,6.2,30.2,6,31,6c1,0,2,0,3.1,0c0-0.7,0-1.4,0-2.1
		c-0.1-0.5,0.3-0.9,0.8-1H35c0.5,0,0.8,0.4,0.8,0.8c0,0,0,0,0,0.1c0,0.7,0,1.4,0,2.2c0.9,0,1.8,0,2.6,0c1.5,0,1.5,0,1.9,1.5
		c0.1,0.5,0.2,0.9,0.3,1.4s0.3,0.6,0.7,0.6c0.9,0,1.7,0,2.6,0c0.6,0,1,0.3,1,0.8s-0.3,0.9-1,0.9c-0.9,0-1.8,0-2.8,0
		c0.2,1.1,0.4,2,0.7,3c0.3,1.3,0.3,1.3,1.7,1.3c1.1,0,2.2,0,3.3,0c0.9,0,1.1,0.3,1.1,1.1c0,3.1,0,6.3,0,9.4c-0.1,0.5,0.2,1,0.7,1.2
		c1.1,0.6,2.2,1.3,3.3,2c0.5,0.2,0.8,0.8,0.6,1.3c-1.2,5.8-2.7,11.4-4.6,17c-0.1,0.2-0.1,0.4-0.2,0.5c2.1,1.5,4.8,2.1,7.4,1.5
		c0.9-0.3,1.8-0.7,2.6-1.1c1.3-0.6,2.7-0.9,4.1-0.9c0.6,0,1,0.3,1,0.8s-0.4,0.9-1,0.9c-1.5,0-2.9,0.4-4.2,1.2
		c-2.1,1.1-4.5,1.5-6.9,0.9c-0.8-0.2-1.6-0.5-2.4-0.9c-2.8-1.6-6.2-1.6-8.9,0c-2.6,1.4-5.8,1.5-8.5,0.3c-0.4-0.2-0.9-0.4-1.3-0.6
		c-2.3-1.2-5.1-1.2-7.5,0c-2.4,1.4-5.3,1.8-8,1c-0.8-0.2-1.5-0.5-2.2-0.9c-1.2-0.7-2.6-1-4-1C7.4,49.3,7,48.9,7,48.5v-0.1
		c0-0.5,0.4-0.8,0.9-0.8H8c1.5,0,3.1,0.3,4.4,1.1s2.8,1.2,4.3,1.2c1.4,0,2.8-0.3,4-0.9c0.5-0.3,1-0.5,1.5-0.8
		c-0.4-1.2-0.8-2.4-1.2-3.6c-1.4-4.6-2.6-9.3-3.6-14c-0.2-0.5,0.1-1.1,0.6-1.3c1.2-0.7,2.3-1.4,3.4-2.1c0.3-0.2,0.5-0.5,0.5-0.9
		c0-3.2,0-6.3,0-9.5c0-1.1,0.2-1.3,1.3-1.3c1.3,0,2.6,0,3.9,0c0.5,0,0.8-0.1,0.9-0.7C28.3,13.6,28.6,12.4,28.9,11.2 M35.8,49.7
		c1.2,0,2.3-0.4,3.3-1c1.9-1,4.1-1.4,6.2-1.1c0.3,0.1,0.7-0.1,0.8-0.4v-0.1c1-3.3,1.9-6.6,2.9-9.9c0.1-0.3,0-0.7-0.3-0.8
		c0,0,0,0-0.1,0c-2.6-1.6-5.3-3.2-7.9-4.8c-0.6-0.3-1.1-0.7-1.7-1c-0.4-0.2-0.5-0.7-0.3-1.1l0,0c0.2-0.4,0.8-0.5,1.2-0.3l0,0
		c0.2,0.1,0.3,0.2,0.5,0.3c2.7,1.6,5.3,3.3,8,4.9c0.3,0.2,0.7,0.4,1.1,0.6c0.3-1.4,0.6-2.8,0.9-4.1c0-0.2-0.2-0.4-0.4-0.5
		c-4.9-3-9.8-6-14.7-9c-0.3-0.3-0.8-0.3-1.1,0c-4.6,2.9-9.3,5.7-13.9,8.5c-1.3,0.8-1.3,0.8-1,2.2c0.2,1,0.4,1.9,0.7,3
		c0.3-0.2,0.5-0.3,0.7-0.4l8.3-5.1c0.9-0.5,1.3-0.5,1.6,0c0.3,0.5,0.1,0.9-0.7,1.4c-3,1.8-6,3.7-8.9,5.5c-0.3,0.2-0.5,0.3-0.4,0.7
		c1,3.3,2,6.7,3,10c0.1,0.5,0.4,0.5,0.8,0.5c0.8-0.1,1.7-0.1,2.5,0c1.5,0.2,3,0.7,4.3,1.5c0.8,0.4,1.8,0.7,2.7,0.7v-0.8
		c0-7,0-14,0-21c0-0.2,0-0.4,0-0.6c0.1-0.5,0.5-0.8,1-0.7c0.4,0.1,0.6,0.3,0.7,0.7c0,0.2,0,0.4,0,0.6c0,7,0,14,0,21L35.8,49.7
		 M38.1,20.8c0-0.6,0-1.1,0-1.6s0.3-0.9,0.8-0.9s0.9,0.3,0.9,0.8c0,0.1,0,0.1,0,0.2c0,0.7,0,1.4,0,2.1c0,0.2,0.1,0.4,0.2,0.5
		c0.6,0.4,1.3,0.8,2.1,1.3c0-0.3,0-0.5,0-0.7c0-1.1,0-2.1,0-3.2c0-0.7,0.3-1.1,0.8-1.1s0.9,0.4,0.9,1.1c0,1.5,0,3,0,4.4
		c0,0.2,0,0.4,0.1,0.5c0.7,0.5,1.4,0.9,2.2,1.4c0-0.1,0.1-0.2,0.1-0.3c0-2.6,0-5.2,0-7.8c0-0.4-0.2-0.4-0.5-0.4c-1.5,0-3,0-4.4,0
		c-5.7,0-11.3,0-16.9,0c-0.5,0-0.6,0.2-0.6,0.6c0,2.4,0,4.9,0,7.3c0,0.2,0,0.4,0,0.6c0.7-0.4,1.2-0.8,1.8-1.1c0.4-0.2,0.6-0.6,0.6-1
		c0-1.3,0-2.7,0-4c0-0.2,0-0.4,0-0.6c0.1-0.5,0.5-0.8,0.9-0.7c0.4,0.1,0.7,0.4,0.7,0.8c0,0.5,0,1,0,1.5c0,0.8,0,1.6,0,2.6
		c0.7-0.4,1.2-0.8,1.8-1.1c0.3-0.1,0.4-0.4,0.4-0.7c0-0.7,0-1.5,0-2.2c0-0.5,0.3-0.9,0.8-0.9s0.9,0.3,0.9,0.8c0,0.1,0,0.1,0,0.2
		c0,0.5,0,1,0,1.6c0.8-0.5,1.6-0.9,2.3-1.4c0.5-0.4,1.3-0.5,1.8,0C36.5,19.9,37.3,20.3,38.1,20.8 M40.3,15.4c-0.3-1.4-0.6-2.7-0.9-4
		c0-0.1-0.3-0.2-0.5-0.2c-2.6,0-5.2,0-7.8,0c-0.4,0-0.5,0.1-0.6,0.5c-0.2,1-0.4,1.9-0.6,2.9c-0.1,0.3-0.1,0.6-0.2,0.9L40.3,15.4z
		 M38.9,9.4c-0.1-0.5-0.2-0.9-0.3-1.4c-0.1-0.2-0.3-0.3-0.5-0.4c-2.1,0-4.3,0-6.4,0c-0.1,0-0.4,0.1-0.4,0.2c-0.1,0.5-0.2,1-0.3,1.5
		L38.9,9.4z"/>
	<path id="Path_664" class="st0" d="M52.4,57c-1.7-0.1-3.3-0.6-4.7-1.4c-1.9-0.9-4-1.1-6-0.5c-0.8,0.3-1.5,0.6-2.2,1
		c-2.8,1.4-6,1.4-8.8,0c-1.6-0.9-3.4-1.4-5.3-1.3c-1.1,0.1-2.2,0.4-3.2,0.9c-1.4,0.9-3.1,1.3-4.8,1.4c-0.1,0-0.2,0-0.3,0
		c-0.6,0-0.9-0.3-1-0.8c0-0.5,0.3-0.9,0.8-0.9c0,0,0,0,0.1,0c0.5,0,1,0,1.5-0.1c0.9-0.3,1.9-0.6,2.7-1c3-1.6,6.6-1.6,9.6,0
		c2.6,1.5,5.7,1.5,8.3,0c3-1.7,6.8-1.7,9.8,0c1.2,0.7,2.5,1,3.8,1c0.2,0,0.4,0,0.6,0.1c0.4,0.1,0.6,0.4,0.5,0.8l0,0
		c-0.1,0.3-0.3,0.6-0.6,0.7C53,57.1,52.6,57,52.4,57"/>
</g>
</svg>
