<?xml version="1.0" encoding="utf-8"?>
<!-- Generator: Adobe Illustrator 27.4.0, SVG Export Plug-In . SVG Version: 6.00 Build 0)  -->
<svg version="1.1" id="Layer_1" xmlns="http://www.w3.org/2000/svg" xmlns:xlink="http://www.w3.org/1999/xlink" x="0px" y="0px"
	 viewBox="0 0 70 62" style="enable-background:new 0 0 70 62;" xml:space="preserve">
<style type="text/css">
	.st0{clip-path:url(#SVGID_00000130607102122483619180000012259013236172021405_);}
	.st1{fill:#FFFFFF;}
</style>
<g id="Group_325" transform="translate(-526 -2464)">
	<g id="Group_158" transform="translate(526 2464)">
		<g>
			<defs>
				<rect id="SVGID_1_" y="1.3" width="70" height="59.5"/>
			</defs>
			<clipPath id="SVGID_00000124860283771129851410000016529926218280827537_">
				<use xlink:href="#SVGID_1_"  style="overflow:visible;"/>
			</clipPath>
			
				<g id="Group_157" transform="translate(0 0)" style="clip-path:url(#SVGID_00000124860283771129851410000016529926218280827537_);">
				<path id="Path_317" class="st1" d="M66.3,55.2c-0.6-1.4-1.1-2.5-1.6-3.6c-2-4.4-4-8.8-6-13.2c-0.2-0.5-0.6-0.8-1.1-1
					c-3.5-1.6-6.9-3.2-10.5-4.8c0.3-0.7,0.6-1.5,1-2.2l6.3,2.8c1.7,0.8,3.4,1.5,5.1,2.3c0.5,0.2,0.9,0.6,1.1,1.1
					c3.1,6.7,6.1,13.5,9.2,20.2c0.4,0.5,0.3,1.2-0.1,1.7c-0.5,0.4-1.2,0.5-1.7,0.1c-5.1-2.3-10.2-4.5-15.3-6.8
					c-0.5-0.3-1.1-0.2-1.5,0.1c-5,2.9-10,5.7-15,8.5c-0.7,0.4-1.5,0.4-2.2,0c-5-2.9-10-5.7-15-8.5c-0.5-0.3-1-0.3-1.5-0.1
					c-5,2.3-10.1,4.5-15.2,6.7c-0.4,0.2-0.9,0.3-1.4,0.2c-0.8-0.2-1-1-0.6-1.9c1.3-2.9,2.6-5.8,4-8.8c1.7-3.8,3.5-7.7,5.2-11.5
					c0.2-0.4,0.5-0.8,1-1.1c3.7-1.7,7.4-3.3,11.1-5c0.1-0.1,0.3-0.1,0.4-0.1l1,2.2c-1.7,0.7-3.2,1.4-4.8,2.2c-2,0.9-4,1.7-5.9,2.6
					c-0.3,0.1-0.6,0.4-0.8,0.7c-2.5,5.5-5,11-7.5,16.6c-0.1,0.1-0.1,0.2-0.2,0.5c1.5-0.7,2.9-1.3,4.3-1.9c2.9-1.3,5.7-2.5,8.6-3.8
					c0.4-0.2,0.8-0.6,1-1c1.3-3.2,2.5-6.4,3.7-9.6c0.1-0.3,0.2-0.5,0.3-0.8c0.3-0.6,1-0.8,1.5-0.5c0,0,0,0,0,0
					c0.6,0.2,0.9,0.8,0.7,1.4c0,0,0,0,0,0c-0.4,1.2-0.9,2.3-1.3,3.5c-0.8,2.1-1.6,4.2-2.4,6.4c-0.2,0.4-0.3,0.7,0.2,1
					c4.4,2.4,8.7,4.9,13.1,7.4c0.1,0.1,0.3,0.1,0.4,0.1v-7.8h2.4v7.9c0.4-0.2,0.6-0.2,0.7-0.3c4.2-2.4,8.5-4.8,12.7-7.2
					c0.5-0.3,0.6-0.5,0.4-1c-1.2-3.2-2.4-6.3-3.7-9.5c-0.3-0.8-0.1-1.6,0.6-1.8c0.7-0.3,1.3,0.1,1.7,0.9c0,0.1,0.1,0.2,0.1,0.3
					c1.1,2.9,2.3,5.8,3.3,8.7c0.3,1.2,1.2,2.1,2.4,2.5C58.3,51.6,62.2,53.4,66.3,55.2"/>
				<path id="Path_318" class="st1" d="M35,1.3c7.8-0.1,14.2,6.2,14.2,14c0,0.1,0,0.1,0,0.2c-0.1,2-0.5,3.9-1.2,5.7
					c-2.2,5.9-4.8,11.6-7.9,17c-1.3,2.3-2.6,4.6-3.9,6.9c-0.2,0.6-0.9,1-1.6,0.7c-0.3-0.1-0.6-0.4-0.7-0.7
					c-4.3-7.4-8.5-14.9-11.5-23c-0.9-2.2-1.5-4.5-1.6-6.8C20.8,7.5,27.2,1.2,35,1.3 M35,42.3c1.8-3.3,3.5-6.3,5.1-9.4
					c2.4-4.3,4.4-8.9,5.9-13.6c0.5-1.5,0.8-3.1,0.7-4.7C46.3,8.1,40.6,3.3,34.2,3.7c-6.5,0.5-11.3,6.1-10.9,12.6
					c0,0.6,0.1,1.2,0.3,1.8c0.2,0.9,0.5,1.9,0.9,2.8c2.2,5.8,4.9,11.4,8,16.8C33.2,39.1,34.1,40.6,35,42.3"/>
				<path id="Path_319" class="st1" d="M35,7.6c4.4,0,8,3.6,7.9,8c0,4.4-3.6,8-8,7.9c-4.4,0-8-3.6-7.9-8c0,0,0,0,0,0
					C27,11.1,30.6,7.6,35,7.6C35,7.6,35,7.6,35,7.6 M35,10c-3,0-5.5,2.4-5.5,5.5c0,0,0,0.1,0,0.1c0,3,2.5,5.5,5.6,5.5
					c3,0,5.5-2.5,5.5-5.6C40.5,12.4,38,10,35,10"/>
			</g>
		</g>
	</g>
</g>
</svg>
