<?xml version="1.0" encoding="utf-8"?>
<!-- Generator: Adobe Illustrator 27.4.0, SVG Export Plug-In . SVG Version: 6.00 Build 0)  -->
<svg version="1.1" id="Group_412" xmlns="http://www.w3.org/2000/svg" xmlns:xlink="http://www.w3.org/1999/xlink" x="0px" y="0px"
	 viewBox="0 0 70 60" style="enable-background:new 0 0 70 60;" xml:space="preserve">
<style type="text/css">
	.st0{clip-path:url(#SVGID_00000125590129447094182250000003126265287113927568_);}
	.st1{fill:#A4C42C;}
</style>
<g>
	<defs>
		<rect id="SVGID_1_" x="2" y="10" width="66" height="40"/>
	</defs>
	<clipPath id="SVGID_00000053516072894984627040000011525006426614047616_">
		<use xlink:href="#SVGID_1_"  style="overflow:visible;"/>
	</clipPath>
	<g id="Group_385" style="clip-path:url(#SVGID_00000053516072894984627040000011525006426614047616_);">
		<path id="Path_1129" class="st1" d="M68.4,14.7c-0.3,0.5-0.8,0.7-1.4,0.7c-1.1,0-2.2,0-3.3,0v6.6c0.2,0,0.4,0,0.6,0
			c1.1,0,2,0.9,2,2.1c0.2,2.3-0.7,3.2-3.1,3.2c-3.1-0.1-6.1,0-9.2,0c-1.1,0.1-2.1-0.7-2.3-1.8c0-0.1,0-0.3,0-0.4c0-0.3,0-0.6,0-1
			c0.1-1.1,0.9-1.9,2-2c0.2,0,0.4,0,0.6,0c0-0.2,0-0.3,0-0.4c0-1.8,0-3.6,0-5.5c-1,0.1-2,0.2-2.9,0.3c-1.3,0.2-2.6,0.4-3.9,0.6
			c-0.2,0.1-0.4,0.2-0.4,0.5c0,3.3,0,6.7,0,10c0,0.1,0,0.1,0.1,0.2c0.2,0,0.4,0,0.6,0c1,0.1,1.8,0.9,1.9,1.9
			c0.2,2.3-0.5,3.3-3.1,3.3c-3-0.1-6.1,0-9.1,0c-1.1,0.2-2.2-0.6-2.4-1.8c0-0.2,0-0.4,0-0.6c0-0.4,0-0.9,0.1-1.3
			c0.3-1,1-1.4,2.5-1.5v-7.8c0,0-0.1,0-0.1,0c-2,0.7-3.9,1.9-5.4,3.3c-2.2,2-2.8,5.3-1.4,8c1.1,2.1,2.5,4,4.3,5.6
			c3.4,3.4,6.9,6.7,10.3,10.1c0.9,0.7,1,2,0.3,2.9c-0.3,0.3-0.6,0.5-1,0.7c-0.2,0.1-0.5,0.1-0.7,0.1c-13,0-25.9,0-38.9,0
			c-1.1,0.1-2.1-0.7-2.2-1.7C1,40.1,2,31.9,7.4,24.6c2.8-3.5,6.3-6.4,10.3-8.4c4.9-2.4,10.2-4.1,15.6-4.9c6.9-1.1,13.9-1.5,20.9-1.3
			c4.3,0.1,8.6,0.5,12.9,0.8c0.5,0,1,0.3,1.2,0.7V14.7z M66.3,13.2l0-0.2c-0.1-0.1-0.3-0.1-0.5-0.2c-2.6-0.2-5.2-0.4-7.8-0.5
			c-8.4-0.6-16.9-0.2-25.3,1.2c-5.3,0.8-10.4,2.5-15.1,5c-4.4,2.3-8,5.7-10.5,10c-3.4,6-3.9,12.5-2.5,19.1c0.1,0.6,0.3,0.7,0.9,0.7
			c5.1,0,10.2,0,15.3,0h0.6c-0.1-0.2-0.1-0.2-0.1-0.3c-0.4-0.7-0.3-1.2,0.2-1.6s1.1-0.2,1.5,0.4c0.2,0.3,0.5,0.6,0.7,1
			c0.2,0.3,0.5,0.5,0.9,0.5c6.2,0,12.4,0,18.6,0c0.2,0,0.4,0,0.5,0l0.1-0.1c-0.2-0.1-0.4-0.2-0.5-0.4c-3.3-3.2-6.6-6.4-9.8-9.6
			c-1.8-1.7-3.3-3.6-4.5-5.8c-2.2-3.8-1.3-8.7,2.2-11.4c1.6-1.3,3.5-2.4,5.5-3.2c3.9-1.5,8-2.6,12.2-3.1c4.3-0.7,8.7-1.1,13.1-1.3
			C63.6,13.3,65,13.3,66.3,13.2 M45.1,17.5c-1.6,0.5-3.2,0.9-4.8,1.4c-0.2,0.1-0.3,0.2-0.3,0.4c0,0.9,0,1.8,0,2.7h5.2V17.5z
			 M39.9,27.6H45v-3.6h-5.1V27.6z M61.7,15.5l-5.1,0.4v1.9h5.1V15.5z M61.7,19.9h-5.1v2h5.1L61.7,19.9z M64.3,24.1H54v1h10.3V24.1z
			 M37.3,30.7h10.3v-1H37.3V30.7z"/>
		<path id="Path_1130" class="st1" d="M21,43.8c0,0.5-0.3,0.9-0.8,1.1c-0.5,0.2-1-0.1-1.2-0.5c-0.6-1.3-1.2-2.6-1.8-3.8
			c-0.2-0.4-0.3-0.8-0.4-1.1c-0.2-0.5,0.1-1.1,0.6-1.3c0.5-0.2,1.1,0,1.3,0.5c0.8,1.6,1.5,3.2,2.2,4.9C20.9,43.5,21,43.6,21,43.8"/>
		<path id="Path_1131" class="st1" d="M25.7,20.5c-0.3-0.2-0.6-0.5-0.8-0.8c-0.2-0.4-0.1-0.9,0.3-1.1c0,0,0,0,0.1,0
			c1.7-0.8,3.5-1.6,5.2-2.3c0.5-0.2,1,0.1,1.1,0.5c0.3,0.4,0.2,1-0.2,1.3c-0.2,0.1-0.4,0.2-0.6,0.3c-1.4,0.6-2.7,1.2-4.1,1.8
			C26.4,20.2,26.1,20.3,25.7,20.5"/>
		<path id="Path_1132" class="st1" d="M23.4,21.7c-0.2,0.3-0.4,0.6-0.7,0.9c-1.2,1-2.3,2.1-3.2,3.4c-0.3,0.5-0.9,0.7-1.4,0.5
			c-0.1,0-0.1-0.1-0.2-0.1c-0.5-0.4-0.6-1-0.2-1.5c0,0,0-0.1,0.1-0.1c1-1.5,2.2-2.8,3.7-3.9c0.4-0.2,0.8-0.2,1.2-0.1
			C23,20.9,23.2,21.3,23.4,21.7"/>
		<path id="Path_1133" class="st1" d="M15.4,32.4c0.1-0.8,0.3-2,0.5-3.1c0.1-0.5,0.5-0.9,1-0.8c0.5,0,0.9,0.3,1,0.8
			c0,0.1,0.1,0.3,0,0.4c-0.4,1.6-0.4,3.3-0.2,4.9c0.1,0.5-0.2,1.1-0.7,1.2c-0.5,0.2-1.1-0.2-1.3-0.7c0-0.1,0-0.2,0-0.3
			C15.6,34.1,15.5,33.4,15.4,32.4"/>
		<path id="Path_1134" class="st1" d="M38.3,15.4c-0.1,0.4-0.4,0.7-0.8,0.8c-0.8,0.2-1.7,0.5-2.5,0.6c-0.6,0.2-1.1-0.2-1.3-0.7
			c0,0,0,0,0,0c-0.1-0.5,0.2-1.1,0.7-1.2c0,0,0.1,0,0.1,0c0.8-0.2,1.6-0.4,2.4-0.6c0.6-0.2,1.2,0.1,1.3,0.7
			C38.3,15.1,38.4,15.2,38.3,15.4"/>
	</g>
</g>
</svg>
