<?xml version="1.0" encoding="utf-8"?>
<!-- Generator: Adobe Illustrator 27.4.0, SVG Export Plug-In . SVG Version: 6.00 Build 0)  -->
<svg version="1.1" id="Group_406" xmlns="http://www.w3.org/2000/svg" xmlns:xlink="http://www.w3.org/1999/xlink" x="0px" y="0px"
	 viewBox="0 0 70 60" style="enable-background:new 0 0 70 60;" xml:space="preserve">
<style type="text/css">
	.st0{fill:#F44085;}
</style>
<g id="Group_319">
	<path id="Path_665" class="st0" d="M22,13.4v15.3h-2.1V6.6c-0.6,0-1.1,0-1.6,0C18.1,6.7,18,6.9,17.9,7c0,0.3,0,0.6,0,0.9
		c0,6.7,0,13.3,0,20c0,0.2,0,0.5,0,0.8h-1.7c-0.5,0-0.4-0.4-0.4-0.7c0-2.2,0-4.3,0-6.5c0-2.3,0-4.7,0-7v-0.9
		c-0.1,0.1-0.2,0.2-0.3,0.4c-1.1,1.9-2.5,3.6-4.1,5.1c-0.2,0.3-0.4,0.6-0.4,1c0,2.6,0,5.1,0,7.7v0.9c-0.6,0-1.2,0-1.7,0
		c-0.2,0-0.4-0.4-0.4-0.6c0-2,0-3.9,0-5.9v-1c-1.8,1.2-3.8,2-5.8,2.5l-0.5-2c0.4-0.1,0.9-0.2,1.2-0.4c6.4-2.6,10.5-7.2,11.9-14
		c0.1-0.5,0.1-1,0.1-1.5c0-0.9,0.4-1.3,1.3-1.3c1.2,0,2.4,0,3.7,0c0.9,0,1.3,0.4,1.3,1.3c0.2,6.5,5.3,11.8,11.8,12.2
		c6.4,0.6,12.2-3.5,13.8-9.8C47.9,7.4,48,6.5,48,5.7c0.1-0.9,0.4-1.3,1.3-1.3c1.2,0,2.4,0,3.7,0c0.8,0,1.2,0.4,1.3,1.1
		c0.2,5.4,2.9,9.4,6.9,12.8c1.9,1.6,4.1,2.7,6.4,3.3l-0.4,2c-2.1-0.5-4.1-1.3-5.9-2.5v1c0,2,0,3.9,0,5.9c0,0.5-0.1,0.8-0.7,0.7
		c-0.4,0-0.9,0-1.4,0v-0.9c0-2.6,0-5.1,0-7.7c0-0.3-0.1-0.6-0.3-0.8c-1.7-1.6-3.3-3.5-4.6-5.5v14.9h-2.2v-22h-2v22H48V13.2
		c-0.1,0.1-0.3,0.3-0.4,0.4c-1,1.6-2.4,2.9-4,3.9c-0.4,0.2-0.6,0.6-0.5,1c0,3.1,0,6.2,0,9.3v0.9c-0.6,0-1.2,0-1.7,0S41,28.3,41,28
		c0-2.7,0-5.4,0-8.1c0-0.3,0-0.5,0-0.8l-4.9,1.2v8.4H34v-8.4l-4.9-1.1v9.5H27v-0.9c0-3.1,0-6.1,0-9.2c0-0.4-0.2-0.8-0.6-1
		c-1.5-1-2.9-2.3-3.9-3.8c-0.1-0.1-0.2-0.3-0.3-0.4L22,13.4"/>
	<path id="Path_666" class="st0" d="M22,37.3v7.8h-2.1v-7.9c-0.6,0-1.1,0-1.7,0c-0.1,0-0.3,0.4-0.3,0.6c0,2.1,0,4.3,0,6.4V45h-2.1
		v-7.9H2.5V35h64.9v2H54.2v7.9h-2.1c0-0.2,0-0.5,0-0.8c0-2.1,0-4.3,0-6.4c0-0.5-0.1-0.8-0.7-0.7c-0.4,0-0.9,0-1.3,0v7.9H48v-7.8
		L22,37.3z"/>
	<path id="Path_667" class="st0" d="M61.6,50.3c-1.7,0-3.3-0.5-4.7-1.4c-0.3-0.3-0.8-0.3-1.1,0c-3,1.9-6.8,1.9-9.8,0
		c-0.3-0.1-0.6-0.1-0.9,0.1c-2.4,1.5-5.2,1.8-7.9,0.9c-0.7-0.2-1.3-0.7-1.9-0.9c-0.3-0.1-0.6-0.1-0.8,0c-3,2-7,2-10,0
		c-0.3-0.1-0.6-0.1-0.8,0.1c-3,1.7-6.1,2-9.2,0.3c-0.7-0.4-1.5-0.5-2.2,0c-2.9,1.7-6.6,1.5-9.4-0.5c-0.2-0.2-0.5-0.3-0.7-0.5
		c-0.6-0.5-0.7-1.1-0.3-1.6s1-0.5,1.6,0c1.4,1.2,3.3,1.8,5.1,1.6c1.3-0.2,2.6-0.7,3.7-1.5c1-0.6,1.1-0.6,2.1,0.1
		c2,1.6,4.8,1.9,7.1,0.8c0.6-0.3,1.3-0.7,1.9-1.1c0.4-0.3,1-0.3,1.5,0.1c2.6,2.2,5.9,2.2,8.8,0.3C35,46,35,46,36.2,46.8
		c1.9,1.5,4.5,1.8,6.7,0.8c0.6-0.2,1.1-0.5,1.6-0.8c1.3-0.8,1.3-0.8,2.5,0.1c1.9,1.5,4.5,1.7,6.7,0.7c0.7-0.3,1.4-0.7,2.1-1.2
		c0.5-0.3,1.1-0.3,1.5,0c2.4,2.1,5.9,2.3,8.5,0.4c0.3-0.2,0.6-0.4,0.8-0.5c0.5-0.3,1.1-0.2,1.5,0.3c0.3,0.5,0.2,1.1-0.2,1.4l0,0
		C66,49.5,63.8,50.3,61.6,50.3"/>
	<path id="Path_668" class="st0" d="M61.6,55.5c-1.7,0-3.3-0.5-4.7-1.4c-0.3-0.3-0.8-0.3-1.1,0C52.8,56,49,56,46,54
		c-0.3-0.1-0.6-0.1-0.9,0.1c-2.4,1.5-5.2,1.8-7.9,0.9c-0.7-0.2-1.3-0.7-1.9-0.9c-0.3-0.1-0.6-0.1-0.8,0c-3,2-7,2-10,0
		c-0.3-0.1-0.6-0.1-0.8,0.1c-3,1.7-6.1,2-9.2,0.3c-0.7-0.4-1.5-0.5-2.2,0C9.4,56,5.8,55.9,3,53.9c-0.2-0.2-0.5-0.3-0.7-0.5
		c-0.6-0.5-0.7-1.1-0.3-1.6s1-0.5,1.6,0C5.1,53,7,53.5,8.8,53.3c1.3-0.2,2.6-0.7,3.7-1.5c1-0.6,1.1-0.6,2.1,0.1
		c2,1.6,4.8,1.9,7.1,0.8c0.6-0.3,1.3-0.7,1.9-1.1c0.4-0.3,1-0.3,1.5,0.1c2.6,2.2,5.9,2.2,8.8,0.3c1.2-0.8,1.2-0.8,2.4,0.1
		c1.9,1.5,4.5,1.8,6.7,0.8c0.6-0.2,1.1-0.5,1.6-0.8c1.3-0.8,1.3-0.8,2.5,0.1c1.9,1.5,4.5,1.7,6.7,0.7c0.7-0.3,1.4-0.7,2.1-1.2
		c0.5-0.3,1.1-0.3,1.5,0c2.4,2.1,5.9,2.3,8.5,0.4c0.3-0.2,0.6-0.4,0.8-0.5c0.5-0.3,1.1-0.2,1.5,0.3c0.3,0.5,0.2,1.1-0.2,1.4l0,0
		C66,54.7,63.8,55.4,61.6,55.5"/>
	<rect id="Rectangle_283" x="2.5" y="31.1" class="st0" width="65" height="2"/>
</g>
</svg>
