<?xml version="1.0" encoding="utf-8"?>
<!-- Generator: Adobe Illustrator 27.3.1, SVG Export Plug-In . SVG Version: 6.00 Build 0)  -->
<svg version="1.1" id="Layer_1" xmlns="http://www.w3.org/2000/svg" xmlns:xlink="http://www.w3.org/1999/xlink" x="0px" y="0px"
	 viewBox="0 0 100 100" style="enable-background:new 0 0 100 100;" xml:space="preserve">
<style type="text/css">
	.st0{fill:#3F5164;}
</style>
<g id="Group_289">
	<path id="Path_726" class="st0" d="M13.6,87.3c-0.1-0.4-0.4-0.8-0.3-1.1c0.1-0.6,0.7-0.5,1.1-0.5h16.8c-0.8-1.1-1-2.4-0.7-3.7
		c0.4-1.3,1.3-2.4,2.6-2.9c-1.3-0.3-2.4-0.6-3.6-0.9c-2.8-0.7-4.7-2.2-5.2-5.2c-0.1-0.2-0.2-0.4-0.3-0.5c-1.6-1.3-1.8-3.7-0.5-5.3
		c0-0.1,0.1-0.1,0.2-0.2c2.4-2.8,4.8-5.5,7.1-8.3c0.2-0.3,0.4-0.7,0.5-1.1c0.4-2.6,0.5-5.3,1-7.9c0.7-3.6,3-6.7,6.2-8.4
		c2-1.1,4.1-2.2,6.1-3.3c0.7-0.4,0.8-0.6,0.1-1.2c-1.3-1.2-2.1-2.7-2.5-4.4c0-0.3-0.2-0.5-0.4-0.7c-2.3-1.8-3.4-4.8-3-7.7
		c0.2-1.4,0.6-2.8,1.2-4c0.6-1.4,1.8-2.4,3.2-2.7c0.2-0.1,0.4-0.2,0.5-0.4c0.4-1.6,1.7-2.8,3.4-3c6.3-1.3,12.5,2.7,13.8,8.9
		c0.5,3-0.3,6.1-2.4,8.4c-0.3,0.4-0.5,0.9-0.7,1.4c-0.4,1.7-1.3,3.2-2.5,4.3c-0.7,0.6-0.7,0.6,0.2,1c2,1,3.9,2.1,5.9,3.1
		c3.9,2,6.4,5.9,6.7,10.3c0.2,2.1,0.4,4.2,0.7,6.3c0.1,0.3,0.2,0.6,0.4,0.8c2.3,2.8,4.7,5.5,7.1,8.2c0.8,0.9,1.2,2.1,1,3.3
		c-0.2,1.4-1.2,2.5-2.5,2.9c-1.3,0.5-2.8,0.2-3.7-0.8c-1.2-1.1-2.3-2.2-3.5-3.3c-0.3-0.3-0.8-0.4-1.2-0.2
		c-10.8,4-21.7,7.9-32.5,11.8c-1.4,0.4-2.2,1.8-1.9,3.3s1.8,2.2,3.3,1.9c0,0,0.1,0,0.2-0.1c11.6-2.9,23.2-5.9,34.7-8.8
		c0.2-0.1,0.4-0.1,0.6-0.1c0.4-0.2,0.8,0,1,0.3c0,0.1,0,0.1,0.1,0.2c0.2,0.5-0.2,0.8-0.6,0.9c-1.2,0.3-2.4,0.6-3.6,0.9
		c-0.2,0-0.3,0.1-0.5,0.2c2.8,1.6,3.2,4.1,1.7,6.6h0.9c3.8,0,7.6,0,11.4,0c0.4,0,0.8,0.2,1,0.4c0.3,0.4,0,0.8-0.4,1.1L13.6,87.3
		L13.6,87.3z M61.5,43v1c0,4.6,0.1,9.2,0,13.8c-0.1,1.7,0.5,3.4,1.7,4.6c0.5,0.5,1,1.1,1.5,1.6c0.7,0.6,1.3,1.2,2,1.9
		c1.8,1.7,3.6,3.5,5.5,5.2c0.8,0.9,2.3,0.9,3.2,0.1c0.3-0.3,0.6-0.7,0.7-1.2c0.1-0.8-0.2-1.7-0.8-2.2c-2.4-2.8-4.8-5.6-7.2-8.4
		c-0.3-0.3-0.5-0.7-0.5-1.1c-0.2-1.5-0.3-3-0.5-4.4c-0.2-1.8-0.5-3.6-1-5.4C65.1,46.2,63.5,44.3,61.5,43 M38.5,43.2
		c-0.3,0.2-0.5,0.3-0.6,0.4c-2.1,1.5-3.6,3.7-4.2,6.3c-0.5,2.1-0.7,4.3-0.8,6.5c-0.1,1.8-0.8,3.5-2.1,4.8c-2.1,2.2-4.1,4.6-6.1,7
		c-0.9,0.9-0.9,2.3,0,3.1c0.3,0.3,0.6,0.5,1,0.6c0.9,0.2,1.8,0,2.4-0.7c2.5-2.4,5-4.7,7.5-7.1c0.9-1,1.8-2.1,2.5-3.2
		c0.2-0.4,0.4-0.8,0.4-1.3c0-4.5,0-8.9,0-13.4L38.5,43.2 M56.4,26.8c-4.5,0.5-9-0.8-12.6-3.6c0,0.1,0,0.2-0.1,0.3c0,2.6,0,5.1,0,7.7
		c0.1,3.3,2.5,5.9,5.8,6.3c3.3,0.4,6.3-1.8,6.9-5.1C56.5,30.5,56.5,28.6,56.4,26.8 M60,67.7H40c0,0.3,0,0.6,0,0.8
		c-0.1,0.7,0.2,1.1,0.9,1.3c2.9,1,5.8,2.1,8.6,3.1c0.3,0.1,0.6,0.1,1,0.1c3-1.1,6.1-2.2,9.1-3.3c0.2-0.1,0.4-0.2,0.4-0.5
		C60,68.7,60,68.2,60,67.7 M46.6,38.2c-0.4,1.5-0.8,2.9-1,4.3c-0.4,2.5,1.3,4.8,3.7,5.2c2.3,0.5,4.6-1,5.1-3.3l0,0
		c0.5-2.1-0.7-4-0.9-6.1C51.3,39.3,48.8,39.2,46.6,38.2 M58.3,85.8l0-0.1c-0.1,0-0.2-0.1-0.2-0.1c-2.5-0.7-5.1-1.3-7.6-1.9
		c-0.3-0.1-0.7-0.1-1,0c-2.1,0.5-4.2,1.1-6.4,1.6c-0.5,0.1-0.9,0.2-1.4,0.3c0,0,0,0.1,0,0.1L58.3,85.8L58.3,85.8z M61.6,68.9
		l4.2-1.5l-4.2-4.1C61.6,63.3,61.6,68.9,61.6,68.9z M38.5,63.5l-4.1,3.9l4.1,1.5C38.5,68.9,38.5,63.5,38.5,63.5z"/>
	<path id="Path_727" class="st0" d="M86.8,32.3c-0.2,0.8-0.3,1.7-0.6,2.5c-1.1,4.5-5,7.8-9.6,8.1c-3.9,0.4-7.4-0.5-10.2-3.5
		c-1.9-2.2-3-5-3-7.9c0-0.6,0.3-1,0.9-0.9c0.8,0,1.6,0.1,2.4,0.2c0-1,0-2,0-3c0-0.7,0.1-1.3,0.3-2c0.2-0.8,0.5-1,1.3-0.8
		c1,0.3,1.9,0.8,2.8,1.1c0.7-1.2,1.3-2.5,2-3.7c0.4-0.6,0.8-1.2,1.3-1.7c0.5-0.6,0.9-0.6,1.5,0c1.3,1.4,2.3,3.1,3.1,4.9
		c0.1,0.1,0.1,0.3,0.2,0.4c0.9-0.4,1.7-0.7,2.6-1c0.9-0.3,1.3-0.1,1.4,0.8c0.2,1.4,0.2,2.8,0.3,4.1c0,0.2,0,0.5,0,0.7
		c0.7-0.1,1.3-0.2,2-0.2c0.4,0.1,0.9,0.2,1.3,0.4L86.8,32.3 M65,32.2c0.5,5.4,3.8,8.8,9.4,9.2C74.7,36.8,70.1,32.3,65,32.2
		 M81.9,26.6c-0.9,0.4-1.6,0.7-2.2,1c-2.9,1.4-5,4.1-5.5,7.3c-0.2,1,0.6,1.6,0.9,2.6c1.1-2.8,3.5-5.1,6.4-6.1
		c0.2-0.1,0.4-0.3,0.4-0.5C81.9,29.5,81.9,28.2,81.9,26.6 M75.2,22.3c-1.1,1.3-2,2.9-2.6,4.6c0,0.2,0,0.4,0.1,0.5
		c0.8,0.7,1.6,1.3,2.3,2c0.8-0.7,1.7-1.4,2.5-2.1c0.2-0.2,0.2-0.4,0.2-0.6C77.1,25,76.3,23.5,75.2,22.3"/>
	<path id="Path_728" class="st0" d="M33.4,30.8c0.8-0.1,1.6-0.2,2.4-0.2c0.4-0.1,0.8,0.2,0.9,0.5c0,0.1,0,0.2,0,0.3
		c-0.2,5.3-3,10.6-10.1,11.5c-3.2,0.5-6.5-0.4-9.1-2.4c-2.3-1.9-3.7-4.6-4-7.5c-0.1-0.4-0.1-0.9-0.1-1.3c0-0.8,0.2-1.1,1-1.1
		c0.7,0,1.5,0.1,2.2,0.2c0.1-1.3,0.1-2.5,0.2-3.8c0-0.4,0.1-0.8,0.2-1.1c0.2-0.8,0.5-1.1,1.3-0.8c0.9,0.3,1.9,0.7,2.8,1.1
		c0.1-0.2,0.2-0.3,0.2-0.5c0.7-1.8,1.7-3.4,3-4.9c0.6-0.6,1-0.6,1.5,0c1.4,1.5,2.5,3.4,3.2,5.3c0.9-0.4,1.7-0.7,2.6-1
		c0.9-0.3,1.3-0.1,1.4,0.8c0.2,1.4,0.2,2.7,0.3,4.1C33.4,30.2,33.3,30.5,33.4,30.8 M24.3,41.5c0.4-4.6-4.7-9.6-9.3-9.2
		C14.7,37,18.9,41.1,24.3,41.5 M25,37.4c0-0.1,0.1-0.1,0.1-0.2c1.2-2.7,3.4-4.8,6.2-5.7c0.2-0.1,0.4-0.2,0.4-0.4
		c0.2-1.5,0.2-3-0.1-4.4c-0.7,0.4-1.4,0.6-2,1c-2.6,1.2-4.5,3.5-5.3,6.2C23.9,35.1,24.2,36.4,25,37.4 M25.1,22.3
		c-1.1,1.3-2,2.9-2.5,4.5c0,0.2,0,0.4,0.1,0.5c0.8,0.7,1.5,1.3,2.3,2c0.8-0.7,1.7-1.4,2.5-2.1c0.1-0.1,0.2-0.3,0.1-0.5
		C27.1,25,26.2,23.5,25.1,22.3"/>
	<path id="Path_729" class="st0" d="M85.3,87.2c-0.5,0-0.9-0.3-1-0.8c0,0,0,0,0-0.1c0-0.5,0.4-1,0.9-1.1h0c0.6,0,1,0.4,1,1
		C86.3,86.8,85.9,87.2,85.3,87.2"/>
</g>
</svg>
