<?xml version="1.0" encoding="utf-8"?>
<!-- Generator: Adobe Illustrator 27.3.1, SVG Export Plug-In . SVG Version: 6.00 Build 0)  -->
<svg version="1.1" id="Layer_1" xmlns="http://www.w3.org/2000/svg" xmlns:xlink="http://www.w3.org/1999/xlink" x="0px" y="0px"
	 viewBox="0 0 100 100" style="enable-background:new 0 0 100 100;" xml:space="preserve">
<style type="text/css">
	.st0{fill:#3F5164;}
</style>
<path id="Path_708" class="st0" d="M29,27.8h-1.6v-2.5c0.6,0,1.3,0,1.9,0c0.3,0,0.5-0.2,0.7-0.4c3-6.4,8.1-10.1,14.9-11.6
	c6.8-1.6,13.9-0.1,19.3,4.2c2.5,1.9,4.5,4.4,5.7,7.2c0.1,0.5,0.6,0.8,1.1,0.7c0.5,0,1,0,1.5,0c0.1,0,0.1,0,0.2,0.1v2.4h-1.6l0.3,2.5
	c0.4,0,0.8,0,1.2,0c0.7-0.1,1.3,0.4,1.4,1.1c0,0.1,0,0.2,0,0.3c0,0.8,0,1.6,0,2.4h9.8c1.2,0,1.6,0.4,1.6,1.6v45.1c0.5,0,0.9,0,1.3,0
	c0.7,0,1.2,0.5,1.2,1.2c0,0,0,0,0,0.1c0,1.7,0,3.4,0,5.1c0,0.8-0.5,1.2-1.5,1.2c-4.4,0-8.8,0-13.2,0H13.9c-1.4,0-1.7-0.4-1.7-1.7
	c0-1.4,0-2.8,0-4.2c0-1.2,0.4-1.6,1.6-1.6h0.9V35.9c0-1.4,0.3-1.8,1.8-1.8H26V32c0-1.2,0.4-1.6,1.6-1.6h1c0-0.4,0.1-0.8,0.2-1.2
	C28.8,28.7,28.9,28.4,29,27.8 M39.9,80.8v-0.9c0-3.8,0-7.6,0-11.4c0-0.6,0-1.3,0.1-1.9c0.9-5.5,6.1-9.2,11.6-8.3
	c4.9,0.8,8.5,5.1,8.5,10c0,3.9,0,7.8,0,11.7v0.8h5v-2.5h-2.4v-2.5h2.4V58.1h-2.4v-2.5h2.4v-2.5H34.9v2.5h2.4v2.5H35v17.7h2.4v2.5
	h-2.4v2.5L39.9,80.8L39.9,80.8z M24.8,45.4h50.5c0-0.7,0-1.4,0-2.1c0.1-0.7-0.2-0.9-0.8-1.1c-8-3.4-16-6.8-23.9-10.2
	c-0.3-0.1-0.7-0.1-1.1,0c-2.8,1.2-5.5,2.4-8.3,3.5c-5.2,2.2-10.5,4.5-15.7,6.8c-0.3,0.1-0.6,0.4-0.6,0.6
	C24.8,43.8,24.8,44.6,24.8,45.4 M27.3,75.8V58.1h-2.4v-2.5h2.4v-2.5h-0.7c-1.4,0-1.8-0.3-1.8-1.8V48h-0.9c-1.2,0-1.6-0.4-1.6-1.6
	c0-1.5,0-3,0-4.5c-0.1-0.7,0.3-1.2,1-1.5c0.8-0.3,1.6-0.7,2.4-1c0.2-0.1,0.4-0.3,0.4-0.5c0-0.7,0-1.4,0-2.2h-8.8v44h10v-2.5h-2.4
	v-2.5H27.3L27.3,75.8z M82.8,80.8V36.7H74c0,0.7,0,1.4,0,2c0.1,0.3,0.2,0.5,0.5,0.7c0.8,0.4,1.6,0.7,2.4,1c0.6,0.2,1,0.8,0.9,1.4
	c0,1.6,0,3.2,0,4.8c0.1,0.7-0.4,1.3-1.1,1.3c-0.1,0-0.2,0-0.3,0c-0.4,0-0.7,0-1.1,0v3.5c0,1.1-0.4,1.5-1.5,1.5h-0.9v2.6h2.4v2.5
	h-2.4v17.7h2.4v2.5h-2.4v2.4L82.8,80.8L82.8,80.8z M32.7,25.3h34.7 M27.3,85.8h45.3v-2.4H27.3C27.3,83.4,27.3,85.8,27.3,85.8z
	 M72.7,48.1H27.4v2.4h45.3L72.7,48.1L72.7,48.1z M57.6,80.8v-0.7c0-3.8,0-7.7,0-11.5c0-0.6-0.1-1.2-0.2-1.7c-0.6-3.1-3-5.5-6.1-6
	v8.7h2.4V72h-2.4v8.8L57.6,80.8L57.6,80.8z M48.7,72h-2.4v-2.5h2.4 M31.6,27.9l-0.4,2.5h1c4.2,0,8.3,0,12.4,0
	c1.5,0.1,2.9-0.2,4.2-0.9c0.8-0.4,1.7-0.5,2.5,0c0.8,0.5,1.7,0.7,2.6,0.9c4.7,0.1,9.5,0,14.2,0h0.9c-0.2-0.9-0.3-1.7-0.4-2.5
	L31.6,27.9L31.6,27.9z M70.1,58.1h-2.4v17.6h2.4C70.1,75.7,70.1,58.1,70.1,58.1z M29.9,75.7h2.4V58.2h-2.4V75.7z M28.6,38.2L40.5,33
	l0-0.1H28.6C28.6,32.9,28.6,38.2,28.6,38.2z M71.4,38.1v-5.2H59.5c0,0,0,0.1,0,0.1L71.4,38.1 M75.3,85.8h10v-2.4h-10V85.8z
	 M24.8,83.4h-10v2.4h10V83.4z M70.2,53.1h-2.4v2.4h2.4V53.1z M29.9,55.5h2.4v-2.4h-2.4V55.5z M32.3,78.3h-2.4v2.4h2.4L32.3,78.3
	L32.3,78.3z M70.1,78.3h-2.4v2.4h2.4V78.3z"/>
<path id="Path_709" class="st0" d="M53.8,39.2c0,2.1-1.7,3.8-3.8,3.8c-2.1,0-3.8-1.7-3.8-3.8c0-2.1,1.7-3.8,3.8-3.8
	C52.1,35.4,53.8,37.1,53.8,39.2C53.8,39.2,53.8,39.2,53.8,39.2"/>
</svg>
