<?xml version="1.0" encoding="utf-8"?>
<!-- Generator: Adobe Illustrator 27.3.1, SVG Export Plug-In . SVG Version: 6.00 Build 0)  -->
<svg version="1.1" id="Layer_1" xmlns="http://www.w3.org/2000/svg" xmlns:xlink="http://www.w3.org/1999/xlink" x="0px" y="0px"
	 viewBox="0 0 100 100" style="enable-background:new 0 0 100 100;" xml:space="preserve">
<style type="text/css">
	.st0{fill:#3F5164;}
</style>
<g id="Group_287">
	<path id="Path_721" class="st0" d="M10.6,78.1c0.4-0.8,1.1-1.4,1.8-1.8c5.6-3.4,11.2-6.8,16.7-10.3c1.2-0.6,2.5-0.9,3.8-0.8
		c2.4-0.2,4.7-0.4,7.1-0.5c3.3-0.2,6.5,0.6,9.3,2.3c0.4,0.3,0.9,0.3,1.2,0c2.3-1.5,5-2.4,7.7-2.7c2.1,0,4.2,0.2,6.2,0.4
		c1.4,0.1,2.7,0.3,4.1,0.6c0.6,0.1,1.1,0.2,1.7,0.5c5.9,3.6,11.7,7.2,17.6,10.8c1,0.6,1.6,1.7,1.3,2.8c-0.1,1-0.8,1.8-1.8,2
		c-0.5,0.1-1.1,0.1-1.6-0.1c-4.6-1.7-9.3-2.8-14.1-3.6c-5.1-0.7-10.1-1-15.1,0.5c-1.8,0.5-3.5,1.4-5,2.6c-0.9,0.9-2.4,0.9-3.3,0
		c-2.8-2.1-6.2-3.3-9.7-3.5c-7.6-0.7-14.9,0.9-22.1,3.1c-0.6,0.2-1.3,0.4-1.9,0.6c-2,0.7-2.9,0.4-3.9-1.5L10.6,78.1L10.6,78.1z"/>
	<path id="Path_722" class="st0" d="M10.6,85c0.4-0.6,1-0.9,1.7-0.8c0.6,0,1.2-0.1,1.8-0.3c7.2-2.5,14.6-4,22.2-3.6
		c3.8,0.1,7.5,1.1,10.8,2.9c1.6,1,3.5,1,5.1,0.1c4.2-2.2,9-3.3,13.8-3.1c6.6,0.2,13.2,1.4,19.4,3.6c0.7,0.2,1.4,0.3,2.1,0.4
		c1,0.1,1.6,0.4,1.6,1.3s-0.6,1.2-1.6,1.2h-66c-3.1,0-6.1,0-9.2,0c-0.7,0.1-1.3-0.2-1.7-0.8V85z M43,84.2c-6.8-2.3-13.7-1.5-20.5,0
		H43z M77.3,84.2c-5.1-1.9-18.1-1.9-20.6,0H77.3z"/>
	<path id="Path_723" class="st0" d="M34.6,28.5c0.1-8.5,7-15.3,15.5-15.2s15.3,7,15.2,15.5c-0.1,8.4-6.9,15.2-15.3,15.2
		c-8.5,0-15.3-6.9-15.3-15.3C34.6,28.6,34.6,28.5,34.6,28.5"/>
	<path id="Path_724" class="st0" d="M40.8,43.9h-6.5c-4.1-0.1-7.5,3-7.6,7.1c0,0.2,0,0.3,0,0.4c0,4.2,0,8.4,0,12.6
		c0.1,0.5-0.2,0.9-0.6,1.1c-0.6,0.3-1.1,0.7-1.8,1.1c0-0.2-0.1-0.4-0.1-0.6c0-4.9,0-9.8,0-14.6c0.1-5,4.1-9.2,9.2-9.5
		c1.3-0.1,2.7,0,4,0c0.2,0,0.4,0,0.6,0.2C38.8,42.4,39.7,43.1,40.8,43.9"/>
	<path id="Path_725" class="st0" d="M59,43.9c1.1-0.8,2-1.6,3-2.3c0.1-0.1,0.2-0.1,0.3-0.1c2,0,4,0.1,6,0.4c4.3,1,7.4,5,7.3,9.4
		c0,4.8,0,9.6,0,14.4v0.6c-0.8-0.5-1.6-0.9-2.3-1.4c-0.2-0.1-0.2-0.5-0.2-0.8c0-4.2,0-8.4,0-12.6c0.1-3.4-2.2-6.5-5.5-7.3
		C67.1,44,66.5,44,65.8,44c-2,0-4,0-6,0L59,43.9"/>
</g>
</svg>
