<?xml version="1.0" encoding="utf-8"?>
<!-- Generator: Adobe Illustrator 27.3.1, SVG Export Plug-In . SVG Version: 6.00 Build 0)  -->
<svg version="1.1" id="Layer_1" xmlns="http://www.w3.org/2000/svg" xmlns:xlink="http://www.w3.org/1999/xlink" x="0px" y="0px"
	 viewBox="0 0 100 100" style="enable-background:new 0 0 100 100;" xml:space="preserve">
<style type="text/css">
	.st0{fill:#3F5164;}
</style>
<g id="Group_283">
	<path id="Path_714" class="st0" d="M87,82c0.8,0.3,1.6,0.7,2.3,1.2c0.6,0.5,1,3.4,0.5,4c-0.3,0.3-0.8,0.5-1.3,0.5
		c-4.4,0-8.8,0-13.2,0H12c-0.3,0-0.7,0.1-1-0.1c-0.3-0.2-0.8-0.6-0.8-0.9c-0.1-0.8-0.1-1.6,0-2.4c0.1-1.1,0.9-1.9,2-2.1
		c0.3-0.1,0.6-0.1,1-0.1v-0.9c0-12.2,0-24.3,0-36.5c0-0.6-0.1-1-0.7-1.2c-0.9-0.3-1.4-1.2-1.4-2.1c0-0.4,0-0.7,0-1
		c-0.2-0.1-0.2-0.1-0.3-0.1c-1,0-1.9-0.1-2.3-1.2c-0.5-1.2-0.4-2.5,0.4-3.5c0.4-0.4,0.9-0.6,1.5-0.7c0.4-0.1,0.7-0.1,0.9-0.6
		c0.2-0.9,1.1-1.5,2-1.3c0.9,0.1,1.8-0.3,2.3-1.2c5.3-7.4,12.6-12.1,21.3-14.6c2.7-0.8,5.6-1.1,8.4-1.7c0.3-0.1,0.6-0.2,0.8-0.5
		c0.8-2,2.3-3.1,4.1-3.1c1.9,0.1,3.6,1.4,4,3.2c0,0.1,0.1,0.2,0.2,0.4c5.5,0.5,10.8,1.9,15.7,4.2C76,22.7,81.2,27,85,32.5
		c0.2,0.5,0.8,0.7,1.3,0.6c1.2-0.3,2.4,0.4,2.7,1.5c0.1,0.2,0.4,0.3,0.6,0.3c1.1-0.1,2.1,0.8,2.2,1.9c0,0.1,0,0.1,0,0.2
		c0,0.1,0,0.1,0,0.2c0.2,2.2-0.4,3-2.7,3.3c0,0.2-0.1,0.4-0.1,0.7c0.1,1.2-0.5,2.3-1.7,2.7c-0.3,0.2-0.4,0.6-0.4,0.9
		c0,5.3,0,10.5,0,15.8L87,82L87,82L87,82z M63.8,82.3V44c-1.8-0.5-2.2-1.9-2.1-3.5H38.5c-0.3,2.6-0.4,2.8-2.2,3.6v38.3L63.8,82.3
		L63.8,82.3z M90,36.8c-0.6,0-1.2,0-1.7,0c-0.7,0-1.1-0.3-1-1c0.1-0.9-0.4-0.9-1.1-0.9c-24.1,0-48.2,0-72.4,0c-0.3,0-0.6,0-1.1,0
		c0.4,2.5-1.5,1.6-2.7,1.9v1.7H90L90,36.8L90,36.8z M21,40.5c0,0.4,0,0.8,0,1.1c0,1-0.6,1.8-1.5,2.2c-0.5,0.1-0.8,0.6-0.7,1.1
		c0,6.6,0,13.2,0,19.8c0,0.3,0,0.5,0,0.8h11.5c0-0.1,0-0.2,0.1-0.3c0-6.8,0-13.7,0-20.5c0-0.3-0.2-0.6-0.5-0.7
		c-1-0.4-1.6-1.3-1.6-2.3c0-0.3,0-0.7-0.1-1.1L21,40.5L21,40.5z M81.2,65.4V44c-1.8-0.5-2.3-1.8-2.1-3.5h-7.4c0,0.4,0,0.8-0.1,1.1
		c0,0.9-0.5,1.8-1.4,2.1c-0.6,0.2-0.7,0.6-0.7,1.2c0,6.5,0,13,0,19.5c0,0.3,0,0.6,0,1C69.6,65.4,81.2,65.4,81.2,65.4z M18.9,82.3
		h11.6V67.3H18.9V82.3z M81.1,67.3H69.6v15.1h11.5V67.3z M88.1,86c0.2-1.6,0.1-1.7-1.4-1.7H13.4c-1.5,0-1.7,0.2-1.3,1.7
		C12.1,86,88.1,86,88.1,86z M15,82.3h2V44h-2C15,44,15,82.3,15,82.3z M32.4,44v37.3c0,0.2-0.1,0.3,0,0.4c0.2,0.2,0.3,0.5,0.6,0.6
		c0.5,0.1,1,0.1,1.4,0V44H32.4z M65.7,82.3h2V44h-2V82.3z M85.1,44.1h-2v38.3h2V44.1z M30.3,40.5c-0.3,1.5-0.1,1.7,1.3,1.7h3.5
		c1.4,0,1.7-0.3,1.3-1.7C36.5,40.5,30.3,40.5,30.3,40.5z M19.1,40.5h-6.3c-0.2,1.6-0.1,1.7,1.4,1.7h3.4C19.2,42.2,19.3,42,19.1,40.5
		 M63.5,40.5c-0.2,1.6,0,1.7,1.4,1.7h3.5c1.4,0,1.6-0.2,1.3-1.7C69.7,40.5,63.5,40.5,63.5,40.5z M87.1,40.5H81
		c-0.3,1.5-0.1,1.7,1.3,1.7h3.6C87.2,42.2,87.4,42,87.1,40.5"/>
</g>
</svg>
