<svg xmlns="http://www.w3.org/2000/svg" width="38.354" height="38.354" viewBox="0 0 38.354 38.354">
  <g id="Group_400" data-name="Group 400" transform="translate(-568.698 -217.965)">
    <g id="Group_12506" data-name="Group 12506" transform="translate(568.698 217.965)">
      <g id="Group_12505" data-name="Group 12505">
        <path id="Path_12454" data-name="Path 12454" d="M587.875,256.319a19.177,19.177,0,1,1,19.177-19.177A19.2,19.2,0,0,1,587.875,256.319Zm0-36.638a17.462,17.462,0,1,0,17.462,17.462A17.482,17.482,0,0,0,587.875,219.68Z" transform="translate(-568.698 -217.965)" fill="#fff"/>
      </g>
    </g>
    <g id="Group_12507" data-name="Group 12507" transform="translate(579.217 230.081)">
      <path id="Path_12455" data-name="Path 12455" d="M612.169,248.041a7.754,7.754,0,0,1-2.232.612,3.9,3.9,0,0,0,1.709-2.15,7.774,7.774,0,0,1-2.468.943,3.889,3.889,0,0,0-6.622,3.544,11.029,11.029,0,0,1-8.009-4.06,3.89,3.89,0,0,0,1.2,5.188,3.866,3.866,0,0,1-1.759-.487c0,.016,0,.033,0,.049a3.888,3.888,0,0,0,3.118,3.81,3.891,3.891,0,0,1-1.755.067,3.889,3.889,0,0,0,3.63,2.7,7.8,7.8,0,0,1-4.826,1.663,7.878,7.878,0,0,1-.927-.054,11.051,11.051,0,0,0,17.013-9.311q0-.252-.012-.5a7.889,7.889,0,0,0,1.939-2.011Zm0,0" transform="translate(-593.228 -246.219)" fill="#fff"/>
    </g>
  </g>
</svg>
