<?xml version="1.0" encoding="UTF-8"?>
<svg id="Layer_1" data-name="Layer 1" xmlns="http://www.w3.org/2000/svg" viewBox="0 0 140 140">
  <defs>
    <style>
      .cls-1 {
        fill: #ffbe2d;
      }

      .cls-2 {
        fill: #3d5064;
      }
    </style>
  </defs>
  <circle class="cls-1" cx="70" cy="70" r="68.65"/>
  <g id="Group_321" data-name="Group 321">
    <path id="Path_669" data-name="Path 669" class="cls-2" d="m78.36,59.35l-6.77,1.62v11.68h-2.95v-11.66l-6.8-1.55v13.22h-2.98v-1.11c0-4.33,0-8.65,0-12.98.05-.53-.22-1.03-.68-1.29-2.21-1.44-4.11-3.3-5.61-5.47-.12-.18-.27-.34-.58-.74v21.6h-2.97v-30.47c-.14-.11-.16-.14-.19-.14-1.73-.25-2.6.5-2.61,2.23v28.39h-2.9v-20.64l-.2-.06c-.16.18-.3.37-.43.56-1.53,2.5-3.38,4.79-5.5,6.81-.37.39-.59.9-.61,1.44-.05,3.66-.05,7.32-.02,10.98,0,.74-.2,1.03-.96.97-.62-.06-1.25,0-1.97,0v-10.26l-8.06,3.57c-.28-1.19-.49-2.08-.71-3.04.26-.11.49-.21.73-.29,9.48-3.29,15.33-9.82,17.54-19.61.11-.76.16-1.52.14-2.28.06-1.24.56-1.76,1.78-1.77,1.7-.01,3.4-.01,5.09,0,1.31,0,1.79.49,1.84,1.8.3,8.44,6.55,15.49,14.89,16.79,9.03,1.35,17.36-3.45,20.14-11.69.48-1.62.79-3.29.93-4.97.18-1.48.54-1.92,2.05-1.93,1.66,0,3.33-.01,4.99,0,.83-.11,1.59.48,1.7,1.3.01.08.01.16.01.24,1.13,11.39,7.56,18.48,18.08,22.23.09.03.18.08.36.17l-.6,2.76c-2.9-.68-5.65-1.88-8.12-3.54v10.52c-.83.04-1.66.02-2.49-.04-.2-.03-.47-.56-.47-.86-.04-3.26-.11-6.53.01-9.78.07-1.37-.47-2.71-1.48-3.64-1.7-1.8-3.11-3.88-4.64-5.85-.16-.27-.39-.5-.66-.66v1.04c0,6.22-.02,12.45.02,18.67,0,.95-.29,1.24-1.18,1.14-.6-.03-1.19-.04-1.79,0v-30.68h-2.78v30.61h-2.93v-21.62c-.31.36-.49.53-.62.72-1.44,2.13-3.29,3.96-5.43,5.38-.49.29-.76.84-.7,1.4.02,4.19.02,8.39,0,12.58,0,1.85.22,1.6-1.67,1.62h-1.28v-13.38l.03-.02Z"/>
    <path id="Path_670" data-name="Path 670" class="cls-2" d="m43.3,84.52h-18.4v-2.85h90.18v2.83h-18.38v14.34c0,1.71-.42,2.13-2.1,2.13h-4.69c-1.42,0-1.89-.48-1.89-1.93v-14.44h-36.03v14.3c0,1.64-.42,2.07-2.06,2.07h-4.49c-1.7,0-2.14-.42-2.14-2.1v-14.35m3.01,13.41h2.67v-13.35h-2.68v13.35h.01Zm44.71,0h2.67v-13.35h-2.67v13.35Z"/>
    <rect id="Rectangle_285" data-name="Rectangle 285" class="cls-2" x="24.93" y="75.91" width="90.18" height="2.8"/>
  </g>
</svg>