<?xml version="1.0" encoding="UTF-8"?>
<svg id="Layer_1" data-name="Layer 1" xmlns="http://www.w3.org/2000/svg" viewBox="0 0 140 140">
  <defs>
    <style>
      .cls-1 {
        fill: #ffbe2d;
      }

      .cls-2 {
        fill: #3d5064;
      }
    </style>
  </defs>
  <circle class="cls-1" cx="70" cy="70" r="68.65"/>
  <g id="Group_244" data-name="Group 244">
    <path id="Path_646" data-name="Path 646" class="cls-2" d="m82.96,88.6h-25.91v2.62c.14,1.07-.62,2.05-1.69,2.19-.16.02-.32.02-.49,0-1.31.02-2.63.02-3.94,0-.88.05-1.67-.52-1.91-1.36-1.26-3.86-2.85-7.64-3.12-11.76-.06-.87-.1-1.75-.1-2.62,0-11.38-.01-22.76,0-34.15,0-3.19,1.75-5.13,4.92-5.37,8.41-.79,16.87-1.07,25.32-.83,4.5.2,9.01.51,13.5.87,3.01.24,4.7,2.22,4.7,5.25,0,11.08-.03,22.16.02,33.24.06,3.77-.55,7.53-1.81,11.09-.49,1.36-.93,2.74-1.37,4.11-.23.96-1.12,1.61-2.1,1.54-1.31,0-2.63.02-3.94,0-1.06.07-1.99-.73-2.06-1.79v-.31c-.02-.87,0-1.74,0-2.71m-29.1,1.58c0-.61,0-1.11,0-1.61-.02-1.74,1.38-3.17,3.12-3.19h.09c8.62-.02,17.23-.02,25.85,0,1.74-.03,3.17,1.35,3.2,3.09v.11c.01.53,0,1.05,0,1.65.51.03,1.02.03,1.53-.02.3-.05.56-.24.72-.5,1.3-3.71,2.65-7.42,2.65-11.43v-34.84c0-1.4-.51-2.01-1.89-2.1-4.97-.31-9.94-.65-14.91-.86-7.77-.16-15.55.12-23.29.85-1.49.11-1.98.68-1.98,2.22,0,10.2.11,20.4-.05,30.6-.16,5.12.67,10.22,2.45,15.02.32.84.69,1.22,1.57,1.07.31-.03.61-.05.92-.05"/>
    <path id="Path_647" data-name="Path 647" class="cls-2" d="m29.62,66.83c-.02-19.96,12.43-36.11,30.24-40.78,21.57-5.59,43.58,7.37,49.17,28.94.11.42.21.84.3,1.26,2.98,13.64-.34,25.79-9.57,36.29-1.07,1.22-2.51,1.11-2.98-.2-.21-.73.05-1.52.65-1.98,13.9-15.13,12.91-38.67-2.22-52.57-15.13-13.9-38.67-12.91-52.57,2.22-4.67,5.08-7.84,11.37-9.14,18.15-2.27,11.94.78,22.6,8.7,31.83.22.25.47.49.67.76.59.64.56,1.64-.09,2.24-.01,0-.02.02-.03.03-.6.58-1.56.56-2.14-.05-.04-.04-.07-.08-.1-.12-1.28-1.43-2.49-2.92-3.62-4.47-4.51-6.3-7.05-13.79-7.28-21.54"/>
    <path id="Path_648" data-name="Path 648" class="cls-2" d="m55.49,97.09h28.86c-.09-.3-.17-.55-.24-.8-.26-.74.1-1.55.82-1.84.68-.38,1.54-.16,1.97.49.14.19.25.4.35.61,2.94,5.63,5.88,11.27,8.81,16.9.18.35.46.8.37,1.11-.12.59-.45,1.11-.92,1.48-.41.21-1.1-.08-1.65-.23-.21-.11-.36-.31-.42-.54-.49-1.8-1.76-1.93-3.38-1.92-13.8.06-27.59.06-41.39.01-.91,0-1.54.17-1.84,1.1-.15.41-.36.8-.63,1.14-.47.67-1.38.85-2.07.41-.68-.37-.97-1.21-.65-1.92.09-.22.19-.43.3-.64,2.94-5.63,5.88-11.26,8.82-16.89.12-.28.28-.53.47-.77.45-.54,1.22-.69,1.84-.36.68.29,1.05,1.03.87,1.75-.08.31-.18.61-.3.91m-6.35,12.03h41.59c-.34-.68-.66-1.22-.9-1.79-.22-.68-.9-1.1-1.6-.99-4.41.05-8.82.02-13.22.02-7.84,0-15.68,0-23.52.02-.41-.02-.81.13-1.1.41-.47.75-.88,1.53-1.24,2.33m3.14-6.01h35.33c-.36-.76-.76-1.5-1.19-2.22-.22-.3-.56-.49-.93-.53-10.37-.03-20.73-.03-31.1-.01-.32,0-.62.13-.83.36-.46.73-.82,1.52-1.28,2.4"/>
    <path id="Path_649" data-name="Path 649" class="cls-2" d="m69.7,72.9h-15.35c-2.56,0-3.52-.98-3.52-3.55v-21.01c0-2.76,1.42-4.36,4.14-4.62,9.99-.98,20.05-.97,30.04.03,2.08.17,3.69,1.88,3.74,3.97.04,7.47.04,14.95,0,22.43,0,1.69-1.21,2.73-3.09,2.75-3.06.03-6.13,0-9.19,0h-6.77Zm-16.45-7.33h33.06v-12.85h-33.06s0,12.85,0,12.85Zm33.14-15.35c0-.76.02-1.42,0-2.09.11-1.01-.62-1.91-1.63-2.01-.09,0-.18-.01-.28,0-3.59-.25-7.19-.66-10.78-.63-6.22.06-12.44.4-18.66.63-.93-.05-1.73.65-1.8,1.58-.06.84-.07,1.69-.02,2.53h33.17Zm-.08,17.9h-33.02c-.28,2.39-.28,2.4,2.01,2.4,9.67,0,19.33,0,28.99,0,2.29,0,2.29,0,2.02-2.41"/>
    <path id="Path_650" data-name="Path 650" class="cls-2" d="m81.97,81.69c-1.04,0-2.08.02-3.12,0-1.32.11-2.48-.86-2.59-2.18-.05-.54.09-1.09.4-1.54.87-1.96,2.78-3.25,4.92-3.34,1.68-.09,3.36-.1,5.04-.04,1.29-.02,2.35,1,2.37,2.29,0,.4-.09.8-.28,1.15-.01.03-.03.06-.05.09-1.6,3.56-1.63,3.57-5.47,3.57h-1.21m-3.25-2.38c2.19,0,4.23,0,6.27,0,.22,0,.43-.12.57-.3.35-.63.64-1.29.96-1.94-1.87,0-3.61-.11-5.33.04-1.2.17-2.17,1.05-2.47,2.22"/>
    <path id="Path_651" data-name="Path 651" class="cls-2" d="m58.07,81.69c-1.01,0-2.02-.02-3.02,0-1.18.1-2.28-.59-2.7-1.7-.3-.67-.68-1.31-.97-1.99-.61-1.12-.2-2.51.92-3.12.34-.18.72-.28,1.1-.28,1.84-.1,3.69-.08,5.54.08,2.18.21,4.02,1.69,4.71,3.76.49,1.2-.09,2.57-1.29,3.06-.3.12-.63.18-.95.17-.57.03-1.14,0-1.71,0h-1.61m-4.46-4.64c.54,1.52,1.55,2.27,3.02,2.26h4.75c-.32-1.17-1.3-2.04-2.49-2.22-1.72-.15-3.46-.04-5.28-.04"/>
    <path id="Path_652" data-name="Path 652" class="cls-2" d="m76.64,55.19c-.13.35-.28.69-.45,1.02-.65,1.02-1.32,2.03-1.98,3.04-.44.68-1.04,1.02-1.78.54s-.68-1.15-.22-1.84c.71-1.06,1.34-2.18,2.13-3.18.35-.36.85-.54,1.35-.49.36.06.65.6.95.91"/>
    <path id="Path_653" data-name="Path 653" class="cls-2" d="m62.87,64.14c-1.14.02-1.71-.9-1.2-1.77.64-1.1,1.37-2.16,2.1-3.21.31-.52.99-.68,1.5-.37.03.02.07.04.1.07.5.25.71.86.46,1.37-.02.04-.05.08-.07.12-.7,1.14-1.44,2.27-2.21,3.37-.17.24-.54.34-.68.42"/>
    <path id="Path_654" data-name="Path 654" class="cls-2" d="m67.72,53.82c1.07.03,1.62.85,1.23,1.64-.35.68-.77,1.33-1.25,1.93-.27.45-.86.6-1.32.32-.06-.04-.12-.08-.18-.14-.34-.4-.48-.94-.38-1.45.28-.68.67-1.3,1.17-1.85.21-.2.46-.35.73-.45"/>
    <path id="Path_655" data-name="Path 655" class="cls-2" d="m72.49,61.93c-.61.86-1.26,1.68-1.96,2.46-.17.18-.93.05-1.16-.18-.3-.34-.42-.79-.33-1.24.29-.72.71-1.37,1.24-1.93.37-.26.84-.33,1.28-.19.33.1.53.59.93,1.08"/>
  </g>
</svg>