<?xml version="1.0" encoding="UTF-8"?>
<svg id="Layer_1" data-name="Layer 1" xmlns="http://www.w3.org/2000/svg" viewBox="0 0 100 100">
  <defs>
    <style>
      .cls-1 {
        fill: #4a627a;
      }
    </style>
  </defs>
  <g id="Group_265" data-name="Group 265">
    <path id="Path_665" data-name="Path 665" class="cls-1" d="m40,41.96c-.6-.7-1.3-1.5-2-2.4-.7-.8-1.3-1.7-2-2.6l-.2.4c-1.3,3.2-4.5,5.3-8,5.2h-2.4c-.7,0-1.2-.4-1.2-1-.1-1.6,0-3.2.2-4.8.9-3.8,4.3-6.5,8.2-6.4h1.4c-.4-5.2,1.8-10.3,5.9-13.6,3.1-2.5,7-3.8,11-3.6,7.9.3,15.9,7.5,15.1,17,1.2.1,2.4.2,3.5.4,3.6,1,6.2,4.2,6.2,8v2.7c0,.7-.4,1.3-1.1,1.3-1.6.1-3.2,0-4.8-.3-2.6-.6-4.8-2.4-5.8-4.9-.1-.1-.1-.2-.2-.4-.7.9-1.3,1.7-1.9,2.5-.7.8-1.4,1.6-2.1,2.4,5.3.8,10.4,2.8,14.9,5.7,1.1-.9,2.5-1.4,3.9-1.2.7.1,1.3.3,1.9.6.9.6,2,.6,2.9.1.5-.3,1-.5,1.5-.7l1.1,2.2c-2.2,1.4-4.4,2.1-6.8.6-.8-.5-1.8-.4-2.5.1.4.5.8.9,1.2,1.3,3.6,4.2,3.6,9.2-.1,13.4-2.5,2.6-5.5,4.7-8.9,5.9-4.8,1.9-9.8,3-14.9,3.3-6,.5-12.1-.1-17.9-1.6-4.7-1.2-9.2-3.1-12.9-6.4-1.9-1.6-3.2-3.7-3.7-6.1-.6-2.9.2-5.9,2.1-8.1.4-.6.9-1.1,1.4-1.7-.7-.6-1.6-.6-2.4-.2-2.4,1.5-4.6.9-6.8-.6l1.1-2.1c.6.3,1.2.6,1.7.8.8.4,1.7.4,2.5-.1,1.7-1.1,3.9-1,5.5.1.3.2.5.4.9.1,4.1-2.6,8.7-4.4,13.5-5.3.5.1.9,0,1,0m-2.4,3.2l-.2-.2c-2,.7-4.1,1.3-6.1,2.2-3,1.1-5.6,2.9-7.7,5.3-1.4,1.6-2.1,3.7-1.8,5.7.5,2.4,1.9,4.5,3.9,5.9,3.2,2.4,6.9,4.2,10.9,5.1,6.1,1.6,12.4,2,18.6,1.4,4.4-.3,8.7-1.3,12.8-2.9,3-1.1,5.8-2.9,8-5.2,1.6-1.6,2.4-3.9,2.1-6.1-.4-2.1-1.6-4-3.3-5.4-3.5-3.1-7.8-4.7-12.5-5.9.2.3.3.4.4.5,1.4,1.6,2.8,3.3,4.2,4.9,1.9,2.2,3.8,4.4,5.6,6.6,1.4,1.5,1.2,3.8-.3,5.2s-3.8,1.2-5.2-.3h0c-.2-.2-.4-.4-.6-.7-1.6,1.4-3.6,2.4-5.6,3.1-5,1.5-10.4,2-15.6,1.3-4.2-.5-8.3-1.5-11.8-4.3l-.5.5c-1.3,1.6-3.6,1.8-5.2.5s-1.8-3.6-.5-5.2q.1-.1.2-.2c1.2-1.5,2.5-2.9,3.7-4.4l6.5-7.4m-1-17.2c-.5,4.9,1.8,9.7,5.9,12.4,4.7,3.1,10.8,3,15.4-.3,4.5-3.2,6.1-8.7,5.5-12.1h-26.8Zm21.1,28.1l-1.4-6.1h-9.9q-1.9,0-2.4,1.8c-.4,1.4-.8,2.9-1.3,4.3h15Zm-16.7,6.2c5.7,1.8,14.4,1.4,18.2-.1-.2-1-.5-2-.7-3-.1-.5-.3-.6-.8-.6h-15.6l-1.1,3.7m1.5-19c-.1.2-.3.3-.5.5-3.2,3.7-6.4,7.4-9.5,11.1-1.1,1.3-2.2,2.6-3.3,3.8-.4.5-.4,1.3.1,1.7h0c.5.4,1.2.4,1.7-.1h0c.2-.2.4-.4.5-.6,3.6-4.2,7.2-8.3,10.7-12.5.5-.6.9-1.3,1.1-2q.5-1.3-.8-1.9m15.2.7l-.2.2c.2.9.4,1.9.6,2.7.2.6.5,1.2.9,1.7.9,1.1,1.8,2.2,2.8,3.3,2.3,2.7,4.6,5.3,6.8,8,.7.8,1.3,1,2,.5.6-.5.5-1.2-.1-2-.4-.4-.7-.9-1.1-1.3-3.5-4.1-7.1-8.2-10.6-12.4-.3-.2-.7-.5-1.1-.7m-31-3.9c4.6.6,8-2.9,7.2-7.2-4-.6-7.7,2.3-7.2,7.2m46.6,0c.6-4.9-3.2-7.9-7.3-7.2-.5,4.6,2.6,7.7,7.3,7.2m-28,7.4h10.4l-.6-2.4h-9.1l-.7,2.4m-6.7,14.1c.9-3.2,1.8-6.2,2.7-9.2l-.1-.1-6.2,7.2,3.6,2.1m26.4-2.1l-5.2-6-.1.1c.6,2.6,1.2,5.3,1.9,8.1l3.4-2.2"/>
    <path id="Path_666" data-name="Path 666" class="cls-1" d="m25.5,70.86c0,1.4-.8,2.6-2,3.2-1.3.7-3,.5-4.1-.5-1.3,1.1-3.1,1.2-4.5.3-1.1-.6-1.7-1.8-1.7-3h2.3c.2.3.4.6.7.9.8.6,1.7.1,1.9-1,.1-.6.3-1,.9-1.1.4,0,.9.1,1.2.3.2.2.3.4.3.7.1.8.4,1.3,1.2,1.4.8.1,1.1-.5,1.3-1.2h2.5Z"/>
    <path id="Path_667" data-name="Path 667" class="cls-1" d="m84.4,70.86h2.4c0,1.2-.6,2.4-1.6,3-1.4,1-3.2.9-4.5-.2-1.2,1.1-3,1.2-4.4.3-1.1-.6-1.7-1.8-1.7-3.1h2.4c0,.1.1.2.2.4.2.5.7.9,1.3.8.6,0,1.1-.5,1.1-1.1s.4-1.1.9-1.3c.6-.2,1.3.1,1.5.8v.2c0,.7.2,1.3,1,1.3.8.1,1.2-.4,1.4-1.1"/>
    <path id="Path_668" data-name="Path 668" class="cls-1" d="m43.9,76.96h2.4c0,.1.1.2.2.3.2.5.7.9,1.2.8.6-.1.9-.5,1.1-1.1.1-.4.3-.9.7-1.2.7-.5,1.6,0,1.8,1,.1.8.6,1.3,1.3,1.3.6,0,.9-.3,1.3-1.2h2.4c0,1.3-.7,2.5-1.9,3.2-1.3.8-3,.6-4.2-.4-3.4,1.7-6.4.4-6.3-2.7"/>
    <path id="Path_669" data-name="Path 669" class="cls-1" d="m31.6,85.86c-1.2,1-2.9,1.2-4.2.4-1.2-.6-1.9-1.8-1.9-3.2h2.4c.1.1.1.3.2.4.2.5.7.8,1.2.8.6,0,1.1-.5,1.1-1.1.2-1,.5-1.3,1.3-1.3.7,0,1,.4,1.2,1.3,0,.6.5,1.1,1.1,1.1.8.1,1.2-.4,1.4-1.2h2.4c0,1.3-.7,2.5-1.8,3.1-1.4.9-3.2.8-4.4-.3"/>
    <path id="Path_670" data-name="Path 670" class="cls-1" d="m62.3,83.16h2.3c0,.1.1.2.2.4.2.5.7.9,1.2.8.6,0,1.1-.5,1.1-1.1s.3-1,.8-1.3c.6-.2,1.3.1,1.5.7,0,.1.1.2.1.3.1.7.4,1.3,1.1,1.4.8.1,1.2-.5,1.4-1.2h2.4c0,1.3-.7,2.5-1.9,3.2-1.3.8-3,.6-4.2-.4-3,1.6-6.1.2-6-2.8"/>
    <path id="Path_671" data-name="Path 671" class="cls-1" d="m53.2,37.06l1.1,1.8c-2.1,1.7-6.6,1.6-9-.2l1.2-1.8c1.1.4,2.2.6,3.3.8,1.2-.1,2.3-.3,3.4-.6"/>
    <path id="Path_672" data-name="Path 672" class="cls-1" d="m42.6,30.36c1.4,0,2.4,1.1,2.4,2.5s-1.1,2.4-2.5,2.4c-1.3,0-2.4-1.1-2.4-2.4.1-1.4,1.1-2.5,2.5-2.5h0"/>
    <path id="Path_673" data-name="Path 673" class="cls-1" d="m59.8,32.76c0,1.4-1.1,2.5-2.4,2.5s-2.5-1.1-2.5-2.4,1.1-2.4,2.4-2.5c1.4,0,2.5,1,2.5,2.4h0"/>
  </g>
</svg>