<?xml version="1.0" encoding="UTF-8"?>
<svg id="Layer_1" data-name="Layer 1" xmlns="http://www.w3.org/2000/svg" viewBox="0 0 100 100">
  <defs>
    <style>
      .cls-1 {
        fill: #4a627a;
      }
    </style>
  </defs>
  <g id="Group_269" data-name="Group 269">
    <path id="Path_681" data-name="Path 681" class="cls-1" d="m79.9,49.7v34.7h5.4c1,0,1.5.4,1.5,1.2s-.5,1.1-1.5,1.1h-47.7c-7.5,0-15,0-22.5.1-1.6,0-1.9-.3-1.9-1.9v-5.4c0-1.1.4-1.5,1.5-1.5h9.7v-5.2c0-1,.4-1.4,1.4-1.4h9.6v-21.7c-.7.4-1.4.9-2.1,1.2-1.7.9-3.7.2-4.5-1.4-.6-1.1-.5-2.5.2-3.5.3-.4.7-.8,1.1-1,8.4-5.3,16.9-10.6,25.3-15.9,1.2-.9,2.9-.9,4.1,0,8.5,5.3,17,10.6,25.5,16,1.3.7,1.9,2.2,1.6,3.7-.2,1.4-1.4,2.4-2.8,2.6-.9,0-1.7-.2-2.5-.6-.4-.4-.9-.7-1.4-1.1m-18.5,18.6v-19.6h-7.5v19.7h1c.7,0,1.3.5,1.3,1.1v.1c.2,2.6-1.7,4.8-4.2,5.1-2,.1-4.1.2-6.1.1-2.5,0-4.6-2.1-4.6-4.6v-.6c0-.7.5-1.2,1.2-1.2h.8v-19.7h-5.4v35.7h39.7v-35.7h-5.5v19.7h.7c1,0,1.4.4,1.4,1.4.2,2.5-1.7,4.8-4.2,5h-.2c-2.1.1-4.2.1-6.3,0-2.1-.1-3.8-1.7-4.1-3.8-.3-2,0-2.4,2-2.7m-20.7-22h33.6c-.2-.2-.4-.3-.5-.4-5.3-3.3-10.5-6.5-15.8-9.8-.3-.2-.7-.2-1,.1-4.5,2.8-9,5.6-13.5,8.4l-2.8,1.7m-9.1,2.8c.5-.2.9-.4,1.2-.6,7.8-4.8,15.6-9.7,23.4-14.6.8-.6,1.9-.6,2.7,0,7.8,4.9,15.5,9.7,23.3,14.5.3.2.6.3.9.4.4.2.9,0,1.2-.4.3-.4.2-1-.2-1.4-.2-.1-.3-.2-.5-.3-8.3-5.2-16.6-10.4-24.9-15.6-.6-.5-1.5-.5-2.2,0-6.6,4.2-13.3,8.3-19.9,12.5-1.8,1.1-3.5,2.2-5.3,3.3-.5.2-.7.8-.5,1.3.1.4.5.6.8.9m19.8,19.3q.1-.1.1-.2v-19.1c0-.5-.3-.5-.6-.5h-4.9c-.1,0-.3,0-.4.1v19.6h5.8v.1Zm18.3-19.7h-5.8v19.7h5.8v-19.7ZM15.6,84.4h19.8v-4H15.6v4Zm19.8-10.6h-8.6v4.2h8.6v-4.2Zm28.6-1.3h5.4m-23.6,0h5.6"/>
    <path id="Path_682" data-name="Path 682" class="cls-1" d="m23.3,60.1l-1.3,3,3.5,1.5c1.2.5,1.4.9.9,2.1-.4,1-.8,1.9-1.2,2.9-.4.8-1,1.1-1.6.8-.7-.3-.8-.9-.5-1.8.3-.7.6-1.4.9-2.2l-2.4-1c-.1,1.2-.1,2.3-.2,3.4,0,.5-.2.9-.5,1.2-1.5,1.5-3,2.9-4.5,4.4-.6.6-1.3.7-1.8.1-.4-.5-.4-1.3.1-1.7l.1-.1c1.3-1.3,2.7-2.6,4-3.9.3-.3.4-.6.4-1-.2-2.9.4-5.8,1.7-8.4,0-.1.1-.2.1-.4h-1.6c-.1.4-.2.9-.4,1.3-.1.6-.7,1.1-1.4.9h-.1c-.6-.2-1-.8-.8-1.4v-.1c.2-.7.3-1.3.5-1.9.1-.7.7-1.1,1.4-1.1h2.8c.8,0,.9-.2.5-.9-.6-1-.5-2.3.2-3.2.7-1,1.9-1.4,3-1.1,1.1.2,2,1.1,2.2,2.2.4,1.6-.6,3.2-2.2,3.7-.2,0-.3.1-.5.1s-.4,0-.8.1c.8.8,1.5,1.5,2.2,2.1.1.1.3,0,.5,0,.7-.1,1.3-.3,2-.5.6-.2,1.3.1,1.5.7v.1c.2.7-.2,1.3-1,1.5-1,.3-1.9.5-2.9.7-.5.2-1.1,0-1.4-.4-.3-.5-.8-1.1-1.4-1.7"/>
    <path id="Path_683" data-name="Path 683" class="cls-1" d="m72.8,28.4c-1.9,0-3.9.1-5.8,0-1.6,0-3.1-1-3.7-2.6-.7-1.5-.5-3.2.6-4.4.8-1,2-1.6,3.3-1.6.3,0,.7-.2.9-.4,1.9-2.4,5.4-2.7,7.8-.8.2.2.6.3.9.2,1.9-.7,4-.1,5.2,1.4,1.4,1.4,1.8,3.5,1,5.2-.7,1.8-2.5,3-4.4,3-2,0-3.9,0-5.8,0h0m0-2.3h5c.4,0,.7,0,1.1-.1,1-.2,1.8-1,2-2,.2-1.1-.3-2.2-1.3-2.8-.8-.6-1.8-.6-2.6,0-1,.7-1.4.7-2.2-.3-1.1-1.4-3.1-1.6-4.5-.5-.3.3-.6.6-.8.9-.5,1-.6,1-1.8.9-1.1-.2-2.1.4-2.4,1.5-.2,1,.4,2,1.3,2.3.4.1.7.2,1.1.1h5.1"/>
    <path id="Path_684" data-name="Path 684" class="cls-1" d="m28.5,23.7c0,2.7-2.2,4.8-4.8,4.8s-4.8-2.2-4.8-4.8h0c0-2.7,2.2-4.8,4.8-4.8,2.7,0,4.8,2.2,4.8,4.8m-4.7-2.5c-1.4,0-2.5,1.1-2.6,2.5s1.1,2.5,2.5,2.6,2.5-1.1,2.6-2.5c0-1.4-1.1-2.6-2.5-2.6"/>
    <path id="Path_685" data-name="Path 685" class="cls-1" d="m36.7,31.9c.9-.3,1.7-.6,2.6-.9.6-.2,1.2.2,1.4.8v.2c.1.6-.3,1.2-.9,1.3h-.2c-.9,0-1.7.8-1.7,1.7h0c-.1.8-.5,1.2-1.2,1.2s-1.1-.4-1.2-1.2c0-.9-.8-1.7-1.7-1.7-.8-.1-1.3-.6-1.2-1.3,0-.6.6-1.1,1.2-1h.3c.9.3,1.8.6,2.6.9"/>
    <path id="Path_686" data-name="Path 686" class="cls-1" d="m50.1,25.8c.8-.3,1.7-.6,2.6-.9.6-.2,1.2.1,1.4.7,0,.1,0,.2.1.3.1.7-.4,1.2-1.2,1.3-.9,0-1.6.8-1.7,1.7-.1.8-.5,1.2-1.2,1.2s-1.1-.4-1.2-1.2c0-.9-.8-1.7-1.7-1.7h0c-.6,0-1.1-.5-1.2-1.1v-.1c0-.6.5-1.1,1.1-1.1h.2c1,.3,1.9.6,2.8.9"/>
    <path id="Path_687" data-name="Path 687" class="cls-1" d="m40.9,17.7c.8-.4,1.6-.7,2.5-.9.6-.2,1.3.2,1.5.8v.2c.1.7-.4,1.2-1.3,1.3-1,.1-1.4.6-1.6,1.8-.1.6-.4,1-.9,1-.4-.1-.9-.2-1.2-.5-.1-.1-.1-.4-.2-.5,0-1-.8-1.8-1.8-1.8h0c-.7,0-1.2-.6-1.2-1.3h0c.1-.6.6-1.1,1.3-1.1h.2c1,.3,1.9.6,2.7,1"/>
    <path id="Path_688" data-name="Path 688" class="cls-1" d="m17,15.9c.3.1.6.2.9.4l1.5,1.5c.4.4.4,1.1,0,1.5,0,0-.1,0-.1.1-.4.4-1,.5-1.5.1,0,0-.1,0-.1-.1-.6-.5-1.1-1-1.5-1.5-.1-.4-.2-.9-.1-1.3.2-.3.6-.5.9-.7"/>
    <path id="Path_689" data-name="Path 689" class="cls-1" d="m15.3,24.9h-1.1c-.6-.1-1.1-.7-1-1.3.1-.6.5-1,1.1-1h2.1c.6,0,1.1.6,1.1,1.2,0,.5-.4,1-1,1.1-.4,0-.8,0-1.2,0h0"/>
    <path id="Path_690" data-name="Path 690" class="cls-1" d="m22.6,15.4v-1c0-.6.5-1.1,1-1.1.5-.1,1.1.2,1.2.8v.1c.1.8.1,1.6,0,2.4,0,.6-.5,1-1.1.9h-.1c-.6,0-1.1-.5-1.1-1.1h0c0-.3,0-.7.1-1"/>
    <path id="Path_691" data-name="Path 691" class="cls-1" d="m31.5,30.5c-.2.3-.4.7-.7.8-.4.1-.8.1-1.2-.1-.6-.5-1.2-1-1.6-1.6-.3-.4-.3-1,0-1.4.3-.5.8-.6,1.3-.4h0c.7.6,1.4,1.3,2,2,.2.2.2.4.2.7"/>
    <path id="Path_692" data-name="Path 692" class="cls-1" d="m28.8,19.8c-.3-.2-.7-.4-.8-.7-.1-.4-.1-.8.1-1.2.5-.6,1-1.1,1.6-1.6.4-.4,1-.4,1.4,0,.5.3.6.9.3,1.3h0c-.6.7-1.2,1.3-1.9,1.9-.2.2-.4.2-.7.3"/>
    <path id="Path_693" data-name="Path 693" class="cls-1" d="m17,31.6c-.3-.2-.7-.4-.8-.7-.2-.4-.1-.8,0-1.1.5-.6,1.1-1.2,1.7-1.7.4-.3,1-.3,1.4.1.4.3.6.9.3,1.3h0c-.6.7-1.2,1.3-1.9,2-.2,0-.4,0-.7.1"/>
    <path id="Path_694" data-name="Path 694" class="cls-1" d="m32.2,22.6h1c.5,0,1,.5,1,1,.1.5-.2,1.1-.8,1.2h-.1c-.8.1-1.6.1-2.4,0-.6-.1-1-.6-.9-1.1v-.1c0-.6.5-1.1,1.1-1.1.4,0,.7.1,1.1.1h0"/>
    <path id="Path_695" data-name="Path 695" class="cls-1" d="m24.9,32.2v1c-.1.6-.7,1.1-1.3,1-.5-.1-.9-.5-1-1.1v-1.9c0-.6.5-1.1,1.1-1.1h0c.6-.1,1.1.4,1.2.9,0,.4,0,.8,0,1.2h0"/>
  </g>
</svg>