<?xml version="1.0" encoding="UTF-8"?>
<svg id="Layer_1" data-name="Layer 1" xmlns="http://www.w3.org/2000/svg" viewBox="0 0 100 100">
  <defs>
    <style>
      .cls-1 {
        fill: #4a627a;
      }
    </style>
  </defs>
  <g id="Group_267" data-name="Group 267">
    <path id="Path_674" data-name="Path 674" class="cls-1" d="m93.5,86.48c-.4.2-.8.3-1.3.3h-7.7c-.6,0-1.2-.1-1.2-.7s.5-.9,1.1-.9c.1,0,.4,0,.4-.1.5-1.2,1.6-.7,2.4-.9v-43.1c.2-2.7-1.7-5.1-4.4-5.7-.5-.1-1-.1-1.5-.1h-31.2c.2-.6.5-1.3.9-1.9.2-.2.6-.4.9-.3h29.5c4.2-.2,7.8,3.1,8,7.4v43.9h1.1c.2,0,.6,0,.7.1.5.8,1.5.8,2.2,1.3l.1.7Z"/>
    <path id="Path_675" data-name="Path 675" class="cls-1" d="m46.1,33.08v2.2h-27.9c-3-.2-5.5,2.1-5.7,5v43.3c0,.2,0,.4.1.7.4-.1.7,0,1.1,0,.9.3,1.7.7,2.6,1.2.2.2.2.5.2.7-.2.3-.5.5-.8.6-1.2.1-2.5,0-3.7,0h-4.4c-.6,0-1.1-.1-1.1-.8,0-.6.4-.8,1-.8.2,0,.4,0,.5-.1.5-1.1,1.5-.8,2.5-.9v-43.2c-.1-3.8,2.5-7.1,6.2-7.8.6-.1,1.1-.1,1.7-.1h27.4s.1,0,.3,0"/>
    <path id="Path_676" data-name="Path 676" class="cls-1" d="m62.6,35.88c-.7,1.2-1.2,2.4-1.9,3.5-.7,1.2-1.9,2-3.2,2.1-.2,0-.5.4-.7.6-1.4,2.5-2.7,5-4,7.6-.5,1-1.3,1.7-2.3,2.2-3.5,1.6-6.9,3.2-10.4,4.8-.7.3-1.4.5-2.1.5-1.2-.1-2.2-1-2.4-2.2-.3-1.3.4-2.6,1.6-3.1,2.5-1.2,4.9-2.5,7.5-3.4,2.3-.8,4.2-2.5,5.1-4.8,1.1-2.5,2.5-4.9,3.9-7.4.2-.3.5-.5.8-.6h7.8c.1.1.2.1.3.2"/>
    <path id="Path_677" data-name="Path 677" class="cls-1" d="m71.1,18.18c0,2.7-2.1,4.9-4.8,4.9h-.1c-2.7,0-4.9-2.2-5-4.9,0-2.8,2.2-5,5-5,2.7,0,4.9,2.2,4.9,5,0-.1,0,0,0,0"/>
    <path id="Path_678" data-name="Path 678" class="cls-1" d="m46.4,34.28c.1-.3.1-.6.2-.8,1.1-2.4,2.2-4.8,3.3-7.2.3-.6.9-1.1,1.6-1.1,2.7-.4,5.3-.8,8-1.1,1-.2,1.9.5,2.1,1.5h0c.1,1-.6,1.9-1.6,2-2.1.3-4.3.6-6.4.9-.5,0-1,.4-1.2.9-.8,1.9-1.7,3.8-2.6,5.7-.2.7-.9,1.1-1.6,1-.6-.2-1.1-.5-1.5-.9-.2-.3-.2-.7-.3-.9"/>
    <path id="Path_679" data-name="Path 679" class="cls-1" d="m57.5,23.78c1.2-2,3-2.4,4.8-1.2,1.2.8,1.9,2.1,2.1,3.5.1,2.2-.1,4.4-.7,6.5h-8.4c.3-1.3.6-2.5.9-3.7.1-.2.5-.4.8-.5,1.2-.2,2.4-.3,3.5-.5,1.2-.3,1.9-1.5,1.6-2.6-.1-.3-.2-.6-.4-.9-.5-.6-1.3-.9-2-.8-.8,0-1.4.1-2.2.2"/>
    <path id="Path_680" data-name="Path 680" class="cls-1" d="m48.7,44.48c-.3,1.3-1.3,2.4-2.6,2.9-2.3.9-4.4,2-6.6,3.1-.4.3-1,.2-1.2-.3-1.4-1.5-.8-4.2,1.3-4.5,2.9-.6,5.9-.8,9.1-1.2"/>
  </g>
</svg>