<?xml version="1.0" encoding="UTF-8"?>
<svg id="Layer_1" data-name="Layer 1" xmlns="http://www.w3.org/2000/svg" viewBox="0 0 100 100">
  <defs>
    <style>
      .cls-1 {
        fill: #4a627a;
      }
    </style>
  </defs>
  <path id="Path_696" data-name="Path 696" class="cls-1" d="m75.07,66.79v18.2h10.6c.3,0,.6,0,.8.1.5.1.8.5.6,1-.1.3-.5.5-.8.7-.1.1-.3,0-.5,0H13.77c-.5,0-.9-.3-.9-.7v-.2c0-.5.3-.9.8-.9h4.2v-4.5h-2c-.8,0-1.1-.3-1.1-1.1v-5.1c0-.9.3-1.2,1.2-1.2h6.9v-2.6h-2.2q-1.7,0-1.7-1.7v-2.6c0-.8.3-1.1,1.1-1.1h2.8v-1.6h-2.7c-1,0-1.2-.3-1.2-1.3v-2.9c0-1.2.2-1.4,1.4-1.4h36.5c1.3,0,1.5.2,1.5,1.5v2.9c0,.9-.3,1.2-1.2,1.2h-2.8v1.5h2.6c1.1,0,1.3.3,1.3,1.3v2.8c0,1.1-.2,1.4-1.4,1.4h-2.6v2.6h6.8c.9,0,1.2.3,1.2,1.2v5.1c0,.8-.3,1.1-1.1,1.1h-1.9v4.5h13.8v-18.2c-.8-.1-1.6-.1-2.4-.2-4.5-.6-7.3-3.3-7.7-7.8-.7-7.5.9-15,4.7-21.6.8-1.5,1.9-2.7,3.3-3.7,1.8-1.4,4.4-1.4,6.2.1,1.6,1.3,2.9,2.9,3.8,4.8,2,4.1,3.4,8.5,3.9,13,.4,2.6.4,5.3,0,8-.7,4.2-3.3,6.7-7.5,7.2-.6.1-1.4.1-2.3.2m0-10.4l.2.1c.7-.7,1.4-1.4,2-2.1.4-.5.9-.7,1.4-.2.4.4.4.9-.2,1.5l-3.1,3.1c-.2.2-.4.4-.4.5v5.7c.9-.1,1.8-.1,2.6-.3,1.8-.3,3.6-1,4.5-2.7.6-1.2,1-2.4,1.2-3.8.4-2.9.2-5.9-.4-8.8-.6-4-2-7.9-4.1-11.4-.7-1-1.6-2.1-2.7-3-1.1-1-2.7-1-3.8-.1-.8.6-1.5,1.3-2.1,2-1.9,2.6-3.2,5.6-3.9,8.7-1.3,4.2-1.8,8.7-1.3,13.1.3,2.2,1.1,4.2,3.3,5.2,1.5.7,3.2,1,4.9.9,0-.1,0-.3.1-.4v-11.4c0-.3-.2-.6-.4-.8-1-1.1-2.1-2.1-3.2-3.2-.6-.6-.7-1.1-.3-1.5.4-.4.9-.4,1.5.2.7.7,1.4,1.5,2.2,2.3l.2-.1v-4.1c0-.6.2-1,.9-1.1.5-.1.9.4.9,1.1v10.6m-17.5,24.1H19.77v4.4h37.8v-4.4Zm-40.9-1.9h44.1v-3.7H16.67v3.7Zm36-8h-27.9v2.4h27.8l.1-2.4Zm-27.9-5.6h27.8v-1.5h-27.8v1.5Z"/>
  <path id="Path_697" data-name="Path 697" class="cls-1" d="m61.27,37.69c-.1,3.1-1.1,6-2.9,8.5-1.7,2.5-3.6,4.9-5.9,6.9-.5.4-1,.7-1.5.2-3.6-3.3-6.7-7-8.3-11.6-1.4-4.1-.8-7.9,2.5-11,2.5-2.5,6.2-3.2,9.5-2,3.4,1.1,5.9,4,6.4,7.5.1.7.1,1.2.2,1.5m-9.6,14c1.2-1.4,2.4-2.6,3.5-4,2-2.5,3.7-5.1,4.2-8.3.6-2.9-.5-5.9-2.9-7.6-2.3-1.9-5.4-2.3-8.1-1-3.8,1.6-5.5,5.7-4.3,9.9,1.4,4.3,4.3,7.6,7.6,11"/>
  <path id="Path_698" data-name="Path 698" class="cls-1" d="m37.37,50.49h-1.8c-.5.1-1-.3-1.1-.8-.2-.8-.8-1.4-1.7-1.5-.5-.1-.8-.4-.9-.9-.2-1.1-1.1-1.8-2.1-1.9-1.1-.2-2.1.4-2.6,1.4-.2.4-.6.6-1,.7-1.1.1-2.1,1-2.3,2.1-.1.6-.6,1.1-1.2,1h-3.3c-.8,0-1.2-.3-1.2-.9,0-.7.5-.9,1.2-.9h.8c1.2.1,2.3.1,3-1.4.4-1,1.7-1.2,2.6-1.7s1.5-1.5,2.6-1.9c2.1-.7,4.3.3,5.3,2.3l.6.6c.6.5,1.2,1.1,1.8,1.6.2.2.5.4.8.5.9.1,1.8,0,2.6,0,.6,0,1.1.2,1.1.9s-.5.9-1.1.9c-.9,0-1.5-.1-2.1-.1"/>
  <path id="Path_699" data-name="Path 699" class="cls-1" d="m41.07,22.99h3c.7,0,1.2.4,1.1.9-.1.6-.5.9-1.1.9h-3.5c-.5.1-1-.3-1.1-.9-.2-1.2-1.2-2.1-2.4-2.2-.4-.1-.7-.3-.9-.7-.5-1-1.6-1.6-2.7-1.4-1,.1-1.9.9-2.1,1.9-.2.4-.5.7-.9.8-.8.2-1.5.8-1.7,1.6-.1.5-.6.9-1.1.8h-3.5c-.6,0-1-.2-1.1-.9-.2-.4.3-.8,1-.8h2.5c.3-.1.6-.2.8-.4.2-.1.2-.4.4-.5,1.2-1,2.3-2.1,3.3-3.2,1.8-1.5,4.5-1.3,6,.5.1.1.1.2.2.2.1.2.3.4.5.5,1.6.3,2.8,1.4,3.3,2.9"/>
  <path id="Path_700" data-name="Path 700" class="cls-1" d="m72.87,13.89c.7-.3,1.4-.5,2.2-.7.4-.1.9.1,1,.6v.3c0,.5-.3.9-.9.9-1,.2-1.3.5-1.5,1.5,0,.5-.5.9-1,.8-.4,0-.8-.4-.8-.8,0-.8-.6-1.5-1.4-1.5h-.1c-.5,0-.8-.4-.8-.8v-.2c0-.4.4-.8.8-.8h.2c.8.2,1.6.5,2.3.7"/>
  <path id="Path_701" data-name="Path 701" class="cls-1" d="m65.47,24.59c.7-.3,1.4-.5,2.2-.8.4-.1.9.1,1,.5v.2c0,.6-.3.9-.9.9-.8,0-1.4.7-1.5,1.4,0,.5-.3.9-.9.9-.5,0-.9-.4-.9-.9v-.1c0-.7-.6-1.3-1.3-1.4-.6-.1-1-.3-1-1,0-.6.5-.9,1.2-.7.8.5,1.5.7,2.1,1"/>
  <path id="Path_702" data-name="Path 702" class="cls-1" d="m49.27,24.79h-1.3c-.5,0-.9-.4-.9-.9s.4-.9.9-.9h2.7c.5,0,.8.3.9.8v.1c0,.5-.3.9-.8.9h-1.5"/>
  <path id="Path_703" data-name="Path 703" class="cls-1" d="m51.77,42.29c-2.4,0-4.4-1.9-4.4-4.4s1.9-4.4,4.4-4.4,4.4,1.9,4.4,4.3-1.9,4.4-4.2,4.4l-.2.1"/>
</svg>