<?xml version="1.0" encoding="UTF-8"?>
<svg id="Layer_1" data-name="Layer 1" xmlns="http://www.w3.org/2000/svg" viewBox="0 0 100 100">
  <defs>
    <style>
      .cls-1 {
        fill: #4a627a;
      }
    </style>
  </defs>
  <g id="Group_263" data-name="Group 263">
    <path id="Path_662" data-name="Path 662" class="cls-1" d="m59.15,22.6v31.7c.6,0,1.1-.1,1.6-.1,2.7-.1,5.3.4,7.7,1.5,3.2,1.5,6.9,1.5,10.2,0,2-1,4.2-1.5,6.5-1.5,1,0,1.5.5,1.6,1.3s-.5,1.3-1.5,1.3c-1.8,0-3.6.5-5.2,1.2-4.1,1.9-8.8,1.9-12.8,0-3.4-1.6-7.3-1.6-10.7,0-4.1,2-8.9,2-13,0-3.4-1.6-7.3-1.6-10.7,0-4.1,2-8.9,2-13,0-1.6-.7-3.4-1.1-5.2-1.2-.9,0-1.5-.5-1.5-1.3s.6-1.3,1.5-1.3c2,0,4,.4,5.9,1.3,2.4,1.2,5,1.6,7.7,1.2.5-.1.7-.2.7-.7V22.7h-14.3c-.5-.1-1-.3-1.3-.7-.2-.4-.2-.9.1-1.3.3-.3.8-.6,1.2-.6,1.6-.1,3.1,0,4.7,0,.5,0,.6-.1.8-.6,1.4-4.5,6.2-7,10.7-5.6,2.7.8,4.8,2.9,5.6,5.6.2.5.3.6.8.6h4.3c.5.1.9-.2,1-.7h0c1.5-4.5,6.3-6.9,10.7-5.4,2.6.8,4.6,2.9,5.5,5.5.1.5.5.8,1,.7h25.9c.7,0,1.2.6,1.2,1.3s-.5,1.2-1.1,1.3h-.7l-25.9-.2m-22.3,6.5h14.4v-6.5h-14.4v6.5Zm14.4,8h-14.4v5.2h14.4s0-5.2,0-5.2Zm-14.4,17.1c1.1,0,2.1-.1,3.1,0,1.9.2,3.7.8,5.4,1.7,1.9.8,3.9,1,5.9.8v-6.5h-14.4v4Zm14.4-22.4h-14.4v2.5h14.4s0-2.5,0-2.5Zm0,13.2h-14.4v2.5h14.4v-2.5Z"/>
    <path id="Path_663" data-name="Path 663" class="cls-1" d="m73.45,72.5c-2.2,0-4.4-.4-6.4-1.4-3.3-1.6-7.3-1.7-10.6-.1-4.2,2-9.2,2-13.4-.1-3.1-1.5-6.8-1.5-9.9,0-3.6,1.7-7.7,2.1-11.5.9-.6-.2-1.2-.4-1.8-.7-1.7-.8-3.5-1.2-5.3-1.2-.7.1-1.3-.4-1.4-1.1v-.2c0-.8.6-1.3,1.5-1.3,2.2,0,4.3.5,6.3,1.4,3.4,1.6,7.3,1.6,10.7.1,1.1-.5,2.2-.9,3.4-1.2,2.9-.7,6-.4,8.8.8,2.5,1.3,5.3,1.8,8.1,1.4,1.3-.3,2.6-.7,3.8-1.2,3.9-1.8,8.4-1.7,12.2.1,2.9,1.4,6.1,1.7,9.2.8.9-.3,1.8-.6,2.7-1.1,1.7-.7,3.6-1.1,5.5-1.1.9,0,1.5.5,1.5,1.3,0,.7-.5,1.3-1.2,1.3h-.2c-1.9,0-3.8.5-5.5,1.3-2.1.9-4.3,1.4-6.5,1.3"/>
    <path id="Path_664" data-name="Path 664" class="cls-1" d="m73.45,87c-2.1,0-4.1-.4-6-1.3-3.6-1.8-7.8-1.7-11.4.1-3.4,1.5-7.2,1.7-10.7.6-1.4-.4-2.7-1.2-4.1-1.6-2.6-.7-5.5-.5-7.9.6-3.6,1.8-7.7,2.1-11.5.9-1.4-.4-2.7-1.1-4.1-1.5-1-.2-2.1-.4-3.2-.4-.7,0-1.3-.5-1.4-1.3v-.1c0-.7.5-1.3,1.3-1.3h.1c2.1-.1,4.2.4,6,1.3,2.9,1.4,6.2,1.7,9.2.8.8-.3,1.6-.6,2.4-1,3.8-1.6,8-1.6,11.8,0,1.8.9,3.8,1.4,5.8,1.5,2.1,0,4.1-.5,6-1.4,3.8-1.8,8.3-1.8,12.1,0,3.6,1.8,7.9,1.8,11.5,0,1.8-.9,3.8-1.3,5.9-1.3.9,0,1.5.5,1.5,1.3,0,.7-.5,1.3-1.2,1.3h-.2c-1.9,0-3.9.5-5.6,1.4-2,1-4.2,1.5-6.3,1.4"/>
  </g>
</svg>