<?xml version="1.0" encoding="utf-8"?>
<!-- Generator: Adobe Illustrator 27.4.0, SVG Export Plug-In . SVG Version: 6.00 Build 0)  -->
<svg version="1.1" id="Layer_1" xmlns="http://www.w3.org/2000/svg" xmlns:xlink="http://www.w3.org/1999/xlink" x="0px" y="0px"
	 viewBox="0 0 100 100" style="enable-background:new 0 0 100 100;" xml:space="preserve">
<style type="text/css">
	.st0{fill:#4A627A;}
</style>
<g id="Group_265">
	<path id="Path_665" class="st0" d="M183,42c-0.6-0.7-1.3-1.5-2-2.4c-0.7-0.8-1.3-1.7-2-2.6l-0.2,0.4c-1.3,3.2-4.5,5.3-8,5.2h-2.4
		c-0.7,0-1.2-0.4-1.2-1c-0.1-1.6,0-3.2,0.2-4.8c0.9-3.8,4.3-6.5,8.2-6.4h1.4c-0.4-5.2,1.8-10.3,5.9-13.6c3.1-2.5,7-3.8,11-3.6
		c7.9,0.3,15.9,7.5,15.1,17c1.2,0.1,2.4,0.2,3.5,0.4c3.6,1,6.2,4.2,6.2,8v2.7c0,0.7-0.4,1.3-1.1,1.3c-1.6,0.1-3.2,0-4.8-0.3
		c-2.6-0.6-4.8-2.4-5.8-4.9c-0.1-0.1-0.1-0.2-0.2-0.4c-0.7,0.9-1.3,1.7-1.9,2.5c-0.7,0.8-1.4,1.6-2.1,2.4c5.3,0.8,10.4,2.8,14.9,5.7
		c1.1-0.9,2.5-1.4,3.9-1.2c0.7,0.1,1.3,0.3,1.9,0.6c0.9,0.6,2,0.6,2.9,0.1c0.5-0.3,1-0.5,1.5-0.7l1.1,2.2c-2.2,1.4-4.4,2.1-6.8,0.6
		c-0.8-0.5-1.8-0.4-2.5,0.1c0.4,0.5,0.8,0.9,1.2,1.3c3.6,4.2,3.6,9.2-0.1,13.4c-2.5,2.6-5.5,4.7-8.9,5.9c-4.8,1.9-9.8,3-14.9,3.3
		c-6,0.5-12.1-0.1-17.9-1.6c-4.7-1.2-9.2-3.1-12.9-6.4c-1.9-1.6-3.2-3.7-3.7-6.1c-0.6-2.9,0.2-5.9,2.1-8.1c0.4-0.6,0.9-1.1,1.4-1.7
		c-0.7-0.6-1.6-0.6-2.4-0.2c-2.4,1.5-4.6,0.9-6.8-0.6l1.1-2.1c0.6,0.3,1.2,0.6,1.7,0.8c0.8,0.4,1.7,0.4,2.5-0.1
		c1.7-1.1,3.9-1,5.5,0.1c0.3,0.2,0.5,0.4,0.9,0.1c4.1-2.6,8.7-4.4,13.5-5.3C182.5,42.1,182.9,42,183,42 M180.6,45.2l-0.2-0.2
		c-2,0.7-4.1,1.3-6.1,2.2c-3,1.1-5.6,2.9-7.7,5.3c-1.4,1.6-2.1,3.7-1.8,5.7c0.5,2.4,1.9,4.5,3.9,5.9c3.2,2.4,6.9,4.2,10.9,5.1
		c6.1,1.6,12.4,2,18.6,1.4c4.4-0.3,8.7-1.3,12.8-2.9c3-1.1,5.8-2.9,8-5.2c1.6-1.6,2.4-3.9,2.1-6.1c-0.4-2.1-1.6-4-3.3-5.4
		c-3.5-3.1-7.8-4.7-12.5-5.9c0.2,0.3,0.3,0.4,0.4,0.5c1.4,1.6,2.8,3.3,4.2,4.9c1.9,2.2,3.8,4.4,5.6,6.6c1.4,1.5,1.2,3.8-0.3,5.2
		s-3.8,1.2-5.2-0.3l0,0c-0.2-0.2-0.4-0.4-0.6-0.7c-1.6,1.4-3.6,2.4-5.6,3.1c-5,1.5-10.4,2-15.6,1.3c-4.2-0.5-8.3-1.5-11.8-4.3
		l-0.5,0.5c-1.3,1.6-3.6,1.8-5.2,0.5c-1.6-1.3-1.8-3.6-0.5-5.2c0.1-0.1,0.1-0.1,0.2-0.2c1.2-1.5,2.5-2.9,3.7-4.4L180.6,45.2
		 M179.6,28c-0.5,4.9,1.8,9.7,5.9,12.4c4.7,3.1,10.8,3,15.4-0.3c4.5-3.2,6.1-8.7,5.5-12.1C206.4,28,179.6,28,179.6,28z M200.7,56.1
		l-1.4-6.1h-9.9c-1.3,0-2.1,0.6-2.4,1.8c-0.4,1.4-0.8,2.9-1.3,4.3C185.7,56.1,200.7,56.1,200.7,56.1z M184,62.3
		c5.7,1.8,14.4,1.4,18.2-0.1c-0.2-1-0.5-2-0.7-3c-0.1-0.5-0.3-0.6-0.8-0.6h-15.6L184,62.3 M185.5,43.3c-0.1,0.2-0.3,0.3-0.5,0.5
		c-3.2,3.7-6.4,7.4-9.5,11.1c-1.1,1.3-2.2,2.6-3.3,3.8c-0.4,0.5-0.4,1.3,0.1,1.7l0,0c0.5,0.4,1.2,0.4,1.7-0.1l0,0
		c0.2-0.2,0.4-0.4,0.5-0.6c3.6-4.2,7.2-8.3,10.7-12.5c0.5-0.6,0.9-1.3,1.1-2C186.6,44.3,186.4,43.7,185.5,43.3 M200.7,44l-0.2,0.2
		c0.2,0.9,0.4,1.9,0.6,2.7c0.2,0.6,0.5,1.2,0.9,1.7c0.9,1.1,1.8,2.2,2.8,3.3c2.3,2.7,4.6,5.3,6.8,8c0.7,0.8,1.3,1,2,0.5
		c0.6-0.5,0.5-1.2-0.1-2c-0.4-0.4-0.7-0.9-1.1-1.3c-3.5-4.1-7.1-8.2-10.6-12.4C201.5,44.5,201.1,44.2,200.7,44 M169.7,40.1
		c4.6,0.6,8-2.9,7.2-7.2C172.9,32.3,169.2,35.2,169.7,40.1 M216.3,40.1c0.6-4.9-3.2-7.9-7.3-7.2C208.5,37.5,211.6,40.6,216.3,40.1
		 M188.3,47.5h10.4l-0.6-2.4H189L188.3,47.5 M181.6,61.6c0.9-3.2,1.8-6.2,2.7-9.2l-0.1-0.1l-6.2,7.2L181.6,61.6 M208,59.5l-5.2-6
		l-0.1,0.1c0.6,2.6,1.2,5.3,1.9,8.1L208,59.5"/>
	<path id="Path_666" class="st0" d="M168.5,70.9c0,1.4-0.8,2.6-2,3.2c-1.3,0.7-3,0.5-4.1-0.5c-1.3,1.1-3.1,1.2-4.5,0.3
		c-1.1-0.6-1.7-1.8-1.7-3h2.3c0.2,0.3,0.4,0.6,0.7,0.9c0.8,0.6,1.7,0.1,1.9-1c0.1-0.6,0.3-1,0.9-1.1c0.4,0,0.9,0.1,1.2,0.3
		c0.2,0.2,0.3,0.4,0.3,0.7c0.1,0.8,0.4,1.3,1.2,1.4s1.1-0.5,1.3-1.2C166,70.9,168.5,70.9,168.5,70.9z"/>
	<path id="Path_667" class="st0" d="M227.4,70.9h2.4c0,1.2-0.6,2.4-1.6,3c-1.4,1-3.2,0.9-4.5-0.2c-1.2,1.1-3,1.2-4.4,0.3
		c-1.1-0.6-1.7-1.8-1.7-3.1h2.4c0,0.1,0.1,0.2,0.2,0.4c0.2,0.5,0.7,0.9,1.3,0.8c0.6,0,1.1-0.5,1.1-1.1s0.4-1.1,0.9-1.3
		c0.6-0.2,1.3,0.1,1.5,0.8v0.2c0,0.7,0.2,1.3,1,1.3C226.8,72.1,227.2,71.6,227.4,70.9"/>
	<path id="Path_668" class="st0" d="M186.9,77h2.4c0,0.1,0.1,0.2,0.2,0.3c0.2,0.5,0.7,0.9,1.2,0.8c0.6-0.1,0.9-0.5,1.1-1.1
		c0.1-0.4,0.3-0.9,0.7-1.2c0.7-0.5,1.6,0,1.8,1c0.1,0.8,0.6,1.3,1.3,1.3c0.6,0,0.9-0.3,1.3-1.2h2.4c0,1.3-0.7,2.5-1.9,3.2
		c-1.3,0.8-3,0.6-4.2-0.4C189.8,81.4,186.8,80.1,186.9,77"/>
	<path id="Path_669" class="st0" d="M174.6,85.9c-1.2,1-2.9,1.2-4.2,0.4c-1.2-0.6-1.9-1.8-1.9-3.2h2.4c0.1,0.1,0.1,0.3,0.2,0.4
		c0.2,0.5,0.7,0.8,1.2,0.8c0.6,0,1.1-0.5,1.1-1.1c0.2-1,0.5-1.3,1.3-1.3c0.7,0,1,0.4,1.2,1.3c0,0.6,0.5,1.1,1.1,1.1
		c0.8,0.1,1.2-0.4,1.4-1.2h2.4c0,1.3-0.7,2.5-1.8,3.1C177.6,87.1,175.8,87,174.6,85.9"/>
	<path id="Path_670" class="st0" d="M205.3,83.2h2.3c0,0.1,0.1,0.2,0.2,0.4c0.2,0.5,0.7,0.9,1.2,0.8c0.6,0,1.1-0.5,1.1-1.1
		s0.3-1,0.8-1.3c0.6-0.2,1.3,0.1,1.5,0.7c0,0.1,0.1,0.2,0.1,0.3c0.1,0.7,0.4,1.3,1.1,1.4c0.8,0.1,1.2-0.5,1.4-1.2h2.4
		c0,1.3-0.7,2.5-1.9,3.2c-1.3,0.8-3,0.6-4.2-0.4C208.3,87.6,205.2,86.2,205.3,83.2"/>
	<path id="Path_671" class="st0" d="M196.2,37.1l1.1,1.8c-2.1,1.7-6.6,1.6-9-0.2l1.2-1.8c1.1,0.4,2.2,0.6,3.3,0.8
		C194,37.6,195.1,37.4,196.2,37.1"/>
	<path id="Path_672" class="st0" d="M185.6,30.4c1.4,0,2.4,1.1,2.4,2.5c0,1.4-1.1,2.4-2.5,2.4c-1.3,0-2.4-1.1-2.4-2.4
		C183.2,31.5,184.2,30.4,185.6,30.4L185.6,30.4"/>
	<path id="Path_673" class="st0" d="M202.8,32.8c0,1.4-1.1,2.5-2.4,2.5s-2.5-1.1-2.5-2.4s1.1-2.4,2.4-2.5
		C201.7,30.4,202.8,31.4,202.8,32.8L202.8,32.8"/>
</g>
<g>
	<path class="st0" d="M36.6,72.2c0.6,0,1.1,0,1.6,0c0.1-0.3,0.2-0.7,0.3-1c0.2-0.7,0.5-1.3,1.3-1.1c0.8,0.2,0.9,0.8,0.7,1.5
		c0,0.1-0.1,0.3-0.1,0.5c5.4,0,10.8,0,16.3,0c-0.1-0.1-0.2-0.2-0.3-0.2c-7.2-2.7-13.3-7-19-12c-5.5-4.8-11.8-8-18.9-9.5
		c-3.5-0.7-7-0.9-10.6-0.5c-0.5,0.1-1.2-0.1-1.5-0.4C6,48.9,6.5,48,7.3,48c2-0.2,4.1-0.4,6.1-0.3c10.2,0.6,18.9,4.8,26.5,11.5
		c6.2,5.5,13.2,9.7,21.3,12c2.9,0.8,5.8,1.2,8.7,1c0.2,0,0.3,0,0.8-0.1c-0.6-0.5-1-1-1.4-1.3c-0.6-0.4-0.8-0.9-0.4-1.5
		c0.4-0.7,1.1-0.7,1.6-0.2c0.8,0.8,1.4,1.7,2.2,2.5c0.2,0.2,0.4,0.4,0.6,0.6c0.1-0.3,0.3-0.5,0.3-0.8c0.1-2.1-0.5-4-1.5-5.8
		c-0.1-0.1-0.2-0.3-0.2-0.4c-0.4-0.6-0.5-1.3,0.2-1.7c0.7-0.4,1.2,0,1.6,0.6c1.3,2,1.9,4.2,2,6.6c0,0.8,0,1.6-0.1,2.3
		c-0.1,1.1-0.4,1.3-1.5,1.3c-4.4,0-8.8,0-13.2,0c-8.2,0-16.3,0-24.5,0c-1.6,0-1.7-0.2-1.8-1.8c-0.1-1.9-0.3-3.8-0.5-5.6
		c-0.1-0.7,0-1.4,0.8-1.5c0.8-0.2,1.2,0.4,1.3,1.1c0.2,1.5,0.3,3,0.5,4.5C36.6,71.4,36.6,71.8,36.6,72.2z"/>
	<path class="st0" d="M29.3,30.3c-4.5,0-8.1-3.6-8.1-8.1c0-4.5,3.7-8.1,8.1-8.1c4.4,0,8.1,3.7,8.1,8.2
		C37.4,26.7,33.8,30.3,29.3,30.3z M29.4,16.2c-3.3,0-6,2.6-6.1,5.9c0,3.4,2.6,6.1,5.9,6.1c3.3,0,6-2.6,6.1-5.9
		C35.4,18.9,32.8,16.2,29.4,16.2z"/>
	<path class="st0" d="M61,46.4c1.8,0.1,5,0.3,8.2,0.5c0.7,0,1.3,0.3,1.3,1.2c0,0.7-0.6,1-1.4,1c-4.2-0.2-8.4-0.5-12.6-0.4
		c-6.9,0.1-13.6,1.2-20.1,3.4C36.3,52,36.1,52,36,52.1c-0.7,0.2-1.2,0-1.4-0.6c-0.2-0.7,0.1-1.2,0.8-1.4c1.5-0.5,3.1-1,4.6-1.4
		C46.4,47,53,46.4,61,46.4z"/>
	<path class="st0" d="M30.7,72.2c-0.5-0.8-0.8-1.4-1.2-2c-0.4-0.6-0.7-1.2,0-1.7c0.6-0.5,1.2-0.2,1.7,0.4c0.9,1,1.4,2.2,1.6,3.6
		c0.2,1.4-0.2,1.8-1.6,1.9c-3.6,0-7.2,0-10.8,0c-4,0-8.1,0-12.1,0c-0.3,0-0.6,0-0.8,0c-0.7-0.1-1.1-0.4-1.1-1.1c0-0.7,0.5-1,1.2-1
		c2.5,0,5,0,7.5,0c4.8,0,9.7,0,14.5,0C29.8,72.2,30.1,72.2,30.7,72.2z"/>
	<path class="st0" d="M76.3,50c-0.2,0.2-0.5,0.6-0.9,0.8c-2.6,1.3-5.3,2.4-7.7,3.8c-4,2.3-7.9,4.8-11.8,7.3
		c-1.3,0.8-2.5,1.6-3.8,2.3c-0.6,0.4-1.2,0.3-1.5-0.3c-0.4-0.6-0.2-1.1,0.4-1.5c5.5-3.4,11-6.9,16.6-10.2c2.3-1.3,4.7-2.3,7.1-3.4
		C75.5,48.5,76.3,48.9,76.3,50z"/>
	<path class="st0" d="M81.2,46.5c-0.2-0.8-0.3-1.4-0.5-2c-0.1-0.6,0-1.1,0.7-1.3c0.7-0.2,1.1,0.1,1.3,0.8c0.2,0.6,0.3,1.2,0.5,1.9
		c1.8-0.3,3.5-0.7,5.2-0.9c1.3-0.2,2.7-0.2,4-0.3c0.7,0,1.2,0.2,1.2,1c0,0.8-0.4,1.1-1.2,1.2c-4.5,0-8.7,1.1-12.9,2.5
		c-0.9,0.3-1.4,0-1.6-0.9c-0.4-1.5-1.2-2.7-2.2-3.7c-0.5-0.5-0.9-1.1-0.3-1.8c0.4-0.5,1.2-0.4,1.8,0.3c1,1.2,1.8,2.4,2.8,3.8
		C80.3,46.8,80.7,46.6,81.2,46.5z"/>
	<path class="st0" d="M79.4,72.2c0.4,0,0.8,0,1.1,0c3.9,0,7.8,0,11.7,0c0.8,0,1.4,0.2,1.5,1c0.1,0.7-0.5,1.1-1.4,1.1
		c-4.5,0-9.1,0-13.6,0c-1.2,0-1.5-0.4-1.5-1.5c0-1.9,0.5-3.6,1.6-5.2c0.5-0.7,1.2-1,1.7-0.5c0.6,0.5,0.4,1.1,0,1.7
		C79.9,69.8,79.5,70.9,79.4,72.2z"/>
	<path class="st0" d="M84,85.2c-0.2,0.2-0.5,0.6-0.9,0.7c-0.7,0.2-1.1-0.4-1.2-1c-0.2-1.4-0.8-2.6-1.9-3.5c-0.3-0.2-0.6-0.4-0.8-0.6
		c-0.5-0.4-0.6-0.9-0.4-1.4c0.3-0.6,0.8-0.7,1.4-0.5C82,79.7,84,82.8,84,85.2z"/>
	<path class="st0" d="M48.5,82.8c0.3-2.2,1.6-4.1,3.8-5.4c0.6-0.3,1.1-0.2,1.4,0.4c0.3,0.6,0.1,1.1-0.4,1.4
		c-1.6,0.9-2.5,2.3-2.7,4.1c-0.1,0.7-0.5,1.1-1.2,1C48.7,84.2,48.5,83.7,48.5,82.8z"/>
	<path class="st0" d="M18.2,85c-0.2,0.2-0.5,0.8-0.9,0.9c-0.7,0.2-1.1-0.3-1.2-1c-0.2-1.8-1.1-3.1-2.7-4c-0.6-0.3-0.9-0.8-0.5-1.5
		c0.3-0.6,0.9-0.7,1.4-0.4C16.6,80.3,17.8,82.2,18.2,85z"/>
	<path class="st0" d="M19.8,84.1c-0.3-0.9-0.5-1.8-0.8-2.6c-0.3-0.7-0.3-1.3,0.4-1.6c0.7-0.3,1.3,0,1.5,0.7c0.4,1.3,0.7,2.6,0.9,3.9
		c0.1,0.9-0.4,1.5-1.1,1.4c-0.9-0.1-1.1-0.7-1-1.5c0-0.1,0-0.2,0-0.3C19.7,84.2,19.8,84.2,19.8,84.1z"/>
	<path class="st0" d="M87.6,84.1c0,0.1,0,0.2,0,0.4c0,0.8-0.2,1.4-1.1,1.5c-0.7,0.1-0.9-0.5-1.1-1.4c-0.1-1-0.3-2-0.6-3
		c-0.2-0.7-0.3-1.2,0.4-1.6c0.7-0.4,1.3,0,1.5,0.7c0.4,1.1,0.7,2.3,1,3.4C87.7,84.1,87.6,84.1,87.6,84.1z"/>
	<path class="st0" d="M65.6,85.6c-0.2,0.2-0.5,0.6-0.9,0.7c-0.7,0.2-1.1-0.4-1.2-1c-0.2-1.4-0.8-2.6-1.9-3.5
		c-0.3-0.2-0.6-0.4-0.8-0.6c-0.5-0.4-0.6-0.9-0.4-1.4c0.3-0.6,0.8-0.7,1.4-0.5C63.6,80.1,65.6,83.3,65.6,85.6z"/>
	<path class="st0" d="M69.2,84.6c0,0.1,0,0.2,0,0.4c0,0.8-0.2,1.4-1.1,1.5c-0.7,0.1-0.9-0.5-1.1-1.4c-0.1-1-0.3-2-0.6-3
		c-0.2-0.7-0.3-1.2,0.4-1.6c0.7-0.4,1.3,0,1.5,0.7c0.4,1.1,0.7,2.3,1,3.4C69.3,84.5,69.2,84.5,69.2,84.6z"/>
	<path class="st0" d="M44.7,82.6c0.3-1.2,0.6-2.3,1-3.5c0.2-0.7,0.7-1.2,1.5-0.8c0.7,0.4,0.6,1,0.4,1.7c-0.3,0.9-0.5,1.9-0.6,2.9
		c-0.1,0.7-0.1,1.4-1,1.4c-0.9,0-1.1-0.7-1.1-1.4c0-0.1,0-0.2,0-0.3C44.8,82.6,44.8,82.6,44.7,82.6z"/>
	<path class="st0" d="M27.9,84.9c0.3-2.2,1.6-4.1,3.8-5.4c0.6-0.3,1.1-0.2,1.4,0.4c0.3,0.6,0.1,1.1-0.4,1.4
		c-1.6,0.9-2.5,2.3-2.7,4.1c-0.1,0.7-0.5,1.1-1.2,1C28,86.3,27.8,85.8,27.9,84.9z"/>
	<path class="st0" d="M24.1,84.6c0.3-1.2,0.6-2.3,1-3.5c0.2-0.7,0.7-1.2,1.5-0.8c0.7,0.4,0.6,1,0.4,1.7c-0.3,0.9-0.5,1.9-0.6,2.9
		c-0.1,0.7-0.1,1.4-1,1.4c-0.9,0-1.1-0.7-1.1-1.4c0-0.1,0-0.2,0-0.3C24.2,84.7,24.1,84.6,24.1,84.6z"/>
</g>
</svg>
