<?xml version="1.0" encoding="UTF-8"?>
<svg id="Layer_1" data-name="Layer 1" xmlns="http://www.w3.org/2000/svg" viewBox="0 0 100 100">
  <defs>
    <style>
      .cls-1 {
        fill: none;
      }

      .cls-2 {
        fill: #3d5064;
      }
    </style>
  </defs>
  <rect class="cls-1" x="8.05" y="97.32" width="83.99" height="84"/>
  <g id="Group_315" data-name="Group 315">
    <path id="Path_657" data-name="Path 657" class="cls-2" d="m91.99,80.34c-.06.06-.1.12-.14.19-.49,1.94-2.31,3.23-4.3,3.08-10.2,0-20.4,0-30.59,0H15.71c-.25,0-.49.01-.74,0-.77-.03-1.38-.67-1.37-1.45,0-.74.58-1.34,1.32-1.34.02,0,.03,0,.05,0,1.91-.04,3.83-.03,5.74-.03h66.43c1.71,0,2.06-.35,2.06-2.07,0-1.07,0-2.13,0-3.2-.02-.1-.04-.2-.07-.3-.39,0-.81.02-1.23,0-.79.03-1.45-.58-1.49-1.37-.03-.79.58-1.45,1.37-1.49.04,0,.07,0,.11,0,.4-.03.81,0,1.32,0-.05-2.62.28-5.2-.55-7.69-.23-.61-.55-1.18-.95-1.7-.97-1.35-2.01-2.66-2.98-4.01-.25-.39-.69-.61-1.15-.57-6.32.02-12.63.02-18.95.01-2.43,0-3.44-1.01-3.44-3.42v-10.17c-.21-1.56.89-2.99,2.44-3.2.24-.03.48-.03.72,0,1.23,0,2.46-.01,3.69,0,.78-.09,1.48.48,1.57,1.26,0,.05,0,.1,0,.14-.02.8-.68,1.43-1.48,1.41-.04,0-.07,0-.11,0-1.31.01-2.61,0-3.96,0v11.14h11.04c.18-1.13-.29-2.76,1.56-2.7,1.68.06,1.28,1.57,1.4,2.69h4.06c-.75-1.01-1.44-1.94-2.13-2.87-4.23-5.64-8.48-11.26-12.68-16.92-1.14-1.65-3.04-2.6-5.04-2.52-15.47.02-30.95.03-46.42,0-.41.02-.82-.02-1.22-.1-.74-.18-1.19-.93-1.01-1.67.13-.51.53-.9,1.03-1.01.29-.06.59-.09.89-.09,15.47,0,30.95,0,46.42-.01,3.06-.12,5.96,1.33,7.71,3.84,6.76,9.11,13.58,18.16,20.4,27.22.91,1.27,1.51,2.74,1.73,4.28.04.24.11.47.17.71v13.94Z"/>
    <path id="Path_658" data-name="Path 658" class="cls-2" d="m19.16,8c.81.2,1.62.46,2.4.76,3.67,1.46,6.06,5.02,6.05,8.97.11,2.73.02,5.47.02,8.2.07.62-.24,1.21-.78,1.52-1,.53-2.07-.21-2.08-1.47-.02-2.62.03-5.25-.03-7.87,0-.93-.14-1.84-.43-2.72-1.16-3.21-4.5-5.1-7.85-4.43-3.32.66-5.7,3.59-5.65,6.98-.02,7.49,0,14.98,0,22.47v48.74h11.12c.16-1.13-.31-2.74,1.54-2.7,1.73.04,1.24,1.59,1.43,2.69h11.1c0-.36-.01-.73,0-1.1.04-1.07.53-1.64,1.42-1.64s1.4.61,1.42,1.64c0,.35,0,.7,0,1.1h11.14c.16-1.1-.4-2.64,1.48-2.73.97-.04,1.2.45,1.4,2.71h11.06c.19-1.07-.33-2.71,1.51-2.69,1.79.02,1.25,1.63,1.47,2.71h11.02c.22-1.11-.34-2.82,1.61-2.7,1.65.1,1.2,1.58,1.34,2.75h.87c2.76,0,5.52.03,8.28-.02.76-.08,1.51.24,1.98.84v1.15c-.43.56-1.11.87-1.82.83-26.78-.02-53.56-.03-80.35-.02-1.37,0-1.82-.44-1.82-1.8,0-24.13,0-48.26,0-72.39-.09-3.36,1.65-6.51,4.54-8.22,1.22-.64,2.5-1.16,3.82-1.57h2.79Z"/>
    <path id="Path_659" data-name="Path 659" class="cls-2" d="m48.54,75.22c-10.96,0-21.92,0-32.88,0-.38.01-.76-.03-1.13-.13-.72-.24-1.11-1.02-.87-1.74.14-.43.49-.76.93-.89.32-.08.64-.11.97-.11,22.03,0,44.06,0,66.08,0,.33,0,.65.03.97.11.73.22,1.13.99.91,1.72-.12.41-.43.73-.83.88-.34.11-.69.15-1.04.15-11.04,0-22.08,0-33.12,0"/>
    <path id="Path_660" data-name="Path 660" class="cls-2" d="m38.8,44.45h-11.16v22.45c.02.46,0,.93-.04,1.39-.05.74-.67,1.32-1.42,1.32-.75-.03-1.35-.61-1.4-1.36-.02-.22-.02-.44-.01-.65v-22.79c-.2-1.56.9-2.99,2.46-3.2.23-.03.47-.03.71,0,3.5,0,7,0,10.49,0,1.56-.2,2.98.89,3.19,2.45.03.24.03.48,0,.72,0,7.65,0,15.3,0,22.95.01.35-.04.7-.15,1.04-.21.6-.83.95-1.45.81-.63-.04-1.13-.54-1.18-1.17-.03-.33-.04-.65-.04-.98,0-7.35,0-14.7,0-22.05v-.92"/>
    <path id="Path_661" data-name="Path 661" class="cls-2" d="m44.41,49.91c0-1.8-.01-3.61,0-5.41-.1-1.5,1.04-2.79,2.54-2.89.11,0,.22,0,.33,0,1.83-.02,3.66-.02,5.49,0,1.49-.07,2.75,1.08,2.82,2.57,0,.09,0,.19,0,.28.02,3.69.02,7.38,0,11.07.08,1.5-1.07,2.77-2.56,2.85-.09,0-.17,0-.26,0-1.86.03-3.72.03-5.58,0-1.49.05-2.73-1.12-2.78-2.61,0-.07,0-.14,0-.2-.02-1.89,0-3.77,0-5.66m2.86,5.6h5.49v-11.07h-5.49v11.07Z"/>
    <path id="Path_662" data-name="Path 662" class="cls-2" d="m19.14,55.58v-11.18h-.78c-1.12,0-2.24.02-3.36-.01-.75,0-1.36-.58-1.4-1.33-.07-.71.45-1.35,1.16-1.42,0,0,0,0,.01,0,1.66-.04,3.33-.07,5,.02,1.12.17,2,1.05,2.17,2.17.05.32.08.65.07.98,0,3.44,0,6.88,0,10.33,0,2.21-1.06,3.25-3.27,3.25-1.2,0-2.4.01-3.61,0-.76.09-1.45-.46-1.54-1.22,0-.07-.01-.14,0-.2.03-.8.7-1.42,1.49-1.39.04,0,.07,0,.11,0,1.28-.01,2.56,0,3.94,0"/>
  </g>
</svg>