<?xml version="1.0" encoding="UTF-8"?>
<svg id="Layer_1" data-name="Layer 1" xmlns="http://www.w3.org/2000/svg" viewBox="0 0 100 100">
  <defs>
    <style>
      .cls-1 {
        fill: #3d5064;
      }
    </style>
  </defs>
  <g id="Group_317" data-name="Group 317">
    <path id="Path_663" data-name="Path 663" class="cls-1" d="m40.14,19.26h-4.47c-.64.08-1.26-.25-1.54-.83-.31-.66-.03-1.45.63-1.76.19-.09.4-.13.61-.13,1.43-.05,2.86-.06,4.29,0,.82.04,1.24-.16,1.36-1.05.15-1.07.46-2.12.7-3.18.25-1.09.6-1.38,1.75-1.39,1.61-.02,3.22,0,4.99,0,0-1.19-.02-2.29,0-3.39-.09-.77.47-1.47,1.25-1.56.04,0,.09,0,.13,0,.75,0,1.36.61,1.36,1.37,0,.03,0,.06,0,.1.03,1.11,0,2.22,0,3.48h4.25q2.49,0,3.05,2.44c.17.76.4,1.5.5,2.27.1.75.46.95,1.18.92,1.4-.05,2.8-.03,4.19-.01,1.02.01,1.56.48,1.58,1.31.02.86-.55,1.4-1.59,1.41-1.45.02-2.9,0-4.5,0,.37,1.7.71,3.26,1.06,4.82q.48,2.13,2.71,2.13c1.8,0,3.6,0,5.4,0,1.4,0,1.84.43,1.84,1.84,0,5.06.03,10.13-.02,15.19-.08.83.37,1.63,1.14,1.98,1.78,1.01,3.48,2.16,5.26,3.18.82.39,1.22,1.32.93,2.18-1.91,9.3-4.39,18.46-7.42,27.46-.1.29-.18.58-.25.83,3.7,2.37,7.62,3.5,11.91,2.37,1.48-.46,2.91-1.06,4.28-1.79,2.08-1,4.35-1.52,6.65-1.53,1.04-.01,1.64.5,1.65,1.35s-.57,1.39-1.62,1.38c-2.37.04-4.69.69-6.73,1.89-3.4,1.83-7.35,2.35-11.11,1.45-1.33-.29-2.62-.76-3.82-1.4-4.45-2.58-9.94-2.57-14.38.03-4.27,2.28-9.35,2.45-13.76.46-.72-.29-1.39-.68-2.09-1.01-3.78-2-8.32-1.98-12.08.05-3.9,2.23-8.52,2.84-12.86,1.69-1.25-.37-2.46-.86-3.6-1.48-1.97-1.07-4.17-1.64-6.42-1.67-.74.1-1.43-.42-1.53-1.16,0-.07-.01-.14-.01-.21,0-.76.62-1.37,1.38-1.37.06,0,.12,0,.17.01,2.5-.04,4.96.57,7.16,1.75,2.1,1.23,4.47,1.92,6.9,1.99,2.24.06,4.47-.45,6.46-1.49.79-.43,1.61-.8,2.48-1.22-.64-1.95-1.28-3.88-1.89-5.82-2.33-7.43-4.28-14.96-5.85-22.58-.26-.86.16-1.79.98-2.16,1.88-1.08,3.7-2.28,5.57-3.38.53-.26.84-.83.77-1.42-.02-5.09-.01-10.19-.01-15.28,0-1.73.35-2.09,2.07-2.09,2.08,0,4.16-.04,6.24.02.86.02,1.26-.18,1.43-1.09.34-1.91.83-3.81,1.29-5.88m11.23,62.24c1.81-.04,2.79-.27,5.38-1.64,3.08-1.67,6.62-2.29,10.09-1.78.52.18,1.09-.1,1.27-.62.03-.08.04-.15.05-.23,1.56-5.33,3.14-10.64,4.74-15.96.23-.49.03-1.07-.46-1.3-.02-.01-.05-.02-.08-.03-4.28-2.59-8.53-5.21-12.79-7.82-.9-.55-1.81-1.08-2.69-1.67-.64-.38-.84-1.2-.47-1.83,0-.01.02-.03.02-.04.39-.64,1.23-.84,1.87-.44,0,0,0,0,0,0,.28.14.53.32.8.48,4.32,2.64,8.63,5.28,12.94,7.92.54.33,1.09.65,1.78,1.05.51-2.32,1.01-4.49,1.43-6.67.05-.24-.33-.69-.61-.86-7.9-4.87-15.83-9.7-23.72-14.58-.53-.42-1.28-.42-1.81,0-7.48,4.61-14.97,9.2-22.47,13.77-2.03,1.24-2.04,1.24-1.54,3.57.34,1.57.72,3.12,1.1,4.77.44-.26.76-.44,1.08-.63,4.45-2.72,8.89-5.45,13.34-8.18,1.39-.85,2.16-.85,2.67,0,.48.81.13,1.5-1.19,2.31-4.82,2.95-9.64,5.9-14.46,8.84-.44.27-.79.46-.58,1.14,1.65,5.39,3.26,10.8,4.85,16.21.22.74.58.83,1.27.78,1.36-.1,2.72-.12,4.08-.07,2.55.11,4.78,1.22,7,2.35,1.34.72,2.84,1.12,4.36,1.15v-1.23c0-11.31,0-22.61,0-33.92-.02-.31-.01-.62.03-.93.12-.74.82-1.25,1.56-1.13.59.1,1.05.57,1.13,1.16.03.31.04.62.02.93v35.11m3.69-46.69c0-.99-.03-1.76,0-2.53-.08-.75.47-1.42,1.22-1.5.75-.08,1.42.47,1.5,1.22.01.11,0,.22,0,.33.03,1.15-.01,2.3.03,3.45-.01.33.11.64.33.89,1.04.71,2.13,1.34,3.34,2.08.02-.47.04-.77.04-1.06v-5.12c0-1.1.52-1.76,1.36-1.77s1.38.64,1.38,1.73c0,2.39,0,4.78.01,7.17,0,.29.03.72.21.85,1.14.76,2.33,1.46,3.54,2.21.05-.13.09-.27.12-.41,0-4.22,0-8.45.02-12.67,0-.62-.3-.71-.81-.7-2.39.03-4.78.04-7.17.04-9.13,0-18.26-.02-27.39-.05-.76,0-.94.25-.94.96.03,3.94.01,7.89.02,11.83,0,.3.04.59.07,1.05,1.08-.65,2-1.27,2.98-1.78.63-.27,1.01-.93.93-1.62-.06-2.17-.02-4.35-.02-6.52-.01-.31,0-.62.06-.93.12-.73.8-1.23,1.54-1.11.64.1,1.12.65,1.13,1.3.03.81.01,1.61.01,2.42v4.19c1.11-.68,2.01-1.26,2.95-1.78.43-.2.67-.65.61-1.12-.03-1.18-.03-2.36,0-3.54-.08-.75.47-1.43,1.23-1.5.75-.08,1.43.47,1.5,1.23,0,.1,0,.19,0,.29.02.8,0,1.59,0,2.58,1.34-.82,2.56-1.49,3.69-2.28.82-.72,2.05-.73,2.89-.03,1.08.77,2.26,1.4,3.63,2.24m3.54-8.65c-.51-2.26-.96-4.38-1.48-6.48-.05-.19-.51-.4-.78-.4-4.19-.02-8.38,0-12.57-.03-.63,0-.85.23-.97.82-.31,1.55-.69,3.08-1.04,4.62-.1.47-.17.94-.27,1.46h17.12Zm-2.2-9.7c-.13-.75-.3-1.49-.51-2.22-.14-.3-.41-.51-.73-.57-3.44-.04-6.87-.03-10.31,0-.23,0-.6.17-.65.33-.23.79-.37,1.6-.55,2.47h12.75Z"/>
    <path id="Path_664" data-name="Path 664" class="cls-1" d="m78.05,93.34c-2.76.03-5.19-1.06-7.58-2.29-3-1.5-6.47-1.81-9.69-.85-1.24.41-2.43.92-3.57,1.55-4.45,2.27-9.71,2.3-14.18.07-2.73-1.33-5.45-2.34-8.55-2.1-1.83.11-3.62.61-5.24,1.47-2.34,1.38-4.99,2.14-7.7,2.2-.15,0-.31.02-.47.01-.93-.02-1.5-.49-1.54-1.27-.04-.75.53-1.39,1.29-1.43.03,0,.07,0,.1,0,.81,0,1.61-.08,2.4-.23,1.52-.41,3-.95,4.43-1.62,4.83-2.6,10.64-2.58,15.45.06,4.16,2.36,9.26,2.39,13.44.06,4.93-2.76,10.94-2.75,15.86.03,1.87,1.05,3.98,1.62,6.13,1.66.31,0,.62.04.92.13.6.12.99.71.86,1.31,0,.02,0,.03-.01.05-.18.49-.53.91-.98,1.16-.36.19-.91.04-1.37.04"/>
  </g>
</svg>