<?xml version="1.0" encoding="utf-8"?>
<!-- Generator: Adobe Illustrator 27.4.0, SVG Export Plug-In . SVG Version: 6.00 Build 0)  -->
<svg version="1.1" id="Layer_1" xmlns="http://www.w3.org/2000/svg" xmlns:xlink="http://www.w3.org/1999/xlink" x="0px" y="0px"
	 viewBox="0 0 100 100" style="enable-background:new 0 0 100 100;" xml:space="preserve">
<style type="text/css">
	.st0{fill:#3D5064;}
</style>
<g>
	<path class="st0" d="M94.9,29c-0.4,0.7-1,0.9-1.8,0.9c-1.5-0.1-2.9,0-4.4,0c0,3.1,0,5.9,0,8.9c0.3,0,0.5,0,0.8,0
		c1.5,0.1,2.6,1.2,2.7,2.8c0.2,3.1-0.9,4.4-4.1,4.3c-4.1-0.1-8.3,0-12.5,0c-1.9,0-3-1.1-3.1-3c0-0.4,0-0.9,0-1.3
		c0.1-1.4,1.2-2.6,2.6-2.7c0.3,0,0.5,0,0.8,0c0-0.2,0-0.4,0-0.6c0-2.4,0-4.8,0-7.4c-1.4,0.2-2.7,0.3-4,0.4c-1.8,0.3-3.5,0.5-5.3,0.9
		c-0.2,0-0.6,0.4-0.6,0.6c0,4.5,0,9,0,13.5c0,0.1,0,0.1,0.1,0.2c0.3,0,0.5,0,0.8,0c1.4,0.1,2.5,1.2,2.6,2.6c0.2,3.1-0.7,4.5-4.2,4.4
		c-4.1-0.1-8.2,0-12.3,0c-2.1,0-3.2-1.1-3.2-3.2c0-0.6,0-1.2,0.1-1.7c0.4-1.4,1.3-2,3.3-2.1c0-3.5,0-7,0-10.6c0,0-0.1-0.1-0.1-0.1
		c-2.7,1.1-5.2,2.4-7.3,4.5c-3.1,3-3.7,6.7-1.9,10.8c1.4,3,3.5,5.4,5.8,7.6c4.6,4.6,9.3,9.1,14,13.7c1.7,1.7,1.1,4.2-1,4.8
		c-0.3,0.1-0.6,0.1-0.9,0.1c-17.5,0-35.1,0-52.6,0c-1.7,0-2.6-0.7-3-2.4C3.7,63.3,5,52.3,12.4,42.4c3.7-4.9,8.5-8.5,14-11.3
		c6.7-3.4,13.8-5.4,21.1-6.7c9.4-1.6,18.8-2,28.3-1.7c5.8,0.2,11.7,0.7,17.5,1.1c0.7,0,1.3,0.4,1.7,0.9C94.9,26.2,94.9,27.6,94.9,29
		z M92.1,27c0-0.1,0-0.2,0.1-0.2c-0.2-0.1-0.4-0.2-0.6-0.2c-3.5-0.3-7-0.5-10.5-0.7c-11.4-0.7-22.8-0.4-34.1,1.6
		c-7.1,1.3-14,3.3-20.4,6.8c-5.9,3.3-10.9,7.6-14.2,13.5C7.7,55.9,7,64.6,8.9,73.6c0.2,0.8,0.5,1,1.2,0.9c6.9,0,13.8,0,20.7,0
		c0.3,0,0.5,0,0.8,0c-0.1-0.2-0.1-0.3-0.2-0.4c-0.5-0.9-0.4-1.7,0.3-2.1c0.7-0.5,1.4-0.3,2.1,0.6c0.3,0.4,0.7,0.9,1,1.3
		c0.3,0.5,0.7,0.6,1.2,0.6c8.4,0,16.7,0,25.1,0c0.2,0,0.5,0,0.7-0.1c0-0.1,0.1-0.1,0.1-0.2c-0.2-0.2-0.5-0.3-0.7-0.5
		c-4.4-4.3-8.9-8.7-13.3-13c-2.4-2.3-4.6-4.8-6.1-7.8c-2.9-5.7-1.8-11.3,3-15.5c2.2-1.9,4.7-3.2,7.4-4.3c5.3-2.2,10.8-3.4,16.5-4.2
		c5.9-0.9,11.8-1.5,17.7-1.7C88.3,27.1,90.2,27.1,92.1,27z M63.3,32.7c-2.2,0.6-4.4,1.2-6.5,1.9c-0.2,0.1-0.4,0.3-0.4,0.5
		c0,1.2,0,2.4,0,3.7c2.4,0,4.7,0,7,0C63.3,36.7,63.3,34.8,63.3,32.7z M56.4,46.4c2.4,0,4.6,0,6.9,0c0-1.6,0-3.2,0-4.8
		c-2.3,0-4.6,0-6.9,0C56.4,43.3,56.4,44.8,56.4,46.4z M85.8,30.1c-2.4,0.2-4.7,0.3-6.9,0.5c0,1,0,1.8,0,2.6c2.4,0,4.6,0,6.9,0
		C85.8,32.1,85.8,31.1,85.8,30.1z M85.8,36c-2.4,0-4.7,0-6.9,0c0,0.9,0,1.8,0,2.7c2.3,0,4.6,0,6.9,0C85.8,37.8,85.8,37,85.8,36z
		 M89.3,41.6c-4.7,0-9.3,0-13.9,0c0,0.5,0,0.9,0,1.3c4.7,0,9.3,0,13.9,0C89.3,42.5,89.3,42.1,89.3,41.6z M52.9,49.3
		c0,0.5,0,0.9,0,1.3c4.7,0,9.3,0,13.9,0c0-0.5,0-0.9,0-1.3C62.1,49.3,57.5,49.3,52.9,49.3z"/>
	<path class="st0" d="M30.8,68.3c0,0.7-0.3,1.2-1,1.4c-0.7,0.2-1.3-0.1-1.6-0.7c-0.9-1.7-1.7-3.4-2.5-5.2c-0.2-0.5-0.4-1-0.6-1.5
		c-0.2-0.8,0.1-1.5,0.8-1.8c0.7-0.3,1.4,0,1.8,0.7c1,2.2,2,4.4,3,6.6C30.7,67.9,30.7,68.1,30.8,68.3z"/>
	<path class="st0" d="M37.1,36.9c-0.4-0.4-0.9-0.7-1.1-1.1c-0.3-0.6-0.1-1.3,0.5-1.6c2.3-1.1,4.7-2.2,7.1-3.2
		c0.6-0.3,1.2,0.1,1.5,0.7c0.3,0.6,0.2,1.3-0.3,1.7c-0.2,0.2-0.6,0.3-0.8,0.4c-1.9,0.8-3.7,1.7-5.6,2.5C38,36.5,37.7,36.6,37.1,36.9
		z"/>
	<path class="st0" d="M34.1,38.4c-0.4,0.5-0.6,1-0.9,1.3c-1.7,1.3-3.2,2.9-4.4,4.6c-0.6,0.9-1.4,1-2.1,0.5c-0.7-0.5-0.8-1.3-0.2-2.2
		c1.4-2,3-3.8,5-5.2c0.4-0.3,1.1-0.3,1.6-0.2C33.5,37.4,33.7,37.9,34.1,38.4z"/>
	<path class="st0" d="M23.3,52.9c0.2-1.1,0.4-2.7,0.6-4.2c0.1-0.7,0.6-1.1,1.4-1.1c0.7,0,1.1,0.4,1.3,1c0.1,0.2,0.1,0.4,0,0.6
		c-0.5,2.2-0.5,4.4-0.3,6.7c0.1,0.8-0.2,1.4-1,1.6c-0.9,0.3-1.7-0.3-1.8-1.3C23.4,55.2,23.4,54.2,23.3,52.9z"/>
	<path class="st0" d="M54.2,29.9c0,0.5-0.4,0.9-1,1.1c-1.1,0.3-2.2,0.6-3.4,0.9c-0.8,0.2-1.6-0.3-1.7-1c-0.2-0.8,0.2-1.5,1.1-1.7
		c1.1-0.3,2.1-0.6,3.2-0.8C53.4,28.1,54.2,28.7,54.2,29.9z"/>
</g>
</svg>
