<?xml version="1.0" encoding="utf-8"?>
<!-- Generator: Adobe Illustrator 27.4.0, SVG Export Plug-In . SVG Version: 6.00 Build 0)  -->
<svg version="1.1" id="Layer_1" xmlns="http://www.w3.org/2000/svg" xmlns:xlink="http://www.w3.org/1999/xlink" x="0px" y="0px"
	 viewBox="0 0 140 140" style="enable-background:new 0 0 140 140;" xml:space="preserve">
<style type="text/css">
	.st0{fill:#E4004C;}
	.st1{fill:#FFFFFF;}
</style>
<circle class="st0" cx="70" cy="70" r="68.6"/>
<g>
	<path class="st1" d="M114.9,49c-0.4,0.7-1,0.9-1.8,0.9c-1.5-0.1-2.9,0-4.4,0c0,3.1,0,5.9,0,8.9c0.3,0,0.5,0,0.8,0
		c1.5,0.1,2.6,1.2,2.7,2.8c0.2,3.1-0.9,4.4-4.1,4.3c-4.1-0.1-8.3,0-12.5,0c-1.9,0-3-1.1-3.1-3c0-0.4,0-0.9,0-1.3
		c0.1-1.4,1.2-2.6,2.6-2.7c0.3,0,0.5,0,0.8,0c0-0.2,0-0.4,0-0.6c0-2.4,0-4.8,0-7.4c-1.4,0.2-2.7,0.3-4,0.4c-1.8,0.3-3.5,0.5-5.3,0.9
		c-0.2,0-0.6,0.4-0.6,0.6c0,4.5,0,9,0,13.5c0,0.1,0,0.1,0.1,0.2c0.3,0,0.5,0,0.8,0c1.4,0.1,2.5,1.2,2.6,2.6c0.2,3.1-0.7,4.5-4.2,4.4
		c-4.1-0.1-8.2,0-12.3,0c-2.1,0-3.2-1.1-3.2-3.2c0-0.6,0-1.2,0.1-1.7c0.4-1.4,1.3-2,3.3-2.1c0-3.5,0-7,0-10.6l-0.1-0.1
		c-2.7,1.1-5.2,2.4-7.3,4.5c-3.1,3-3.7,6.7-1.9,10.8c1.4,3,3.5,5.4,5.8,7.6c4.6,4.6,9.3,9.1,14,13.7c1.7,1.7,1.1,4.2-1,4.8
		c-0.3,0.1-0.6,0.1-0.9,0.1c-17.5,0-35.1,0-52.6,0c-1.7,0-2.6-0.7-3-2.4c-2.5-11.6-1.2-22.6,6.2-32.5c3.7-4.9,8.5-8.5,14-11.3
		c6.7-3.4,13.8-5.4,21.1-6.7c9.4-1.6,18.8-2,28.3-1.7c5.8,0.2,11.7,0.7,17.5,1.1c0.7,0,1.3,0.4,1.7,0.9
		C114.9,46.2,114.9,47.6,114.9,49z M112.1,47c0-0.1,0-0.2,0.1-0.2c-0.2-0.1-0.4-0.2-0.6-0.2c-3.5-0.3-7-0.5-10.5-0.7
		c-11.4-0.7-22.8-0.4-34.1,1.6c-7.1,1.3-14,3.3-20.4,6.8c-5.9,3.3-10.9,7.6-14.2,13.5c-4.7,8.1-5.4,16.8-3.5,25.8
		c0.2,0.8,0.5,1,1.2,0.9c6.9,0,13.8,0,20.7,0c0.3,0,0.5,0,0.8,0c-0.1-0.2-0.1-0.3-0.2-0.4c-0.5-0.9-0.4-1.7,0.3-2.1
		c0.7-0.5,1.4-0.3,2.1,0.6c0.3,0.4,0.7,0.9,1,1.3c0.3,0.5,0.7,0.6,1.2,0.6c8.4,0,16.7,0,25.1,0c0.2,0,0.5,0,0.7-0.1
		c0-0.1,0.1-0.1,0.1-0.2c-0.2-0.2-0.5-0.3-0.7-0.5c-4.4-4.3-8.9-8.7-13.3-13c-2.4-2.3-4.6-4.8-6.1-7.8c-2.9-5.7-1.8-11.3,3-15.5
		c2.2-1.9,4.7-3.2,7.4-4.3c5.3-2.2,10.8-3.4,16.5-4.2c5.9-0.9,11.8-1.5,17.7-1.7C108.3,47.1,110.2,47.1,112.1,47z M83.3,52.7
		c-2.2,0.6-4.4,1.2-6.5,1.9c-0.2,0.1-0.4,0.3-0.4,0.5c0,1.2,0,2.4,0,3.7c2.4,0,4.7,0,7,0C83.3,56.7,83.3,54.8,83.3,52.7z M76.4,66.4
		c2.4,0,4.6,0,6.9,0c0-1.6,0-3.2,0-4.8c-2.3,0-4.6,0-6.9,0C76.4,63.3,76.4,64.8,76.4,66.4z M105.8,50.1c-2.4,0.2-4.7,0.3-6.9,0.5
		c0,1,0,1.8,0,2.6c2.4,0,4.6,0,6.9,0C105.8,52.1,105.8,51.1,105.8,50.1z M105.8,56c-2.4,0-4.7,0-6.9,0c0,0.9,0,1.8,0,2.7
		c2.3,0,4.6,0,6.9,0C105.8,57.8,105.8,57,105.8,56z M109.3,61.6c-4.7,0-9.3,0-13.9,0c0,0.5,0,0.9,0,1.3c4.7,0,9.3,0,13.9,0
		C109.3,62.5,109.3,62.1,109.3,61.6z M72.9,69.3c0,0.5,0,0.9,0,1.3c4.7,0,9.3,0,13.9,0c0-0.5,0-0.9,0-1.3
		C82.1,69.3,77.5,69.3,72.9,69.3z"/>
	<path class="st1" d="M50.8,88.3c0,0.7-0.3,1.2-1,1.4c-0.7,0.2-1.3-0.1-1.6-0.7c-0.9-1.7-1.7-3.4-2.5-5.2c-0.2-0.5-0.4-1-0.6-1.5
		c-0.2-0.8,0.1-1.5,0.8-1.8s1.4,0,1.8,0.7c1,2.2,2,4.4,3,6.6C50.7,87.9,50.7,88.1,50.8,88.3z"/>
	<path class="st1" d="M57.1,56.9c-0.4-0.4-0.9-0.7-1.1-1.1c-0.3-0.6-0.1-1.3,0.5-1.6c2.3-1.1,4.7-2.2,7.1-3.2
		c0.6-0.3,1.2,0.1,1.5,0.7c0.3,0.6,0.2,1.3-0.3,1.7c-0.2,0.2-0.6,0.3-0.8,0.4c-1.9,0.8-3.7,1.7-5.6,2.5C58,56.5,57.7,56.6,57.1,56.9
		z"/>
	<path class="st1" d="M54.1,58.4c-0.4,0.5-0.6,1-0.9,1.3c-1.7,1.3-3.2,2.9-4.4,4.6c-0.6,0.9-1.4,1-2.1,0.5s-0.8-1.3-0.2-2.2
		c1.4-2,3-3.8,5-5.2c0.4-0.3,1.1-0.3,1.6-0.2C53.5,57.4,53.7,57.9,54.1,58.4z"/>
	<path class="st1" d="M43.3,72.9c0.2-1.1,0.4-2.7,0.6-4.2c0.1-0.7,0.6-1.1,1.4-1.1c0.7,0,1.1,0.4,1.3,1c0.1,0.2,0.1,0.4,0,0.6
		c-0.5,2.2-0.5,4.4-0.3,6.7c0.1,0.8-0.2,1.4-1,1.6c-0.9,0.3-1.7-0.3-1.8-1.3S43.4,74.2,43.3,72.9z"/>
	<path class="st1" d="M74.2,49.9c0,0.5-0.4,0.9-1,1.1c-1.1,0.3-2.2,0.6-3.4,0.9c-0.8,0.2-1.6-0.3-1.7-1c-0.2-0.8,0.2-1.5,1.1-1.7
		c1.1-0.3,2.1-0.6,3.2-0.8C73.4,48.1,74.2,48.7,74.2,49.9z"/>
</g>
</svg>
