<?xml version="1.0" encoding="UTF-8"?>
<svg id="Layer_1" data-name="Layer 1" xmlns="http://www.w3.org/2000/svg" viewBox="0 0 100 100">
  <defs>
    <style>
      .cls-1 {
        fill: #3d5064;
      }
    </style>
  </defs>
  <g id="Group_319" data-name="Group 319">
    <path id="Path_665" data-name="Path 665" class="cls-1" d="m32.6,27.74v20.52h-2.77v-29.51c-.82,0-1.51-.04-2.19.02-.24.08-.44.27-.51.51-.05.41-.07.83-.04,1.25v26.73c0,.31-.03.63-.05,1.06h-2.24c-.67,0-.54-.5-.54-.89,0-2.88,0-5.77,0-8.65v-10.6c-.15.16-.3.33-.43.51-1.52,2.53-3.38,4.84-5.53,6.87-.32.37-.5.84-.5,1.33-.04,3.43-.02,6.86-.02,10.29v1.14c-.77.04-1.55.02-2.32-.04-.2-.03-.49-.51-.5-.79-.04-2.63-.02-5.26-.02-7.88v-1.36c-2.38,1.57-5.03,2.71-7.81,3.36-.21-.88-.41-1.74-.62-2.67.58-.18,1.14-.31,1.66-.52,8.58-3.46,14.02-9.62,15.97-18.73.09-.67.12-1.34.09-2.01.05-1.26.52-1.76,1.75-1.77,1.64-.02,3.27-.02,4.91,0,1.24.01,1.69.49,1.74,1.77.3,8.65,6.91,15.47,15.81,16.33,8.52.8,16.35-4.74,18.43-13.04.22-1.1.36-2.21.42-3.33.11-1.25.55-1.72,1.8-1.73,1.64-.02,3.27-.02,4.91,0,1.1.01,1.66.48,1.7,1.53.28,7.19,3.93,12.56,9.18,17.05,2.48,2.12,5.42,3.63,8.59,4.41l-.57,2.71c-2.81-.64-5.48-1.79-7.88-3.4v1.31c0,2.63-.02,5.26.01,7.88,0,.7-.19,1.01-.92.95-.6-.05-1.2-.01-1.94-.01v-1.26c0-3.43.01-6.86-.01-10.29.03-.4-.09-.8-.34-1.13-2.33-2.2-4.38-4.68-6.09-7.39v19.96h-2.89v-29.43h-2.68v29.43h-2.82v-20.76c-.2.19-.39.39-.57.6-1.4,2.08-3.2,3.87-5.28,5.26-.47.27-.74.8-.68,1.34.02,4.13.01,8.27.01,12.4v1.25c-.85,0-1.59,0-2.31,0-.67,0-.52-.53-.52-.91,0-3.62-.01-7.24,0-10.87v-1.07l-6.55,1.56v11.21h-2.8v-11.19l-6.58-1.5v12.69h-2.85v-1.14c0-4.1-.01-8.21.02-12.31.05-.57-.24-1.12-.75-1.39-2.07-1.36-3.86-3.1-5.26-5.14-.14-.2-.29-.39-.44-.59l-.21.06"/>
    <path id="Path_666" data-name="Path 666" class="cls-1" d="m32.62,59.8v10.47h-2.82v-10.53c-.75-.04-1.5-.02-2.25.04-.19.03-.44.54-.44.84-.03,2.85-.02,5.71-.02,8.56v1.1h-2.82v-10.51H6.56v-2.8h86.83v2.73h-17.66v10.58h-2.79c-.02-.33-.06-.66-.06-1.01,0-2.85-.02-5.71,0-8.56,0-.73-.17-1.08-.96-.99-.58.03-1.16.04-1.74.01v10.55h-2.81v-10.48h-34.75Z"/>
    <path id="Path_667" data-name="Path 667" class="cls-1" d="m85.54,77.16c-2.23,0-4.4-.64-6.26-1.87-.42-.34-1.02-.35-1.45-.02-4.37,2.5-8.73,2.62-13.1-.06-.38-.15-.81-.12-1.17.07-3.14,1.98-7.02,2.42-10.52,1.19-.9-.32-1.7-.88-2.58-1.25-.35-.15-.74-.15-1.09-.01-4.47,2.55-8.91,2.72-13.36-.06-.36-.12-.76-.07-1.09.13-4.03,2.27-8.14,2.67-12.26.39-.87-.6-2.01-.61-2.89-.03-3.94,2.27-8.85,2.03-12.55-.61-.32-.21-.62-.45-.91-.71-.82-.72-.95-1.49-.38-2.17s1.38-.66,2.2.01c1.9,1.63,4.39,2.39,6.88,2.09,1.78-.25,3.48-.93,4.94-1.98,1.28-.86,1.52-.83,2.79.11,2.7,2.16,6.41,2.56,9.51,1.03.86-.42,1.69-.91,2.49-1.44.58-.46,1.4-.43,1.94.07,3.42,2.96,7.87,2.95,11.73.38,1.61-1.08,1.61-1.04,3.18.09,2.55,1.96,5.97,2.37,8.92,1.08.74-.31,1.45-.68,2.12-1.11,1.74-1.08,1.72-1.07,3.34.07,2.56,1.95,5.99,2.33,8.92.99.96-.44,1.88-.96,2.76-1.54.6-.47,1.45-.44,2.03.05,3.71,2.83,7.45,3.01,11.41.57.38-.23.74-.51,1.13-.73.64-.44,1.51-.28,1.96.36.44.61.31,1.46-.3,1.9-.02.02-.04.03-.07.05-2.35,1.87-5.26,2.9-8.26,2.94"/>
    <path id="Path_668" data-name="Path 668" class="cls-1" d="m85.54,84.07c-2.23,0-4.4-.64-6.26-1.87-.42-.34-1.02-.35-1.45-.02-4.37,2.5-8.73,2.62-13.1-.06-.38-.15-.81-.13-1.17.07-3.14,1.98-7.02,2.42-10.52,1.19-.9-.32-1.7-.88-2.58-1.25-.35-.15-.74-.15-1.09-.01-4.47,2.55-8.91,2.72-13.36-.06-.36-.12-.76-.07-1.09.13-4.03,2.27-8.14,2.67-12.26.39-.87-.6-2.01-.61-2.89-.03-3.94,2.27-8.85,2.03-12.55-.61-.32-.21-.62-.45-.91-.71-.82-.72-.95-1.49-.38-2.17s1.38-.66,2.2.01c1.9,1.63,4.39,2.39,6.88,2.09,1.78-.25,3.48-.93,4.94-1.98,1.28-.86,1.52-.83,2.79.11,2.7,2.16,6.41,2.56,9.51,1.03.86-.42,1.69-.91,2.49-1.44.58-.46,1.4-.43,1.94.07,3.42,2.96,7.87,2.95,11.73.38,1.61-1.08,1.61-1.04,3.18.09,2.55,1.96,5.97,2.37,8.92,1.08.74-.31,1.45-.68,2.12-1.11,1.74-1.08,1.72-1.07,3.34.07,2.56,1.95,5.99,2.33,8.92.99.96-.44,1.88-.96,2.76-1.54.6-.47,1.45-.44,2.03.05,3.71,2.83,7.45,3.01,11.41.57.38-.23.74-.51,1.13-.73.64-.44,1.51-.28,1.96.36.44.61.31,1.46-.3,1.9-.02.02-.04.03-.07.05-2.35,1.87-5.26,2.9-8.26,2.94"/>
    <rect id="Rectangle_283" data-name="Rectangle 283" class="cls-1" x="6.54" y="51.42" width="86.89" height="2.73"/>
  </g>
</svg>