<?xml version="1.0" encoding="utf-8"?>
<!-- Generator: Adobe Illustrator 27.4.0, SVG Export Plug-In . SVG Version: 6.00 Build 0)  -->
<svg version="1.1" id="Layer_1" xmlns="http://www.w3.org/2000/svg" xmlns:xlink="http://www.w3.org/1999/xlink" x="0px" y="0px"
	 viewBox="0 0 140 140" style="enable-background:new 0 0 140 140;" xml:space="preserve">
<style type="text/css">
	.st0{fill:#A4C422;}
	.st1{fill:#FFFFFF;}
</style>
<circle class="st0" cx="70" cy="70" r="68.6"/>
<g id="Group_317">
	<path id="Path_663" class="st1" d="M60.1,39.5c-1.6,0-3,0-4.5,0c-0.6,0.1-1.3-0.3-1.5-0.8c-0.3-0.7,0-1.4,0.6-1.8
		c0.2-0.1,0.4-0.1,0.6-0.1c1.4,0,2.9-0.1,4.3,0c0.8,0,1.2-0.2,1.4-1.1c0.1-1.1,0.5-2.1,0.7-3.2c0.3-1.1,0.6-1.4,1.7-1.4
		c1.6,0,3.2,0,5,0c0-1.2,0-2.3,0-3.4c-0.1-0.8,0.5-1.5,1.2-1.6c0,0,0.1,0,0.1,0c0.8,0,1.4,0.6,1.4,1.4c0,0,0,0.1,0,0.1
		c0,1.1,0,2.2,0,3.5c1.5,0,2.9,0,4.3,0c2.5,0,2.5,0,3.1,2.4c0.2,0.8,0.4,1.5,0.5,2.3c0.1,0.7,0.5,0.9,1.2,0.9c1.4-0.1,2.8,0,4.2,0
		c1,0,1.6,0.5,1.6,1.3c0,0.9-0.5,1.4-1.6,1.4c-1.5,0-2.9,0-4.5,0c0.4,1.7,0.7,3.3,1.1,4.8c0.5,2.1,0.5,2.1,2.7,2.1
		c1.8,0,3.6,0,5.4,0c1.4,0,1.8,0.4,1.8,1.8c0,5.1,0,10.1,0,15.2c-0.1,0.8,0.4,1.6,1.1,2c1.8,1,3.5,2.2,5.3,3.2
		c0.8,0.4,1.2,1.3,0.9,2.2c-1.9,9.3-4.4,18.5-7.4,27.5c-0.1,0.3-0.2,0.6-0.2,0.8c3.7,2.4,7.6,3.5,11.9,2.4c1.5-0.5,2.9-1.1,4.3-1.8
		c2.1-1,4.4-1.5,6.7-1.5c1,0,1.6,0.5,1.6,1.4s-0.6,1.4-1.6,1.4c-2.4,0-4.7,0.7-6.7,1.9c-3.4,1.8-7.4,2.4-11.1,1.5
		c-1.3-0.3-2.6-0.8-3.8-1.4c-4.5-2.6-9.9-2.6-14.4,0c-4.3,2.3-9.3,2.4-13.8,0.5c-0.7-0.3-1.4-0.7-2.1-1c-3.8-2-8.3-2-12.1,0.1
		c-3.9,2.2-8.5,2.8-12.9,1.7c-1.2-0.4-2.5-0.9-3.6-1.5c-2-1.1-4.2-1.6-6.4-1.7c-0.7,0.1-1.4-0.4-1.5-1.2c0-0.1,0-0.1,0-0.2
		c0-0.8,0.6-1.4,1.4-1.4c0.1,0,0.1,0,0.2,0c2.5,0,5,0.6,7.2,1.7c2.1,1.2,4.5,1.9,6.9,2c2.2,0.1,4.5-0.4,6.5-1.5
		c0.8-0.4,1.6-0.8,2.5-1.2c-0.6-1.9-1.3-3.9-1.9-5.8c-2.3-7.4-4.3-15-5.9-22.6c-0.3-0.9,0.2-1.8,1-2.2c1.9-1.1,3.7-2.3,5.6-3.4
		c0.5-0.3,0.8-0.8,0.8-1.4c0-5.1,0-10.2,0-15.3c0-1.7,0.4-2.1,2.1-2.1c2.1,0,4.2,0,6.2,0c0.9,0,1.3-0.2,1.4-1.1
		C59.2,43.5,59.7,41.6,60.1,39.5 M71.4,101.8c1.8,0,2.8-0.3,5.4-1.6c3.1-1.7,6.6-2.3,10.1-1.8c0.5,0.2,1.1-0.1,1.3-0.6
		c0-0.1,0-0.2,0-0.2c1.6-5.3,3.1-10.6,4.7-16c0.2-0.5,0-1.1-0.5-1.3c0,0,0,0-0.1,0c-4.3-2.6-8.5-5.2-12.8-7.8
		c-0.9-0.6-1.8-1.1-2.7-1.7c-0.6-0.4-0.8-1.2-0.5-1.8c0,0,0,0,0,0c0.4-0.6,1.2-0.8,1.9-0.4c0,0,0,0,0,0c0.3,0.1,0.5,0.3,0.8,0.5
		c4.3,2.6,8.6,5.3,12.9,7.9c0.5,0.3,1.1,0.6,1.8,1c0.5-2.3,1-4.5,1.4-6.7c0-0.2-0.3-0.7-0.6-0.9c-7.9-4.9-15.8-9.7-23.7-14.6
		c-0.5-0.4-1.3-0.4-1.8,0c-7.5,4.6-15,9.2-22.5,13.8c-2,1.2-2,1.2-1.5,3.6c0.3,1.6,0.7,3.1,1.1,4.8c0.4-0.3,0.8-0.4,1.1-0.6
		c4.4-2.7,8.9-5.5,13.3-8.2c1.4-0.8,2.2-0.8,2.7,0c0.5,0.8,0.1,1.5-1.2,2.3c-4.8,3-9.6,5.9-14.5,8.8c-0.4,0.3-0.8,0.5-0.6,1.1
		c1.6,5.4,3.3,10.8,4.8,16.2c0.2,0.7,0.6,0.8,1.3,0.8c1.4-0.1,2.7-0.1,4.1-0.1c2.5,0.1,4.8,1.2,7,2.3c1.3,0.7,2.8,1.1,4.4,1.2v-1.2
		c0-11.3,0-22.6,0-33.9c0-0.3,0-0.6,0-0.9c0.1-0.7,0.8-1.2,1.6-1.1c0.6,0.1,1.1,0.6,1.1,1.2c0,0.3,0,0.6,0,0.9c0,11.3,0,22.7,0,34
		L71.4,101.8 M75,55.1c0-1,0-1.8,0-2.5c-0.1-0.7,0.5-1.4,1.2-1.5c0.7-0.1,1.4,0.5,1.5,1.2c0,0.1,0,0.2,0,0.3c0,1.1,0,2.3,0,3.4
		c0,0.3,0.1,0.6,0.3,0.9c1,0.7,2.1,1.3,3.3,2.1c0-0.5,0-0.8,0-1.1c0-1.7,0-3.4,0-5.1c0-1.1,0.5-1.8,1.4-1.8c0.8,0,1.4,0.6,1.4,1.7
		c0,2.4,0,4.8,0,7.2c0,0.3,0,0.7,0.2,0.8c1.1,0.8,2.3,1.5,3.5,2.2c0.1-0.1,0.1-0.3,0.1-0.4c0-4.2,0-8.4,0-12.7
		c0-0.6-0.3-0.7-0.8-0.7c-2.4,0-4.8,0-7.2,0c-9.1,0-18.3,0-27.4-0.1c-0.8,0-0.9,0.2-0.9,1c0,3.9,0,7.9,0,11.8c0,0.3,0,0.6,0.1,1
		c1.1-0.7,2-1.3,3-1.8c0.6-0.3,1-0.9,0.9-1.6c-0.1-2.2,0-4.3,0-6.5c0-0.3,0-0.6,0.1-0.9c0.1-0.7,0.8-1.2,1.5-1.1
		c0.6,0.1,1.1,0.6,1.1,1.3c0,0.8,0,1.6,0,2.4c0,1.3,0,2.6,0,4.2c1.1-0.7,2-1.3,2.9-1.8c0.4-0.2,0.7-0.7,0.6-1.1c0-1.2,0-2.4,0-3.5
		c-0.1-0.8,0.5-1.4,1.2-1.5c0.8-0.1,1.4,0.5,1.5,1.2c0,0.1,0,0.2,0,0.3c0,0.8,0,1.6,0,2.6c1.3-0.8,2.6-1.5,3.7-2.3
		c0.8-0.7,2.1-0.7,2.9,0C72.5,53.6,73.7,54.3,75,55.1 M78.6,46.4c-0.5-2.3-1-4.4-1.5-6.5c0-0.2-0.5-0.4-0.8-0.4c-4.2,0-8.4,0-12.6,0
		c-0.6,0-0.9,0.2-1,0.8c-0.3,1.5-0.7,3.1-1,4.6c-0.1,0.5-0.2,0.9-0.3,1.5L78.6,46.4z M76.4,36.7c-0.1-0.7-0.3-1.5-0.5-2.2
		c-0.1-0.3-0.4-0.5-0.7-0.6c-3.4,0-6.9,0-10.3,0c-0.2,0-0.6,0.2-0.7,0.3c-0.2,0.8-0.4,1.6-0.6,2.5L76.4,36.7z"/>
	<path id="Path_664" class="st1" d="M98.1,113.6c-2.8,0-5.2-1.1-7.6-2.3c-3-1.5-6.5-1.8-9.7-0.9c-1.2,0.4-2.4,0.9-3.6,1.5
		c-4.4,2.3-9.7,2.3-14.2,0.1c-2.7-1.3-5.4-2.3-8.5-2.1c-1.8,0.1-3.6,0.6-5.2,1.5c-2.3,1.4-5,2.1-7.7,2.2c-0.2,0-0.3,0-0.5,0
		c-0.9,0-1.5-0.5-1.5-1.3c0-0.8,0.5-1.4,1.3-1.4c0,0,0.1,0,0.1,0c0.8,0,1.6-0.1,2.4-0.2c1.5-0.4,3-1,4.4-1.6
		c4.8-2.6,10.6-2.6,15.4,0.1c4.2,2.4,9.3,2.4,13.4,0.1c4.9-2.8,10.9-2.8,15.9,0c1.9,1.1,4,1.6,6.1,1.7c0.3,0,0.6,0,0.9,0.1
		c0.6,0.1,1,0.7,0.9,1.3c0,0,0,0,0,0c-0.2,0.5-0.5,0.9-1,1.2C99.1,113.8,98.5,113.6,98.1,113.6"/>
</g>
</svg>
