<svg xmlns="http://www.w3.org/2000/svg" xmlns:xlink="http://www.w3.org/1999/xlink" width="140" height="140" viewBox="0 0 140 140">
  <defs>
    <clipPath id="clip-path">
      <rect id="Rectangle_281" data-name="Rectangle 281" width="83.985" height="84" fill="#e29e09"/>
    </clipPath>
  </defs>
  <g id="Group_394" data-name="Group 394" transform="translate(-651 -1127)">
    <g id="Ellipse_24" data-name="Ellipse 24" transform="translate(651 1127)" fill="none" stroke="#e29e09" stroke-width="2">
      <circle cx="70" cy="70" r="70" stroke="none"/>
      <circle cx="70" cy="70" r="69" fill="none"/>
    </g>
    <g id="Group_316" data-name="Group 316" transform="translate(679 1155)">
      <g id="Group_315" data-name="Group 315" clip-path="url(#clip-path)">
        <path id="Path_657" data-name="Path 657" d="M89.373,93.892a.8.8,0,0,0-.142.189,4.106,4.106,0,0,1-4.3,3.078q-15.3.006-30.592,0l-41.253,0c-.246,0-.494.013-.738-.008a1.433,1.433,0,0,1-1.373-1.45,1.331,1.331,0,0,1,1.368-1.343c1.913-.038,3.827-.025,5.741-.025q33.216,0,66.432,0c1.715,0,2.061-.348,2.06-2.066q0-1.6-.009-3.2a2.049,2.049,0,0,0-.068-.3c-.385,0-.809.021-1.23,0a1.429,1.429,0,1,1-.013-2.856c.4-.03.813,0,1.315,0-.054-2.623.284-5.2-.548-7.688a6.644,6.644,0,0,0-.952-1.7c-.972-1.353-2.011-2.659-2.979-4.014a1.24,1.24,0,0,0-1.154-.575q-9.473.024-18.946.01c-2.432,0-3.442-1.007-3.443-3.422q0-5.085,0-10.17a2.845,2.845,0,0,1,3.166-3.2c1.231-.008,2.461-.014,3.691,0a1.423,1.423,0,0,1,1.581,1.4,1.443,1.443,0,0,1-1.589,1.4c-1.305.013-2.611,0-3.955,0V69.09H72.488c.184-1.128-.287-2.765,1.556-2.7,1.682.057,1.278,1.575,1.4,2.694H79.5c-.748-1.006-1.437-1.939-2.133-2.867-4.228-5.639-8.476-11.264-12.676-16.924a5.838,5.838,0,0,0-5.036-2.518q-23.211.035-46.421.01a4.959,4.959,0,0,1-1.216-.1A1.38,1.38,0,0,1,12.044,44a3.963,3.963,0,0,1,.891-.089q23.211,0,46.42-.011a8.966,8.966,0,0,1,7.712,3.839c6.756,9.107,13.583,18.161,20.4,27.222A9.743,9.743,0,0,1,89.2,79.242c.042.238.114.471.173.707Z" transform="translate(-5.388 -21.552)" fill="#e29e09"/>
        <path id="Path_658" data-name="Path 658" d="M11.153,0a20.54,20.54,0,0,1,2.4.756,9.618,9.618,0,0,1,6.05,8.968c.106,2.729.022,5.466.02,8.2a1.552,1.552,0,0,1-.782,1.517c-1,.531-2.068-.206-2.078-1.47-.021-2.624.029-5.249-.027-7.872a8.785,8.785,0,0,0-.428-2.725A6.911,6.911,0,0,0,8.454,2.948,7.014,7.014,0,0,0,2.8,9.929c-.024,7.489-.009,14.978-.01,22.468q0,23.779,0,47.559v1.183h11.12c.164-1.126-.307-2.742,1.541-2.7,1.734.042,1.238,1.594,1.428,2.693h11.1c0-.357-.011-.727,0-1.1.037-1.067.535-1.637,1.418-1.636s1.4.608,1.421,1.641c.008.35,0,.7,0,1.1H41.958c.161-1.1-.4-2.644,1.482-2.728.971-.043,1.2.446,1.4,2.715H55.9c.187-1.071-.328-2.706,1.51-2.689,1.79.017,1.252,1.627,1.475,2.71H69.9c.22-1.115-.339-2.825,1.613-2.7,1.651.1,1.2,1.583,1.342,2.746h.866c2.76,0,5.521.026,8.281-.016a2.189,2.189,0,0,1,1.978.843v1.148A2.163,2.163,0,0,1,82.162,84q-40.172-.029-80.345-.017C.445,83.983,0,83.543,0,82.18q0-36.2.007-72.392A9.242,9.242,0,0,1,4.549,1.57,23.264,23.264,0,0,1,8.364,0Z" transform="translate(0)" fill="#e29e09"/>
        <path id="Path_659" data-name="Path 659" d="M45.93,129.273q-16.438,0-32.877-.005a3.865,3.865,0,0,1-1.128-.13,1.375,1.375,0,0,1,.065-2.627,3.829,3.829,0,0,1,.971-.105q33.042-.008,66.083,0a3.576,3.576,0,0,1,.969.114,1.375,1.375,0,0,1,.083,2.6,3.23,3.23,0,0,1-1.043.146q-16.561.011-33.123,0" transform="translate(-5.394 -62.048)" fill="#e29e09"/>
        <path id="Path_660" data-name="Path 660" d="M46.947,68.837H35.787v.971q0,10.738,0,21.476a11.514,11.514,0,0,1-.036,1.391A1.415,1.415,0,0,1,34.33,93.99a1.453,1.453,0,0,1-1.4-1.357,5.392,5.392,0,0,1-.015-.655q0-11.394,0-22.788a2.853,2.853,0,0,1,3.169-3.2q5.247-.013,10.493,0a2.842,2.842,0,0,1,3.19,3.17q0,11.477-.005,22.952a2.9,2.9,0,0,1-.154,1.037,1.249,1.249,0,0,1-1.446.811,1.271,1.271,0,0,1-1.181-1.169,7.983,7.983,0,0,1-.036-.982q0-11.025,0-22.051v-.918" transform="translate(-16.158 -32.388)" fill="#e29e09"/>
        <path id="Path_661" data-name="Path 661" d="M71.486,74.292c0-1.8-.012-3.609,0-5.412a2.72,2.72,0,0,1,2.862-2.895q2.746-.037,5.494,0a2.7,2.7,0,0,1,2.822,2.852q.029,5.535,0,11.071a2.712,2.712,0,0,1-2.822,2.856q-2.787.047-5.576,0a2.694,2.694,0,0,1-2.778-2.809c-.023-1.886-.005-3.772-.007-5.658m2.859,5.6H79.83V68.826H74.345Z" transform="translate(-35.088 -32.381)" fill="#e29e09"/>
        <path id="Path_662" data-name="Path 662" d="M16.52,79.976V68.8h-.785c-1.12,0-2.241.02-3.36-.01a1.4,1.4,0,0,1-1.4-1.331,1.3,1.3,0,0,1,1.177-1.426c1.664-.045,3.334-.067,5,.024a2.606,2.606,0,0,1,2.173,2.165,6.045,6.045,0,0,1,.073.979q.008,5.163,0,10.326c-.006,2.211-1.055,3.249-3.267,3.255-1.2,0-2.4.014-3.606-.006a1.387,1.387,0,0,1-1.548-1.42,1.441,1.441,0,0,1,1.6-1.381c1.282-.011,2.564,0,3.942,0" transform="translate(-5.387 -32.396)" fill="#e29e09"/>
      </g>
    </g>
  </g>
</svg>
