<svg xmlns="http://www.w3.org/2000/svg" xmlns:xlink="http://www.w3.org/1999/xlink" width="140" height="140" viewBox="0 0 140 140">
  <defs>
    <clipPath id="clip-path">
      <rect id="Rectangle_219" data-name="Rectangle 219" width="80.783" height="90.515" fill="#91ad27"/>
    </clipPath>
  </defs>
  <g id="Group_393" data-name="Group 393" transform="translate(-356 -1127)">
    <g id="Ellipse_23" data-name="Ellipse 23" transform="translate(356 1127)" fill="none" stroke="#91ad27" stroke-width="2">
      <circle cx="70" cy="70" r="70" stroke="none"/>
      <circle cx="70" cy="70" r="69" fill="none"/>
    </g>
    <g id="Group_170" data-name="Group 170" transform="translate(386 1152)">
      <g id="Group_244" data-name="Group 244" clip-path="url(#clip-path)">
        <path id="Path_646" data-name="Path 646" d="M85.51,88.664H59.6c0,.9.01,1.762,0,2.623a1.956,1.956,0,0,1-2.179,2.189q-1.969.025-3.939,0a1.873,1.873,0,0,1-1.911-1.364c-1.255-3.862-2.846-7.637-3.122-11.759-.059-.872-.1-1.748-.1-2.621q-.012-17.074-.007-34.147c0-3.187,1.749-5.129,4.919-5.37a208.9,208.9,0,0,1,25.318-.831c4.5.2,9.006.506,13.5.866,3.012.241,4.7,2.22,4.7,5.251,0,11.079-.033,22.159.016,33.238a31.838,31.838,0,0,1-1.81,11.089c-.491,1.359-.93,2.736-1.372,4.112a2.014,2.014,0,0,1-2.1,1.545c-1.313,0-2.626.019-3.939-.007a1.932,1.932,0,0,1-2.059-2.1c-.018-.869,0-1.74,0-2.706M56.417,90.255c0-.611-.011-1.113,0-1.614a3.157,3.157,0,0,1,3.214-3.19q12.924-.023,25.849,0a3.146,3.146,0,0,1,3.205,3.2c.014.525,0,1.05,0,1.646a9.3,9.3,0,0,0,1.533-.022,1.045,1.045,0,0,0,.72-.5c1.3-3.714,2.651-7.416,2.649-11.435q-.009-17.421,0-34.843c0-1.4-.513-2.01-1.891-2.1-4.969-.312-9.938-.653-14.911-.861a203.422,203.422,0,0,0-23.29.849c-1.486.108-1.98.682-1.981,2.221,0,10.2.108,20.4-.048,30.6a39.528,39.528,0,0,0,2.453,15.021c.323.839.69,1.225,1.574,1.071a8.331,8.331,0,0,1,.921-.049" transform="translate(-32.174 -24.801)" fill="#91ad27"/>
        <path id="Path_647" data-name="Path 647" d="M0,42.094C-.024,22.13,12.428,5.986,30.243,1.31a40.345,40.345,0,0,1,49.474,30.2C82.7,45.155,79.38,57.3,70.148,67.8c-1.073,1.22-2.506,1.11-2.977-.2a1.855,1.855,0,0,1,.654-1.981A37.208,37.208,0,1,0,3.891,33.412c-2.271,11.939.777,22.6,8.7,31.835.219.255.465.49.669.756a1.582,1.582,0,0,1-.117,2.264A1.513,1.513,0,0,1,10.9,68.1a56.874,56.874,0,0,1-3.616-4.47A38.993,38.993,0,0,1,0,42.094" transform="translate(0 0)" fill="#91ad27"/>
        <path id="Path_648" data-name="Path 648" d="M53.218,210.753H82.08c-.09-.3-.169-.55-.237-.8a1.46,1.46,0,0,1,.824-1.844,1.481,1.481,0,0,1,1.966.493,3.829,3.829,0,0,1,.354.609q4.409,8.448,8.808,16.9c.182.35.459.8.367,1.112a2.53,2.53,0,0,1-.918,1.483c-.406.21-1.1-.081-1.647-.231a.835.835,0,0,1-.417-.541c-.485-1.8-1.761-1.926-3.382-1.919q-20.695.088-41.39.013c-.913,0-1.537.169-1.841,1.1a4.119,4.119,0,0,1-.634,1.141,1.515,1.515,0,0,1-2.068.406,1.5,1.5,0,0,1-.655-1.922,5.43,5.43,0,0,1,.3-.638q4.409-8.447,8.823-16.892a3.428,3.428,0,0,1,.474-.769,1.474,1.474,0,0,1,1.836-.359,1.5,1.5,0,0,1,.873,1.75,6.752,6.752,0,0,1-.3.908m-6.352,12.032H88.451c-.342-.677-.662-1.218-.9-1.795a1.454,1.454,0,0,0-1.6-.994c-4.408.049-8.817.022-13.225.023q-11.762,0-23.523.019a1.5,1.5,0,0,0-1.1.415,20.343,20.343,0,0,0-1.245,2.331M50,216.769H85.332a25.06,25.06,0,0,0-1.19-2.222,1.318,1.318,0,0,0-.928-.533q-15.552-.043-31.1-.011a1.114,1.114,0,0,0-.83.364c-.46.73-.822,1.52-1.282,2.4" transform="translate(-27.351 -138.406)" fill="#91ad27"/>
        <path id="Path_649" data-name="Path 649" d="M82.3,84.511q-7.675,0-15.351,0c-2.558,0-3.516-.978-3.516-3.548q0-10.506,0-21.011c0-2.757,1.423-4.356,4.135-4.622a152.227,152.227,0,0,1,30.035.035,4.07,4.07,0,0,1,3.739,3.965q.062,11.212,0,22.425c-.007,1.694-1.21,2.728-3.089,2.748-3.063.033-6.127.012-9.19.013H82.3ZM65.846,77.176H98.91V64.33H65.846ZM98.99,61.824c0-.757.016-1.424,0-2.089a1.831,1.831,0,0,0-1.907-2.02c-3.591-.251-7.188-.663-10.779-.63-6.22.058-12.438.4-18.656.63a1.712,1.712,0,0,0-1.8,1.579,20.782,20.782,0,0,0-.021,2.53Zm-.08,17.9H65.889c-.284,2.388-.284,2.4,2.006,2.4q14.5.008,28.992.01c2.29,0,2.29.015,2.023-2.407" transform="translate(-42.223 -36.348)" fill="#91ad27"/>
        <path id="Path_650" data-name="Path 650" d="M145.267,156.124c-1.042,0-2.084.021-3.125,0a2.393,2.393,0,0,1-2.188-3.721,5.615,5.615,0,0,1,4.916-3.336c1.676-.091,3.361-.105,5.038-.037a2.333,2.333,0,0,1,2.09,3.446c-.013.031-.034.058-.047.089-1.6,3.556-1.627,3.572-5.473,3.565-.4,0-.806,0-1.21,0m-3.254-2.377c2.188,0,4.23.008,6.273-.013a.762.762,0,0,0,.566-.3c.352-.629.644-1.292.958-1.939-1.866,0-3.608-.112-5.327.039a2.992,2.992,0,0,0-2.47,2.217" transform="translate(-92.917 -99.174)" fill="#91ad27"/>
        <path id="Path_651" data-name="Path 651" d="M71.249,156.121c-1.008,0-2.016-.019-3.024,0a2.643,2.643,0,0,1-2.7-1.7c-.3-.674-.68-1.312-.973-1.989a2.3,2.3,0,0,1,2.022-3.4,39.6,39.6,0,0,1,5.535.079,5.523,5.523,0,0,1,4.705,3.765,2.347,2.347,0,0,1-2.238,3.233c-.57.03-1.142.01-1.713.011q-.806,0-1.613,0m-4.463-4.636c.811,2.279.811,2.277,3.024,2.263.872-.005,1.744,0,2.616,0H74.56a3.072,3.072,0,0,0-2.491-2.222c-1.718-.149-3.459-.039-5.283-.039" transform="translate(-42.805 -99.17)" fill="#91ad27"/>
        <path id="Path_652" data-name="Path 652" d="M131.12,89.257a8.536,8.536,0,0,1-.451,1.018c-.649,1.02-1.321,2.026-1.981,3.039-.444.682-1.043,1.024-1.781.542s-.684-1.148-.22-1.839c.712-1.059,1.345-2.178,2.133-3.176a1.686,1.686,0,0,1,1.354-.493c.361.055.648.6.946.909" transform="translate(-84.105 -58.803)" fill="#91ad27"/>
        <path id="Path_653" data-name="Path 653" d="M96.68,106.907c-1.138.021-1.706-.9-1.2-1.773.641-1.1,1.368-2.159,2.1-3.206a1.093,1.093,0,0,1,1.6-.3,1.019,1.019,0,0,1,.389,1.488q-1.057,1.716-2.213,3.37c-.168.24-.54.338-.677.418" transform="translate(-63.435 -67.504)" fill="#91ad27"/>
        <path id="Path_654" data-name="Path 654" d="M110.1,86.97c1.069.033,1.618.847,1.231,1.638a11.083,11.083,0,0,1-1.247,1.926.959.959,0,0,1-1.493.185,1.758,1.758,0,0,1-.384-1.453,6.3,6.3,0,0,1,1.166-1.847,2.1,2.1,0,0,1,.727-.449" transform="translate(-72.004 -57.893)" fill="#91ad27"/>
        <path id="Path_655" data-name="Path 655" d="M121.26,108.976a27.453,27.453,0,0,1-1.965,2.459c-.171.175-.925.053-1.158-.183a1.422,1.422,0,0,1-.326-1.235,6.046,6.046,0,0,1,1.243-1.929,1.485,1.485,0,0,1,1.277-.193c.327.1.531.592.929,1.081" transform="translate(-78.394 -71.782)" fill="#91ad27"/>
      </g>
    </g>
  </g>
</svg>
