<svg xmlns="http://www.w3.org/2000/svg" xmlns:xlink="http://www.w3.org/1999/xlink" width="140" height="140" viewBox="0 0 140 140">
  <defs>
    <clipPath id="clip-path">
      <rect id="Rectangle_886" data-name="Rectangle 886" width="98" height="59.733" fill="#f0447d"/>
    </clipPath>
  </defs>
  <g id="Group_396" data-name="Group 396" transform="translate(-1239 -1127)">
    <g id="Ellipse_26" data-name="Ellipse 26" transform="translate(1239 1127)" fill="none" stroke="#f0447d" stroke-width="3">
      <circle cx="70" cy="70" r="70" stroke="none"/>
      <circle cx="70" cy="70" r="68.5" fill="none"/>
    </g>
    <g id="Group_386" data-name="Group 386" transform="translate(1260 1167)">
      <g id="Group_385" data-name="Group 385" clip-path="url(#clip-path)">
        <path id="Path_1129" data-name="Path 1129" d="M98,6.921a2.074,2.074,0,0,1-2.011.982c-1.587-.061-3.178-.017-4.823-.017v9.7c.274.018.548.042.821.054a3.1,3.1,0,0,1,2.96,3.029c.231,3.43-.968,4.769-4.523,4.653-4.523-.148-9.055-.033-13.584-.037a3.041,3.041,0,0,1-3.331-3.311c0-.478-.012-.957.006-1.435A3.047,3.047,0,0,1,76.4,17.646c.279-.014.559,0,.885,0,.021-.261.049-.445.049-.628,0-2.641,0-5.282,0-8.068-1.5.167-2.913.289-4.315.489q-2.882.413-5.745.945a.97.97,0,0,0-.631.675c-.032,4.91-.019,9.821-.011,14.732a.953.953,0,0,0,.087.236c.284.012.593.021.9.041a3.091,3.091,0,0,1,2.823,2.865c.238,3.405-.714,4.939-4.548,4.813-4.459-.147-8.928-.034-13.392-.037-2.34,0-3.494-1.166-3.485-3.538a7.724,7.724,0,0,1,.124-1.895c.391-1.489,1.467-2.128,3.628-2.252V14.482c-.021-.01-.088-.072-.124-.057a23.623,23.623,0,0,0-8.005,4.912c-3.363,3.309-4.061,7.35-2.038,11.731a29.184,29.184,0,0,0,6.351,8.313c5.051,5,10.157,9.954,15.222,14.945A3.057,3.057,0,0,1,63.069,59.6a3.575,3.575,0,0,1-1.034.124q-28.7.008-57.4,0a2.975,2.975,0,0,1-3.281-2.567C-1.513,44.363-.066,32.338,8,21.593A43.336,43.336,0,0,1,23.224,9.217,78.812,78.812,0,0,1,46.242,1.96,153.054,153.054,0,0,1,77.108.1c6.365.2,12.718.8,19.079,1.2A2.2,2.2,0,0,1,98,2.328ZM94.907,4.763l.07-.251a2.556,2.556,0,0,0-.694-.271c-3.813-.283-7.626-.591-11.443-.808A159.546,159.546,0,0,0,45.586,5.2a71.144,71.144,0,0,0-22.248,7.448c-6.451,3.573-11.864,8.273-15.512,14.775-5,8.907-5.713,18.394-3.687,28.24.173.843.507,1.038,1.313,1.034,7.527-.03,15.053-.018,22.579-.019h.921c-.1-.224-.147-.336-.2-.439-.583-1.023-.474-1.82.322-2.337s1.561-.288,2.284.656c.368.481.76.947,1.091,1.452a1.408,1.408,0,0,0,1.338.685q13.681-.035,27.362-.018c.265,0,.53-.038.795-.058l.119-.22a7.494,7.494,0,0,1-.758-.577c-4.833-4.727-9.677-9.443-14.483-14.2a34.364,34.364,0,0,1-6.69-8.55c-3.2-6.214-2.015-12.316,3.289-16.862a28.95,28.95,0,0,1,8.053-4.7A78.7,78.7,0,0,1,69.442,6.876a170.4,170.4,0,0,1,19.3-1.868q3.084-.118,6.168-.245m-31.4,6.254c-2.427.684-4.772,1.334-7.106,2.021a.8.8,0,0,0-.481.554c-.043,1.323-.022,2.647-.022,3.988h7.609ZM55.946,25.993h7.537V20.748H55.946ZM88.014,8.1l-7.549.522v2.815h7.549Zm0,6.544H80.441v2.94h7.574Zm3.819,6.111H76.638v1.432H91.833ZM52.115,30.6H67.328v-1.45H52.115Z" transform="translate(0 0)" fill="#f0447d"/>
        <path id="Path_1130" data-name="Path 1130" d="M50.277,92.079a1.485,1.485,0,0,1-1.115,1.55,1.408,1.408,0,0,1-1.768-.757c-.945-1.868-1.836-3.763-2.727-5.657a14,14,0,0,1-.649-1.688,1.531,1.531,0,0,1,.884-1.958,1.477,1.477,0,0,1,1.927.762c1.123,2.381,2.213,4.776,3.307,7.17a2.81,2.81,0,0,1,.142.578" transform="translate(-22.26 -42.287)" fill="#f0447d"/>
        <path id="Path_1131" data-name="Path 1131" d="M69.432,24.8a5.9,5.9,0,0,1-1.218-1.219,1.225,1.225,0,0,1,.562-1.726Q72.6,20.038,76.5,18.392a1.3,1.3,0,0,1,1.667.764,1.423,1.423,0,0,1-.361,1.886,4,4,0,0,1-.923.48q-3.037,1.36-6.08,2.708c-.37.164-.747.311-1.368.569" transform="translate(-34.483 -9.27)" fill="#f0447d"/>
        <path id="Path_1132" data-name="Path 1132" d="M55.187,33.535a6.681,6.681,0,0,1-1,1.37,23.175,23.175,0,0,0-4.778,5.052,1.546,1.546,0,0,1-2.3.576,1.6,1.6,0,0,1-.218-2.366,21.484,21.484,0,0,1,5.474-5.685,2.286,2.286,0,0,1,1.738-.194c.406.12.664.74,1.077,1.247" transform="translate(-23.554 -16.317)" fill="#f0447d"/>
        <path id="Path_1133" data-name="Path 1133" d="M40.2,60.941c.179-1.237.39-2.9.672-4.552a1.389,1.389,0,0,1,1.5-1.2,1.472,1.472,0,0,1,1.468,1.137,1.253,1.253,0,0,1,.044.655,20.727,20.727,0,0,0-.322,7.288,1.484,1.484,0,0,1-1.1,1.763,1.522,1.522,0,0,1-1.947-1.417c-.121-1.071-.184-2.149-.31-3.674" transform="translate(-20.371 -27.965)" fill="#f0447d"/>
        <path id="Path_1134" data-name="Path 1134" d="M101.724,14.3a1.4,1.4,0,0,1-1.123,1.2c-1.215.351-2.439.678-3.672.956a1.532,1.532,0,0,1-1.908-1.128A1.5,1.5,0,0,1,96.2,13.469c1.154-.334,2.316-.645,3.486-.917a1.59,1.59,0,0,1,2.034,1.752" transform="translate(-48.124 -6.332)" fill="#f0447d"/>
      </g>
    </g>
  </g>
</svg>
