<svg xmlns="http://www.w3.org/2000/svg" xmlns:xlink="http://www.w3.org/1999/xlink" width="140" height="140" viewBox="0 0 140 140">
  <defs>
    <clipPath id="clip-path">
      <rect id="Rectangle_284" data-name="Rectangle 284" width="93.638" height="71.872" fill="#f0447d"/>
    </clipPath>
  </defs>
  <g id="Group_392" data-name="Group 392" transform="translate(-61 -1127)">
    <g id="Ellipse_22" data-name="Ellipse 22" transform="translate(61 1127)" fill="none" stroke="#f0447d" stroke-width="2">
      <circle cx="70" cy="70" r="70" stroke="none"/>
      <circle cx="70" cy="70" r="69" fill="none"/>
    </g>
    <g id="Group_320" data-name="Group 320" transform="translate(84 1161)">
      <g id="Group_319" data-name="Group 319" clip-path="url(#clip-path)">
        <path id="Path_665" data-name="Path 665" d="M30.063,12.483V34.107H27.149V3.005c-.859,0-1.591-.04-2.313.026a.819.819,0,0,0-.538.541,6.438,6.438,0,0,0-.038,1.312q0,14.086,0,28.171c0,.33-.03.66-.053,1.116h-2.36c-.705,0-.569-.527-.57-.942q-.009-4.56,0-9.12,0-4.965,0-9.931V12.938a5.93,5.93,0,0,0-.455.538,34.052,34.052,0,0,1-5.824,7.239,2.154,2.154,0,0,0-.532,1.406c-.044,3.614-.024,7.229-.024,10.843v1.206a18.793,18.793,0,0,1-2.442-.04c-.216-.03-.518-.54-.522-.834-.04-2.77-.024-5.539-.025-8.309V23.557A25.43,25.43,0,0,1,3.226,27.1c-.217-.93-.428-1.838-.657-2.817.611-.188,1.2-.323,1.754-.547C13.368,20.091,19.1,13.6,21.152,4a12.294,12.294,0,0,0,.1-2.119C21.3.548,21.8.028,23.1.014q2.585-.028,5.169,0c1.306.013,1.785.521,1.832,1.869.317,9.111,7.277,16.3,16.664,17.207A18.25,18.25,0,0,0,66.183,5.347a25.866,25.866,0,0,0,.446-3.509c.115-1.317.577-1.812,1.9-1.825q2.585-.024,5.169,0c1.154.011,1.748.505,1.792,1.608.3,7.573,4.139,13.241,9.679,17.972a22.005,22.005,0,0,0,9.057,4.65l-.6,2.855a24.633,24.633,0,0,1-8.3-3.587v1.378c0,2.77-.02,5.54.014,8.309.009.735-.2,1.06-.969,1-.63-.052-1.269-.011-2.041-.011V32.859c0-3.614.013-7.229-.013-10.843a1.785,1.785,0,0,0-.356-1.187,40.134,40.134,0,0,1-6.413-7.786V34.079H72.505V3.066H69.686V34.079H66.719V12.2a6.942,6.942,0,0,0-.6.629,20.237,20.237,0,0,1-5.567,5.54,1.468,1.468,0,0,0-.721,1.411c.026,4.357.013,8.715.013,13.072v1.314c-.9,0-1.671.009-2.439,0-.708-.01-.546-.56-.547-.963q-.014-5.725-.006-11.451c0-.368,0-.737,0-1.123l-6.9,1.647V34.093H47V22.3l-6.938-1.584V34.089h-3v-1.2c0-4.324-.014-8.647.018-12.971a1.516,1.516,0,0,0-.787-1.464,20.153,20.153,0,0,1-5.548-5.417c-.148-.212-.308-.416-.461-.623l-.223.067" transform="translate(-1.58 0)" fill="#f0447d"/>
        <path id="Path_666" data-name="Path 666" d="M30.171,115.417v11.038H27.2v-11.1a17.429,17.429,0,0,0-2.374.042c-.2.028-.463.571-.467.88-.035,3.006-.022,6.012-.022,9.018v1.157H21.37V115.376H2.7v-2.952h91.5V115.3H75.589v11.153H72.644c-.02-.349-.059-.7-.059-1.06,0-3.006-.024-6.013.01-9.018.009-.766-.177-1.135-1.012-1.045a18.168,18.168,0,0,1-1.836.012v11.121H66.787V115.417Z" transform="translate(-1.664 -69.155)" fill="#f0447d"/>
        <path id="Path_667" data-name="Path 667" d="M84.271,158.461a11.933,11.933,0,0,1-6.6-1.971,1.242,1.242,0,0,0-1.528-.026c-4.6,2.634-9.2,2.765-13.8-.059a1.465,1.465,0,0,0-1.233.074,12.866,12.866,0,0,1-11.09,1.258c-.944-.335-1.793-.93-2.722-1.32a1.494,1.494,0,0,0-1.152-.012c-4.715,2.689-9.388,2.864-14.082-.06a1.392,1.392,0,0,0-1.144.133c-4.242,2.393-8.578,2.812-12.918.415a2.735,2.735,0,0,0-3.049-.028,12.267,12.267,0,0,1-13.227-.64,8.738,8.738,0,0,1-.959-.744c-.865-.76-1-1.574-.4-2.288s1.449-.7,2.321.013a9.363,9.363,0,0,0,7.248,2.2,11.683,11.683,0,0,0,5.211-2.084c1.351-.905,1.606-.873,2.937.116a9.389,9.389,0,0,0,10.024,1.088,22.462,22.462,0,0,0,2.621-1.52,1.578,1.578,0,0,1,2.049.075c3.609,3.123,8.294,3.114,12.36.4,1.7-1.133,1.694-1.1,3.347.092a9.305,9.305,0,0,0,9.4,1.137,14.467,14.467,0,0,0,2.236-1.17c1.836-1.135,1.812-1.131,3.519.079a9.216,9.216,0,0,0,9.4,1.048,21.615,21.615,0,0,0,2.907-1.623,1.692,1.692,0,0,1,2.137.056c3.908,2.978,7.846,3.167,12.023.6.4-.247.78-.536,1.19-.77a1.486,1.486,0,0,1,2.063.375,1.436,1.436,0,0,1-.383,2.055,14.3,14.3,0,0,1-8.706,3.1" transform="translate(0 -93.903)" fill="#f0447d"/>
        <path id="Path_668" data-name="Path 668" d="M84.271,177.379a11.932,11.932,0,0,1-6.6-1.971,1.242,1.242,0,0,0-1.528-.026c-4.6,2.634-9.2,2.765-13.8-.059a1.465,1.465,0,0,0-1.233.073,12.866,12.866,0,0,1-11.09,1.258c-.944-.335-1.793-.93-2.722-1.32a1.494,1.494,0,0,0-1.152-.012c-4.715,2.689-9.388,2.864-14.082-.06a1.392,1.392,0,0,0-1.144.133c-4.242,2.393-8.578,2.812-12.918.415a2.734,2.734,0,0,0-3.049-.028,12.267,12.267,0,0,1-13.227-.64,8.734,8.734,0,0,1-.959-.744c-.865-.76-1-1.574-.4-2.288s1.449-.7,2.321.013a9.363,9.363,0,0,0,7.248,2.2,11.684,11.684,0,0,0,5.211-2.084c1.351-.906,1.606-.873,2.937.116a9.389,9.389,0,0,0,10.024,1.088,22.466,22.466,0,0,0,2.621-1.52,1.578,1.578,0,0,1,2.049.075c3.609,3.123,8.294,3.114,12.36.4,1.7-1.133,1.694-1.1,3.347.092a9.306,9.306,0,0,0,9.4,1.137,14.467,14.467,0,0,0,2.236-1.17c1.836-1.135,1.812-1.131,3.519.079a9.216,9.216,0,0,0,9.4,1.048,21.615,21.615,0,0,0,2.907-1.623,1.692,1.692,0,0,1,2.137.056c3.908,2.978,7.846,3.167,12.023.6.4-.247.78-.536,1.19-.77a1.486,1.486,0,0,1,2.063.375,1.436,1.436,0,0,1-.383,2.055,14.3,14.3,0,0,1-8.706,3.1" transform="translate(0 -105.54)" fill="#f0447d"/>
        <rect id="Rectangle_283" data-name="Rectangle 283" width="91.562" height="2.877" transform="translate(1.016 37.435)" fill="#f0447d"/>
      </g>
    </g>
  </g>
</svg>
