<?xml version="1.0" encoding="UTF-8"?>
<svg id="Layer_1" data-name="Layer 1" xmlns="http://www.w3.org/2000/svg" viewBox="0 0 140 140">
  <defs>
    <style>
      .cls-1 {
        fill: #efefef;
      }

      .cls-2 {
        fill: #3d5064;
      }
    </style>
  </defs>
  <circle class="cls-1" cx="70" cy="70" r="68.65"/>
  <g id="Group_319" data-name="Group 319">
    <path id="Path_665" data-name="Path 665" class="cls-2" d="m51.67,46.55v21.62h-2.91v-31.1c-.86,0-1.59-.04-2.31.03-.26.08-.46.28-.54.54-.06.43-.07.87-.04,1.31v28.17c0,.33-.03.66-.05,1.12h-2.36c-.7,0-.57-.53-.57-.94,0-3.04,0-6.08,0-9.12v-11.17c-.16.17-.31.35-.45.54-1.6,2.67-3.56,5.1-5.82,7.24-.34.39-.53.89-.53,1.41-.04,3.61-.02,7.23-.02,10.84v1.21c-.81.04-1.63.03-2.44-.04-.22-.03-.52-.54-.52-.83-.04-2.77-.02-5.54-.02-8.31v-1.43c-2.51,1.66-5.3,2.86-8.23,3.54-.22-.93-.43-1.84-.66-2.82.61-.19,1.2-.32,1.75-.55,9.05-3.65,14.78-10.14,16.83-19.74.09-.7.13-1.41.1-2.12.05-1.33.55-1.85,1.85-1.87,1.72-.02,3.45-.02,5.17,0,1.31.01,1.78.52,1.83,1.87.32,9.11,7.28,16.3,16.66,17.21,8.98.85,17.23-4.99,19.42-13.74.23-1.16.38-2.33.45-3.51.11-1.32.58-1.81,1.9-1.83,1.72-.02,3.45-.02,5.17,0,1.15.01,1.75.5,1.79,1.61.3,7.57,4.14,13.24,9.68,17.97,2.61,2.24,5.72,3.83,9.06,4.65l-.6,2.85c-2.96-.67-5.78-1.89-8.3-3.59v1.38c0,2.77-.02,5.54.01,8.31,0,.74-.2,1.06-.97,1-.63-.05-1.27-.01-2.04-.01v-1.33c0-3.61.01-7.23-.01-10.84.03-.43-.1-.85-.36-1.19-2.46-2.32-4.61-4.93-6.41-7.79v21.04h-3.04v-31.01h-2.82v31.01h-2.97v-21.88c-.21.2-.41.41-.6.63-1.48,2.19-3.37,4.07-5.57,5.54-.5.29-.78.84-.72,1.41.03,4.36.01,8.72.01,13.07v1.31c-.9,0-1.67,0-2.44,0-.71,0-.55-.56-.55-.96,0-3.82-.01-7.63,0-11.45v-1.12l-6.9,1.65v11.82h-2.95v-11.79l-6.94-1.58v13.37h-3v-1.2c0-4.32-.01-8.65.02-12.97.05-.6-.26-1.18-.79-1.46-2.18-1.43-4.07-3.27-5.55-5.42-.15-.21-.31-.42-.46-.62l-.22.07"/>
    <path id="Path_666" data-name="Path 666" class="cls-2" d="m51.69,80.32v11.04h-2.97v-11.1c-.79-.04-1.58-.03-2.37.04-.2.03-.46.57-.47.88-.03,3.01-.02,6.01-.02,9.02v1.16h-2.97v-11.08h-18.67v-2.95h91.5v2.88h-18.61v11.15h-2.94c-.02-.35-.06-.7-.06-1.06,0-3.01-.02-6.01.01-9.02,0-.77-.18-1.14-1.01-1.04-.61.03-1.22.04-1.84.01v11.12h-2.96v-11.05h-36.62Z"/>
    <path id="Path_667" data-name="Path 667" class="cls-2" d="m107.45,98.62c-2.35,0-4.64-.68-6.6-1.97-.44-.36-1.07-.37-1.53-.03-4.6,2.63-9.2,2.76-13.8-.06-.4-.16-.85-.13-1.23.07-3.31,2.08-7.39,2.55-11.09,1.26-.94-.34-1.79-.93-2.72-1.32-.37-.16-.78-.16-1.15-.01-4.72,2.69-9.39,2.86-14.08-.06-.38-.12-.8-.07-1.14.13-4.24,2.39-8.58,2.81-12.92.41-.92-.63-2.12-.64-3.05-.03-4.16,2.39-9.32,2.14-13.23-.64-.34-.23-.66-.47-.96-.74-.87-.76-1-1.57-.4-2.29s1.45-.7,2.32.01c2,1.72,4.63,2.52,7.25,2.2,1.88-.26,3.67-.98,5.21-2.08,1.35-.9,1.61-.87,2.94.12,2.85,2.28,6.75,2.7,10.02,1.09.91-.45,1.78-.95,2.62-1.52.61-.48,1.48-.45,2.05.07,3.61,3.12,8.29,3.11,12.36.4,1.7-1.13,1.69-1.1,3.35.09,2.69,2.06,6.29,2.5,9.4,1.14.78-.32,1.53-.72,2.24-1.17,1.84-1.13,1.81-1.13,3.52.08,2.7,2.05,6.31,2.46,9.4,1.05,1.01-.47,1.98-1.01,2.91-1.62.64-.49,1.53-.47,2.14.06,3.91,2.98,7.85,3.17,12.02.6.4-.25.78-.54,1.19-.77.67-.46,1.6-.3,2.06.38.47.64.33,1.54-.31,2.01-.02.02-.05.03-.07.05-2.48,1.97-5.54,3.06-8.71,3.1"/>
    <path id="Path_668" data-name="Path 668" class="cls-2" d="m107.45,105.9c-2.35,0-4.64-.68-6.6-1.97-.44-.36-1.07-.37-1.53-.03-4.6,2.63-9.2,2.76-13.8-.06-.4-.16-.85-.13-1.23.07-3.31,2.08-7.39,2.55-11.09,1.26-.94-.34-1.79-.93-2.72-1.32-.37-.16-.78-.16-1.15-.01-4.72,2.69-9.39,2.86-14.08-.06-.38-.12-.8-.07-1.14.13-4.24,2.39-8.58,2.81-12.92.41-.92-.63-2.12-.64-3.05-.03-4.16,2.39-9.32,2.14-13.23-.64-.34-.23-.66-.47-.96-.74-.87-.76-1-1.57-.4-2.29s1.45-.7,2.32.01c2,1.72,4.63,2.52,7.25,2.2,1.88-.26,3.67-.98,5.21-2.08,1.35-.91,1.61-.87,2.94.12,2.85,2.28,6.75,2.7,10.02,1.09.91-.45,1.78-.95,2.62-1.52.61-.48,1.48-.45,2.05.07,3.61,3.12,8.29,3.11,12.36.4,1.7-1.13,1.69-1.1,3.35.09,2.69,2.06,6.29,2.5,9.4,1.14.78-.32,1.53-.72,2.24-1.17,1.84-1.13,1.81-1.13,3.52.08,2.7,2.05,6.31,2.46,9.4,1.05,1.01-.47,1.98-1.01,2.91-1.62.64-.49,1.53-.47,2.14.06,3.91,2.98,7.85,3.17,12.02.6.4-.25.78-.54,1.19-.77.67-.46,1.6-.3,2.06.38.47.64.33,1.54-.31,2.01-.02.02-.05.03-.07.05-2.48,1.97-5.54,3.06-8.71,3.1"/>
    <rect id="Rectangle_283" data-name="Rectangle 283" class="cls-2" x="24.2" y="71.5" width="91.56" height="2.88"/>
  </g>
</svg>